<?xml version="1.0" encoding="utf-8"?>
<!-- Generator: Adobe Illustrator 19.0.0, SVG Export Plug-In . SVG Version: 6.00 Build 0)  -->
<svg version="1.1" id="Calque_1" xmlns="http://www.w3.org/2000/svg" xmlns:xlink="http://www.w3.org/1999/xlink" x="0px" y="0px"
	 viewBox="0 0 180 180" style="enable-background:new 0 0 180 180;" xml:space="preserve">
<style type="text/css">
	.st0{fill:#FFFFFF;}
	.st1{fill:#1F1F1F;}
</style>
<g id="XMLID_33_">
	<path id="XMLID_3_" class="st1" d="M90.2,25.9c-36.2,0-65.5,29.3-65.5,65.5c0,36.2,29.3,65.5,65.5,65.5c36.2,0,65.5-29.3,65.5-65.5
		C155.7,55.3,126.4,25.9,90.2,25.9z"/>
	<g id="XMLID_34_">
		<path id="XMLID_53_" class="st0" d="M109,127.8c-4.9-0.2-9.2-2-13.5-3.8c-18.4-7.9-31.4-21.1-38.8-39.8c-1.4-3.5-2.8-7-2.8-10.8
			c-0.1-6.1,1.9-11.5,6.3-15.7c2.5-2.4,5.9-2.8,9.2-2.7c0.7,0,1.7,0.9,2.1,1.6c1.7,2.7,3.2,5.5,4.8,8.2c1,1.8,2.1,3.6,3.2,5.4
			c1.1,1.9,1,3-0.5,4.5c-1.4,1.4-3,2.7-4.6,4c-4.1,3.4-4.1,3.9-1.5,8.6c5.3,9.6,12.9,16.8,22.5,22c3,1.6,3.8,1.6,6.1-1
			c1.6-1.8,3.2-3.7,4.9-5.5c1.9-1.9,2.8-2,5.1-0.7c4.3,2.5,8.6,5,13,7.5c1.8,1,2.2,2.3,2,4.2c-0.5,7.1-5.1,10.5-11.2,12.5
			C113.2,127,111.1,127.4,109,127.8z"/>
	</g>
</g>
</svg>
