<?xml version="1.0" standalone="no"?>
<!DOCTYPE svg PUBLIC "-//W3C//DTD SVG 20010904//EN"
 "http://www.w3.org/TR/2001/REC-SVG-20010904/DTD/svg10.dtd">
<svg version="1.0" xmlns="http://www.w3.org/2000/svg"
 width="960.000000pt" height="640.000000pt" viewBox="0 0 960.000000 640.000000"
 preserveAspectRatio="xMidYMid meet">
<metadata>
Created by potrace 1.15, written by Peter Selinger 2001-2017
</metadata>
<g transform="translate(0.000000,640.000000) scale(0.100000,-0.100000)"
fill="#ffffff" stroke="none">
<path d="M8261 5295 c-2 -1061 -6 -1240 -29 -1268 -6 -7 -14 -31 -18 -53 -5
-36 -3 -44 26 -72 30 -30 32 -37 32 -105 0 -89 -8 -141 -22 -145 -5 -2 -10
-15 -10 -28 0 -15 -6 -24 -15 -24 -38 0 -58 -131 -31 -206 16 -48 69 -127 100
-151 15 -12 23 -29 23 -51 0 -29 -4 -33 -39 -42 -21 -6 -38 -15 -38 -20 0 -6
-7 -10 -15 -10 -12 0 -15 -14 -15 -69 0 -49 5 -74 15 -85 18 -18 19 -24 3 -59
-8 -16 -25 -31 -43 -36 -16 -5 -23 -10 -15 -10 13 -1 13 -2 0 -11 -8 -5 -12
-12 -8 -15 3 -3 127 -1 274 4 148 6 292 11 319 12 44 1 46 2 20 9 -16 4 -22 8
-12 9 12 1 17 10 17 32 0 17 4 28 10 24 6 -3 10 3 10 14 0 12 5 21 10 21 6 0
10 18 10 39 0 33 -4 40 -22 43 -30 4 -29 22 0 26 17 3 29 16 43 47 11 24 23
46 28 49 5 3 9 51 9 107 1 77 5 105 16 118 18 20 21 51 6 51 -7 0 -7 6 -1 18
5 10 12 55 16 100 6 88 -5 122 -37 122 -31 0 -20 31 36 96 l54 63 7 163 c4 90
4 307 1 483 -24 1205 -24 1305 3 1475 6 36 11 149 11 253 l0 187 -364 0 -363
0 -2 -1105z"/>
<path d="M2960 3706 c-55 -19 -145 -81 -275 -187 -161 -133 -499 -380 -564
-413 -16 -9 -50 -30 -75 -47 -57 -38 -303 -160 -399 -198 -165 -65 -386 -126
-592 -165 -142 -26 -358 -39 -566 -34 -110 3 -199 2 -199 -2 0 -4 6 -12 13
-18 23 -18 541 -280 687 -347 142 -66 382 -165 398 -165 5 0 17 8 28 18 10 10
33 24 51 31 17 7 41 23 54 37 12 13 29 24 36 24 8 0 16 6 19 14 3 8 23 21 43
30 33 13 38 18 34 40 -4 20 -1 26 13 26 9 0 25 -7 35 -16 12 -11 22 -13 36 -6
10 6 46 23 81 38 34 16 62 32 62 36 0 4 8 8 18 8 9 0 28 6 42 13 21 11 24 18
21 55 -4 64 16 88 81 95 29 3 73 16 98 29 31 15 61 22 97 22 46 -1 57 3 81 27
15 16 44 46 66 68 l38 38 -25 39 c-38 60 -42 80 -15 98 28 20 55 20 92 1 27
-14 34 -14 68 0 54 21 61 20 100 -20 32 -34 36 -35 68 -24 27 10 42 9 85 -6
49 -16 54 -16 78 0 25 16 27 16 64 -9 48 -33 59 -33 66 2 3 15 20 42 38 60 50
51 26 59 -64 21 -79 -33 -107 -33 -107 0 0 20 62 81 83 81 6 0 2 6 -9 14 -18
13 -20 23 -16 73 5 65 25 97 57 89 14 -4 31 5 57 31 31 30 35 39 27 55 -8 15
-5 27 16 54 14 19 23 39 20 45 -14 21 27 49 71 49 46 0 67 14 34 23 -11 3 -20
11 -20 19 0 10 3 9 11 -2 8 -11 12 -12 16 -2 2 6 10 12 18 12 7 0 13 11 13 26
0 32 16 44 60 44 30 0 32 2 26 25 -4 18 -2 25 9 25 8 0 18 7 21 16 7 17 -42
42 -188 93 -94 33 -158 38 -216 17z"/>
<path d="M4245 3670 c-3 -5 -14 -10 -24 -10 -28 0 -70 -24 -75 -42 -6 -26 -28
-22 -24 4 2 11 -3 23 -9 25 -7 3 -13 -2 -13 -11 0 -20 -14 -21 -30 -1 -19 23
-70 20 -70 -4 0 -10 -3 -33 -6 -50 l-6 -31 49 0 c27 0 54 -5 59 -10 8 -8 19 0
38 24 18 24 38 37 62 42 44 8 56 -3 56 -52 0 -26 3 -33 9 -23 4 9 26 28 49 44
l40 28 -38 38 c-37 39 -56 47 -67 29z"/>
<path d="M3773 3488 c1 -6 -9 -17 -21 -24 -17 -8 -20 -13 -10 -18 7 -3 -6 -4
-29 -2 -24 2 -43 1 -43 -4 0 -13 52 -18 77 -7 27 12 36 7 27 -17 -3 -9 -15
-16 -27 -16 -11 0 -28 -7 -37 -15 -14 -12 -23 -13 -49 -4 -23 8 -29 15 -22 22
16 16 14 25 -6 30 -17 4 -17 5 0 6 9 0 17 5 17 10 0 6 -13 5 -32 -1 -72 -22
-113 -27 -133 -14 -41 25 -74 35 -80 26 -4 -6 4 -14 17 -19 22 -9 22 -10 -7
-11 l-30 -1 24 -19 c16 -14 31 -18 50 -13 23 6 25 5 12 -10 -7 -10 -10 -17 -6
-17 4 0 2 -7 -5 -15 -6 -8 -9 -18 -6 -23 3 -6 -6 -13 -20 -16 -24 -6 -72 -49
-119 -104 l-19 -23 27 6 c34 9 35 -4 2 -35 -31 -29 -34 -70 -5 -70 11 0 20 6
20 13 0 6 8 21 16 32 14 18 16 19 25 3 8 -15 12 -15 49 5 34 19 42 20 49 8 8
-12 12 -12 25 -2 11 9 16 10 16 2 0 -19 39 -12 50 8 5 11 20 21 32 23 18 2 23
9 21 31 -2 27 0 28 25 22 38 -9 46 -20 27 -36 -33 -28 -50 -50 -50 -67 0 -9
-5 -16 -11 -15 -7 1 -10 -6 -7 -18 5 -18 2 -20 -14 -15 -17 5 -21 1 -27 -24
-3 -20 -10 -29 -17 -24 -6 3 -7 9 -3 13 17 12 14 31 -5 31 -16 0 -25 -17 -47
-87 -32 -105 -53 -148 -90 -188 -24 -26 -25 -30 -10 -33 13 -3 15 -7 5 -18 -9
-11 -8 -14 2 -14 9 -1 8 -5 -5 -15 -24 -18 -13 -20 17 -3 21 11 21 11 4 -13
-27 -38 -31 -50 -17 -59 8 -5 10 -17 7 -31 -3 -13 -2 -28 4 -35 7 -8 7 -14 0
-18 -6 -4 -6 -16 0 -35 12 -33 -2 -97 -19 -94 -6 2 -14 -6 -17 -17 -7 -23 -35
-16 -33 8 4 55 -11 68 -30 27 -22 -47 -31 -27 -26 56 3 68 2 80 -10 70 -7 -6
-16 -29 -19 -50 -2 -21 -15 -52 -27 -69 -12 -17 -20 -35 -16 -40 3 -6 2 -13
-4 -17 -5 -3 -10 -1 -10 4 0 6 -5 11 -11 11 -6 0 -9 -5 -7 -12 4 -12 -21 -48
-33 -48 -4 0 -5 9 -2 20 3 11 9 20 14 20 5 0 9 5 9 10 0 6 -11 3 -25 -7 -13
-10 -22 -24 -20 -31 3 -7 0 -23 -6 -34 -9 -16 -7 -24 10 -42 12 -12 21 -33 21
-45 0 -15 7 -25 20 -28 21 -6 40 -55 23 -60 -5 -2 7 -21 29 -42 34 -35 53 -71
28 -56 -11 7 -47 -13 -105 -56 -22 -16 -56 -41 -75 -54 l-36 -25 -87 25 c-48
14 -120 41 -160 60 -89 43 -212 143 -221 180 -4 15 -13 34 -21 41 -12 12 -17
11 -39 -11 -14 -14 -30 -25 -36 -25 -13 0 -13 -39 1 -78 9 -26 15 -31 33 -26
15 3 28 -2 40 -15 11 -12 25 -21 32 -21 8 0 21 -11 30 -25 9 -14 24 -25 33
-25 22 0 179 -56 195 -70 24 -19 117 -41 149 -35 29 5 30 5 15 -8 -26 -20 -22
-28 10 -21 44 9 82 26 82 35 0 12 37 11 45 -1 3 -5 17 -10 31 -10 13 0 24 -4
24 -9 0 -4 17 -20 38 -33 20 -14 52 -39 71 -57 18 -17 37 -31 41 -31 5 0 12
-9 15 -20 3 -11 12 -20 20 -20 7 0 15 -6 18 -12 5 -14 54 89 63 131 6 26 19
61 35 93 5 10 9 23 9 30 0 18 43 78 57 78 18 0 45 62 33 74 -5 5 -10 21 -10
33 0 17 -5 23 -17 21 -12 -2 -19 6 -24 27 -6 28 -7 29 -14 8 -8 -26 -22 -16
-49 34 -20 39 -22 63 -4 45 7 -7 24 -12 38 -12 32 0 65 -33 57 -55 -4 -8 -2
-15 3 -15 6 0 10 7 10 15 0 9 12 21 26 27 37 17 49 -6 24 -47 -10 -16 -20 -43
-22 -60 -2 -25 1 -31 21 -33 21 -3 23 -7 18 -43 -6 -47 9 -51 50 -13 23 21 29
23 31 10 4 -19 19 -20 72 -4 35 11 45 24 41 50 0 4 4 20 10 35 l11 28 14 -30
c7 -16 13 -48 14 -70 0 -42 24 -183 33 -191 8 -9 37 27 37 46 0 10 5 22 10 25
6 3 10 16 10 28 0 17 2 19 9 7 11 -16 7 -48 -15 -128 -8 -29 -17 -103 -19
-165 -3 -62 -7 -129 -10 -149 -5 -33 -2 -38 17 -42 25 -5 188 -22 314 -32 l81
-6 11 31 c7 18 22 35 37 41 14 5 25 16 24 22 -3 26 1 39 14 37 25 -3 37 1 37
15 0 7 16 24 35 37 19 13 35 28 35 32 0 11 36 -9 113 -65 l67 -49 26 28 c15
16 33 38 41 50 8 12 28 25 44 28 16 4 31 11 34 16 10 15 43 10 53 -7 12 -22
32 -11 146 80 84 68 103 77 100 49 -2 -18 21 -16 36 1 12 15 40 11 40 -6 0 -5
-5 -6 -11 -3 -6 4 -9 1 -7 -7 2 -7 -32 -48 -74 -90 -73 -72 -91 -98 -69 -98 6
0 12 4 16 10 3 5 47 7 105 4 61 -3 106 -1 117 5 16 9 16 10 -4 11 -13 0 -23 6
-23 14 0 41 16 79 46 110 28 29 43 55 32 56 -31 4 -113 42 -139 65 -43 39 -59
74 -59 133 1 88 50 134 172 161 38 9 40 8 36 -14 -5 -24 12 -35 58 -35 12 0
41 -9 65 -20 28 -12 37 -20 23 -20 -11 0 -25 -5 -30 -10 -7 -7 -35 -8 -82 -2
-40 5 -72 5 -72 0 0 -4 -8 -8 -17 -8 -34 -1 -55 -26 -51 -62 5 -59 50 -81 134
-68 52 9 107 33 99 43 -3 4 -2 5 1 3 3 -3 18 0 33 5 22 9 161 30 213 32 12 1
16 7 13 18 -3 10 1 19 11 23 23 9 32 -2 14 -15 -12 -9 -12 -10 3 -5 10 3 26 6
35 6 12 1 10 5 -8 15 -14 7 -36 11 -50 9 -20 -5 -22 -3 -10 5 12 9 10 11 -10
11 -18 0 -21 3 -11 9 11 7 5 14 -25 29 -21 10 -45 17 -53 14 -8 -2 -11 0 -7 6
3 6 1 12 -4 14 -6 2 7 4 29 4 22 1 38 -3 35 -7 -3 -5 1 -11 8 -13 7 -2 29 -8
48 -14 19 -6 72 -13 118 -16 80 -4 84 -3 94 20 6 13 14 24 17 24 4 0 7 9 7 20
0 12 -5 19 -12 16 -12 -4 -24 14 -24 35 0 5 11 9 24 9 19 0 22 4 19 24 -3 13
0 27 6 30 7 5 11 -2 11 -18 0 -32 12 -39 59 -31 46 8 72 44 54 75 -9 14 -9 26
0 49 8 22 8 41 1 70 -8 29 -8 41 0 44 6 2 52 -5 101 -15 75 -16 105 -18 180
-10 50 5 106 9 125 9 19 0 71 3 116 8 84 8 274 -2 274 -14 0 -4 -42 -8 -92 -8
-95 -2 -189 -20 -195 -40 -3 -7 39 -13 119 -19 130 -9 137 -9 181 0 22 4 27 2
27 -14 0 -10 -8 -23 -17 -29 -10 -5 -15 -12 -12 -15 7 -7 75 -15 151 -18 26
-1 48 -6 48 -11 0 -5 7 -6 16 -3 10 4 25 -1 36 -11 12 -11 38 -18 73 -19 30
-1 70 -7 90 -14 21 -7 55 -9 85 -5 61 8 158 -11 187 -37 12 -11 26 -17 32 -13
6 3 17 3 23 -2 7 -4 24 -6 38 -5 14 2 34 -5 45 -15 11 -11 30 -18 45 -16 28 4
65 -20 56 -36 -8 -13 -48 -6 -148 26 -43 13 -88 23 -100 21 -23 -4 -23 -4 2
-15 14 -6 50 -16 80 -22 76 -16 134 -34 140 -43 8 -10 89 10 119 30 14 10 64
35 111 56 47 21 101 50 122 65 170 123 414 348 478 443 19 28 53 64 74 80 44
32 44 32 -73 18 -187 -23 -247 -33 -258 -43 -9 -6 -17 -6 -25 1 -13 10 -30 10
-368 -4 -107 -5 -202 -8 -210 -7 -8 1 -145 7 -305 13 -417 15 -557 25 -955 70
-376 42 -553 66 -791 106 -81 13 -149 24 -153 24 -12 0 -6 -19 14 -42 11 -12
28 -34 39 -48 l19 -25 24 23 c32 30 45 28 68 -10 11 -18 28 -36 37 -40 13 -6
11 -7 -7 -3 -14 2 -63 5 -109 5 -63 0 -82 3 -74 11 20 20 3 39 -34 39 -27 0
-34 -3 -29 -15 11 -29 -76 -8 -107 26 -19 20 -21 21 -33 4 -12 -16 -14 -16
-29 -1 -9 9 -22 16 -28 16 -7 0 -25 11 -42 25 l-30 24 46 -5 c30 -4 49 -2 53
5 11 16 56 14 56 -4 0 -20 21 -65 31 -65 4 0 5 16 2 35 -3 21 -1 41 6 49 10
12 6 17 -28 26 -23 6 -47 10 -54 8 -6 -1 -22 4 -35 11 -13 7 -30 10 -38 7 -7
-3 -18 2 -23 12 -8 14 -10 13 -16 -10 -4 -15 -4 -32 0 -37 3 -6 3 -11 0 -11
-9 0 -29 21 -49 53 -18 27 -18 28 4 47 13 11 29 20 37 20 16 0 17 24 2 53 -20
37 -57 78 -63 68 -4 -5 0 -11 6 -14 10 -3 10 -8 2 -16 -9 -10 -15 -9 -27 3
-10 10 -18 12 -22 6 -3 -5 -3 -10 2 -10 4 0 0 -5 -10 -11 -13 -8 -22 -7 -33 1
-10 9 -14 9 -14 1 0 -6 -7 -11 -15 -11 -8 0 -15 -9 -15 -20 0 -27 -31 -41 -66
-31 -16 5 -44 6 -62 3 -20 -2 -32 0 -32 7 0 6 -4 11 -10 11 -25 0 -6 -23 30
-37 37 -15 54 -33 30 -33 -5 0 -10 -6 -10 -12 0 -17 -56 -48 -86 -48 -13 0
-24 -4 -24 -10 0 -5 -9 -10 -20 -10 -11 0 -20 4 -20 10 0 5 7 7 15 4 8 -4 15
-2 15 2 0 14 -47 54 -63 54 -8 0 -20 7 -27 15 -10 12 -10 15 3 15 8 0 22 15
30 32 18 37 15 47 -8 28 -13 -11 -14 -10 -9 5 5 13 4 16 -5 11 -6 -4 -22 -1
-35 7 -16 11 -27 12 -40 5 -13 -7 -20 -7 -25 1 -16 26 -115 -6 -126 -40 -3 -9
-20 -27 -37 -40 -68 -51 -80 -66 -80 -91 0 -33 -25 -45 -33 -17 -4 11 -16 28
-27 38 -16 16 -18 23 -9 40 7 12 16 21 20 21 5 0 11 7 15 15 10 27 -21 16 -55
-20 -18 -19 -41 -35 -52 -37 -11 -2 -27 -18 -36 -35 -9 -19 -22 -31 -29 -28
-8 3 -10 0 -6 -7 5 -8 0 -9 -17 -4 -63 20 -67 19 -83 -12 -19 -37 -20 -58 -4
-68 7 -4 8 -3 4 4 -9 15 114 6 128 -8 11 -11 10 -12 -54 -15 -25 -1 -55 -5
-68 -10 -19 -6 -24 -4 -29 14 -4 16 -10 20 -25 15 -14 -4 -18 -2 -14 5 10 16
0 13 -19 -5 -20 -21 -30 -12 -16 15 6 11 26 25 44 30 l32 9 -37 1 c-30 1 -38
5 -38 20 0 22 -30 32 -55 19 -11 -7 -21 -6 -28 2 -9 8 -8 14 6 21 19 11 23 44
6 54 -5 4 -14 17 -19 30 -5 13 -19 25 -32 27 -18 2 -22 9 -20 28 1 14 7 27 12
28 20 7 9 20 -12 14 -24 -6 -74 -52 -71 -64 2 -4 -3 -5 -11 -2 -9 3 -17 -6
-24 -25 -10 -27 -14 -29 -45 -24 -31 5 -35 2 -41 -21 -3 -14 -13 -26 -20 -26
-8 0 -16 -6 -19 -12 -2 -7 -8 -10 -12 -6 -4 4 2 16 13 28 l21 22 -27 26 c-27
25 -25 26 26 5 7 -3 10 0 7 8 -3 8 25 45 67 88 70 71 73 75 78 132 4 37 2 60
-5 63 -5 2 2 3 17 2 16 0 28 -7 28 -13 0 -7 7 -13 16 -13 14 0 14 -3 4 -15 -7
-8 -8 -15 -2 -15 20 0 34 28 23 47 -5 10 -12 34 -16 53 -5 35 -37 60 -76 60
-9 0 -22 7 -29 15 -15 18 -31 20 -27 3z m2002 -754 c39 -15 79 -38 91 -52 14
-17 27 -23 41 -20 11 3 29 0 40 -6 30 -16 106 -87 100 -93 -3 -3 3 -25 14 -49
l19 -45 -32 -19 -31 -19 -27 25 c-14 14 -37 31 -49 37 -13 7 -23 16 -21 21 1
4 -17 27 -40 51 -37 38 -65 55 -157 98 -13 6 -23 14 -23 19 0 5 -7 16 -15 24
-17 17 -21 49 -5 39 6 -3 10 -1 10 4 0 15 6 14 85 -15z m-358 -130 c47 -20 62
-23 82 -14 21 10 29 7 60 -22 20 -18 39 -36 44 -39 10 -7 -61 -82 -109 -114
-45 -30 -91 -32 -137 -5 -19 11 -51 23 -72 25 -46 6 -55 12 -55 33 0 31 28 59
65 66 20 4 39 14 42 22 4 11 8 12 13 4 7 -11 40 -3 40 10 0 5 -15 12 -32 15
-45 10 -51 15 -37 31 16 19 30 18 96 -12z m-1414 -116 c38 -40 70 -95 84 -141
17 -58 25 -199 10 -190 -11 6 -4 -96 9 -136 5 -17 4 -22 -4 -17 -7 4 -10 2 -6
-7 7 -20 -13 -66 -29 -63 -26 3 -54 40 -77 101 -6 15 -6 24 -1 20 6 -3 9 3 8
13 0 10 -7 19 -14 19 -6 0 -10 -5 -7 -11 3 -6 -2 -2 -11 9 -48 56 -54 135 -14
171 10 9 19 27 19 40 0 28 16 40 24 18 4 -9 9 -14 12 -11 3 3 -10 40 -30 82
-44 95 -46 109 -8 101 20 -5 23 -4 12 4 -11 7 -12 10 -2 10 7 0 19 -6 25 -12z"/>
<path d="M4560 3452 c-14 -9 -26 -20 -28 -24 -2 -5 -27 -8 -56 -8 -29 0 -55
-3 -59 -6 -3 -3 3 -21 13 -39 17 -30 17 -35 2 -56 -15 -21 -14 -22 2 -16 10 4
23 7 31 7 7 0 18 20 25 45 14 50 25 62 43 48 7 -5 23 -10 36 -11 13 0 40 -12
61 -26 45 -30 66 -19 44 22 -8 15 -14 35 -14 45 0 10 -6 19 -12 21 -43 13 -66
13 -88 -2z"/>
<path d="M4246 3385 c-11 -8 -31 -15 -45 -15 -14 0 -55 -11 -91 -24 -36 -13
-91 -31 -122 -41 -32 -9 -61 -22 -65 -28 -4 -6 0 -8 9 -4 37 14 151 47 162 47
6 0 3 -7 -7 -14 -14 -11 -15 -15 -5 -19 9 -4 8 -6 -3 -6 -8 -1 -26 -13 -40
-27 -24 -25 -24 -26 -5 -40 11 -8 25 -14 32 -14 6 0 14 -7 18 -15 3 -8 17 -20
31 -25 25 -10 25 -10 6 -29 -19 -19 -19 -20 1 -63 18 -40 23 -43 62 -45 38 -3
44 0 55 23 13 30 7 44 -11 26 -7 -7 -16 -12 -20 -12 -14 0 -9 47 7 60 11 9 12
17 4 32 -9 16 -6 30 12 67 13 25 31 57 41 70 14 18 15 28 7 43 -6 11 -8 31 -5
44 7 27 -1 30 -28 9z"/>
<path d="M8918 2748 c-26 -54 -217 -304 -337 -440 -106 -120 -267 -276 -376
-363 -27 -22 -56 -48 -64 -58 -7 -10 -19 -16 -27 -13 -7 3 -22 -8 -34 -24 -20
-28 -50 -44 -34 -18 4 7 3 8 -5 4 -6 -4 -9 -11 -6 -16 11 -17 -217 -146 -237
-134 -6 4 -8 3 -5 -3 8 -13 -20 -26 -35 -16 -6 3 -8 1 -5 -4 14 -22 -307 -127
-420 -139 -51 -5 -56 -4 -40 9 21 17 22 27 2 27 -8 0 -14 3 -13 8 2 4 -1 8 -7
10 -5 1 -11 -2 -11 -8 -1 -5 -3 -13 -4 -17 -1 -5 -2 -15 -1 -24 1 -13 -8 -18
-39 -21 -22 -2 -44 0 -48 3 -4 4 -18 10 -32 12 -22 5 -21 5 5 5 72 0 82 2 92
25 6 12 10 25 9 28 0 3 5 13 12 22 18 21 7 56 -26 85 -23 19 -25 24 -12 32 13
9 13 11 0 19 -38 24 -79 57 -80 65 0 4 10 6 23 3 12 -4 29 -2 37 3 13 8 12 11
-5 24 -17 13 -18 18 -7 35 15 26 16 77 1 87 -6 3 -15 1 -19 -6 -4 -7 -13 -9
-19 -6 -7 5 -11 -2 -12 -16 -1 -22 -1 -22 -8 2 -5 14 -20 39 -35 55 -21 22
-29 26 -39 16 -9 -10 -9 -11 5 -6 24 9 30 -21 15 -80 -10 -43 -16 -51 -44 -59
-42 -11 -41 -20 1 -48 31 -22 33 -25 22 -47 -23 -42 -117 -59 -198 -36 -19 5
-20 4 -8 -5 12 -9 7 -10 -20 -5 -28 6 -33 5 -23 -5 6 -7 35 -15 62 -18 28 -2
51 -8 51 -13 0 -5 12 -9 28 -10 62 -1 66 -16 4 -18 -45 -1 -68 3 -78 14 -20
19 -74 19 -147 0 -70 -18 -70 -18 -64 -1 4 9 -4 13 -25 14 -36 1 -48 10 -29
21 7 5 11 13 8 18 -3 5 -2 15 3 23 5 9 5 19 -2 27 -17 21 14 47 71 62 69 17
155 63 159 83 2 9 -6 22 -18 28 -25 13 -60 4 -60 -15 0 -8 -13 -21 -30 -30
-27 -14 -32 -14 -55 1 -33 21 -32 28 4 21 25 -5 33 -1 55 28 36 47 60 52 97
21 17 -15 35 -24 39 -21 5 3 11 1 14 -4 4 -5 1 -13 -5 -16 -6 -4 1 -13 17 -21
26 -14 29 -13 63 21 28 30 32 38 20 47 -11 7 -11 11 -1 15 6 2 12 11 12 18 0
15 -44 29 -48 15 -2 -6 -12 -10 -23 -10 -15 0 -18 5 -14 23 6 23 -22 60 -41
56 -16 -4 -58 18 -88 45 -22 22 -27 33 -23 56 5 22 -1 37 -25 67 -24 30 -29
33 -23 14 6 -20 4 -23 -9 -18 -16 6 -20 -2 -17 -35 1 -10 -4 -18 -11 -18 -16
0 -78 -52 -78 -66 0 -6 -16 -18 -35 -27 -19 -9 -35 -21 -35 -26 0 -8 -30 -22
-60 -27 -8 -1 -18 -2 -22 -3 -12 -2 36 -45 65 -58 15 -7 27 -18 27 -26 0 -9
15 -13 52 -12 32 0 53 -5 55 -12 3 -7 -2 -13 -9 -13 -20 0 -54 -39 -61 -70
-10 -38 -46 -92 -60 -87 -7 2 -13 16 -15 30 -3 23 -8 27 -33 25 -16 -1 -29 -6
-29 -10 0 -4 -7 -8 -15 -8 -9 0 -18 -6 -21 -14 -7 -18 71 -126 91 -126 17 0
20 -17 5 -22 -6 -2 -2 -25 10 -56 25 -66 26 -92 2 -92 -10 0 -23 5 -30 12 -9
9 -16 8 -29 -4 -12 -10 -58 -20 -133 -27 -63 -7 -155 -17 -205 -22 -546 -57
-1266 -63 -1810 -14 -297 26 -680 76 -925 120 -618 112 -1066 221 -1545 375
-450 145 -678 240 -1167 482 -350 173 -454 216 -475 195 -11 -12 27 -55 89
-101 35 -26 70 -52 78 -59 71 -55 128 -97 133 -97 4 0 7 5 7 10 0 6 -6 10 -14
10 -14 0 -50 40 -43 47 2 1 26 -8 53 -21 27 -13 75 -36 107 -51 61 -28 71 -36
35 -28 -22 5 -22 5 -4 -9 19 -15 15 -38 -7 -38 -7 0 -6 4 3 11 10 7 11 12 4
15 -6 3 -26 18 -44 34 -37 33 -55 39 -46 14 4 -12 1 -14 -14 -9 -34 11 -22 -2
42 -46 35 -23 65 -45 68 -49 17 -22 101 -48 155 -48 33 1 48 3 33 5 -16 2 -28
9 -28 15 0 18 71 1 145 -36 39 -19 90 -43 115 -54 25 -11 71 -32 102 -46 31
-14 59 -26 63 -26 15 0 109 -71 119 -90 6 -12 44 -36 91 -56 119 -52 353 -149
407 -168 27 -10 48 -21 48 -24 -1 -16 -18 -33 -31 -31 -8 2 -47 -14 -88 -34
-41 -20 -81 -37 -88 -37 -8 0 -16 -6 -19 -14 -3 -7 -36 -28 -74 -46 -39 -17
-72 -36 -75 -41 -4 -5 -22 -9 -41 -9 -21 0 -34 -5 -34 -13 0 -7 -18 -21 -40
-31 -22 -10 -46 -23 -53 -30 -18 -18 -73 -46 -90 -46 -8 0 -28 -15 -45 -34
-17 -19 -44 -37 -62 -41 -49 -11 -100 -34 -76 -35 27 0 12 -14 -45 -43 -24
-12 -44 -29 -44 -37 0 -8 -4 -15 -10 -15 -5 -1 -20 -6 -33 -13 -12 -7 -28 -10
-34 -6 -6 4 -8 3 -5 -3 4 -6 -2 -18 -13 -28 -11 -10 -18 -21 -15 -25 2 -4 -7
-5 -20 -2 -20 3 -27 -1 -35 -22 -5 -14 -16 -26 -25 -26 -14 0 -14 -3 1 -25 18
-27 13 -33 -9 -11 -12 12 -17 11 -38 -8 -14 -13 -31 -25 -38 -27 -11 -4 -10
-9 4 -22 17 -17 16 -18 -11 -11 -26 7 -28 6 -15 -9 7 -10 20 -17 28 -17 9 0
13 -6 10 -14 -4 -11 -1 -13 11 -10 16 5 16 5 0 -6 -14 -8 -27 -6 -59 10 l-41
21 4 -28 c2 -19 -2 -28 -12 -29 -42 -3 -44 -5 -21 -17 14 -6 27 -19 29 -27 4
-12 0 -11 -21 2 -20 14 -26 15 -30 4 -6 -15 22 -46 42 -46 8 0 10 -8 6 -22 -4
-16 -3 -19 3 -9 10 14 28 -2 18 -17 -3 -5 11 -9 31 -10 39 -2 68 -22 68 -49 0
-10 13 -20 34 -25 18 -5 43 -18 54 -29 12 -11 23 -15 25 -9 2 5 8 8 13 5 5 -4
6 8 2 27 l-6 33 26 -18 c14 -9 32 -17 39 -17 7 0 19 -9 26 -20 7 -12 23 -20
39 -20 25 0 26 0 8 20 -10 11 -24 20 -30 20 -22 0 -35 62 -16 74 10 7 71 -15
71 -26 0 -4 20 -21 45 -38 25 -17 45 -26 45 -20 0 5 -3 10 -7 10 -5 1 -28 18
-51 39 -35 31 -41 39 -27 44 9 4 14 3 10 -2 -6 -11 56 -62 67 -55 13 8 9 24
-7 24 -8 0 -12 6 -9 13 6 16 59 17 59 1 0 -21 101 -93 165 -117 l45 -17 -28
21 c-30 23 -37 45 -9 34 9 -4 24 -8 32 -8 8 0 17 -4 20 -8 3 -4 12 -4 20 2 12
7 11 10 -7 15 -32 9 -29 30 3 29 16 0 39 -12 55 -28 25 -25 44 -32 76 -28 6 1
14 -3 18 -9 9 -15 25 -12 25 5 0 21 3 20 49 -25 22 -22 45 -40 50 -40 5 0 16
-3 25 -6 11 -4 16 -1 16 11 0 12 5 15 20 10 11 -4 20 -2 20 4 0 6 9 3 19 -6
11 -9 34 -18 51 -20 36 -3 35 -3 -15 56 l-20 25 32 -22 c37 -26 53 -28 53 -6
0 22 59 -25 59 -48 1 -18 41 -47 41 -29 0 5 -4 13 -10 16 -12 7 -12 16 -1 33
6 10 16 9 47 -9 l39 -21 -39 37 c-25 24 -34 40 -27 44 8 5 5 13 -9 26 -32 29
-23 38 12 12 18 -13 41 -22 52 -19 11 2 29 -8 47 -27 15 -17 35 -31 43 -31 8
0 21 -6 28 -13 14 -14 57 -43 98 -68 14 -9 41 -20 59 -24 18 -4 35 -13 38 -21
3 -8 16 -14 30 -14 13 0 33 -5 44 -11 19 -9 19 -9 10 10 -16 29 8 40 30 13 9
-12 23 -22 31 -22 8 0 18 -4 23 -8 28 -23 61 -30 80 -15 13 10 15 13 5 11 -22
-4 -100 61 -93 78 4 11 18 7 66 -18 33 -18 74 -46 91 -61 30 -28 75 -51 83
-44 2 2 -11 18 -29 35 -45 45 -27 51 23 8 24 -20 46 -36 50 -36 5 0 25 -11 45
-25 46 -31 56 -31 48 0 -7 29 2 31 42 10 17 -9 30 -11 32 -5 5 15 16 12 39
-10 12 -10 34 -22 50 -25 21 -5 24 -4 13 4 -25 18 -4 22 33 6 20 -8 44 -15 54
-15 10 0 35 -11 55 -25 20 -14 48 -25 61 -25 13 0 35 -8 48 -18 13 -10 54 -33
92 -52 37 -19 67 -38 67 -42 0 -4 20 -17 44 -29 25 -11 50 -27 57 -35 13 -16
54 -20 44 -4 -3 6 -2 10 4 10 5 0 13 -4 16 -10 3 -5 40 -26 81 -47 55 -26 78
-33 83 -24 6 9 19 9 52 2 58 -14 166 -14 174 -1 5 8 11 8 19 1 9 -7 574 -11
1779 -11 1755 0 1767 0 1787 20 11 11 20 24 20 29 0 5 10 11 23 13 12 2 26 13
32 25 8 19 20 23 77 29 37 4 68 11 68 15 0 5 9 9 19 9 11 0 23 9 26 20 7 24
30 26 39 5 3 -8 20 -21 38 -29 18 -8 50 -22 71 -31 21 -9 41 -23 43 -30 3 -7
16 -16 30 -19 29 -8 32 -36 5 -36 -11 0 -49 20 -85 45 -65 44 -106 57 -106 33
0 -18 51 -68 70 -68 9 0 25 -7 36 -15 16 -12 71 -14 317 -15 l297 0 0 36 c0
21 4 33 10 29 6 -3 10 -15 10 -26 0 -10 7 -19 15 -19 8 0 15 -4 15 -10 0 -6
69 -10 186 -10 180 0 231 10 123 25 -41 6 -52 12 -59 31 -5 13 -21 29 -35 36
-14 6 -25 17 -25 23 0 7 -11 20 -25 29 -23 15 -24 18 -10 32 8 9 15 22 15 30
0 8 5 14 10 14 6 0 10 9 10 20 0 11 -4 20 -10 20 -5 0 -10 -4 -10 -10 0 -5
-10 -10 -22 -10 -20 0 -21 1 -3 20 14 16 15 20 4 24 -46 14 -51 17 -46 31 4 8
-2 16 -12 20 -10 3 -26 14 -36 25 -17 19 -17 20 2 20 10 0 28 -7 39 -15 29
-22 60 -18 78 9 12 19 12 26 3 30 -9 5 -9 7 1 12 17 8 15 24 -3 24 -8 0 -15 7
-15 15 0 12 4 13 19 5 28 -14 36 -12 21 5 -7 8 -20 15 -29 15 -14 1 -13 3 2
15 11 7 25 11 33 8 11 -4 14 3 14 28 -1 75 0 80 25 91 18 8 28 8 39 -1 12 -10
17 -9 25 7 9 17 8 19 -9 15 -12 -3 -20 0 -20 7 0 10 -3 10 -14 1 -9 -8 -28
-10 -52 -5 -26 5 -35 4 -30 -5 4 -6 1 -11 -8 -11 -20 0 -20 0 0 39 9 17 13 39
9 49 -5 14 -4 15 6 4 22 -21 48 -15 42 9 -5 19 -4 20 15 8 11 -7 18 -17 16
-21 -3 -4 -1 -8 5 -8 5 0 13 4 16 10 3 6 2 10 -4 10 -5 0 -9 17 -8 38 1 28 5
38 18 38 10 0 15 -4 13 -8 -3 -4 0 -8 6 -8 7 0 14 9 17 20 3 11 9 17 14 14 5
-3 7 -10 3 -15 -8 -13 5 -69 17 -69 5 0 9 7 9 15 0 8 -6 15 -12 15 -9 0 -10 3
-2 8 12 8 15 42 3 42 -6 0 -29 53 -29 67 0 2 9 1 20 -2 24 -8 27 10 4 23 -18
10 -48 142 -33 142 5 0 9 -6 10 -12 8 -97 9 -103 40 -127 21 -16 27 -26 19
-31 -8 -5 0 -12 21 -19 32 -11 32 -11 14 9 -12 13 -14 20 -5 20 7 0 10 7 6 16
-3 8 -2 12 4 9 6 -3 10 1 10 9 0 9 11 18 25 22 41 10 29 23 -18 19 -42 -4 -78
8 -64 21 3 4 14 1 23 -6 13 -11 17 -11 24 0 4 7 6 19 3 27 -3 7 1 13 9 13 8 0
15 7 15 14 0 11 -5 13 -19 5 -10 -5 -18 -14 -18 -19 0 -6 -9 -10 -20 -10 -11
0 -20 5 -20 10 0 6 7 10 15 10 32 0 8 50 -25 50 -19 1 -60 34 -60 50 0 7 6 5
16 -4 27 -28 60 -16 61 22 1 38 5 39 12 2 4 -23 14 -39 31 -47 32 -16 42 -5
13 14 -13 9 -23 20 -23 26 0 5 9 2 19 -7 12 -11 21 -14 26 -7 3 6 -1 11 -9 11
-9 0 -16 7 -16 16 0 9 -5 12 -11 8 -8 -5 -10 1 -7 19 4 20 2 24 -11 19 -13 -5
-14 -4 -1 10 8 8 22 13 30 11 9 -3 11 -2 4 4 -6 4 -13 16 -17 25 -4 12 -2 15
9 11 7 -3 14 0 14 7 0 6 -8 10 -17 8 -12 -3 -17 -12 -16 -26 3 -25 -9 -29 -26
-8 -9 11 -9 20 -2 35 16 30 13 40 -14 47 -27 7 -34 24 -10 24 22 0 18 17 -5
23 -15 4 -20 1 -18 -11 2 -11 -5 -16 -22 -16 -18 0 -26 5 -28 22 -2 12 -10 22
-19 22 -10 0 -13 6 -9 16 3 8 2 12 -4 9 -6 -3 -10 3 -10 14 0 12 -11 24 -30
33 -16 7 -30 16 -30 20 0 4 -11 2 -25 -4 -32 -14 -45 -3 -19 17 19 14 19 14
-2 15 -11 0 -29 6 -39 14 -11 8 -25 12 -31 9 -7 -2 -15 0 -19 6 -3 6 -17 11
-31 11 -26 0 -32 14 -11 27 21 12 31 63 13 63 -8 0 -16 3 -19 8 -2 4 -2 1 0
-7 2 -9 -2 -11 -13 -7 -8 3 -19 6 -24 6 -4 0 -10 10 -13 22 -4 12 -9 19 -12
16 -4 -3 -2 -16 5 -27 11 -22 6 -41 -11 -41 -5 0 -26 16 -46 35 -20 19 -41 35
-45 35 -4 0 -8 8 -8 19 0 22 -38 35 -57 19 -9 -7 -17 -7 -29 3 -15 12 -14 15
12 25 24 10 26 13 12 19 -10 4 -24 5 -32 2 -19 -7 -47 25 -37 41 6 10 13 11
35 1 23 -11 28 -10 40 7 13 17 12 20 -7 27 -12 4 -40 9 -62 11 -23 2 -52 9
-66 17 -29 18 -65 18 -61 0 1 -7 -1 -10 -6 -7 -5 3 -9 -1 -9 -8 0 -8 7 -12 15
-8 10 3 13 1 8 -6 -4 -7 -1 -12 8 -12 9 0 16 5 16 10 0 23 21 7 35 -26 20 -50
19 -57 -10 -52 -19 4 -25 1 -25 -13 0 -10 -4 -21 -10 -24 -13 -8 -71 36 -63
48 3 6 1 7 -5 3 -6 -4 -9 -13 -6 -20 13 -34 -40 -24 -74 14 -8 9 -11 10 -7 2
4 -8 2 -13 -6 -11 -34 4 -42 0 -29 -16 7 -8 10 -22 6 -30 -7 -19 -35 -20 -42
-1 -6 16 -34 10 -34 -6 0 -6 6 -8 14 -5 15 6 30 -19 20 -34 -3 -5 8 -17 25
-27 32 -18 43 -39 15 -28 -9 3 -22 6 -29 6 -8 0 -26 11 -41 25 -26 24 -64 34
-64 16 0 -5 12 -13 28 -19 15 -5 50 -28 79 -51 29 -22 56 -41 61 -41 5 0 14
-6 20 -13 9 -10 3 -13 -26 -14 -20 0 -31 2 -24 4 20 8 14 25 -8 18 -10 -3 -33
1 -49 9 -39 21 -53 20 -49 -1 2 -9 14 -21 28 -25 17 -5 12 -6 -15 -2 -22 3
-62 16 -88 29 -57 29 -58 29 -51 10 7 -18 -9 -19 -38 -4 -14 8 -23 8 -31 0 -8
-8 -8 -11 2 -11 7 0 9 -5 6 -10 -4 -6 -15 -8 -25 -5 -9 3 -29 1 -44 -4 -39
-16 -31 -6 22 25 51 30 272 173 311 201 14 10 47 35 73 56 27 21 53 35 59 32
5 -4 8 -2 7 3 -2 5 29 37 67 72 39 34 116 108 173 164 57 55 102 95 100 88 -6
-25 49 -56 95 -54 23 1 56 -4 74 -10 25 -9 35 -9 47 1 24 20 20 51 -6 52 l-23
0 22 15 c20 15 21 17 5 44 -16 27 -15 30 2 49 11 12 14 21 8 21 -6 0 -18 7
-27 16 -9 9 -29 17 -44 18 -17 0 -27 5 -24 12 6 16 63 56 63 45 0 -6 -8 -14
-17 -20 -10 -5 -14 -13 -10 -17 4 -5 17 -2 29 5 19 12 20 11 15 -8 -3 -14 -1
-19 6 -14 7 4 16 8 22 8 5 0 11 8 13 18 3 12 -4 20 -18 24 -15 4 -20 11 -17
25 5 16 3 17 -9 7 -8 -6 -14 -8 -14 -5 0 7 40 66 50 76 3 3 26 32 52 65 68 90
110 170 106 202 -4 40 -31 40 -50 1z m-189 -1320 c1 17 41 15 41 -3 0 -9 6
-12 15 -9 8 4 15 2 15 -4 0 -6 15 -14 33 -18 46 -10 97 -52 55 -45 -5 0 -8 -4
-8 -9 0 -5 4 -10 9 -10 5 0 16 -3 25 -6 23 -9 21 35 -1 52 -17 13 -17 13 0 14
9 0 17 -5 17 -11 0 -6 7 -9 15 -5 18 7 19 -7 3 -33 -12 -20 -3 -36 37 -59 19
-11 19 -11 1 -12 -15 0 -16 -3 -6 -15 7 -8 8 -15 3 -15 -6 0 -18 11 -28 23
-13 17 -24 22 -43 19 -16 -3 -23 -1 -19 5 4 6 -2 13 -13 16 -14 3 -20 14 -20
31 0 31 -9 33 -38 6 l-22 -21 0 24 c0 17 -10 28 -37 40 -21 9 -49 25 -61 35
-23 18 -23 19 -5 37 17 18 18 18 24 -11 4 -16 7 -23 8 -16z"/>
<path d="M1715 2088 c-16 -4 -48 -5 -71 -2 -50 7 -68 -17 -31 -40 28 -18 337
-120 343 -113 3 2 -1 16 -7 30 -16 36 -7 53 44 75 24 11 48 25 51 31 9 15 -27
14 -41 0 -18 -18 -55 -17 -88 2 -34 19 -155 30 -200 17z"/>
<path d="M3829 2056 c-1 -3 -2 -10 -3 -16 0 -5 -20 -27 -43 -48 -25 -22 -43
-47 -43 -60 0 -12 -13 -37 -30 -55 -16 -19 -30 -41 -30 -48 0 -11 -2 -11 -10
1 -8 12 -10 9 -10 -12 0 -16 -5 -28 -10 -28 -6 0 -10 -6 -8 -13 2 -7 -7 -25
-20 -41 -12 -16 -22 -25 -22 -20 0 5 -6 -2 -14 -16 -13 -26 -12 -40 5 -40 5 0
8 3 7 8 -3 9 34 52 45 52 5 0 4 -7 -3 -15 -7 -8 -9 -15 -4 -15 5 0 23 20 39
45 17 24 36 45 43 45 15 0 15 -7 2 -23 -42 -50 -56 -67 -83 -107 -36 -54 -62
-80 -79 -81 -24 -2 37 -17 72 -18 33 -1 36 2 59 54 32 75 48 87 48 35 0 -22
-4 -37 -8 -34 -5 3 -9 -2 -9 -10 0 -9 -5 -16 -11 -16 -5 0 -7 -4 -4 -10 3 -5
1 -10 -4 -10 -6 0 -11 -4 -11 -8 0 -13 127 -33 165 -26 l35 6 -5 147 c-5 173
-10 226 -24 264 -6 16 -11 46 -11 67 0 21 -4 42 -10 45 -5 3 -11 4 -11 1z"/>
<path d="M3610 1945 c0 -8 -5 -24 -12 -34 -11 -17 -15 -18 -55 -6 -48 15 -56
4 -20 -26 12 -10 16 -18 10 -19 -7 0 -13 5 -13 10 0 6 -5 10 -11 10 -5 0 -7
-6 -3 -12 5 -7 9 -43 10 -81 2 -58 0 -67 -13 -63 -20 8 -43 -11 -43 -35 0 -11
-7 -19 -16 -19 -12 0 -14 -5 -9 -17 4 -10 9 -25 10 -33 9 -58 55 -68 92 -20
36 44 39 70 4 30 -17 -19 -31 -38 -31 -42 0 -4 -9 -8 -19 -8 -18 0 -18 4 -9
38 6 20 23 56 39 80 16 24 29 45 29 48 0 2 23 39 51 81 46 70 49 78 38 105
-12 30 -29 38 -29 13z"/>
<path d="M5746 1905 c8 -13 29 -26 47 -29 37 -8 77 -38 77 -58 -1 -9 -4 -8
-10 4 -8 13 -17 15 -40 8 -17 -5 -34 -9 -38 -9 -4 0 -8 -7 -10 -15 -2 -9 1
-16 7 -16 21 0 11 -29 -15 -42 -14 -7 -32 -28 -40 -45 -13 -32 -12 -33 12 -33
25 0 94 25 104 38 3 4 14 12 25 18 12 7 19 20 17 33 -2 11 0 21 5 21 4 0 9 19
10 43 0 23 3 49 5 57 1 8 -1 16 -6 17 -5 1 -12 6 -15 11 -3 5 -38 11 -78 14
l-72 5 15 -22z"/>
<path d="M6191 1647 c-14 -14 -15 -14 -73 -16 -37 -1 -48 -7 -92 -55 -51 -53
-69 -63 -138 -73 -30 -4 -36 -2 -35 14 2 13 -4 17 -17 15 -17 -3 -18 -2 -6 13
9 11 16 13 23 6 13 -13 47 14 47 37 0 10 -7 12 -27 7 -15 -3 -30 -11 -34 -16
-7 -12 -71 -14 -140 -4 -47 6 -69 3 -135 -18 -43 -13 -100 -28 -126 -32 -27
-3 -48 -11 -48 -16 0 -6 -52 -8 -134 -6 l-135 3 2 -26 c3 -36 25 -39 264 -28
286 12 331 15 415 27 105 15 156 20 308 31 74 5 150 12 168 16 34 7 44 24 13
24 -19 0 -36 36 -20 45 10 7 0 35 -13 35 -6 0 -5 -6 2 -15 8 -10 9 -15 2 -15
-6 0 -16 8 -21 18 -8 13 -11 14 -12 2 0 -8 -6 -3 -13 12 -10 22 -15 25 -25 15z"/>
<path d="M4971 1531 c-16 -16 -27 -31 -25 -34 3 -3 -6 -4 -19 -3 -13 0 -23 6
-21 11 3 6 -24 9 -69 8 -55 -1 -82 -7 -110 -23 -40 -24 -47 -40 -19 -41 238
-10 280 -9 292 6 7 8 18 15 25 15 7 0 18 6 25 14 9 12 7 17 -9 28 -12 7 -21
21 -21 30 0 26 -15 22 -49 -11z"/>
</g>
</svg>
