<?xml version="1.0" standalone="no"?>
<!DOCTYPE svg PUBLIC "-//W3C//DTD SVG 20010904//EN"
 "http://www.w3.org/TR/2001/REC-SVG-20010904/DTD/svg10.dtd">
<svg version="1.0" xmlns="http://www.w3.org/2000/svg"
 width="1000.000000pt" height="665.000000pt" viewBox="0 0 1000.000000 665.000000"
 preserveAspectRatio="xMidYMid meet">

<g transform="translate(0.000000,665.000000) scale(0.100000,-0.100000)"
fill="#000000" stroke="none">
<path d="M422 6623 c3 -25 10 -30 68 -46 95 -27 358 -26 545 1 139 20 256 46
285 63 9 5 -175 9 -443 9 l-458 0 3 -27z"/>
<path d="M1905 6633 c14 -38 24 -116 19 -149 -3 -19 -16 -53 -30 -77 -24 -43
-31 -77 -15 -77 5 0 12 -9 16 -19 7 -23 67 -48 220 -92 89 -26 116 -29 236
-29 162 0 414 31 497 61 106 40 150 88 115 129 -10 11 -19 25 -19 30 -1 6 -2
14 -3 20 0 5 -23 21 -51 35 -58 29 -90 81 -90 145 l0 40 -451 0 c-426 0 -451
-1 -444 -17z"/>
<path d="M3186 6614 c39 -19 99 -42 134 -50 57 -13 217 -23 213 -13 -15 34
-15 42 0 51 10 5 17 18 17 28 0 19 -8 20 -217 20 l-218 0 71 -36z"/>
<path d="M3603 6630 c-8 -12 -9 -21 -3 -25 15 -9 12 -35 -4 -35 -23 0 -27 -29
-6 -40 27 -15 214 -12 370 5 200 22 313 50 359 91 l26 23 -365 1 c-352 0 -366
-1 -377 -20z"/>
<path d="M4650 6638 c73 -20 103 -73 63 -112 -25 -25 -74 -35 -170 -34 -23 0
-82 -12 -130 -26 -48 -15 -133 -41 -188 -58 -55 -17 -121 -41 -147 -54 -25
-13 -75 -33 -110 -45 -34 -12 -106 -43 -158 -68 -108 -52 -192 -80 -335 -112
-55 -12 -131 -31 -170 -41 -38 -11 -86 -23 -105 -28 -126 -30 -210 -55 -315
-96 -406 -156 -486 -177 -675 -171 -74 2 -146 8 -160 14 -14 6 -86 30 -160 53
-74 24 -160 53 -190 65 -30 13 -75 30 -100 38 -81 26 -204 70 -236 83 -17 8
-58 20 -90 28 -213 53 -324 95 -367 138 -21 22 -37 23 -37 4 0 -26 -19 -28
-63 -8 -63 30 -104 46 -187 76 -41 15 -86 32 -100 38 -141 60 -301 119 -334
125 -23 3 -48 9 -56 13 -8 4 -41 11 -73 14 l-57 7 0 -875 0 -875 43 24 c91 51
275 67 390 34 60 -16 236 -185 264 -252 24 -55 30 -136 12 -154 -5 -5 -10 -26
-11 -44 0 -19 -6 -43 -13 -55 -12 -18 -21 -20 -68 -16 -52 4 -126 -11 -138
-29 -5 -9 -20 -12 -116 -26 -48 -6 -130 11 -155 34 -9 8 -25 14 -35 12 -10 -1
-27 2 -38 6 -26 12 -107 72 -122 93 -11 13 -13 -62 -13 -385 0 -374 1 -402 18
-407 45 -13 163 -17 222 -7 100 18 235 70 314 121 132 86 154 123 164 277 7
110 15 113 202 56 190 -57 367 -182 418 -294 45 -101 35 -212 -30 -328 -64
-114 -247 -270 -443 -376 l-69 -38 -76 12 c-41 6 -111 18 -155 26 -99 18 -406
30 -498 21 -44 -5 -67 -12 -67 -20 0 -10 52 -15 228 -19 125 -3 245 -9 267
-12 22 -3 59 -8 83 -11 23 -3 40 -9 37 -14 -3 -5 -1 -11 5 -15 5 -3 10 -1 10
5 0 13 58 4 74 -11 6 -5 22 -9 37 -9 15 0 31 -5 34 -10 3 -5 19 -10 34 -10 15
0 31 -4 36 -8 6 -4 34 -16 63 -26 29 -10 85 -36 125 -57 40 -21 88 -47 107
-56 19 -10 37 -21 38 -25 2 -5 12 -8 23 -8 10 0 19 -6 19 -13 0 -8 10 -19 23
-26 56 -30 121 -170 112 -242 -3 -27 -1 -39 8 -39 6 0 1 -10 -13 -21 -14 -11
-19 -18 -12 -14 22 11 32 -4 19 -33 -6 -15 -14 -29 -17 -32 -12 -12 -7 -38 7
-33 8 3 12 11 10 18 -3 6 4 17 15 24 18 11 20 11 14 -4 -3 -9 -9 -28 -12 -41
-5 -20 -11 -23 -28 -18 -20 6 -20 5 -3 -8 17 -13 17 -16 -11 -53 -16 -22 -39
-50 -51 -62 -11 -12 -21 -28 -21 -35 0 -14 -34 -48 -48 -48 -4 0 -26 -20 -50
-45 -24 -25 -49 -45 -57 -45 -8 0 -15 -4 -15 -10 0 -5 -5 -10 -12 -10 -6 0
-25 -10 -42 -23 -54 -40 -106 -69 -106 -59 0 6 28 30 63 55 97 70 222 208 258
285 12 26 26 55 31 66 20 38 29 134 14 139 -7 2 -6 10 3 20 10 13 10 17 1 17
-9 0 -10 3 -1 14 9 11 8 15 -4 20 -11 4 -14 13 -9 31 4 18 2 27 -10 31 -21 8
-20 21 2 27 13 4 11 5 -5 6 -13 0 -23 6 -23 12 0 12 -25 39 -36 39 -3 0 -2 -6
4 -13 5 -6 18 -43 27 -81 21 -82 15 -142 -22 -236 -28 -69 -82 -157 -68 -110
14 48 18 123 6 115 -6 -3 -11 -22 -9 -40 1 -18 -4 -40 -11 -49 -7 -8 -10 -20
-7 -25 8 -13 -16 -69 -41 -98 -27 -30 -39 -29 -20 1 9 13 13 34 11 47 -4 17
-3 20 4 11 7 -11 10 -10 16 3 3 9 6 26 5 38 0 21 -1 21 -10 -2 -5 -13 -12 -22
-15 -19 -2 3 5 31 17 63 16 43 20 70 16 106 -5 36 -1 60 13 91 11 24 20 50 20
58 0 8 -11 -9 -25 -37 -23 -50 -46 -66 -60 -43 -4 6 -10 8 -15 5 -5 -3 -4 8 1
25 6 16 15 33 20 36 5 3 9 17 8 32 0 24 -2 23 -15 -13 -19 -53 -26 -58 -57
-42 -26 14 -26 14 -8 31 11 10 18 26 16 37 -2 10 0 21 4 24 5 2 6 16 3 31 -3
16 1 29 9 35 23 14 29 10 29 -19 0 -16 3 -32 7 -35 11 -12 33 14 33 39 0 12 5
26 10 29 13 8 13 25 0 25 -5 0 -12 -16 -16 -35 -3 -19 -11 -38 -16 -42 -10 -6
-8 17 6 75 5 25 -19 62 -41 62 -7 0 -22 9 -33 20 -12 12 -25 18 -30 15 -6 -4
-10 -3 -10 2 0 14 -170 78 -250 94 -40 8 -46 7 -62 -13 l-17 -23 5 25 c5 23 4
24 -9 8 -20 -25 -28 -22 -21 7 9 37 -17 32 -41 -7 -11 -18 -20 -36 -21 -40 -1
-5 -2 -11 -3 -15 -1 -5 -6 0 -12 10 -9 15 -7 22 10 33 21 15 28 34 12 34 -4 0
-21 -12 -36 -26 -17 -15 -35 -24 -46 -21 -12 3 -17 1 -12 -5 4 -8 -5 -9 -28
-3 -19 4 -44 8 -56 7 -25 0 -30 17 -11 36 7 7 8 12 2 12 -19 0 -32 -16 -38
-47 -4 -17 -15 -38 -24 -45 -15 -12 -16 -11 -3 5 13 16 12 17 -12 8 -14 -6
-36 -20 -47 -31 -21 -21 -22 -21 -36 -3 -13 17 -14 17 -20 -3 -4 -15 -13 -21
-30 -20 -28 1 -30 14 -8 42 14 18 15 18 4 -3 -7 -16 -7 -23 0 -23 6 0 16 11
22 25 11 25 34 33 40 15 2 -7 17 -5 41 5 36 15 49 27 24 24 -23 -3 -37 1 -37
11 0 6 7 10 15 10 8 0 15 5 15 10 0 17 -26 11 -45 -10 -10 -11 -26 -20 -36
-20 -10 0 -21 -4 -24 -10 -12 -20 -66 -10 -107 21 -24 16 -44 25 -46 20 -2 -6
-8 -9 -13 -5 -14 8 -11 -150 4 -165 9 -11 9 -13 0 -7 -10 6 -13 -14 -13 -84 0
-70 3 -89 12 -83 23 14 39 12 59 -8 19 -19 19 -19 0 -19 -11 0 -21 6 -23 14
-2 10 -9 11 -25 5 l-22 -8 -1 -446 c0 -351 2 -449 13 -459 20 -20 54 -36 76
-36 14 0 21 -6 21 -18 0 -11 11 -24 24 -30 13 -6 51 -31 84 -56 33 -25 63 -46
67 -46 7 0 105 -69 115 -80 3 -4 12 -10 20 -13 8 -4 49 -31 90 -61 41 -30 111
-76 154 -103 107 -65 104 -63 167 -105 30 -21 77 -47 103 -59 44 -19 49 -20
66 -4 18 16 37 23 72 24 15 1 16 5 8 27 -10 26 -3 54 9 37 3 -5 32 -16 64 -25
l58 -16 10 26 c12 32 5 52 -20 52 -51 0 -69 34 -31 58 11 7 20 18 20 25 0 7
20 21 45 32 47 21 64 42 41 51 -12 4 -11 10 1 35 14 28 23 33 51 30 18 -3 15
16 -5 27 -9 6 -14 16 -10 25 3 9 1 18 -6 20 -16 6 15 63 32 59 7 -1 10 2 6 8
-3 5 -1 10 5 10 6 0 8 5 4 12 -4 6 -3 8 4 4 6 -3 27 4 47 16 31 18 41 19 57 9
17 -11 22 -9 35 8 20 29 33 26 33 -8 0 -17 5 -33 10 -36 6 -4 10 8 10 29 0 23
6 38 18 45 16 9 16 11 -1 28 -10 10 -17 13 -17 5 0 -7 -7 -12 -16 -12 -13 0
-14 3 -4 15 19 23 -76 111 -175 162 -85 44 -187 83 -217 83 -10 0 -18 5 -18
11 0 5 -4 7 -10 4 -5 -3 -10 -1 -10 4 0 6 5 11 10 11 6 0 14 10 19 23 5 12 41
58 81 102 81 90 141 185 170 268 24 68 25 97 5 97 -8 0 -15 5 -15 11 0 6 9 9
20 6 23 -6 27 8 5 17 -19 7 -20 26 -2 26 11 0 12 12 6 53 -11 84 -26 128 -64
191 -19 33 -33 61 -30 64 3 3 5 2 5 -2 0 -24 251 238 278 291 8 15 18 30 21
33 17 14 49 70 61 105 7 22 16 45 20 50 16 22 29 85 39 188 6 60 15 116 21
125 8 15 9 15 10 1 0 -20 86 -38 200 -42 76 -4 100 4 100 30 0 20 27 46 35 33
9 -14 35 -12 35 3 0 23 39 47 78 47 l37 0 -42 21 c-24 12 -43 25 -43 30 0 5
-8 9 -17 9 -46 0 -93 24 -141 70 -29 27 -59 50 -67 50 -8 0 -15 4 -15 10 0 5
-13 16 -29 25 -16 8 -35 20 -43 27 -26 25 -87 68 -96 68 -5 0 -17 9 -28 21
-10 11 -37 29 -60 40 -23 10 -48 25 -56 32 -7 7 -41 32 -75 55 -69 47 -98 54
-88 22 7 -22 1 -26 -18 -10 -21 19 -150 100 -157 100 -4 0 -10 9 -13 20 -3 11
-13 23 -24 27 -10 3 -34 18 -53 33 -19 14 -47 31 -62 38 -27 11 -39 42 -17 42
6 0 9 6 6 13 -3 9 11 12 52 12 59 0 121 21 121 42 0 7 18 11 54 10 35 -1 62 5
80 16 14 10 26 13 26 8 0 -12 70 -20 96 -10 12 4 56 12 98 18 70 10 84 9 168
-15 141 -39 288 -92 488 -174 63 -26 169 -69 235 -95 128 -51 214 -86 282
-116 24 -11 46 -19 49 -19 3 0 20 -6 37 -14 69 -32 233 -98 252 -103 25 -6
264 73 285 94 13 13 13 16 -4 29 -11 8 -29 14 -40 14 -51 1 -70 61 -25 75 10
4 19 10 19 15 0 5 16 13 35 19 38 10 77 3 138 -27 l36 -17 -35 -37 c-71 -76
-95 -196 -55 -284 11 -23 52 -74 92 -113 41 -40 65 -69 55 -65 -15 6 -18 4
-13 -9 4 -10 2 -16 -6 -14 -7 1 -11 -4 -9 -12 2 -8 -3 -18 -10 -22 -9 -6 -4
-9 15 -9 15 0 27 -4 27 -8 0 -12 -49 -37 -57 -29 -3 4 -1 7 6 7 7 0 9 5 6 10
-5 8 -11 8 -20 0 -10 -8 -37 -7 -102 5 -600 112 -1269 -75 -1378 -385 -31 -88
-7 -227 50 -280 13 -13 22 -27 19 -32 -3 -4 2 -11 11 -14 14 -6 14 -8 0 -24
-8 -9 -12 -21 -8 -25 5 -5 -1 -3 -12 5 -11 8 -17 11 -13 6 4 -4 -2 -25 -13
-44 -10 -20 -19 -43 -19 -50 0 -9 -7 -11 -20 -7 -11 4 -20 2 -20 -4 0 -6 11
-11 25 -11 29 0 29 0 10 -36 -13 -26 -13 -30 0 -40 8 -6 15 -16 15 -23 0 -6 5
-11 10 -11 6 0 10 -7 10 -16 0 -10 6 -14 14 -11 9 4 12 0 10 -11 -3 -9 6 -29
19 -43 14 -14 28 -35 31 -47 4 -12 13 -22 21 -22 7 0 27 -11 43 -25 16 -13 69
-45 118 -70 49 -25 94 -49 99 -53 6 -4 15 -7 20 -8 6 0 32 -7 58 -14 l49 -15
-9 -40 c-4 -22 -8 -74 -7 -115 0 -62 5 -84 27 -128 16 -30 25 -61 22 -71 -3
-12 5 -28 24 -47 31 -30 34 -40 32 -89 -1 -31 -31 -57 -93 -80 -71 -27 30 -47
151 -30 41 6 52 5 46 -4 -4 -7 -13 -10 -21 -7 -8 3 -11 0 -8 -9 3 -7 -2 -15
-13 -18 -16 -4 -16 -5 0 -6 24 -1 21 -14 -5 -26 -29 -13 -35 -43 -11 -61 17
-14 17 -14 -1 -7 -12 4 -17 3 -13 -4 3 -5 -21 -27 -53 -48 -33 -21 -60 -42
-60 -47 0 -12 25 -10 55 4 42 19 49 -1 20 -55 -23 -45 -23 -47 -5 -47 21 0 40
-28 40 -59 0 -11 11 -28 25 -39 14 -11 25 -23 25 -27 0 -4 9 -18 20 -32 11
-14 20 -36 20 -48 0 -31 136 -133 220 -165 19 -7 40 -17 45 -20 36 -26 149
-80 166 -80 17 0 19 -3 10 -14 -13 -15 -5 -46 13 -46 6 0 24 7 40 15 38 20 57
19 63 -5 4 -16 14 -20 44 -20 21 0 41 -5 44 -10 4 -6 25 -11 48 -10 23 0 74
-2 112 -4 66 -5 70 -6 67 -28 -2 -13 -10 -30 -18 -39 -8 -8 -14 -19 -14 -23 0
-4 -18 -24 -40 -46 -22 -22 -40 -41 -40 -44 0 -3 -16 -22 -35 -43 -20 -21 -38
-49 -41 -63 -13 -62 -53 -84 -106 -58 -18 9 -44 20 -58 25 -17 7 -25 18 -25
34 0 25 -11 27 -66 14 -18 -5 -45 2 -85 20 -62 28 -274 130 -309 148 -11 6
-42 22 -70 37 -83 43 -137 81 -142 100 -5 19 -59 50 -86 50 -19 0 -146 91
-202 145 -23 22 -81 71 -128 110 -48 38 -87 74 -87 80 0 5 -18 21 -39 34 -21
12 -60 48 -87 79 -27 30 -68 76 -92 101 -23 25 -54 66 -69 91 -14 25 -38 61
-53 80 -15 19 -31 46 -35 60 -4 14 -16 37 -26 52 -11 14 -19 32 -19 40 0 7 -8
25 -17 38 -10 14 -25 45 -35 70 -9 25 -26 70 -37 100 -25 66 -50 181 -52 244
-2 44 15 81 31 71 5 -3 12 0 16 6 5 9 -1 10 -23 6 -27 -5 -31 -3 -36 21 -7 40
2 202 14 239 6 18 8 37 4 43 -8 13 14 80 26 80 6 0 7 5 3 11 -3 6 -2 21 3 32
9 20 29 79 40 117 11 38 -32 -51 -67 -139 -58 -146 -81 -276 -82 -451 0 -221
13 -300 91 -560 15 -52 25 -102 23 -109 -4 -10 -7 -11 -10 -3 -2 7 -10 12 -18
12 -11 0 -10 -5 5 -21 11 -12 24 -18 30 -14 7 4 11 -7 12 -32 0 -21 2 -51 3
-68 1 -16 -1 -50 -6 -74 -5 -27 -4 -49 2 -56 12 -14 18 -155 7 -171 -9 -15 21
-40 32 -28 5 5 11 18 13 29 2 12 10 19 20 17 12 -2 16 4 15 22 -1 14 3 24 8
23 6 -1 10 -27 11 -57 0 -30 3 -62 6 -70 3 -8 16 -58 28 -109 12 -52 32 -126
46 -165 13 -38 24 -76 24 -83 0 -19 96 -219 109 -227 5 -4 20 -39 33 -78 37
-115 105 -174 318 -277 l64 -31 1215 0 c1128 0 1214 1 1186 16 -21 12 -61 17
-130 19 -120 4 -235 17 -328 39 -38 9 -81 16 -96 16 -16 0 -45 7 -64 15 -20 8
-75 21 -124 30 -48 8 -117 25 -153 36 -36 12 -90 30 -121 40 -30 11 -65 19
-77 19 -11 0 -23 4 -26 8 -3 5 -38 21 -78 37 -40 15 -74 29 -76 31 -2 1 1 10
6 21 5 10 15 36 22 58 8 25 34 61 69 95 31 30 68 72 84 92 18 25 40 41 65 47
21 6 48 20 60 31 23 21 57 26 67 10 8 -12 45 -13 45 -1 0 5 14 14 30 20 24 8
30 7 30 -3 0 -34 73 -34 104 -1 28 30 43 32 51 6 10 -33 46 -37 70 -8 12 13
36 28 53 32 18 3 34 11 37 16 11 16 24 10 27 -13 2 -17 11 -24 31 -26 15 -2
27 1 27 7 0 6 5 11 10 11 6 0 10 -11 10 -24 0 -19 5 -23 30 -22 25 1 32 7 45
39 8 20 15 44 15 52 0 24 20 17 30 -11 8 -20 15 -24 28 -19 9 5 41 14 71 22
59 16 71 11 71 -34 0 -16 6 -23 19 -23 35 0 37 -53 6 -128 -18 -42 -19 -62 -3
-62 6 0 19 -7 29 -15 17 -16 69 -12 69 6 0 5 9 9 20 9 16 0 20 -7 20 -30 0
-16 3 -30 8 -30 7 0 25 -29 38 -62 3 -10 14 -20 25 -23 10 -3 46 -33 81 -66
35 -33 75 -63 90 -66 14 -3 40 -18 56 -34 16 -16 45 -36 63 -45 41 -18 72 -36
90 -50 16 -12 116 -48 197 -70 45 -12 379 -14 2267 -14 l2215 0 0 1754 0 1754
-32 6 c-26 5 -30 9 -18 16 12 8 11 10 -7 10 -18 0 -23 -6 -23 -24 0 -13 5 -26
12 -28 8 -3 8 -13 -3 -36 -16 -37 -42 -39 -47 -4 -2 15 -9 22 -20 20 -23 -4
-27 -46 -7 -68 24 -26 11 -56 -43 -107 l-45 -43 38 -37 c21 -20 33 -39 27 -41
-6 -2 -8 -10 -5 -18 3 -7 9 -12 13 -9 5 3 11 1 15 -5 3 -5 -1 -10 -9 -10 -9 0
-16 -5 -16 -10 0 -6 -16 -26 -35 -44 -39 -38 -45 -66 -15 -66 15 0 20 -7 20
-25 0 -14 -4 -25 -10 -25 -5 0 -10 -7 -10 -15 0 -8 -21 -27 -47 -42 -27 -15
-54 -33 -61 -40 -7 -7 -21 -17 -30 -23 -12 -8 -13 -13 -5 -16 7 -3 9 -12 6
-20 -3 -8 0 -14 6 -14 6 0 11 5 11 10 0 6 7 10 15 10 9 0 15 -9 15 -24 0 -13
-7 -29 -15 -36 -8 -7 -15 -19 -15 -27 0 -7 -8 -16 -17 -20 -10 -3 -25 -12 -35
-20 -14 -13 -19 -12 -36 8 -28 29 -58 20 -40 -13 7 -13 16 -25 20 -28 13 -10
48 -102 42 -111 -3 -5 -13 -9 -24 -9 -24 0 -33 -28 -15 -47 14 -13 12 -17 -12
-36 -16 -12 -31 -25 -34 -31 -11 -15 -16 27 -7 54 7 22 6 23 -5 8 -12 -15 -15
-13 -34 15 -12 18 -29 48 -40 67 -10 20 -39 65 -63 100 -25 36 -51 77 -58 92
-13 32 -147 185 -212 243 -24 22 -65 58 -90 81 -25 22 -67 58 -95 80 -68 54
-110 98 -141 151 -37 64 -88 118 -158 168 -66 46 -181 107 -243 129 -26 9 -39
20 -41 35 -5 29 -27 37 -58 20 -21 -11 -32 -11 -67 0 -23 7 -65 15 -93 18 -41
4 -58 11 -80 34 -31 33 -46 36 -68 14 -12 -13 -26 -14 -73 -6 -32 5 -73 6 -90
4 -30 -5 -33 -3 -33 21 0 31 -16 35 -25 5 -6 -19 -8 -19 -31 -5 -26 18 -51 21
-56 7 -1 -5 -16 -13 -31 -16 -23 -6 -29 -4 -34 14 -3 11 -9 21 -13 21 -10 0
-37 -25 -42 -39 -1 -5 -30 -12 -63 -15 -33 -3 -86 -8 -118 -12 -47 -5 -61 -3
-77 11 -17 16 -20 16 -49 -6 -17 -13 -31 -29 -31 -36 0 -12 -46 -30 -56 -21
-2 3 0 18 6 34 13 34 7 76 -22 141 -23 51 -37 44 -19 -9 18 -52 12 -128 -11
-128 -5 0 -7 18 -3 43 8 51 -24 117 -89 187 -24 25 -51 59 -62 75 -10 17 -23
33 -28 37 -46 31 129 1 179 -31 35 -23 51 -26 133 -28 85 -1 92 0 92 18 0 10
5 19 11 19 5 0 8 4 5 8 -6 11 134 82 162 82 12 0 22 4 22 9 0 5 26 22 58 38
31 15 59 31 62 35 3 4 25 8 49 10 34 2 46 -1 55 -16 8 -14 8 -20 -1 -23 -7 -3
-13 -11 -13 -18 0 -8 -16 -17 -36 -21 -24 -4 -38 -13 -41 -25 -6 -21 -29 -25
-36 -6 -4 7 -6 6 -6 -4 -1 -9 -10 -19 -21 -22 -11 -3 -22 -13 -26 -24 -10 -31
-21 -48 -28 -43 -4 3 -12 -3 -17 -12 -5 -10 -25 -25 -44 -34 -43 -20 -44 -33
-2 -60 45 -30 91 -48 172 -68 91 -21 89 -21 142 14 24 17 62 39 83 50 21 11
68 40 103 65 36 25 69 45 74 45 5 0 18 8 29 18 10 9 78 56 149 104 72 48 175
117 230 155 198 136 262 173 297 173 35 0 98 -16 188 -48 30 -10 80 -26 110
-35 30 -9 91 -28 135 -42 44 -13 112 -31 150 -39 39 -8 90 -22 115 -32 171
-63 307 -109 383 -130 48 -13 105 -33 127 -44 21 -11 42 -20 45 -20 3 0 5 585
5 1300 l0 1300 -2692 -1 c-1798 -1 -2681 -4 -2658 -11z m-604 -423 c19 -15 19
-15 0 -30 -37 -28 -56 -14 -40 29 8 20 15 20 40 1z m-716 -210 c20 -22 22 -29
14 -67 -8 -37 -13 -43 -41 -49 -27 -5 -35 -2 -47 16 -27 41 -29 69 -6 98 27
34 50 34 80 2z m811 -55 c39 -10 64 -25 107 -66 31 -30 63 -52 70 -49 8 3 23
5 33 5 13 0 17 4 13 11 -5 9 3 10 28 5 26 -5 39 -2 48 9 29 35 290 2 290 -37
0 -5 -12 -19 -27 -32 -19 -17 -26 -32 -25 -56 1 -41 -17 -69 -60 -89 -60 -29
-108 -66 -108 -83 0 -28 -19 -31 -26 -4 -6 24 -47 92 -93 154 -16 20 -33 32
-48 32 -13 0 -23 6 -23 13 -1 20 -22 -22 -25 -50 -5 -45 -28 -58 -124 -63 -77
-5 -95 -10 -132 -35 -72 -49 -170 -85 -228 -85 -16 0 -32 -4 -35 -8 -12 -20
-88 -12 -131 13 -24 14 -50 25 -58 25 -32 0 -37 82 -8 138 76 145 302 272 472
266 21 -1 62 -7 90 -14z m-3003 -213 c6 -5 12 -20 12 -32 0 -53 -120 -32 -128
22 -6 40 66 47 116 10z m1954 6 c8 -10 27 -44 42 -75 15 -32 32 -58 37 -58 22
0 59 -50 59 -78 0 -58 -4 -60 -355 -187 -49 -18 -144 -47 -210 -65 -120 -33
-247 -84 -448 -179 -59 -28 -112 -51 -118 -51 -5 0 -17 -4 -27 -10 -9 -5 -45
-18 -80 -29 -69 -22 -95 -42 -86 -65 8 -22 92 -13 179 19 39 15 126 44 195 66
69 22 170 56 225 76 88 30 210 70 370 120 28 8 78 28 111 44 34 16 66 29 71
29 6 0 58 16 117 36 60 20 118 34 129 31 203 -48 225 -57 238 -96 11 -32 24
-39 130 -76 66 -22 95 -26 215 -28 l139 -2 87 48 c48 26 98 47 110 47 36 0
222 -41 236 -52 25 -21 12 -48 -39 -79 -45 -28 -50 -35 -44 -58 11 -48 87 -83
178 -85 45 0 171 50 161 65 -3 5 2 6 11 3 9 -4 24 1 35 12 11 11 26 25 35 32
8 7 13 17 10 22 -3 6 1 7 9 4 11 -4 16 0 16 15 0 12 3 20 8 19 4 -2 8 0 9 5 4
14 28 35 35 31 3 -2 13 3 21 11 9 8 22 15 29 15 7 0 24 9 38 20 14 11 29 20
33 20 5 0 15 7 23 15 9 8 33 15 55 15 21 0 39 5 39 11 0 13 42 1 52 -15 4 -6
2 -14 -5 -18 -9 -6 -9 -8 0 -8 6 0 18 -6 25 -13 11 -11 26 -11 87 -1 89 15
163 10 217 -16 36 -18 40 -24 41 -57 1 -21 -4 -42 -10 -46 -7 -5 -2 -6 11 -2
17 5 22 2 22 -13 0 -11 8 -23 17 -26 11 -5 13 -10 7 -14 -6 -4 -17 -18 -24
-31 -12 -23 -10 -27 31 -62 40 -34 42 -38 24 -44 -11 -4 -39 -16 -62 -26 -24
-10 -50 -19 -58 -19 -9 0 -21 -5 -28 -10 -7 -6 -28 -21 -47 -34 -19 -12 -34
-28 -33 -34 2 -6 -6 -9 -17 -7 -12 2 -26 -5 -35 -18 -14 -20 -14 -23 5 -39 12
-10 20 -28 20 -47 0 -17 4 -31 9 -31 5 0 13 -9 16 -21 8 -24 -43 -79 -75 -79
-31 0 -126 -39 -144 -59 -34 -37 17 -51 199 -54 42 -1 155 30 155 43 0 4 18
15 40 25 22 10 40 22 40 27 0 4 0 11 -1 15 0 4 28 15 63 24 35 10 77 22 93 27
17 6 48 16 70 23 22 6 53 22 68 35 15 13 46 29 68 36 36 10 38 13 20 20 -27
10 -28 38 -1 38 11 0 20 -5 20 -11 0 -7 7 -8 18 -4 9 4 35 11 57 15 118 23
118 23 110 10 -5 -9 -2 -10 14 -5 25 8 26 2 6 -29 -20 -30 -11 -54 18 -50 87
12 98 16 93 29 -3 9 0 12 10 8 17 -6 18 1 4 28 -8 15 -7 23 5 35 13 13 15 13
15 1 0 -13 15 -15 98 -10 103 6 152 22 152 51 0 15 2 15 10 2 7 -10 6 -18 -3
-25 -15 -12 -22 -39 -8 -30 6 3 18 -7 28 -21 13 -20 14 -29 5 -32 -17 -5 -15
-32 3 -32 8 0 15 -7 15 -15 0 -9 8 -18 18 -21 9 -3 26 -10 37 -14 11 -5 36
-11 56 -15 59 -9 67 -28 30 -72 -17 -21 -31 -45 -31 -54 0 -10 -10 -19 -25
-21 -13 -3 -22 -1 -19 3 8 14 -7 10 -51 -11 -22 -11 -46 -19 -52 -20 -7 0 -13
-5 -13 -11 0 -6 -17 6 -37 28 -41 43 -77 58 -164 68 -33 3 -81 19 -115 37 -52
26 -65 29 -109 22 -27 -4 -72 -8 -99 -9 -28 -1 -52 -7 -54 -13 -2 -7 -9 -12
-15 -12 -7 0 -30 -18 -52 -40 -33 -32 -47 -39 -80 -40 -76 -1 -132 -59 -93
-98 17 -17 58 -15 58 3 0 9 8 19 18 22 9 4 22 14 29 22 9 13 10 -2 6 -65 -5
-72 -3 -86 20 -134 14 -30 25 -55 24 -56 -1 -1 -24 -4 -51 -7 -27 -4 -76 -15
-110 -25 -33 -11 -81 -25 -106 -33 -100 -28 -221 -109 -261 -172 -17 -27 -20
-45 -16 -109 2 -42 0 -75 -4 -72 -15 9 -31 76 -26 112 3 20 3 29 1 20 -3 -10
-10 -18 -15 -18 -5 0 -9 -7 -9 -16 0 -8 -4 -12 -10 -9 -5 3 -10 19 -10 35 0
19 -7 33 -19 40 -30 16 -34 45 -11 89 22 45 26 96 8 107 -7 5 -24 8 -38 8 -14
1 -25 6 -25 13 0 7 -6 18 -12 24 -7 7 -13 25 -13 40 0 31 -23 44 -41 23 -9
-11 -24 -14 -51 -10 -34 5 -38 3 -38 -17 -1 -21 -1 -21 -15 -4 -23 31 -58 18
-68 -24 -7 -29 -12 -36 -27 -32 -10 3 -21 0 -24 -6 -7 -10 -11 -7 -65 40 -29
26 -22 31 69 48 65 12 170 65 170 86 0 10 -45 35 -64 35 -5 0 -26 11 -45 24
-20 13 -60 29 -89 36 -30 7 -56 19 -59 28 -7 18 26 47 80 70 20 9 40 26 43 37
4 11 19 31 35 46 l27 26 -49 2 c-27 1 -61 -4 -77 -12 -62 -33 -105 -47 -155
-52 -45 -5 -56 -2 -81 19 l-29 24 16 44 c19 48 22 94 8 102 -5 4 -42 1 -83 -4
-40 -6 -131 -13 -203 -16 -127 -5 -130 -5 -150 -32 -45 -60 -80 -94 -119 -114
-47 -24 -129 -48 -166 -48 -66 0 -140 41 -140 78 0 32 17 43 76 52 32 4 81 20
107 34 26 14 54 26 61 26 8 0 16 7 20 15 3 8 12 15 19 15 8 0 22 9 32 20 10
11 24 20 32 20 7 0 13 7 13 15 0 8 9 15 20 15 22 0 25 -12 9 -41 -10 -19 -9
-19 10 -9 17 9 21 8 21 -5 0 -21 23 -19 43 3 13 14 14 21 5 30 -7 7 -9 12 -5
12 4 0 3 9 -3 20 -6 11 -17 20 -25 20 -8 0 -34 21 -58 47 -39 41 -49 46 -84
45 -21 -1 -79 -16 -128 -33 -50 -17 -112 -37 -140 -46 -76 -23 -80 -29 -65
-106 12 -68 4 -107 -24 -107 -7 0 -21 -9 -31 -20 -42 -46 -302 -208 -380 -236
-25 -9 -31 -17 -33 -46 -4 -45 -18 -51 -70 -28 -49 22 -53 37 -14 45 54 12 53
10 107 124 41 86 42 97 15 126 -24 26 -100 170 -100 191 0 25 -44 38 -79 23
-17 -8 -31 -17 -31 -20 0 -3 -24 -11 -53 -18 -41 -10 -69 -11 -130 -1 -64 9
-93 9 -170 -4 -51 -9 -108 -21 -127 -26 -19 -6 -51 -10 -71 -10 -20 0 -52 -7
-71 -15 -28 -11 -44 -12 -74 -4 -32 9 -40 8 -51 -7 -7 -10 -13 -23 -13 -29 0
-14 -43 -35 -69 -35 -10 0 -37 18 -60 40 -42 38 -111 66 -211 86 -19 3 -51 14
-70 24 -19 10 -51 21 -70 25 -42 9 -60 22 -54 39 7 18 -13 32 -63 45 -60 16
-118 -7 -127 -52 -9 -44 9 -56 90 -63 38 -3 83 -11 99 -17 36 -13 95 -49 95
-58 0 -4 -22 -15 -50 -25 -27 -10 -50 -22 -50 -26 0 -20 -95 -7 -150 21 -32
16 -80 36 -106 44 -27 9 -64 23 -83 32 -58 30 -114 31 -173 2 -156 -74 -292
-107 -320 -79 -23 23 1 59 68 98 127 74 132 116 19 169 -39 19 -77 41 -84 49
-11 13 -7 17 24 31 21 8 41 15 46 15 4 0 38 21 75 46 103 71 218 113 367 134
41 6 95 24 140 46 85 42 128 58 222 79 39 9 120 34 181 54 130 45 151 49 308
56 113 6 118 5 105 -12 -26 -33 -64 -63 -87 -69 -12 -4 -27 -15 -33 -26 -6
-10 -21 -23 -35 -28 -24 -9 -34 -30 -14 -30 6 0 10 -4 10 -10 0 -5 -9 -10 -20
-10 -28 0 -26 -36 3 -44 45 -12 191 25 217 55 3 3 20 14 38 24 17 11 32 23 32
28 0 10 67 77 78 77 4 1 23 14 42 31 49 42 30 50 -100 44 -104 -5 -105 -5 -67
11 20 9 37 21 37 25 0 5 9 9 20 9 33 0 93 37 142 88 32 34 60 53 92 62 25 7
51 19 57 26 6 8 23 14 38 14 14 0 33 5 41 10 26 17 105 12 122 -7z m2224 -61
c12 -10 63 -27 144 -47 66 -16 140 -45 140 -56 0 -14 -75 -38 -139 -45 -39 -3
-74 -11 -77 -15 -3 -5 -13 -9 -23 -9 -10 0 -26 -9 -36 -20 -10 -11 -22 -20
-27 -20 -5 0 -21 -11 -36 -25 -15 -14 -35 -25 -45 -25 -16 0 -18 5 -13 26 4
14 17 39 29 55 22 31 26 93 6 114 -13 13 -11 63 4 68 20 8 62 8 73 -1z m-3308
-96 c-23 -22 -70 -43 -126 -55 -68 -14 -73 -14 -66 4 4 8 12 15 19 15 6 0 27
8 46 17 32 16 83 29 122 32 16 1 16 -1 5 -13z m4135 -150 c54 -18 67 -34 43
-52 -11 -8 -25 -14 -32 -14 -6 0 -25 -7 -40 -15 -27 -14 -29 -14 -32 4 -2 13
-10 17 -25 14 -16 -3 -26 4 -39 27 -31 55 -25 63 35 56 29 -4 70 -13 90 -20z
m-419 -11 c23 -35 20 -61 -11 -85 -32 -25 -69 -20 -95 13 -22 27 -22 46 -2 75
22 32 86 31 108 -3z m-4783 -64 c-21 -29 -98 -61 -271 -112 -120 -35 -295 -91
-330 -105 -93 -38 -230 -58 -230 -33 0 14 93 54 194 84 44 13 119 38 166 55
47 18 95 34 108 37 12 3 25 9 28 14 3 5 21 9 41 9 19 0 50 7 68 16 42 20 192
62 223 63 l23 1 -20 -29z m5059 -1 c0 -5 -2 -10 -4 -10 -3 0 -8 5 -11 10 -3 6
-1 10 4 10 6 0 11 -4 11 -10z m-4740 -50 c-24 -33 -22 -32 -44 -24 -26 10 -18
30 17 42 49 15 50 14 27 -18z m4378 -217 c-5 -26 -38 -29 -38 -4 0 15 6 21 21
21 14 0 19 -5 17 -17z m660 -290 c-4 -24 -23 -27 -25 -3 -1 12 4 20 13 20 9 0
14 -7 12 -17z m1505 7 c8 0 8 -3 -1 -12 -8 -8 -15 -8 -27 2 -11 9 -15 9 -15 1
0 -7 -5 -9 -11 -5 -15 9 11 26 29 19 8 -3 19 -5 25 -5z m-2408 -50 c3 -5 1
-10 -4 -10 -6 0 -11 5 -11 10 0 6 2 10 4 10 3 0 8 -4 11 -10z m105 -46 c0 -8
-4 -12 -10 -9 -5 3 -10 10 -10 16 0 5 5 9 10 9 6 0 10 -7 10 -16z m-3310 -69
c55 -12 114 -38 136 -59 6 -7 15 -26 18 -43 17 -75 196 -180 336 -197 62 -7
63 -7 143 -26 31 -7 57 -17 57 -22 0 -4 28 -8 62 -8 95 0 281 -47 331 -83 31
-24 35 -36 9 -34 -27 2 -115 -25 -130 -40 -16 -15 -55 -17 -97 -4 -71 22 -140
52 -183 79 -26 17 -90 44 -142 61 -52 18 -114 41 -137 51 -24 11 -47 20 -53
20 -29 0 -262 94 -500 203 -73 33 -110 77 -65 77 15 0 47 13 85 36 15 8 35 12
50 8 14 -4 50 -12 80 -19z m3865 -85 c3 -5 1 -10 -4 -10 -6 0 -11 5 -11 10 0
6 2 10 4 10 3 0 8 -4 11 -10z m372 -78 c4 -8 -2 -22 -13 -31 -10 -9 -25 -28
-31 -43 -7 -16 -19 -28 -28 -28 -8 0 -15 -9 -15 -19 0 -29 -17 -35 -30 -11
-15 29 5 74 40 87 25 9 49 53 29 53 -5 0 -9 4 -9 9 0 14 51 -1 57 -17z m-392
-2 c3 -5 1 -10 -4 -10 -6 0 -11 5 -11 10 0 6 2 10 4 10 3 0 8 -4 11 -10z
m1153 -35 c9 -8 -14 -36 -39 -47 -16 -7 -29 -16 -29 -20 0 -5 -7 -8 -16 -8 -9
0 -18 -9 -21 -20 -3 -11 -14 -20 -24 -20 -11 0 -19 -4 -19 -8 0 -5 -32 -14
-71 -21 -68 -13 -71 -12 -91 9 -19 20 -19 22 -3 40 9 10 39 27 66 36 27 10 49
21 49 26 0 4 21 5 48 2 40 -5 51 -2 76 20 26 23 55 27 74 11z m-3424 -1 c9 -3
16 -13 16 -21 0 -8 -4 -11 -10 -8 -5 3 -10 1 -10 -4 0 -6 -18 -18 -40 -27 -22
-9 -40 -19 -40 -23 0 -5 -18 -14 -40 -21 -45 -15 -48 -22 -20 -50 18 -18 46
-18 60 0 3 3 25 14 50 23 35 13 53 15 80 7 19 -6 66 -10 105 -10 78 0 137 -13
155 -35 10 -12 3 -19 -41 -40 -29 -14 -67 -25 -85 -25 -18 0 -72 -14 -121 -32
-105 -37 -146 -39 -199 -6 -52 33 -127 66 -169 74 -19 3 -39 12 -46 20 -9 11
-6 16 16 24 14 5 28 10 30 10 9 0 113 52 160 81 28 16 57 32 65 35 8 3 26 12
40 19 30 17 25 16 44 9z m2396 -49 c0 -16 -76 -95 -92 -95 -20 0 -1 34 22 40
18 4 25 13 25 30 0 14 5 28 10 32 17 13 35 9 35 -7z m-100 -17 c0 -4 -5 -8
-11 -8 -7 0 -17 -7 -24 -17 -14 -19 -35 -10 -35 16 0 13 8 17 35 17 19 0 35
-4 35 -8z m1980 -13 c0 -3 -10 -10 -22 -15 -21 -8 -22 -9 -3 -10 18 -1 17 -2
-4 -11 -31 -12 -34 -8 -15 19 13 19 44 31 44 17z m-3392 -32 c48 -30 83 -76
78 -99 -5 -17 0 -23 17 -28 12 -3 36 -20 52 -37 l30 -32 -36 7 c-27 5 -39 2
-52 -11 -9 -10 -33 -35 -53 -57 -33 -35 -38 -37 -60 -25 -29 15 -30 25 -4 39
29 16 27 63 -4 80 -23 12 -28 10 -60 -16 -19 -16 -35 -37 -35 -46 -1 -9 -7
-21 -13 -25 -7 -4 -18 -17 -24 -28 -7 -12 -22 -20 -36 -20 -14 0 -36 -6 -51
-14 -24 -13 -28 -12 -56 20 -30 32 -31 33 -46 14 -18 -25 -18 -33 -3 -90 11
-41 10 -46 -7 -59 -26 -18 -32 -12 -11 10 21 21 14 29 -12 15 -12 -6 -28 -11
-36 -11 -20 0 -33 47 -17 63 19 19 12 34 -21 48 -40 15 -47 25 -41 50 13 48
153 125 206 113 21 -4 27 -3 23 5 -8 12 30 71 45 71 5 0 15 -11 21 -25 16 -35
42 -14 33 27 -6 24 -3 29 20 38 15 6 33 17 41 25 21 20 78 19 112 -2z m1524
-15 c-6 -6 -16 -7 -22 -3 -9 6 -9 9 1 16 17 10 34 0 21 -13z m1695 -41 c14
-30 -6 -48 -41 -38 -8 2 15 61 23 61 4 0 12 -10 18 -23z m-1779 -44 c2 -8 -5
-13 -17 -13 -12 0 -21 6 -21 16 0 18 31 15 38 -3z m-61 -29 c-9 -9 -28 6 -21
18 4 6 10 6 17 -1 6 -6 8 -13 4 -17z m-893 -15 c-6 -11 -24 -2 -24 11 0 5 7 7
15 4 8 -4 12 -10 9 -15z m-14 -69 c0 -5 -2 -10 -4 -10 -3 0 -8 5 -11 10 -3 6
-1 10 4 10 6 0 11 -4 11 -10z m-1148 -13 c4 -7 13 -12 19 -12 7 0 16 -12 20
-27 5 -21 4 -28 -6 -28 -8 0 -15 10 -17 23 -3 19 -8 22 -38 19 -19 -2 -44 -12
-56 -23 -11 -11 -24 -16 -27 -12 -14 13 -7 42 13 56 25 17 82 20 92 4z m1945
-33 c15 -4 15 -6 3 -14 -34 -22 -79 -2 -54 23 6 5 11 5 51 -9z m-766 -70 c9
-47 0 -53 -31 -23 -18 19 -35 27 -47 23 -10 -3 -2 4 17 14 44 25 54 23 61 -14z
m1589 32 c0 -3 -4 -8 -10 -11 -5 -3 -10 -1 -10 4 0 6 5 11 10 11 6 0 10 -2 10
-4z m-6118 -31 c-5 -27 -90 -105 -107 -99 -17 7 -5 29 45 84 37 40 67 47 62
15z m5392 10 c4 -10 -3 -19 -19 -25 -18 -7 -24 -16 -22 -32 2 -23 -21 -35 -48
-24 -30 11 36 93 76 96 4 0 10 -7 13 -15z m-4522 -17 c53 -51 95 -150 109
-258 8 -68 7 -85 -12 -146 -50 -163 -120 -264 -283 -412 -101 -91 -346 -242
-394 -242 -40 0 -32 20 20 46 155 78 353 240 472 384 79 96 136 245 136 356 0
60 -34 195 -65 257 -23 46 -19 49 17 15z m4643 12 c3 -6 -1 -13 -9 -16 -9 -3
-16 -12 -16 -20 0 -16 -36 -19 -45 -5 -5 9 40 51 56 51 4 0 11 -5 14 -10z
m-2028 -12 c34 -12 44 -28 18 -28 -8 0 -15 -9 -15 -20 0 -11 -4 -20 -10 -20
-5 0 -10 9 -10 19 0 14 -5 18 -19 14 -15 -4 -18 1 -18 21 0 29 7 31 54 14z
m1745 7 c3 -3 2 -20 -1 -38 -6 -27 -11 -31 -32 -29 -37 5 -90 32 -83 43 3 6
18 7 34 4 20 -4 29 -2 33 9 6 15 38 22 49 11z m810 -22 c21 -19 23 -33 4 -33
-18 0 -27 -23 -16 -40 14 -23 1 -29 -30 -13 -35 17 -37 27 -10 50 11 10 20 25
20 35 0 22 8 23 32 1z m-2699 -45 c100 -56 128 -81 98 -86 -28 -5 -91 37 -91
60 0 15 -4 18 -22 12 -13 -4 -26 -11 -29 -17 -4 -5 -15 -7 -25 -3 -20 7 -85
-11 -96 -28 -5 -7 -8 -5 -8 6 0 9 5 20 10 23 6 3 10 13 10 22 0 18 38 63 52
63 5 0 50 -23 101 -52z m2602 11 c10 -14 1 -21 -19 -13 -9 3 -13 10 -10 15 7
12 21 11 29 -2z m-2895 -89 c0 -10 -4 -22 -10 -25 -6 -4 -10 7 -10 25 0 18 4
29 10 25 6 -3 10 -15 10 -25z m3020 0 c0 -5 -7 -10 -16 -10 -8 0 -12 5 -9 10
3 6 10 10 16 10 5 0 9 -4 9 -10z m-2440 -12 c1 -34 80 -90 80 -58 0 6 5 10 11
10 5 0 8 -4 4 -9 -3 -5 -1 -12 5 -16 6 -4 10 6 10 23 0 40 10 46 37 20 21 -19
24 -20 36 -6 14 19 57 7 57 -16 0 -9 7 -12 20 -9 21 6 41 -23 24 -36 -5 -3
-14 -15 -20 -26 -14 -25 -38 -26 -42 -3 -2 13 1 16 12 12 10 -4 16 -1 16 9 0
31 -37 30 -67 -2 -22 -22 -35 -28 -54 -24 -21 4 -25 9 -21 25 4 18 1 19 -48
13 -37 -4 -56 -2 -61 6 -6 10 -11 10 -24 -1 -18 -15 -30 -6 -38 25 -4 18 -5
18 -6 -2 -1 -26 -16 -31 -25 -8 -9 24 4 45 29 45 15 0 26 8 30 20 7 22 35 28
35 8z m-634 -52 c16 -5 20 -12 17 -26 -5 -19 -6 -19 -31 0 -14 11 -33 18 -43
15 -14 -5 -17 1 -17 31 l0 36 27 -25 c14 -14 36 -28 47 -31z m584 44 c0 -5 -4
-10 -10 -10 -5 0 -10 5 -10 10 0 6 5 10 10 10 6 0 10 -4 10 -10z m2590 6 c0
-3 -4 -8 -10 -11 -5 -3 -10 -1 -10 4 0 6 5 11 10 11 6 0 10 -2 10 -4z m-169
-22 c10 -13 10 -17 -1 -24 -9 -5 -19 -5 -27 1 -6 6 -22 8 -34 4 -14 -5 -25 -2
-30 6 -6 10 0 16 24 20 51 10 54 10 68 -7z m-1758 -56 c12 -7 30 -19 39 -27
14 -11 20 -11 33 -1 18 15 20 13 28 -20 5 -21 2 -25 -18 -26 -14 -1 -22 2 -19
7 3 5 -2 9 -11 9 -9 0 -14 4 -11 9 3 5 0 14 -7 20 -10 8 -19 7 -33 -4 -37 -28
-71 -14 -59 25 7 23 26 25 58 8z m517 -132 c0 -14 -5 -17 -22 -12 -13 3 -40 6
-60 6 -45 0 -47 9 -13 46 14 15 28 39 32 53 3 14 8 30 11 34 6 11 52 -101 52
-127z m-1320 84 c0 -5 -7 -10 -15 -10 -8 0 -15 5 -15 10 0 6 7 10 15 10 8 0
15 -4 15 -10z m1390 -21 c11 -19 10 -20 -9 -9 -12 6 -21 15 -21 20 0 18 19 11
30 -11z m-635 1 c-3 -5 -11 -10 -16 -10 -6 0 -7 5 -4 10 3 6 11 10 16 10 6 0
7 -4 4 -10z m-55 -70 c11 -6 12 -12 4 -20 -8 -8 -18 -5 -35 9 -22 19 -23 20
-4 21 11 0 27 -5 35 -10z m-60 -10 c0 -5 -7 -10 -15 -10 -8 0 -15 5 -15 10 0
6 7 10 15 10 8 0 15 -4 15 -10z m304 -4 c-3 -9 3 -17 15 -21 13 -4 18 -11 14
-22 -5 -13 -3 -13 23 0 16 8 35 12 43 9 8 -2 11 0 8 5 -3 5 0 10 8 10 8 0 17
-9 21 -19 8 -28 59 -28 81 0 12 15 12 15 7 -3 -6 -16 -4 -18 6 -8 10 9 19 9
42 -3 15 -8 27 -11 26 -7 -3 9 12 12 29 6 7 -3 10 -9 7 -14 -3 -5 1 -9 8 -9
22 0 -15 -20 -38 -20 -11 0 -34 -11 -50 -25 -16 -14 -35 -23 -42 -20 -8 3 -15
-7 -19 -25 -3 -17 -11 -30 -18 -30 -15 0 -8 41 9 52 6 4 7 10 3 14 -4 4 -15 0
-24 -9 -17 -14 -20 -14 -42 4 -16 13 -27 16 -31 9 -5 -7 -11 -6 -20 5 -7 8 -9
15 -6 15 4 0 4 5 0 11 -5 8 -10 6 -16 -5 -5 -9 -14 -14 -19 -10 -6 3 -19 -2
-29 -11 -12 -11 -20 -13 -25 -6 -3 6 -1 11 4 11 6 0 11 5 11 10 0 22 -38 9
-44 -15 -6 -24 -8 -25 -23 -10 -9 9 -19 13 -22 8 -3 -5 -19 -6 -36 -3 l-30 7
29 12 c38 15 31 18 -26 13 -35 -3 -49 -9 -53 -23 -4 -10 -22 -23 -43 -29 -51
-14 -55 -13 -49 10 3 13 0 20 -10 20 -8 0 -11 -4 -8 -10 3 -5 -1 -10 -9 -10
-20 0 -10 25 17 43 21 13 51 21 165 48 44 11 73 21 132 47 14 6 26 11 27 11 1
1 0 -5 -3 -13z m611 -37 c82 -41 93 -49 60 -44 -44 8 -165 70 -165 85 0 13 -7
16 105 -41z m170 21 l30 -21 -35 3 c-24 2 -36 9 -38 21 -4 22 6 22 43 -3z
m153 -27 c-10 -2 -26 -2 -35 0 -10 3 -2 5 17 5 19 0 27 -2 18 -5z m427 -13 c3
-5 -1 -10 -9 -10 -9 0 -16 5 -16 10 0 6 4 10 9 10 6 0 13 -4 16 -10z m50 -10
c3 -5 -1 -10 -10 -10 -9 0 -13 5 -10 10 3 6 8 10 10 10 2 0 7 -4 10 -10z
m2110 -50 c10 -16 -1 -12 -42 16 -53 36 -54 40 -6 15 23 -11 44 -25 48 -31z
m-1895 36 c0 -3 -4 -8 -10 -11 -5 -3 -10 -1 -10 4 0 6 5 11 10 11 6 0 10 -2
10 -4z m-2973 -12 c-3 -3 -12 -4 -19 -1 -8 3 -5 6 6 6 11 1 17 -2 13 -5z
m1715 -21 c3 -15 4 -15 21 1 15 15 17 15 17 2 0 -9 4 -16 10 -16 5 0 6 -8 3
-17 -5 -13 -2 -15 11 -10 9 4 15 3 12 -1 -3 -5 -22 -9 -43 -10 -21 -1 -50 -4
-64 -7 -17 -4 -30 0 -39 10 -10 12 -10 15 3 15 9 0 24 11 34 25 21 29 30 31
35 8z m2325 11 c-3 -3 -12 -4 -19 -1 -8 3 -5 6 6 6 11 1 17 -2 13 -5z m-2147
-8 c0 -11 -19 -15 -25 -6 -3 5 1 10 9 10 9 0 16 -2 16 -4z m650 -6 c0 -5 -5
-10 -11 -10 -5 0 -7 5 -4 10 3 6 8 10 11 10 2 0 4 -4 4 -10z m-1375 -10 c-3
-5 -12 -10 -18 -10 -7 0 -6 4 3 10 19 12 23 12 15 0z m698 -37 c-10 -8 -12
-13 -4 -13 7 0 10 -4 6 -10 -9 -15 -55 11 -55 31 0 28 29 39 52 20 17 -15 17
-17 1 -28z m52 37 c-3 -5 -12 -10 -18 -10 -7 0 -6 4 3 10 19 12 23 12 15 0z
m59 -6 c15 -9 16 -15 7 -33 -7 -12 -21 -21 -34 -20 l-22 0 23 11 c25 13 24 34
-2 32 -9 -1 -16 4 -16 11 0 15 16 14 44 -1z m56 -4 c0 -5 -5 -10 -11 -10 -5 0
-7 5 -4 10 3 6 8 10 11 10 2 0 4 -4 4 -10z m2721 -31 l-10 -24 0 26 c-1 14 2
29 6 33 12 12 14 -9 4 -35z m209 -23 c12 -21 13 -27 1 -38 -12 -11 -13 -10 -8
3 3 10 -5 27 -22 43 -29 27 -51 34 -51 14 0 -6 -2 -9 -5 -7 -2 3 -2 15 2 27
l5 22 32 -19 c17 -11 38 -31 46 -45z m-2270 40 c0 -14 -59 -41 -68 -31 -7 7
39 45 55 45 7 0 13 -6 13 -14z m-594 -29 c3 -24 -40 -41 -75 -29 -24 8 -23 9
18 16 38 6 41 8 30 22 -11 14 -11 16 5 13 11 -2 20 -12 22 -22z m287 7 c20 -3
37 -10 37 -15 0 -15 -32 -10 -75 11 -22 11 -31 18 -20 15 11 -2 37 -7 58 -11z
m481 -17 c-9 -5 -37 -11 -62 -13 -141 -13 -162 -17 -162 -25 0 -5 -7 -9 -15
-9 -9 0 -12 6 -9 15 4 9 0 15 -10 15 -9 0 -16 4 -16 10 0 8 23 7 83 -5 10 -2
35 2 56 10 21 7 48 11 62 9 13 -3 35 2 49 9 28 15 51 -1 24 -16z m-1887 0 c11
-12 0 -13 -116 -9 -77 3 -110 7 -100 13 15 11 205 6 216 -4z m2983 -7 c0 -5
-2 -10 -4 -10 -3 0 -8 5 -11 10 -3 6 -1 10 4 10 6 0 11 -4 11 -10z m73 -34
c-3 -4 -9 -2 -14 5 -13 22 -11 31 5 17 8 -7 12 -17 9 -22z m42 13 c-4 -5 -12
-9 -18 -8 -9 0 -8 2 1 6 6 2 9 10 6 15 -4 7 -2 8 5 4 6 -4 9 -12 6 -17z
m-4444 -20 c6 -12 21 -19 41 -19 17 0 70 -7 116 -16 47 -9 96 -14 110 -11 34
6 101 -24 179 -79 70 -50 118 -108 128 -155 5 -21 11 -29 21 -25 9 3 14 -1 14
-13 0 -28 -21 -81 -32 -81 -6 0 -8 7 -4 15 3 8 1 15 -3 15 -5 0 -11 -5 -13
-10 -2 -6 -11 -4 -23 5 -13 11 -16 18 -8 21 6 3 9 16 7 31 -7 36 -46 110 -51
96 -3 -9 -10 -9 -30 0 -21 9 -27 9 -30 0 -4 -10 -11 -9 -33 2 -32 17 -112 14
-118 -3 -2 -6 -9 -9 -17 -6 -7 3 -18 -4 -24 -15 -7 -12 -25 -22 -49 -26 -20
-3 -57 -12 -82 -20 -25 -8 -55 -15 -66 -15 -12 0 -27 -7 -34 -15 -7 -8 -26
-15 -42 -15 -16 0 -39 -5 -50 -11 -18 -10 -20 -9 -15 5 8 19 -11 32 -26 17 -8
-8 -8 -14 1 -23 17 -17 -4 -38 -37 -38 -28 -1 -65 -23 -54 -33 10 -11 55 -8
48 2 -3 6 4 8 17 6 26 -5 71 -52 63 -65 -3 -5 9 -11 26 -15 56 -12 67 39 14
64 -17 8 -32 17 -35 21 -3 4 -12 10 -20 13 -8 4 9 5 38 3 28 -1 52 1 52 6 0 5
6 8 13 5 6 -2 28 2 47 10 38 16 110 21 128 9 39 -24 -9 -56 -85 -58 -28 0 -43
-5 -43 -13 0 -8 -6 -15 -12 -18 -18 -6 62 -40 89 -38 17 0 21 -4 17 -17 -5
-16 -5 -16 6 1 6 9 15 15 21 12 5 -4 9 -2 9 3 0 5 17 9 38 10 36 2 41 -2 80
-58 23 -32 42 -61 42 -63 0 -2 -8 -14 -19 -26 -16 -18 -23 -20 -47 -11 -24 9
-31 8 -42 -7 -15 -21 1 -31 22 -13 11 8 16 8 21 0 4 -6 -1 -17 -11 -25 -13 -9
-21 -10 -25 -3 -4 7 -18 8 -35 3 -16 -5 -35 -7 -43 -6 -7 1 -10 -2 -7 -8 12
-19 -36 -33 -92 -29 -47 4 -59 10 -81 37 -29 35 -42 38 -62 15 -10 -12 -10
-17 0 -23 10 -6 9 -10 -3 -14 -9 -4 -16 -13 -16 -22 0 -18 -26 -21 -32 -3 -6
16 -102 17 -104 1 -1 -7 -2 -17 -3 -23 -3 -22 -75 -4 -93 24 -4 6 -6 16 -3 23
2 7 0 15 -5 18 -6 4 -10 16 -10 28 0 19 4 17 30 -15 32 -38 78 -55 87 -32 3 8
13 14 23 14 13 0 20 9 22 28 2 22 10 29 43 37 23 6 54 19 69 31 25 18 27 23
16 43 -9 18 -17 21 -33 16 -12 -4 -35 -8 -51 -10 -17 -1 -32 -7 -34 -13 -2 -7
-15 -12 -29 -12 -14 0 -39 -6 -56 -13 -69 -30 -111 -39 -175 -37 -105 3 -114
1 -162 -23 -31 -15 -46 -29 -48 -45 -3 -16 -8 -21 -20 -18 -9 3 -48 15 -87 27
-38 12 -96 34 -128 50 -32 17 -61 27 -66 25 -4 -3 -8 0 -8 7 0 7 -3 22 -7 35
-6 18 -4 22 14 22 12 0 18 4 15 10 -3 5 -20 9 -37 7 -24 -1 -31 2 -34 18 -1
11 3 26 10 35 7 8 25 42 41 75 45 94 130 198 198 242 35 22 198 80 362 128 87
25 260 53 333 53 51 -1 65 -4 73 -19z m2755 6 c-3 -8 -1 -15 5 -15 5 0 12 7
15 15 5 12 13 8 36 -17 29 -31 23 -53 -8 -28 -12 11 -13 10 -8 -5 5 -12 4 -16
-4 -11 -6 3 -15 -2 -21 -11 -5 -10 -13 -14 -18 -10 -4 5 1 15 11 23 27 20 12
29 -16 10 -31 -22 -44 -20 -53 7 -5 17 -8 18 -12 7 -4 -8 -13 -21 -22 -28 -14
-12 -13 -13 10 -9 16 2 37 -4 50 -14 23 -17 22 -17 -27 -16 -27 1 -52 6 -56
12 -5 7 -14 6 -29 -3 -31 -20 -34 -8 -4 16 17 14 21 22 13 25 -9 4 -7 6 3 6 9
1 19 7 22 15 3 7 19 15 36 18 16 2 28 1 25 -4 -3 -4 4 -8 15 -8 11 0 22 9 26
20 3 11 9 20 12 20 3 0 3 -7 -1 -15z m2621 -32 c0 -6 -4 -11 -8 -10 -5 1 -20
-11 -34 -28 -26 -30 -19 -9 11 33 11 14 12 22 5 22 -7 0 -9 4 -6 10 7 12 32
-8 32 -27z m-2142 7 c61 -5 167 -13 238 -16 73 -4 127 -11 127 -17 0 -6 -45
-8 -127 -4 -196 9 -443 30 -443 38 0 10 38 16 70 12 14 -1 75 -7 135 -13z
m-281 -5 c16 -12 17 -15 4 -15 -8 0 -21 7 -28 15 -16 19 -1 19 24 0z m2349 0
c-3 -9 -8 -14 -10 -11 -3 3 -2 9 2 15 9 16 15 13 8 -4z m116 -55 c4 0 7 -10 8
-21 2 -21 1 -21 -14 2 -9 13 -21 27 -26 30 -5 4 -6 13 -2 20 6 9 11 7 18 -9 6
-12 13 -22 16 -22z m-2469 -10 c0 -5 -10 -10 -22 -9 -22 0 -22 1 -3 9 11 5 21
9 23 9 1 1 2 -3 2 -9z m2438 -53 c1 -22 2 -23 -27 28 l-22 40 23 -25 c13 -13
25 -33 26 -43z m-2498 43 c13 -8 13 -10 -2 -10 -9 0 -20 5 -23 10 -8 13 5 13
25 0z m2420 -4 c0 -3 -4 -8 -10 -11 -5 -3 -10 -1 -10 4 0 6 5 11 10 11 6 0 10
-2 10 -4z m-2620 -26 c13 -9 13 -11 0 -20 -19 -13 -30 -13 -30 0 0 6 -17 10
-37 11 -31 0 -34 2 -18 9 27 12 67 12 85 0z m130 -23 c0 -4 4 -5 10 -2 6 3 7
-1 4 -9 -5 -12 0 -16 20 -16 14 0 26 -4 26 -9 0 -13 -81 10 -87 25 -2 7 -11
10 -19 7 -17 -6 -18 3 -2 21 10 10 17 11 30 2 10 -6 18 -14 18 -19z m2617 1
c-3 -8 -6 -5 -6 6 -1 11 2 17 5 13 3 -3 4 -12 1 -19z m-3757 2 c0 -5 -5 -10
-11 -10 -5 0 -7 5 -4 10 3 6 8 10 11 10 2 0 4 -4 4 -10z m3670 -25 c0 -5 -5
-3 -10 5 -5 8 -10 20 -10 25 0 6 5 3 10 -5 5 -8 10 -19 10 -25z m-3941 -42 c1
-7 -3 -13 -7 -13 -5 0 -9 15 -9 33 -1 26 1 28 7 12 5 -11 9 -26 9 -32z m40 17
c6 0 11 -2 11 -4 0 -2 3 -11 6 -20 5 -12 0 -16 -17 -15 -13 0 -18 3 -11 6 6 2
12 9 12 15 0 6 -8 7 -17 4 -10 -4 -14 -4 -11 0 4 4 3 16 -3 28 -9 19 -9 19 4
4 8 -10 19 -18 26 -18z m211 13 c1 -27 27 -56 41 -47 7 4 26 9 42 11 27 3 27
2 13 -18 -8 -12 -12 -28 -9 -35 4 -10 0 -12 -13 -7 -12 4 -15 3 -10 -5 4 -7 4
-12 0 -12 -12 0 -44 32 -44 45 0 7 -9 20 -20 30 -11 10 -20 26 -20 37 0 23 20
24 20 1z m3792 -13 c-2 -16 -6 -30 -8 -30 -2 0 -4 14 -4 30 0 17 4 30 8 30 5
0 7 -13 4 -30z m-2973 -4 c9 -11 4 -13 -28 -12 -31 0 -37 3 -29 13 14 17 43
16 57 -1z m331 3 c0 -17 -23 -35 -47 -36 -31 -2 -29 9 5 29 32 20 42 22 42 7z
m2270 -19 c0 -5 -5 -10 -11 -10 -5 0 -7 5 -4 10 3 6 8 10 11 10 2 0 4 -4 4
-10z m-3450 -21 c0 -5 -4 -9 -10 -9 -5 0 -10 5 -10 11 0 5 -5 7 -12 3 -7 -4
-8 -3 -4 4 7 12 36 5 36 -9z m210 12 c0 -12 -39 -21 -45 -11 -3 5 5 11 17 13
13 2 24 5 26 6 1 0 2 -3 2 -8z m1374 -30 c-4 -3 -9 0 -11 7 -3 6 -8 10 -12 8
-4 -3 -8 1 -8 9 0 13 4 12 19 -2 10 -9 15 -19 12 -22z m2349 5 c-3 -5 -1 -6 5
-2 6 4 26 -3 44 -16 48 -34 58 -45 58 -63 0 -9 4 -14 9 -11 5 3 11 -1 15 -9 3
-8 11 -12 19 -10 20 8 36 -85 25 -148 -15 -93 -31 -157 -40 -157 -4 0 -8 -9
-8 -20 0 -21 -20 -28 -21 -7 0 6 -4 3 -9 -8 -8 -17 -9 -16 -9 9 -1 21 3 27 14
22 9 -3 15 0 15 9 0 8 -5 15 -11 15 -6 0 -9 9 -6 20 4 14 -7 33 -34 63 -28 29
-39 49 -36 64 3 14 0 20 -9 16 -6 -2 -15 0 -19 6 -3 6 -15 11 -26 11 -12 0
-19 7 -19 18 0 10 -5 23 -11 29 -15 15 13 165 35 189 13 14 29 -3 19 -20z
m-283 4 c6 -11 8 -20 6 -20 -3 0 -10 9 -16 20 -6 11 -8 20 -6 20 3 0 10 -9 16
-20z m-2004 0 c9 0 13 -4 10 -9 -4 -5 0 -12 6 -14 10 -4 9 -8 -2 -16 -10 -7
-11 -11 -2 -11 6 0 12 -4 12 -10 0 -5 -7 -10 -15 -10 -14 0 -17 4 -19 33 -1 6
-10 20 -21 30 -18 17 -18 18 -2 13 10 -3 25 -6 33 -6z m-2942 -30 c60 -25 106
-67 87 -79 -10 -6 -11 -13 -2 -29 15 -29 14 -35 -6 -27 -18 7 -35 10 -111 21
-23 3 -45 10 -48 15 -3 5 -21 9 -41 9 -28 0 -34 3 -29 16 3 9 6 21 6 28 0 14
67 64 87 65 6 1 32 -8 57 -19z m3366 -1 l35 -1 -35 -10 c-19 -6 -29 -13 -21
-16 10 -3 11 -6 1 -12 -8 -5 -3 -7 13 -7 15 1 27 8 27 15 0 6 8 12 18 12 15 0
15 -2 2 -11 -12 -8 -11 -9 5 -6 11 2 19 9 17 18 -2 8 0 11 4 6 4 -4 9 -17 11
-27 4 -28 -19 -36 -182 -60 -77 -11 -147 -22 -156 -24 -11 -2 -24 10 -38 37
-12 22 -20 41 -19 42 2 1 63 10 136 20 114 15 132 20 127 34 -5 13 -4 14 6 4
7 -7 29 -13 49 -14z m1560 -10 c0 -6 -4 -7 -10 -4 -5 3 -10 11 -10 16 0 6 5 7
10 4 6 -3 10 -11 10 -16z m-31 -69 c0 -8 -6 0 -14 19 -8 18 -15 36 -15 40 1
13 29 -45 29 -59z m-3300 31 c19 -19 19 -20 1 -26 -10 -3 -21 -13 -24 -21 -4
-11 -13 -13 -27 -9 -19 6 -21 4 -15 -11 6 -15 5 -17 -5 -6 -7 6 -25 12 -40 12
-15 0 -30 4 -33 9 -3 4 6 7 19 5 14 -1 27 2 31 7 3 5 -2 9 -10 9 -9 0 -16 6
-16 14 0 22 19 30 26 12 4 -11 19 -16 47 -16 32 0 38 3 29 12 -12 12 -16 28
-7 28 3 0 14 -9 24 -19z m1402 4 c0 -6 -10 -12 -23 -13 -19 -4 -20 -2 -9 12
15 17 33 18 32 1z m1249 11 c0 -3 -4 -8 -10 -11 -5 -3 -10 -1 -10 4 0 6 5 11
10 11 6 0 10 -2 10 -4z m-4088 -53 c10 -9 18 -24 18 -33 0 -27 -31 -34 -53
-12 -16 17 -17 22 -6 41 17 25 18 25 41 4z m2819 -4 c10 -12 16 -26 12 -32 -4
-7 -8 -6 -11 3 -3 8 -15 22 -26 32 -14 11 -16 17 -7 18 7 0 22 -10 32 -21z
m-2019 -49 c-18 -11 -43 -20 -56 -20 -13 0 -85 -16 -160 -35 -75 -19 -149 -34
-164 -34 -27 2 -27 2 -2 6 14 2 49 13 79 24 29 11 55 18 58 16 2 -2 38 5 81
15 42 11 89 21 105 22 15 0 27 4 27 8 0 6 21 12 55 17 6 0 -5 -8 -23 -19z
m945 -9 c10 -16 9 -20 -3 -25 -9 -3 -23 -2 -32 4 -16 9 -16 9 0 10 11 0 15 5
12 15 -9 22 9 18 23 -4z m1093 -1 c-24 -15 -36 -11 -14 4 10 8 21 12 24 10 2
-3 -2 -9 -10 -14z m-1394 2 c-2 -4 25 -6 60 -4 44 2 64 0 64 -8 0 -8 -14 -11
-40 -8 -24 2 -41 -1 -44 -8 -8 -20 16 -34 59 -34 32 -1 37 -3 22 -11 -9 -5
-22 -7 -28 -3 -6 3 -14 2 -18 -3 -3 -5 -30 -7 -58 -5 -44 3 -53 7 -53 23 0 10
-5 19 -10 19 -6 0 -5 8 2 19 7 11 16 17 20 15 4 -3 8 0 8 5 0 6 5 11 11 11 5
0 8 -3 5 -8z m234 -13 c0 -5 -3 -9 -7 -9 -5 0 -18 -3 -30 -6 -17 -5 -23 -2
-23 10 0 10 6 13 15 10 8 -4 15 -1 15 5 0 6 7 8 15 5 8 -4 15 -10 15 -15z
m2115 -6 c-14 -16 -28 -35 -30 -44 -3 -9 -15 -19 -27 -22 -14 -4 -19 -11 -15
-21 4 -9 1 -16 -6 -17 -8 0 -8 -2 1 -6 10 -4 8 -9 -7 -20 -26 -18 -27 -30 -1
-38 11 -4 18 -11 15 -16 -4 -5 1 -9 9 -9 9 0 16 5 16 10 0 6 5 10 11 10 17 0
-8 -27 -30 -33 -19 -5 -46 30 -53 68 -1 11 -6 22 -10 25 -4 3 15 23 41 45 27
22 47 43 44 48 -2 4 4 10 14 14 10 3 22 12 26 20 4 7 12 13 18 13 5 0 -2 -12
-16 -27z m-3745 -4 c-7 -11 -14 -19 -16 -16 -7 7 7 37 17 37 6 0 5 -9 -1 -21z
m1550 11 c0 -5 -2 -10 -4 -10 -3 0 -8 5 -11 10 -3 6 -1 10 4 10 6 0 11 -4 11
-10z m-310 -6 c0 -3 -6 -11 -13 -18 -13 -14 -37 -10 -37 5 0 6 4 8 9 4 5 -3
12 -1 16 5 7 11 25 14 25 4z m547 0 c-3 -3 -12 -4 -19 -1 -8 3 -5 6 6 6 11 1
17 -2 13 -5z m1241 -7 c-16 -6 -28 -17 -28 -24 0 -14 16 -18 23 -5 2 4 2 1 0
-6 -1 -8 -3 -20 -3 -28 0 -8 -4 -14 -10 -14 -5 0 -6 7 -3 17 4 11 3 14 -5 9
-7 -4 -12 -20 -12 -35 0 -40 -19 -55 -42 -34 -18 16 -18 16 -12 -3 6 -18 6
-18 -9 1 -9 11 -16 25 -17 30 0 6 5 3 10 -5 8 -13 10 -13 10 2 0 9 5 20 12 24
8 5 9 1 4 -12 -6 -15 -4 -16 5 -7 7 8 9 21 3 40 -13 45 -11 48 36 54 64 9 68
8 38 -4z m2251 -37 c12 -8 21 -24 21 -37 0 -18 5 -21 33 -20 28 2 32 -1 35
-27 2 -19 6 -25 11 -17 6 8 13 1 25 -22 21 -45 20 -86 -1 -103 -24 -18 -36
-17 -29 1 4 13 2 13 -14 5 -29 -16 -30 -14 -30 52 0 57 -1 61 -14 42 -8 -11
-15 -42 -17 -69 -3 -59 -8 -75 -21 -75 -6 0 -7 13 -3 31 5 22 4 29 -4 25 -6
-4 -11 -18 -11 -32 0 -13 -4 -24 -10 -24 -5 0 -10 19 -10 43 -1 33 -3 38 -11
25 -5 -10 -18 -22 -27 -27 -17 -9 -17 -3 -5 92 7 56 17 111 22 122 5 11 13 31
17 45 6 23 7 23 14 5 5 -11 17 -27 29 -35z m-4990 15 c24 -5 46 -16 49 -24 3
-8 0 -11 -7 -7 -6 4 -9 2 -6 -7 4 -9 -14 -18 -67 -30 -100 -24 -139 -21 -63 3
33 11 71 20 85 21 23 1 22 2 -7 11 -18 6 -33 15 -33 20 0 5 -4 7 -8 4 -4 -2
-8 4 -8 14 0 10 5 16 11 12 5 -4 30 -11 54 -17z m808 13 c-2 -7 -10 -13 -18
-13 -8 0 -20 -4 -27 -9 -11 -7 -12 -4 -3 13 12 22 56 30 48 9z m43 2 c0 -5 -5
-10 -11 -10 -5 0 -7 5 -4 10 3 6 8 10 11 10 2 0 4 -4 4 -10z m164 -5 c-4 -8
-7 -15 -9 -15 -2 0 -5 7 -9 15 -3 9 0 15 9 15 9 0 12 -6 9 -15z m2774 -26 c16
-25 13 -28 -24 -35 -16 -3 -37 -15 -47 -27 -10 -12 -16 -16 -12 -9 3 6 0 15
-8 18 -12 4 -14 19 -8 57 0 5 5 6 9 3 4 -2 14 -1 22 5 25 15 55 10 68 -12z
m-3208 -4 c9 -11 16 -12 25 -5 17 14 25 0 20 -36 -2 -16 -4 -32 -4 -36 -2 -13
-82 -6 -88 8 -3 8 -9 11 -14 8 -5 -3 -6 -11 -3 -17 5 -9 3 -9 -6 0 -11 10 -11
15 0 28 15 18 0 21 -18 3 -7 -7 -12 -8 -12 -2 0 14 39 36 52 28 7 -4 8 -3 4 4
-17 29 22 43 44 17z m3024 -1 c19 -18 21 -45 4 -62 -18 -18 -24 -15 -38 18
-20 49 1 77 34 44z m-5513 -31 c13 -16 12 -17 -3 -4 -17 13 -22 21 -14 21 2 0
10 -8 17 -17z m5073 -12 c9 -10 25 -34 35 -54 l18 -35 -24 2 c-14 0 -26 9 -29
21 -9 27 -24 35 -51 29 -27 -7 -42 19 -23 41 17 21 54 19 74 -4z m-2844 -1 c0
-5 -5 -10 -12 -10 -6 0 -9 -3 -5 -6 3 -3 -8 -20 -24 -36 -16 -17 -29 -35 -29
-41 0 -5 21 13 48 42 26 28 51 51 55 51 4 0 24 -11 45 -24 20 -12 40 -24 45
-24 4 -1 18 -9 32 -18 24 -16 35 -54 15 -54 -5 0 -10 -7 -10 -16 0 -8 4 -13 9
-9 5 3 12 1 15 -3 8 -14 -167 -39 -205 -29 -20 5 -34 5 -38 -2 -4 -5 -18 -11
-31 -13 -14 -2 -30 -6 -36 -10 -5 -4 -35 -10 -65 -13 l-54 -6 40 20 c24 12 33
20 22 21 -10 0 -27 -4 -37 -10 -12 -6 -28 -6 -49 1 -35 12 -38 21 -16 43 19
19 19 36 0 36 -13 0 -14 4 -5 20 9 17 8 20 -7 20 -34 1 14 21 57 25 21 1 43 6
50 10 13 8 152 42 178 44 6 1 12 -3 12 -9z m350 0 c0 -5 -7 -10 -16 -10 -8 0
-12 5 -9 10 3 6 10 10 16 10 5 0 9 -4 9 -10z m-2516 -9 c3 -5 -1 -11 -9 -14
-9 -4 -12 -1 -8 9 6 16 10 17 17 5z m2516 -31 c0 -5 7 -7 16 -3 11 4 15 2 13
-6 -3 -7 -8 -12 -13 -11 -5 1 -12 -4 -16 -10 -6 -9 -12 -9 -28 1 -19 12 -19
14 -4 26 20 15 32 16 32 3z m-2489 -17 c13 -16 12 -17 -3 -4 -17 13 -22 21
-14 21 2 0 10 -8 17 -17z m1466 2 c0 -8 -4 -12 -9 -9 -4 3 -8 9 -8 15 0 5 4 9
8 9 5 0 9 -7 9 -15z m-3407 -5 c0 -5 -5 -10 -11 -10 -5 0 -7 5 -4 10 3 6 8 10
11 10 2 0 4 -4 4 -10z m40 -3 c-27 -15 -36 -14 -25 2 3 6 16 11 28 11 21 0 21
-1 -3 -13z m207 7 c-3 -3 -12 -4 -19 -1 -8 3 -5 6 6 6 11 1 17 -2 13 -5z
m7164 -4 c28 -15 24 -28 -15 -44 -18 -8 -37 -19 -40 -25 -4 -6 -16 -11 -27
-11 -19 0 -19 0 1 20 11 11 20 26 20 33 0 15 20 37 33 37 4 0 17 -5 28 -10z
m-1087 -16 c3 -8 -1 -14 -8 -14 -8 0 -14 -6 -13 -12 1 -37 -4 -58 -13 -53 -5
3 -10 2 -10 -3 0 -13 -27 -23 -45 -16 -19 8 -19 37 0 73 8 16 13 30 11 32 -2
2 13 5 34 5 25 1 41 -3 44 -12z m76 -20 c0 -8 -4 -12 -10 -9 -5 3 -10 13 -10
21 0 8 5 12 10 9 6 -3 10 -13 10 -21z m-6311 12 c-12 -10 -60 -16 -54 -6 3 5
18 10 32 10 15 0 24 -2 22 -4z m6410 -12 c18 -9 30 -18 27 -21 -10 -11 -116
-31 -121 -23 -3 4 4 10 15 13 12 3 20 14 20 26 0 25 16 26 59 5z m-1549 0 c0
-3 -6 -11 -13 -18 -10 -11 -15 -11 -24 0 -10 10 -10 14 0 17 17 8 37 8 37 1z
m100 -4 c13 -8 13 -10 -2 -10 -9 0 -20 5 -23 10 -8 13 5 13 25 0z m-5280 -19
c0 -5 -8 -8 -17 -7 -10 0 -17 -5 -15 -12 1 -8 -2 -11 -8 -7 -8 5 -6 13 6 26
16 18 34 17 34 0z m4807 3 c-3 -3 -12 -4 -19 -1 -8 3 -5 6 6 6 11 1 17 -2 13
-5z m1433 -4 c8 -5 11 -10 5 -10 -5 0 -17 5 -25 10 -8 5 -10 10 -5 10 6 0 17
-5 25 -10z m2938 -16 c1 -1 0 -9 -4 -18 -11 -29 -34 -19 -34 15 0 28 2 30 18
18 9 -7 18 -14 20 -15z m-4116 -23 c-10 -10 -21 -14 -26 -10 -6 6 -2 15 9 23
26 19 39 10 17 -13z m-5162 9 c0 -5 -2 -10 -4 -10 -3 0 -8 5 -11 10 -3 6 -1
10 4 10 6 0 11 -4 11 -10z m336 1 c-3 -5 -19 -11 -36 -13 -36 -5 -27 8 10 15
14 2 26 5 28 6 2 0 1 -3 -2 -8z m639 -33 c-3 -23 -8 -44 -10 -47 -7 -7 -6 55
1 73 11 28 14 17 9 -26z m5748 1 c3 -12 0 -16 -9 -12 -8 3 -11 10 -7 16 4 6 0
8 -10 4 -12 -5 -17 -1 -17 13 0 17 3 19 19 8 11 -7 22 -20 24 -29z m147 32 c7
11 12 11 22 1 9 -9 9 -15 0 -24 -15 -15 -127 -24 -136 -10 -9 15 76 41 92 28
10 -7 16 -5 22 5z m-6747 -8 c-7 -2 -21 -2 -30 0 -10 3 -4 5 12 5 17 0 24 -2
18 -5z m87 -23 c-17 -14 -28 -16 -52 -9 -40 11 -52 24 -15 15 33 -8 70 1 62
15 -3 5 1 6 10 3 13 -5 12 -9 -5 -24z m173 -5 c-7 -21 -12 -19 -10 4 0 11 5
18 9 15 4 -3 5 -11 1 -19z m632 15 c-3 -5 -10 -10 -16 -10 -5 0 -9 5 -9 10 0
6 7 10 16 10 8 0 12 -4 9 -10z m1827 -7 c37 -33 10 -46 -29 -14 -13 11 -23 22
-23 25 0 12 34 5 52 -11z m4495 11 c-3 -3 -12 -4 -19 -1 -8 3 -5 6 6 6 11 1
17 -2 13 -5z m-3708 -8 c-2 -2 -42 -6 -89 -9 -49 -3 -70 -2 -50 3 36 8 147 13
139 6z m-919 -16 c0 -5 -5 -10 -11 -10 -5 0 -7 5 -4 10 3 6 8 10 11 10 2 0 4
-4 4 -10z m-2470 -10 c0 -5 -4 -10 -10 -10 -5 0 -10 5 -10 10 0 6 5 10 10 10
6 0 10 -4 10 -10z m43 -10 c4 0 5 4 2 10 -3 6 1 7 9 4 9 -3 16 -10 16 -15 0
-5 12 -6 27 -3 23 6 25 5 19 -12 -6 -15 -5 -16 5 -7 9 9 18 9 40 -3 16 -8 29
-20 29 -26 0 -9 -3 -9 -12 0 -16 16 -38 15 -38 -1 0 -7 16 -19 36 -26 19 -7
33 -15 31 -18 -3 -2 -20 2 -38 10 -19 7 -41 12 -49 10 -13 -4 -13 -3 0 6 13 9
12 13 -8 31 -12 11 -22 18 -22 14 0 -3 -6 -2 -12 3 -7 6 -25 13 -40 17 -16 3
-28 12 -28 18 0 9 3 9 12 0 7 -7 16 -12 21 -12z m757 12 c0 -5 -7 -9 -15 -9
-8 0 -12 4 -9 9 3 4 9 8 15 8 5 0 9 -4 9 -8z m3067 2 c-3 -3 -12 -4 -19 -1 -8
3 -5 6 6 6 11 1 17 -2 13 -5z m-3183 -19 c-4 -8 -8 -15 -10 -15 -2 0 -4 7 -4
15 0 8 4 15 10 15 5 0 7 -7 4 -15z m2169 0 c4 -8 2 -17 -3 -20 -6 -4 -10 3
-10 14 0 25 6 27 13 6z m1060 8 c-7 -2 -19 -2 -25 0 -7 3 -2 5 12 5 14 0 19
-2 13 -5z m2700 0 c4 -3 2 -12 -4 -20 -15 -17 -10 -16 36 3 20 8 42 13 48 11
7 -3 -4 -11 -23 -18 -72 -26 -186 -89 -228 -125 -24 -20 -46 -34 -49 -30 -4 3
-4 8 -2 9 32 27 124 90 144 99 26 11 36 32 11 22 -8 -3 -16 3 -19 15 -3 12 1
22 9 25 8 3 14 0 14 -7 0 -8 3 -9 8 -1 6 10 27 21 43 23 3 1 9 -2 12 -6z
m2344 1 c-3 -3 -12 -4 -19 -1 -8 3 -5 6 6 6 11 1 17 -2 13 -5z m-5914 -30 c-7
-20 -20 -17 -26 5 -3 14 0 17 14 14 10 -3 15 -11 12 -19z m3466 -5 c16 -37 9
-46 -23 -31 -19 8 -26 8 -30 -1 -2 -7 -5 -5 -5 5 -1 9 3 19 9 23 5 3 7 12 3
20 -11 31 32 15 46 -16z m-5873 -5 c-4 -9 -9 -15 -11 -12 -3 3 -3 13 1 22 4 9
9 15 11 12 3 -3 3 -13 -1 -22z m1881 20 c-3 -3 -12 -4 -19 -1 -8 3 -5 6 6 6
11 1 17 -2 13 -5z m1853 -34 c-11 -20 -10 -22 4 -17 19 7 20 3 6 -23 -7 -12
-17 -16 -32 -12 -17 4 -20 2 -15 -11 5 -14 -2 -13 -51 6 -31 11 -60 26 -64 32
-4 5 -8 7 -8 3 0 -4 -15 -1 -33 7 -19 8 -43 12 -54 9 -12 -3 -23 -2 -26 3 -3
4 20 9 51 10 32 1 78 5 104 10 44 9 46 9 37 -10 -15 -26 -6 -30 14 -7 9 11 13
21 9 21 -4 1 7 5 23 8 38 9 50 -1 35 -29z m-1773 24 c-3 -3 -12 -4 -19 -1 -8
3 -5 6 6 6 11 1 17 -2 13 -5z m156 -11 c-13 -2 -33 -2 -45 0 -13 2 -3 4 22 4
25 0 35 -2 23 -4z m844 -8 c0 -8 -4 -15 -8 -15 -11 0 -20 16 -12 24 11 11 20
7 20 -9z m4341 -27 c40 -17 71 -33 68 -36 -3 -3 -21 2 -38 11 -18 10 -62 28
-98 42 -36 14 -51 23 -35 19 17 -3 63 -19 103 -36z m1022 30 c0 -9 4 -8 10 2
8 12 10 11 10 -8 0 -20 4 -22 32 -17 42 8 49 15 15 15 -15 0 -27 5 -27 10 0 6
20 10 45 10 32 0 45 -4 45 -14 0 -8 7 -22 16 -30 9 -9 17 -22 19 -29 9 -41 29
-78 40 -73 10 3 12 -11 10 -57 -1 -34 1 -54 4 -44 6 17 8 16 18 -5 21 -45 33
-106 33 -172 0 -37 4 -66 10 -66 15 0 12 -41 -5 -74 -17 -32 -20 -76 -5 -76 6
0 10 7 10 16 0 9 6 14 13 11 14 -4 11 -57 -6 -96 -6 -14 -11 -37 -11 -51 -1
-18 -9 -26 -33 -33 -38 -11 -42 -22 -13 -30 25 -7 27 -51 3 -98 -10 -19 -16
-42 -14 -53 1 -10 -2 -15 -8 -12 -5 4 -10 -2 -10 -11 -1 -36 -14 -88 -27 -108
-8 -11 -14 -30 -14 -42 0 -13 -6 -23 -13 -23 -26 0 -87 -90 -87 -128 0 -11
-16 -39 -35 -62 -19 -23 -35 -45 -35 -49 0 -4 -20 -28 -45 -53 -25 -25 -45
-49 -45 -52 0 -3 -30 -34 -66 -68 -37 -35 -74 -71 -83 -81 -22 -25 -100 -79
-134 -95 -16 -7 -32 -25 -38 -41 -12 -33 -45 -51 -82 -44 -16 3 -28 1 -28 -6
-3 -23 -5 -27 -29 -59 -13 -17 -28 -32 -33 -32 -4 0 -23 -11 -40 -23 -51 -38
-92 -50 -139 -43 -23 4 -46 12 -50 19 -4 7 -8 -3 -8 -24 0 -60 -47 -95 -118
-90 -24 2 -38 -4 -54 -22 -21 -23 -24 -24 -59 -12 -36 13 -37 13 -65 -21 -28
-33 -52 -47 -109 -59 -55 -12 -116 -46 -127 -70 -12 -27 -32 -36 -89 -39 -21
-1 -47 -11 -58 -21 -15 -13 -30 -16 -55 -12 -25 4 -42 0 -59 -13 -12 -10 -41
-22 -63 -26 -21 -4 -55 -15 -74 -25 -19 -11 -47 -19 -61 -19 -15 0 -40 -7 -55
-15 -16 -8 -37 -15 -46 -15 -9 0 -20 -4 -23 -10 -3 -5 -24 -10 -45 -10 -21 0
-41 -4 -44 -9 -7 -11 -59 -23 -106 -26 -19 -1 -68 -12 -108 -25 -66 -21 -77
-22 -115 -10 -72 23 -73 35 -14 97 28 30 67 64 87 76 19 12 48 34 64 50 35 34
65 47 110 47 26 0 41 9 72 43 39 42 39 44 40 123 1 107 7 137 32 162 13 13 22
17 22 10 0 -7 6 -2 13 12 11 22 11 29 -6 51 -17 23 -18 39 -14 117 3 55 11
100 20 114 9 13 17 41 19 63 3 39 2 40 -31 43 -29 3 -61 21 -61 35 0 6 63 2
75 -4 6 -4 22 -9 38 -13 15 -3 27 -10 27 -14 0 -5 13 -7 28 -4 16 2 60 -6 99
-17 39 -12 79 -21 90 -21 11 0 28 -9 37 -19 11 -12 28 -18 44 -16 15 1 32 -1
38 -6 7 -6 22 -5 38 1 59 22 119 9 183 -38 17 -13 34 -23 37 -23 19 3 26 -3
44 -40 16 -32 32 -46 72 -65 29 -13 56 -22 60 -19 17 11 2 36 -30 53 -19 9
-45 33 -58 52 -13 19 -32 39 -43 44 -42 20 -7 70 50 72 20 1 49 7 65 15 23 11
30 11 34 1 2 -6 14 -12 27 -12 18 0 24 -7 29 -35 8 -41 18 -44 40 -10 9 14 20
25 24 25 22 0 43 -29 45 -63 5 -52 21 -66 44 -38 37 45 107 29 102 -23 -3 -47
1 -51 26 -21 18 23 23 38 19 65 -3 20 2 54 10 79 9 24 16 55 16 70 1 31 52
124 71 129 12 3 12 2 0 -6 -7 -5 -10 -15 -7 -21 11 -17 23 -13 29 9 3 12 14
20 27 20 23 0 112 69 104 81 -2 4 0 10 4 13 5 3 8 -27 7 -67 -1 -39 0 -78 3
-84 10 -30 68 -6 150 63 9 6 -20 43 -39 49 -36 12 -42 51 -17 102 20 40 21 46
6 54 -13 7 -14 13 -5 33 7 13 16 22 22 18 5 -3 4 2 -4 11 -9 12 -12 30 -7 58
5 33 3 44 -11 54 -10 8 -15 17 -11 20 7 8 43 -8 113 -51 22 -13 48 -24 58 -24
9 0 17 -3 17 -7 0 -9 49 -33 67 -33 7 0 13 7 13 15 0 9 -6 12 -15 9 -23 -9
-115 54 -116 80 0 11 -3 15 -6 9 -7 -19 -31 -16 -66 9 -48 34 -55 47 -46 87 4
19 5 39 3 43 -3 5 0 15 6 23 8 9 8 20 2 31 -8 14 -12 11 -23 -19 -11 -32 -37
-51 -40 -29 -13 85 5 128 58 138 18 3 30 10 27 16 -3 5 -11 7 -17 5 -7 -2 -23
8 -37 22 -25 27 -65 36 -65 14 0 -6 -3 -15 -7 -19 -5 -4 -8 -2 -8 4 0 7 -12
12 -26 12 -27 0 -27 0 -21 59 4 33 3 72 -2 88 -5 15 -15 48 -22 73 -7 25 -19
51 -26 58 -16 17 -16 21 2 52 14 25 14 25 15 -15 1 -38 2 -39 13 -15 6 14 16
28 21 32 15 10 26 0 19 -17 -8 -21 10 -18 24 3 8 14 19 18 43 14 30 -4 31 -3
20 17 -17 32 -9 77 13 73 10 -2 17 3 17 13 0 8 5 15 10 15 6 0 10 -5 10 -11 0
-8 5 -7 16 2 9 7 24 13 34 14 15 1 18 -4 14 -29 -4 -29 -3 -28 14 9 19 41 19
90 0 63 -6 -8 -8 1 -4 27 3 22 6 46 6 53 0 6 5 12 11 12 6 0 9 -9 6 -20 -9
-36 14 -21 31 20 9 22 22 40 28 40 7 0 14 7 18 15 3 8 13 15 22 15 11 0 14 -5
10 -16 -5 -14 -4 -15 9 -4 13 11 15 6 16 -36 l1 -49 9 39 c5 22 17 48 27 57
20 21 82 25 82 7z m-8265 -19 c-3 -8 -20 -21 -38 -29 -17 -7 -35 -15 -39 -18
-5 -2 -8 2 -8 8 0 7 9 14 20 17 11 3 17 9 14 14 -3 5 1 6 9 3 8 -3 20 2 27 11
15 18 23 14 15 -6z m6417 6 c7 -9 18 -21 23 -28 6 -7 16 -24 24 -40 13 -25 13
-29 -7 -50 -12 -13 -22 -29 -22 -35 0 -19 -17 -14 -46 13 -30 28 -44 31 -62
13 -17 -17 -47 9 -31 28 6 7 14 13 17 12 22 -2 32 5 32 23 0 27 31 79 47 79 7
0 18 -7 25 -15z m-6791 -12 c13 -16 12 -17 -3 -4 -19 14 -23 7 -19 -26 1 -7
-3 -13 -9 -13 -6 0 -9 4 -5 9 3 5 -5 13 -17 17 -21 6 -21 7 8 19 16 8 30 14
30 14 1 1 8 -7 15 -16z m2869 7 c0 -5 -2 -10 -4 -10 -3 0 -8 5 -11 10 -3 6 -1
10 4 10 6 0 11 -4 11 -10z m344 -23 c-3 -9 -10 -17 -15 -17 -11 0 -12 34 -2
44 11 11 24 -9 17 -27z m-3650 -2 c11 -8 16 -15 10 -15 -5 0 -18 7 -28 15 -11
8 -16 15 -10 15 5 0 18 -7 28 -15z m84 8 c-10 -2 -26 -2 -35 0 -10 3 -2 5 17
5 19 0 27 -2 18 -5z m480 -7 c12 2 22 -1 22 -7 0 -8 5 -8 15 1 11 9 15 9 15 1
0 -7 10 -10 25 -7 20 4 25 1 25 -15 0 -21 -16 -26 -23 -6 -2 6 -8 9 -12 5 -4
-4 -2 -14 5 -23 10 -11 10 -15 0 -15 -6 0 -14 9 -17 20 -6 23 -5 22 -27 14
-14 -5 -13 -9 5 -25 12 -11 18 -19 14 -19 -17 0 -43 33 -38 47 5 12 1 14 -18
7 -13 -4 -35 -7 -48 -6 -17 1 -22 -2 -17 -13 7 -20 -8 -19 -24 1 -11 13 -10
16 9 21 13 3 20 11 17 18 -3 10 2 11 22 6 15 -5 37 -7 50 -5z m2460 2 c-3 -7
-13 -13 -23 -13 -10 0 -20 6 -22 13 -3 7 5 12 22 12 17 0 25 -5 23 -12z m152
-3 c0 -8 -6 -15 -14 -15 -17 0 -28 14 -19 24 12 12 33 6 33 -9z m70 -15 c0 -5
-4 -10 -9 -10 -6 0 -13 5 -16 10 -3 6 1 10 9 10 9 0 16 -4 16 -10z m130 1 c0
-5 -6 -14 -14 -20 -10 -9 -15 -8 -19 3 -3 8 -3 17 0 20 9 9 33 7 33 -3z m4640
-1 c0 -5 -4 -10 -10 -10 -5 0 -10 5 -10 10 0 6 5 10 10 10 6 0 10 -4 10 -10z
m-7793 -6 c-3 -3 -12 -4 -19 -1 -8 3 -5 6 6 6 11 1 17 -2 13 -5z m7845 -7 c8
-10 22 -12 45 -7 18 5 33 4 33 0 0 -15 -82 -19 -96 -5 -8 7 -14 16 -14 19 0
11 19 6 32 -7z m-7928 -22 c-4 -8 -13 -15 -21 -15 -13 0 -13 3 -3 15 7 8 16
15 21 15 5 0 6 -7 3 -15z m8656 -2 c0 -10 -8 -27 -17 -38 -15 -20 -15 -19 -9
5 3 14 6 31 6 38 0 6 5 12 10 12 6 0 10 -8 10 -17z m-8445 -3 c3 -5 1 -10 -4
-10 -6 0 -11 5 -11 10 0 6 2 10 4 10 3 0 8 -4 11 -10z m189 -21 c-3 -6 -7 -9
-8 -7 -1 2 -8 12 -16 22 -14 18 -14 19 8 7 12 -7 20 -17 16 -22z m-223 12 c-8
-5 -10 -14 -6 -22 6 -11 5 -11 -5 -2 -14 12 -6 33 13 33 8 0 7 -3 -2 -9z
m6488 -13 c8 -24 -13 -78 -31 -78 -20 0 -46 40 -41 61 5 18 32 36 56 38 4 1
11 -9 16 -21z m-3485 3 c3 -4 3 -11 0 -14 -8 -8 -34 3 -34 14 0 11 27 12 34 0z
m106 -1 c0 -16 -58 -42 -66 -28 -4 6 1 17 11 25 22 15 55 17 55 3z m4800 6 c0
-11 -19 -15 -25 -6 -3 5 1 10 9 10 9 0 16 -2 16 -4z m-8208 -13 c-6 -2 -9 -10
-6 -15 4 -7 2 -8 -4 -4 -18 11 -14 26 6 25 10 0 12 -3 4 -6z m3088 -8 c0 -8
-7 -15 -15 -15 -16 0 -20 12 -8 23 11 12 23 8 23 -8z m5035 5 c4 -6 -7 -10
-27 -9 -31 1 -32 1 -8 9 14 4 26 8 27 9 1 1 5 -3 8 -9z m-8055 -15 c7 -9 8
-15 2 -15 -5 0 -12 7 -16 15 -3 8 -4 15 -2 15 2 0 9 -7 16 -15z m190 -6 c0 -6
-4 -7 -10 -4 -5 3 -10 11 -10 16 0 6 5 7 10 4 6 -3 10 -11 10 -16z m320 0 c0
-14 -16 -11 -29 5 -10 12 -8 13 8 9 12 -3 21 -9 21 -14z m7160 6 c-7 -9 -15
-13 -19 -10 -3 3 1 10 9 15 21 14 24 12 10 -5z m-7590 -37 c0 -15 -17 -8 -41
18 l-24 26 32 -19 c18 -10 33 -21 33 -25z m2624 17 c-4 -8 -16 -15 -28 -15
-21 1 -21 1 -2 15 25 19 37 19 30 0z m-2234 1 c0 -2 -11 -6 -25 -8 -13 -3 -22
-1 -19 3 5 9 44 13 44 5z m7184 -9 c17 -12 17 -14 -2 -37 -11 -14 -24 -22 -28
-17 -4 4 -2 13 4 19 23 23 12 28 -25 10 -21 -9 -47 -26 -58 -37 -22 -22 -55
-32 -55 -16 0 13 111 90 131 90 8 1 23 -5 33 -12z m-7034 -29 c0 -14 -17 -8
-35 12 -17 19 -17 19 9 7 14 -7 26 -15 26 -19z m3841 15 c13 -16 12 -17 -3 -4
-17 13 -22 21 -14 21 2 0 10 -8 17 -17z m-4036 -13 c-3 -5 -12 -10 -18 -10 -7
0 -6 4 3 10 19 12 23 12 15 0z m8869 -21 c9 -17 13 -36 9 -41 -4 -8 -32 50
-33 70 -1 11 11 -3 24 -29z m-8574 15 c0 -8 -19 -13 -24 -6 -3 5 1 9 9 9 8 0
15 -2 15 -3z m3646 -9 c4 -8 12 -15 19 -15 7 0 15 -5 17 -11 2 -5 10 -11 18
-13 60 -10 81 -36 30 -36 -17 0 -45 -7 -61 -16 -17 -8 -32 -14 -34 -12 -9 11
-14 118 -5 118 6 0 13 -7 16 -15z m2264 11 c0 -3 -4 -8 -10 -11 -5 -3 -10 -1
-10 4 0 6 5 11 10 11 6 0 10 -2 10 -4z m-6353 -12 c-3 -3 -12 -4 -19 -1 -8 3
-5 6 6 6 11 1 17 -2 13 -5z m403 -8 c0 -8 -8 -14 -19 -13 -11 0 -17 6 -14 14
7 18 33 17 33 -1z m190 -37 c0 -34 -13 -79 -21 -73 -4 2 -5 15 0 27 9 24 4 48
-12 58 -5 4 -7 15 -3 25 7 18 8 18 22 0 8 -11 14 -27 14 -37z m2167 25 c3 -9
2 -19 -4 -23 -5 -3 -12 -14 -16 -23 -7 -20 -32 -24 -43 -6 -4 6 0 16 8 22 8 6
17 19 21 29 8 21 26 22 34 1z m3687 0 c5 -13 2 -15 -16 -10 -13 3 -27 6 -31 6
-5 0 -5 5 -2 10 10 16 42 12 49 -6z m-6557 0 c-3 -3 -12 -4 -19 -1 -8 3 -5 6
6 6 11 1 17 -2 13 -5z m4358 -12 c-3 -3 -11 0 -18 7 -9 10 -8 11 6 5 10 -3 15
-9 12 -12z m4036 -28 c-5 -16 -10 -21 -10 -12 -1 18 10 51 15 45 2 -1 -1 -16
-5 -33z m-2181 6 c0 -11 -4 -20 -9 -20 -6 0 -9 9 -8 20 1 11 5 20 9 20 4 0 8
-9 8 -20z m2973 5 c-3 -9 -8 -14 -10 -11 -3 3 -2 9 2 15 9 16 15 13 8 -4z
m-6688 -5 c3 -5 1 -18 -4 -27 -11 -19 -11 -19 -15 15 -3 23 8 30 19 12z m1911
-41 c16 -32 17 -39 6 -39 -4 0 -18 21 -31 47 -17 35 -19 43 -6 33 9 -7 23 -26
31 -41z m3881 19 c-3 -8 -6 -5 -6 6 -1 11 2 17 5 13 3 -3 4 -12 1 -19z m-66
-59 c62 -115 74 -208 39 -301 -20 -51 -56 -105 -65 -97 -2 3 9 30 25 62 33 66
47 151 32 205 -23 82 -50 144 -78 173 -25 27 -26 31 -9 27 12 -2 33 -28 56
-69z m-5851 51 c0 -5 -5 -10 -11 -10 -5 0 -7 5 -4 10 3 6 8 10 11 10 2 0 4 -4
4 -10z m3782 -27 c-14 -26 10 -164 38 -210 24 -40 19 -56 -9 -27 -25 25 -51
119 -51 181 0 62 10 97 22 85 6 -6 6 -17 0 -29z m-3629 11 c9 -10 -4 -34 -19
-34 -8 0 -14 6 -14 13 0 22 19 35 33 21z m695 -15 c3 -16 -85 -63 -93 -49 -12
19 14 59 42 63 38 5 48 3 51 -14z m5032 1 c0 -5 -5 -10 -11 -10 -5 0 -7 5 -4
10 3 6 8 10 11 10 2 0 4 -4 4 -10z m-4983 -16 c-3 -3 -12 -4 -19 -1 -8 3 -5 6
6 6 11 1 17 -2 13 -5z m1004 -40 c-26 -33 -27 -54 -2 -54 12 0 24 13 34 38
l16 37 -3 -39 c-3 -22 -1 -49 4 -61 7 -19 3 -24 -25 -38 -33 -16 -34 -15 -37
6 -2 17 -9 21 -27 19 -16 -1 -34 9 -57 32 -40 41 -42 49 -10 35 26 -12 64 3
101 39 28 27 32 19 6 -14z m147 -11 c2 -11 -4 -23 -12 -26 -12 -5 -16 1 -16
24 0 35 23 36 28 2z m3567 -4 c5 -5 -1 -9 -15 -9 -38 0 -70 11 -64 22 7 10 64
1 79 -13z m-7920 -39 c-3 -5 -12 -10 -18 -10 -7 0 -6 4 3 10 19 12 23 12 15 0z
m4385 -67 c0 -16 -7 -27 -20 -30 -11 -3 -20 -13 -20 -23 0 -9 -8 -24 -17 -33
-17 -15 -18 -12 -18 40 0 52 2 56 30 68 37 15 45 11 45 -22z m-4396 5 c-3 -5
-11 -8 -17 -7 -7 1 -19 1 -27 0 -13 -1 -13 -2 0 -11 13 -8 -14 -8 -73 -1 -5 1
-6 5 -3 10 3 5 15 7 25 4 11 -3 28 0 38 6 21 12 64 11 57 -1z m-194 -21 c8 2
4 -3 -10 -11 -14 -8 -34 -15 -45 -15 -19 0 -19 0 1 12 12 7 19 19 17 27 -4 12
-2 12 9 -1 7 -9 20 -14 28 -12z m17 17 c-3 -3 -12 -4 -19 -1 -8 3 -5 6 6 6 11
1 17 -2 13 -5z m43 2 c0 -11 -19 -15 -25 -6 -3 5 1 10 9 10 9 0 16 -2 16 -4z
m477 -2 c-3 -3 -12 -4 -19 -1 -8 3 -5 6 6 6 11 1 17 -2 13 -5z m2002 -24 c10
-31 6 -32 -27 -7 -9 7 -9 13 -1 23 15 19 15 18 28 -16z m-2309 -11 c0 -5 -4
-7 -10 -4 -5 3 -10 1 -10 -6 0 -7 -3 -10 -6 -6 -8 7 4 27 17 27 5 0 9 -5 9
-11z m173 4 c-7 -2 -19 -2 -25 0 -7 3 -2 5 12 5 14 0 19 -2 13 -5z m-39 -34
c-3 -5 -13 -9 -22 -8 -14 0 -13 2 3 9 11 5 14 9 8 9 -7 1 -13 6 -13 12 0 8 5
8 15 -1 8 -7 12 -16 9 -21z m416 26 c0 -11 -59 -34 -65 -25 -3 6 3 10 14 10
11 0 23 5 26 10 6 10 25 14 25 5z m-865 -14 c6 -1 2 -6 -7 -11 -10 -6 -26 -7
-40 -1 -13 4 -30 6 -38 4 -12 -4 -12 -3 -1 5 11 8 41 9 86 3z m195 5 c0 -3 -4
-8 -10 -11 -5 -3 -10 -1 -10 4 0 6 5 11 10 11 6 0 10 -2 10 -4z m50 -6 c0 -5
-5 -10 -11 -10 -5 0 -7 5 -4 10 3 6 8 10 11 10 2 0 4 -4 4 -10z m540 1 c0 -5
-9 -11 -20 -14 -11 -3 -20 -1 -20 3 0 5 8 11 18 13 9 3 18 5 20 6 1 0 2 -3 2
-8z m-724 -15 c3 -8 13 -12 22 -10 14 5 14 3 -1 -6 -18 -12 -47 1 -47 21 0 15
20 10 26 -5z m509 -15 c2 -4 -9 -5 -26 -3 -16 2 -31 7 -34 11 -2 4 9 5 26 3
16 -2 31 -7 34 -11z m-252 -6 c-3 -9 -8 -14 -10 -11 -3 3 -2 9 2 15 9 16 15
13 8 -4z m82 5 c3 -6 -4 -10 -17 -10 -18 0 -20 2 -8 10 19 12 18 12 25 0z m93
2 c8 -6 2 -9 -17 -9 -17 0 -28 4 -25 9 7 10 25 10 42 0z m4041 -19 c0 -16 2
-39 5 -53 l6 -24 -22 21 c-17 17 -19 25 -10 36 7 8 9 17 6 20 -6 6 3 27 12 27
2 0 4 -12 3 -27z m-4316 0 c-7 -2 -19 -2 -25 0 -7 3 -2 5 12 5 14 0 19 -2 13
-5z m434 -8 c0 -8 -4 -12 -9 -9 -5 3 -6 10 -3 15 9 13 12 11 12 -6z m1936 -15
l18 -30 -33 18 c-18 9 -35 18 -37 19 -1 1 0 6 4 12 11 19 30 12 48 -19z
m-1973 10 c0 -5 -2 -10 -4 -10 -3 0 -8 5 -11 10 -3 6 -1 10 4 10 6 0 11 -4 11
-10z m140 5 c0 -8 -62 -37 -68 -31 -3 3 0 6 7 6 7 0 9 5 5 12 -5 8 -2 9 9 5 9
-3 19 -2 22 3 6 10 25 14 25 5z m4463 -13 c5 -2 1 -12 -8 -22 -11 -12 -13 -20
-6 -25 18 -11 12 -22 -21 -42 -33 -19 -68 -20 -68 -2 0 23 22 49 42 49 21 0
21 0 2 15 -18 15 -18 15 -1 29 17 13 34 12 60 -2z m503 -2 c8 0 14 -9 14 -20
0 -22 -33 -28 -59 -11 -19 12 -6 45 15 37 9 -3 22 -6 30 -6z m-1066 -8 c0 -14
-23 -32 -42 -32 -10 0 -18 6 -18 14 0 13 9 17 53 25 4 0 7 -3 7 -7z m2060 -2
c0 -5 -9 -10 -20 -10 -11 0 -20 -5 -20 -12 0 -6 -3 -8 -7 -4 -5 4 1 14 11 22
23 16 36 18 36 4z m-1250 -47 c0 -20 -31 -28 -41 -12 -14 23 -11 29 16 27 14
-1 25 -8 25 -15z m-844 -14 c8 -13 -35 -51 -48 -43 -13 8 -9 42 5 47 21 9 36
7 43 -4z m449 0 c10 -15 2 -20 -43 -24 -33 -3 -39 -1 -35 13 5 19 68 28 78 11z
m800 1 c3 -5 -1 -10 -9 -10 -9 0 -16 5 -16 10 0 6 4 10 9 10 6 0 13 -4 16 -10z
m-285 -30 c0 -13 -7 -20 -19 -20 -22 0 -35 15 -26 30 12 19 45 11 45 -10z
m-2740 -32 c0 -4 -7 -8 -15 -8 -16 0 -38 34 -28 44 7 7 43 -23 43 -36z m2166
8 c31 -32 4 -61 -35 -37 -10 7 -11 13 -2 30 14 25 18 26 37 7z m-4290 -5 c-3
-4 -20 -14 -38 -22 -18 -7 -37 -19 -41 -26 -9 -15 -37 -18 -37 -3 0 5 15 16
34 24 18 8 37 19 40 25 4 6 16 11 27 11 11 0 18 -4 15 -9z m5082 -7 c36 -9 52
-23 52 -45 0 -24 -17 -24 -71 0 -24 11 -47 17 -51 15 -4 -3 -8 4 -8 15 0 21
17 32 38 25 8 -2 26 -7 40 -10z m161 -37 c12 -15 5 -27 -16 -27 -7 0 -13 9
-13 20 0 23 13 26 29 7z m192 -5 c-7 -2 -18 1 -23 6 -8 8 -4 9 13 5 13 -4 18
-8 10 -11z m-511 -32 c-10 -6 -20 -4 -30 6 -13 13 -13 16 0 24 10 6 20 4 30
-6 13 -13 13 -16 0 -24z m451 17 c-10 -9 -11 -8 -5 6 3 10 9 15 12 12 3 -3 0
-11 -7 -18z m-5341 -26 c0 -6 -4 -13 -10 -16 -5 -3 -10 1 -10 9 0 9 5 16 10
16 6 0 10 -4 10 -9z m61 -9 c-13 -24 -50 -56 -57 -49 -3 3 9 19 28 36 39 36
42 37 29 13z m1954 -22 c14 -26 14 -29 0 -24 -19 7 -37 39 -28 48 10 9 11 8
28 -24z m-2235 11 c0 -17 -309 -127 -333 -118 -7 3 -3 8 8 12 31 11 133 50
215 83 78 31 110 38 110 23z m5587 -80 c1 -11 -6 -16 -23 -17 -17 -1 -24 2
-20 11 2 7 -4 27 -15 44 -11 18 -17 37 -13 42 7 12 67 -56 71 -80z m-2327 64
c0 -8 -7 -15 -16 -15 -14 0 -14 3 -4 15 7 8 14 15 16 15 2 0 4 -7 4 -15z
m1185 -7 c-12 -39 -25 -44 -25 -10 0 22 5 32 16 32 11 0 14 -6 9 -22z m-4265
-3 c-7 -9 -15 -13 -17 -11 -7 7 7 26 19 26 6 0 6 -6 -2 -15z m6176 -23 c-9 -9
-37 8 -31 18 5 8 11 7 21 -1 8 -6 12 -14 10 -17z m-6706 3 c0 -1 -11 -5 -25
-7 -20 -4 -23 -2 -14 8 8 10 39 10 39 -1z m3385 -5 c3 -5 1 -10 -4 -10 -6 0
-11 5 -11 10 0 6 2 10 4 10 3 0 8 -4 11 -10z m-700 -20 c3 -11 17 -28 31 -39
28 -22 16 -38 -15 -21 -23 12 -51 49 -51 67 0 21 28 15 35 -7z m2475 -21 c0
-6 -4 -7 -10 -4 -5 3 -10 11 -10 16 0 6 5 7 10 4 6 -3 10 -11 10 -16z m774
-40 c-3 -5 -14 -3 -24 3 -13 9 -16 14 -7 20 13 8 39 -10 31 -23z m212 23 c-9
-8 -66 -10 -66 -1 0 4 16 7 36 7 19 0 33 -3 30 -6z m1133 -21 c14 -4 26 -12
29 -19 5 -16 -87 -16 -142 0 l-41 13 30 6 c39 9 94 9 124 0z m-953 -13 c4 -6
3 -8 -4 -4 -5 3 -13 0 -15 -6 -3 -8 -6 -6 -6 5 -1 19 14 23 25 5z m-5193 -5
c-7 -2 -21 -2 -30 0 -10 3 -4 5 12 5 17 0 24 -2 18 -5z m4896 0 c23 -6 23 -7
5 -13 -21 -8 -44 -2 -44 11 0 11 7 11 39 2z m-1372 -67 c-3 -8 -1 -17 6 -20 7
-2 2 -5 -10 -5 -13 -1 -23 1 -23 3 0 14 14 36 22 36 6 0 8 -6 5 -14z m-79 -92
c4 -30 -21 -46 -65 -42 -33 3 -38 6 -38 28 0 21 6 26 35 31 51 10 65 6 68 -17z
m367 -232 c-1 -1 -14 3 -29 9 -17 8 -22 15 -15 20 10 6 50 -20 44 -29z m3530
18 c-3 -5 -13 -10 -21 -10 -8 0 -14 5 -14 10 0 6 9 10 21 10 11 0 17 -4 14
-10z m-1674 -69 c20 -16 22 -22 11 -33 -10 -10 -18 -10 -40 2 -33 19 -42 50
-14 50 11 0 30 -9 43 -19z m1277 -76 c27 -100 8 -135 -48 -94 -41 31 -47 60
-20 104 30 49 53 46 68 -10z m-3418 25 c-8 -5 -19 -10 -25 -10 -5 0 -3 5 5 10
8 5 20 10 25 10 6 0 3 -5 -5 -10z m-330 -234 c0 -25 -62 -56 -94 -48 -26 7
-27 9 -11 22 18 15 70 37 93 39 6 0 12 -5 12 -13z m-525 -146 c3 -5 1 -10 -4
-10 -6 0 -11 5 -11 10 0 6 2 10 4 10 3 0 8 -4 11 -10z"/>
<path d="M1737 5229 c-16 -4 -34 -12 -40 -17 -7 -5 -27 -13 -45 -17 -18 -3
-30 -11 -26 -16 3 -5 -3 -9 -14 -9 -10 0 -22 -3 -26 -7 -10 -10 -78 -33 -99
-33 -9 0 -25 -4 -35 -9 -9 -5 -46 -18 -82 -28 -65 -19 -89 -45 -60 -63 14 -9
88 12 133 37 31 16 32 16 155 35 45 7 82 16 82 20 0 4 6 8 13 8 19 0 161 70
169 84 4 6 8 15 8 19 0 10 -93 7 -133 -4z"/>
<path d="M1627 5074 c-20 -13 -38 -24 -41 -24 -10 0 -46 -39 -46 -49 0 -5 -6
-12 -12 -15 -7 -3 8 -3 35 0 26 4 53 2 60 -4 6 -5 25 -12 40 -14 25 -5 30 -1
46 36 26 57 34 86 24 87 -48 9 -75 4 -106 -17z"/>
<path d="M5302 5036 c-42 -24 -47 -33 -33 -60 18 -33 94 -46 122 -20 19 17 26
68 11 78 -20 12 -79 13 -100 2z"/>
<path d="M5585 4960 c3 -5 8 -10 11 -10 2 0 4 5 4 10 0 6 -5 10 -11 10 -5 0
-7 -4 -4 -10z"/>
<path d="M1330 4913 c0 -5 -10 -15 -22 -21 -23 -11 -23 -11 -2 -11 20 -1 41
25 29 37 -3 3 -5 1 -5 -5z"/>
<path d="M5170 4736 c-39 -17 -82 -63 -78 -83 2 -14 13 -18 43 -19 45 -1 78
10 117 42 l27 22 -22 19 c-29 26 -57 32 -87 19z"/>
<path d="M5668 4228 c8 -8 20 -8 44 -1 l33 11 -44 1 c-34 1 -42 -2 -33 -11z"/>
<path d="M4519 4294 c-11 -13 -10 -22 6 -52 21 -38 66 -57 113 -45 40 10 21
63 -23 63 -12 0 -32 11 -45 25 -28 29 -33 30 -51 9z"/>
<path d="M4400 4160 c0 -5 5 -10 10 -10 6 0 10 5 10 10 0 6 -4 10 -10 10 -5 0
-10 -4 -10 -10z"/>
<path d="M4230 4111 c0 -18 30 -39 49 -34 25 6 17 29 -12 37 -30 8 -37 7 -37
-3z"/>
<path d="M4965 3549 c-11 -16 -1 -19 13 -3 7 8 8 14 3 14 -5 0 -13 -5 -16 -11z"/>
<path d="M5215 3500 c-3 -5 -2 -10 4 -10 5 0 13 5 16 10 3 6 2 10 -4 10 -5 0
-13 -4 -16 -10z"/>
<path d="M2985 3250 c-18 -8 -17 -9 8 -9 15 -1 27 4 27 9 0 12 -8 12 -35 0z"/>
<path d="M3095 3080 c-3 -5 1 -10 9 -10 9 0 16 5 16 10 0 6 -4 10 -9 10 -6 0
-13 -4 -16 -10z"/>
<path d="M2720 3070 l-25 -8 28 -1 c15 -1 27 4 27 9 0 6 -1 10 -2 9 -2 -1 -14
-5 -28 -9z"/>
<path d="M3170 3076 c0 -2 7 -7 16 -10 8 -3 12 -2 9 4 -6 10 -25 14 -25 6z"/>
<path d="M2620 3060 c0 -13 30 -13 50 0 11 7 7 10 -17 10 -18 0 -33 -4 -33
-10z"/>
<path d="M2397 3053 c-4 -3 -7 -15 -7 -25 0 -14 6 -19 23 -16 29 4 38 48 9 48
-10 0 -22 -3 -25 -7z"/>
<path d="M2994 3031 c-13 -14 -25 -18 -49 -14 -18 3 -41 0 -53 -6 -17 -9 -19
-14 -9 -36 16 -34 48 -32 75 5 13 17 29 30 36 30 19 0 40 27 27 35 -6 3 -18
-3 -27 -14z"/>
<path d="M2340 2952 c0 -12 -4 -22 -10 -22 -25 0 7 -29 59 -53 67 -31 89 -33
97 -12 8 20 -29 52 -74 64 -19 6 -43 18 -53 27 -18 16 -19 16 -19 -4z"/>
<path d="M2995 2900 c-3 -6 1 -7 9 -4 18 7 21 14 7 14 -6 0 -13 -4 -16 -10z"/>
<path d="M2620 2851 c0 -11 59 -26 67 -17 4 3 -1 6 -10 6 -9 0 -17 5 -17 10 0
6 -9 10 -20 10 -11 0 -20 -4 -20 -9z"/>
<path d="M3475 2800 c3 -5 8 -10 11 -10 2 0 4 5 4 10 0 6 -5 10 -11 10 -5 0
-7 -4 -4 -10z"/>
<path d="M3544 2785 c-10 -8 -14 -15 -8 -15 6 0 17 7 24 15 16 19 9 19 -16 0z"/>
<path d="M3385 2771 c-3 -11 -16 -21 -28 -23 -21 -3 -21 -4 6 -22 21 -14 31
-16 40 -7 8 8 8 11 -1 11 -17 0 -15 27 3 34 19 7 20 26 1 26 -8 0 -17 -9 -21
-19z"/>
<path d="M2590 2760 c0 -5 9 -10 19 -10 11 0 23 5 26 10 4 6 -5 10 -19 10 -14
0 -26 -4 -26 -10z"/>
<path d="M3340 2695 c0 -8 5 -15 10 -15 6 0 10 7 10 15 0 8 -4 15 -10 15 -5 0
-10 -7 -10 -15z"/>
<path d="M8880 3015 c0 -8 5 -15 10 -15 6 0 10 7 10 15 0 8 -4 15 -10 15 -5 0
-10 -7 -10 -15z"/>
<path d="M3525 3040 c3 -5 13 -10 21 -10 8 0 14 5 14 10 0 6 -9 10 -21 10 -11
0 -17 -4 -14 -10z"/>
<path d="M6717 3026 c-4 -10 -1 -13 9 -9 7 3 14 9 14 14 0 14 -17 10 -23 -5z"/>
<path d="M6765 3020 c-3 -5 -2 -10 4 -10 5 0 13 5 16 10 3 6 2 10 -4 10 -5 0
-13 -4 -16 -10z"/>
<path d="M6808 3023 c7 -3 16 -2 19 1 4 3 -2 6 -13 5 -11 0 -14 -3 -6 -6z"/>
<path d="M5190 2919 c0 -5 5 -7 11 -3 6 3 14 2 18 -4 4 -6 11 -5 19 4 11 12 8
14 -18 14 -16 0 -30 -5 -30 -11z"/>
<path d="M9106 2735 c-3 -8 -1 -15 4 -15 6 0 10 7 10 15 0 8 -2 15 -4 15 -2 0
-6 -7 -10 -15z"/>
<path d="M7810 2871 c0 -6 4 -13 10 -16 6 -3 7 1 4 9 -7 18 -14 21 -14 7z"/>
<path d="M4325 2800 c3 -5 10 -10 16 -10 5 0 9 5 9 10 0 6 -7 10 -16 10 -8 0
-12 -4 -9 -10z"/>
<path d="M6610 2749 c0 -5 5 -7 10 -4 6 3 10 8 10 11 0 2 -4 4 -10 4 -5 0 -10
-5 -10 -11z"/>
<path d="M9290 2535 c-19 -22 -7 -41 13 -21 18 19 22 36 8 36 -5 0 -14 -7 -21
-15z"/>
<path d="M8992 2265 c0 -16 2 -22 5 -12 2 9 2 23 0 30 -3 6 -5 -1 -5 -18z"/>
<path d="M9111 2274 c0 -11 3 -14 6 -6 3 7 2 16 -1 19 -3 4 -6 -2 -5 -13z"/>
<path d="M9023 2243 c-4 -21 -6 -46 -4 -57 2 -12 -2 -16 -11 -11 -7 4 -2 -3
12 -14 14 -11 28 -21 33 -21 11 0 8 18 -4 25 -6 4 -9 29 -7 61 5 62 -7 72 -19
17z"/>
<path d="M8855 2260 c-3 -5 -1 -10 4 -10 6 0 11 5 11 10 0 6 -2 10 -4 10 -3 0
-8 -4 -11 -10z"/>
<path d="M8932 2230 c0 -14 2 -19 5 -12 2 6 2 18 0 25 -3 6 -5 1 -5 -13z"/>
<path d="M8846 2119 c-16 -19 -16 -25 -5 -46 l14 -25 13 31 c7 18 9 38 4 46
-6 12 -11 11 -26 -6z"/>
<path d="M8962 2110 c0 -14 2 -19 5 -12 2 6 2 18 0 25 -3 6 -5 1 -5 -13z"/>
<path d="M9291 2094 c0 -11 3 -14 6 -6 3 7 2 16 -1 19 -3 4 -6 -2 -5 -13z"/>
<path d="M8808 1995 c2 -14 7 -25 11 -25 3 0 6 11 6 25 0 14 -5 25 -11 25 -7
0 -9 -10 -6 -25z"/>
<path d="M9105 1980 c3 -5 8 -10 11 -10 2 0 4 5 4 10 0 6 -5 10 -11 10 -5 0
-7 -4 -4 -10z"/>
<path d="M8973 1888 c3 -16 15 -24 53 -34 49 -12 64 -11 64 6 0 5 -16 9 -37 8
-26 -1 -41 5 -54 20 -22 28 -30 28 -26 0z"/>
<path d="M8885 1830 c3 -5 10 -10 16 -10 5 0 9 5 9 10 0 6 -7 10 -16 10 -8 0
-12 -4 -9 -10z"/>
<path d="M9300 1811 c0 -13 29 -35 37 -28 7 8 -15 37 -28 37 -5 0 -9 -4 -9 -9z"/>
<path d="M9385 1730 c3 -5 8 -10 11 -10 2 0 4 5 4 10 0 6 -5 10 -11 10 -5 0
-7 -4 -4 -10z"/>
<path d="M9208 1606 c-9 -13 -14 -26 -11 -30 11 -11 20 -7 27 12 3 9 9 23 12
30 10 21 -10 13 -28 -12z"/>
<path d="M9355 1607 c-4 -10 -5 -21 -1 -24 10 -10 18 4 13 24 -4 17 -4 17 -12
0z"/>
<path d="M9188 1503 c-18 -5 -33 -37 -24 -52 8 -12 53 -2 67 15 9 11 7 14 -11
14 -16 0 -20 4 -16 15 3 8 4 14 3 14 -1 -1 -10 -3 -19 -6z"/>
<path d="M8767 1063 c-10 -9 -9 -53 1 -53 12 0 32 46 25 54 -8 8 -18 8 -26 -1z"/>
<path d="M9945 3700 c-16 -4 -24 -8 -17 -9 20 -2 14 -17 -19 -49 l-30 -30 27
-21 c15 -11 37 -21 51 -21 15 0 27 -8 33 -22 6 -16 9 4 9 70 1 99 2 96 -54 82z"/>
<path d="M9790 3170 c0 -5 5 -10 10 -10 6 0 10 5 10 10 0 6 -4 10 -10 10 -5 0
-10 -4 -10 -10z"/>
<path d="M67 2953 c-43 -2 -67 -8 -67 -16 0 -9 54 -12 213 -12 230 -1 297 -6
457 -36 133 -25 270 -82 388 -160 24 -16 47 -29 53 -29 5 0 9 -3 9 -7 1 -5 19
-28 42 -53 24 -26 35 -35 28 -20 -22 41 -112 130 -131 130 -11 0 -19 6 -19 13
0 44 -263 131 -520 172 -100 16 -339 25 -453 18z"/>
<path d="M1940 2899 c0 -5 5 -7 10 -4 6 3 10 8 10 11 0 2 -4 4 -10 4 -5 0 -10
-5 -10 -11z"/>
<path d="M420 2861 c-14 -4 -25 -12 -24 -19 3 -30 5 -34 19 -28 8 3 15 0 15
-6 0 -9 3 -9 12 0 7 7 20 12 30 12 10 0 18 7 18 15 0 8 9 15 20 15 11 0 20 5
20 10 0 19 -42 10 -47 -10 -3 -11 -9 -20 -14 -20 -5 0 -9 9 -9 20 0 21 -1 22
-40 11z"/>
<path d="M311 2826 c-7 -8 -8 -17 -3 -20 6 -3 13 1 16 10 9 23 2 28 -13 10z"/>
<path d="M150 2820 c0 -6 7 -10 15 -10 8 0 15 2 15 4 0 2 -7 6 -15 10 -8 3
-15 1 -15 -4z"/>
<path d="M2065 2775 c-16 -13 -26 -27 -22 -32 4 -4 22 7 40 25 37 37 25 42
-18 7z"/>
<path d="M1120 2730 c0 -5 5 -10 10 -10 6 0 10 5 10 10 0 6 -4 10 -10 10 -5 0
-10 -4 -10 -10z"/>
<path d="M1182 2660 c7 -11 16 -20 20 -20 5 0 3 9 -4 20 -7 11 -16 20 -20 20
-5 0 -3 -9 4 -20z"/>
<path d="M1714 2624 c-18 -14 -18 -15 4 -4 12 6 22 13 22 15 0 8 -5 6 -26 -11z"/>
<path d="M1126 2598 c-9 -12 -16 -29 -16 -38 0 -9 9 -3 21 15 l20 30 -3 -37
c-3 -48 8 -60 14 -14 2 19 -2 42 -8 51 -11 15 -14 14 -28 -7z"/>
<path d="M1104 2495 c-10 -8 -14 -14 -9 -15 15 0 40 18 34 24 -3 3 -14 -1 -25
-9z"/>
<path d="M1314 2494 c-18 -14 -18 -15 4 -4 12 6 22 13 22 15 0 8 -5 6 -26 -11z"/>
<path d="M1206 2444 c-4 -9 -4 -19 -1 -22 2 -3 7 3 11 12 4 9 4 19 1 22 -2 3
-7 -3 -11 -12z"/>
<path d="M1175 2439 c-4 -6 -5 -12 -2 -15 2 -3 7 2 10 11 7 17 1 20 -8 4z"/>
<path d="M1150 2390 c0 -19 3 -21 12 -12 9 9 9 15 0 24 -9 9 -12 7 -12 -12z"/>
<path d="M1181 2377 c-8 -12 -21 -32 -29 -44 -13 -20 -13 -23 0 -23 8 0 22 19
31 42 19 47 18 58 -2 25z"/>
<path d="M1300 2221 c0 -5 5 -13 10 -16 6 -3 10 -2 10 4 0 5 -4 13 -10 16 -5
3 -10 2 -10 -4z"/>
<path d="M2420 2135 c-11 -13 -10 -14 4 -9 9 3 16 10 16 15 0 13 -6 11 -20 -6z"/>
<path d="M1561 1514 c0 -11 3 -14 6 -6 3 7 2 16 -1 19 -3 4 -6 -2 -5 -13z"/>
<path d="M2601 1340 c-8 -4 -29 -6 -48 -3 -27 5 -33 2 -33 -12 0 -15 6 -17 43
-11 40 7 66 20 56 30 -2 3 -11 1 -18 -4z"/>
<path d="M0 575 c0 -298 4 -484 9 -480 5 3 12 2 15 -3 3 -5 42 -27 88 -50 l83
-42 645 2 c629 3 644 3 610 21 -60 31 -93 50 -159 95 -35 23 -66 42 -70 42 -4
0 -27 18 -51 40 -24 22 -48 40 -52 40 -4 0 -18 11 -32 25 -14 14 -28 25 -31
25 -6 0 -71 47 -125 89 -29 23 -127 92 -220 155 -36 24 -95 70 -132 102 -68
61 -240 185 -363 264 -38 24 -72 47 -75 50 -3 3 -35 29 -72 58 l-68 52 0 -485z"/>
<path d="M2776 951 c-4 -7 -5 -15 -2 -18 9 -9 19 4 14 18 -4 11 -6 11 -12 0z"/>
<path d="M2800 944 c0 -8 5 -12 10 -9 6 3 10 10 10 16 0 5 -4 9 -10 9 -5 0
-10 -7 -10 -16z"/>
<path d="M4520 680 c0 -5 5 -10 10 -10 6 0 10 5 10 10 0 6 -4 10 -10 10 -5 0
-10 -4 -10 -10z"/>
<path d="M4377 580 c-9 -13 -17 -28 -17 -32 0 -14 38 -8 54 8 9 8 20 13 25 10
14 -9 41 5 41 21 0 15 -35 10 -54 -8 -15 -14 -24 -11 -28 9 -3 14 -6 13 -21
-8z"/>
<path d="M0 22 c0 -14 6 -22 16 -22 14 0 15 3 3 18 -7 9 -15 19 -16 21 -2 2
-3 -5 -3 -17z"/>
</g>
</svg>
