<?xml version="1.0" standalone="no"?>
<!DOCTYPE svg PUBLIC "-//W3C//DTD SVG 20010904//EN"
 "http://www.w3.org/TR/2001/REC-SVG-20010904/DTD/svg10.dtd">
<svg version="1.0" xmlns="http://www.w3.org/2000/svg"
 width="1000.000000pt" height="665.000000pt" viewBox="0 0 1000.000000 665.000000"
 preserveAspectRatio="xMidYMid meet">
<metadata>
Created by potrace 1.14, written by Peter Selinger 2001-2017
</metadata>
<g transform="translate(0.000000,665.000000) scale(0.100000,-0.100000)"
fill="#000000" stroke="none">
<path d="M4773 6632 c28 -31 30 -73 7 -127 -22 -52 -52 -90 -84 -107 -10 -5
-78 -25 -150 -43 -72 -19 -165 -44 -206 -56 -41 -11 -103 -29 -137 -38 l-61
-16 -7 -52 c-13 -102 -59 -128 -158 -88 -77 30 -100 31 -119 4 -12 -19 -28
-22 -143 -30 -255 -17 -281 -27 -300 -119 -10 -55 -34 -98 -74 -134 -35 -32
-94 -17 -150 38 -27 26 -56 46 -68 46 -22 0 -128 -36 -148 -50 -5 -3 -29 -12
-52 -20 -24 -7 -43 -16 -43 -20 0 -4 -18 -10 -39 -14 -22 -3 -61 -15 -88 -27
-26 -12 -68 -27 -93 -34 -25 -7 -90 -28 -145 -48 -55 -20 -128 -39 -161 -43
-74 -8 -74 -8 -107 -61 -20 -31 -37 -45 -67 -54 -61 -18 -38 -27 32 -13 35 8
81 14 103 14 22 0 63 11 90 23 28 13 84 34 125 46 117 34 180 61 251 108 102
66 176 96 224 89 61 -9 113 -25 128 -41 8 -7 17 -36 21 -62 5 -39 12 -52 34
-65 51 -31 75 -64 75 -107 0 -22 -8 -52 -17 -65 -22 -34 -21 -35 22 -29 24 3
55 -2 87 -15 28 -11 92 -30 143 -43 88 -21 95 -25 120 -63 20 -30 42 -46 87
-65 55 -23 73 -25 205 -26 l145 0 67 38 c36 20 80 37 96 37 25 0 205 -38 263
-56 22 -6 43 -58 32 -77 -10 -18 -82 -77 -94 -77 -5 0 -9 -7 -9 -15 0 -17 30
-35 60 -35 26 0 128 51 167 84 16 14 79 62 140 108 119 89 337 269 366 301 13
14 17 37 17 89 0 113 31 149 118 134 41 -8 199 -52 337 -96 179 -57 293 -90
430 -124 124 -31 221 -63 445 -149 36 -14 92 -28 125 -32 78 -9 164 -33 195
-55 59 -41 97 -53 190 -60 77 -6 128 -18 261 -63 90 -30 187 -59 214 -62 28
-4 88 -21 135 -36 89 -30 188 -58 305 -88 39 -10 111 -34 160 -53 50 -20 110
-41 135 -49 25 -7 66 -23 92 -36 27 -13 74 -27 105 -32 79 -11 252 -59 285
-79 27 -16 42 -50 33 -74 -3 -8 -44 -36 -90 -64 -47 -27 -113 -67 -148 -89
-34 -23 -100 -63 -147 -89 -47 -27 -94 -56 -105 -66 -11 -9 -103 -68 -205
-130 -102 -63 -216 -133 -255 -157 -218 -137 -261 -163 -270 -167 -17 -8 17
-25 103 -51 61 -19 87 -23 101 -15 38 20 390 249 671 437 157 104 300 195 319
201 41 14 96 3 281 -58 69 -22 179 -57 245 -76 106 -32 730 -230 763 -242 9
-3 12 255 12 1272 l0 1276 -2622 0 c-2532 0 -2621 -1 -2605 -18z m-483 -602
c19 -6 134 -36 255 -66 226 -57 254 -67 280 -108 20 -31 10 -54 -31 -71 -23
-10 -35 -22 -39 -42 -3 -15 -10 -43 -15 -62 -11 -42 -8 -47 28 -54 59 -12 44
-80 -24 -110 -22 -10 -44 -28 -49 -40 -6 -12 -28 -28 -53 -37 -24 -8 -49 -24
-55 -35 -16 -30 -39 -44 -72 -45 -38 0 -48 7 -70 50 -10 19 -29 50 -43 68 -25
33 -26 33 -41 14 -30 -36 -76 -59 -131 -65 -30 -3 -62 -7 -70 -10 -8 -2 -33
-7 -55 -12 -22 -4 -69 -24 -105 -43 -64 -35 -131 -53 -201 -55 -40 -1 -119 22
-119 35 0 4 -5 8 -11 8 -13 0 -94 88 -131 142 -37 55 -44 96 -24 156 37 110
148 218 301 292 81 40 119 52 195 63 53 7 105 19 115 25 25 14 119 15 165 2z
m4570 -179 c0 -4 19 -11 43 -15 23 -3 67 -11 97 -16 30 -6 70 -13 88 -17 18
-3 35 -9 38 -14 3 -5 17 -9 32 -9 15 0 47 -6 72 -14 25 -8 72 -22 105 -31 108
-29 134 -38 130 -45 -2 -3 6 -6 18 -6 13 1 22 -5 22 -14 0 -12 -10 -14 -45
-11 -52 4 -60 8 -40 21 12 8 11 10 -5 11 -20 2 -28 2 -79 -6 -17 -3 -33 -1
-36 5 -3 5 -28 12 -55 14 -28 3 -69 9 -92 15 -24 6 -60 15 -80 20 -116 29
-160 45 -178 65 -14 16 -26 21 -40 16 -19 -7 -81 3 -92 14 -4 3 7 6 23 6 16 0
36 5 44 10 19 12 30 13 30 1z m-885 -314 c28 -9 111 -34 185 -57 74 -23 178
-53 230 -66 52 -14 181 -49 285 -79 229 -64 409 -113 610 -166 82 -21 156 -46
165 -54 10 -10 14 -32 13 -63 -2 -58 -28 -85 -71 -72 -43 14 -531 156 -637
186 -392 110 -531 147 -640 174 -71 17 -150 36 -175 42 -49 12 -133 50 -192
87 -45 27 -52 66 -16 80 33 12 186 4 243 -12z"/>
<path d="M2223 6593 c-13 -2 -23 -8 -23 -12 0 -5 -13 -14 -30 -21 -16 -7 -39
-27 -50 -46 -12 -18 -29 -36 -40 -39 -10 -3 -26 -17 -35 -31 -9 -14 -27 -29
-41 -34 -19 -7 -25 -16 -22 -32 4 -29 35 -44 133 -64 69 -14 81 -14 123 -1 26
8 89 21 140 28 86 12 96 12 128 -6 47 -25 140 -25 185 1 51 30 60 56 41 116
-14 43 -22 52 -57 66 -22 9 -46 15 -53 14 -8 -2 -16 6 -19 16 -5 21 -32 23
-119 7 -32 -5 -61 -1 -124 19 -82 26 -94 27 -137 19z"/>
<path d="M0 6277 c0 -112 7 -157 26 -157 8 0 14 -4 14 -10 0 -5 -9 -10 -20
-10 -19 0 -20 -7 -20 -172 0 -163 1 -170 18 -155 22 20 71 16 84 -7 12 -22
-11 -30 -63 -23 l-40 5 2 -116 c0 -65 5 -125 10 -134 6 -10 5 -19 -1 -23 -10
-6 -15 -155 -5 -155 3 0 16 6 28 14 12 8 56 22 97 31 49 12 81 25 92 39 15 19
15 23 -3 57 -10 21 -23 40 -29 44 -23 14 -5 43 55 90 35 28 63 57 62 65 -1 9
4 13 13 11 8 -2 21 -4 28 -4 14 0 17 -17 2 -17 -19 0 -10 -27 21 -56 18 -17
28 -36 26 -46 -4 -14 2 -12 29 8 19 15 31 30 28 35 -3 5 7 20 23 34 20 17 40
24 70 25 48 0 93 -17 93 -36 0 -48 143 -35 213 19 17 14 22 57 9 89 -6 14
-115 74 -247 134 -41 18 -112 61 -131 79 -6 6 -9 15 -7 21 2 7 -23 13 -69 18
-68 6 -168 41 -168 58 0 18 55 19 131 2 59 -13 77 -20 63 -25 -21 -8 -17 -9
82 -15 28 -1 69 -10 90 -19 21 -9 74 -19 116 -22 l77 -6 -6 37 c-4 26 -1 42
11 55 16 18 15 20 -13 48 -19 19 -59 40 -108 56 -171 57 -259 88 -288 101 -52
25 -148 56 -170 56 -12 0 -59 14 -105 31 -47 16 -93 33 -102 36 -16 5 -18 -4
-18 -90z"/>
<path d="M983 6043 c-11 -10 -25 -28 -32 -41 -10 -19 -18 -22 -40 -17 -39 8
-100 -21 -94 -45 6 -21 91 -51 123 -43 15 4 31 -3 53 -24 21 -20 58 -38 107
-53 41 -12 100 -35 131 -52 l55 -31 133 32 c73 17 143 31 156 31 12 0 29 7 36
16 27 33 -28 59 -320 154 -153 49 -280 90 -283 90 -3 0 -14 -8 -25 -17z"/>
<path d="M650 5185 c-30 -8 -138 -39 -240 -70 -102 -31 -234 -71 -295 -88
-108 -32 -110 -33 -113 -64 l-3 -32 248 85 c298 102 415 144 428 156 5 4 17 8
26 8 10 0 21 5 24 10 8 13 -6 12 -75 -5z"/>
<path d="M965 5144 c-44 -14 -132 -38 -197 -54 -64 -15 -145 -39 -180 -53 -34
-14 -181 -64 -325 -112 l-263 -87 0 -37 0 -37 88 30 c79 28 98 31 207 30 142
-1 178 -13 268 -93 55 -48 77 -61 77 -43 0 4 28 15 63 26 34 10 82 25 107 33
24 8 72 18 107 22 42 5 73 16 100 34 66 47 85 66 81 82 -2 9 -38 31 -82 50
-99 43 -116 58 -116 105 0 46 16 61 98 90 59 22 88 41 60 39 -7 0 -49 -11 -93
-25z"/>
<path d="M1395 4753 c-11 -3 -40 -10 -65 -18 -25 -7 -72 -21 -105 -30 -50 -15
-57 -19 -38 -26 28 -10 24 -32 -16 -73 -18 -19 -30 -39 -27 -45 10 -16 90 -14
204 5 138 22 156 18 430 -97 51 -21 98 -39 105 -39 7 0 17 -4 23 -8 5 -5 41
-21 79 -35 39 -14 124 -49 190 -77 66 -28 167 -71 225 -95 58 -23 164 -68 235
-98 410 -173 522 -219 535 -219 21 -2 210 62 210 70 0 4 -22 14 -48 23 -163
57 -446 164 -552 209 -41 17 -104 42 -140 55 -269 97 -671 262 -743 306 -26
16 -92 45 -145 63 -89 31 -241 91 -302 119 -32 14 -31 14 -55 10z"/>
<path d="M3200 4659 c0 -5 -5 -9 -11 -9 -6 0 -29 -15 -50 -34 -46 -39 -91 -50
-114 -27 -11 11 -18 12 -26 4 -6 -6 -18 -9 -25 -6 -8 3 -14 0 -14 -6 0 -17
-40 -13 -47 5 -10 27 -60 42 -106 33 -61 -12 -115 -11 -136 3 -15 9 -30 8 -71
-5 -29 -9 -57 -17 -64 -17 -6 0 -20 -18 -30 -40 -18 -37 -27 -45 -48 -41 -17
2 -7 -21 18 -44 41 -38 146 -75 232 -81 42 -3 102 -13 132 -21 30 -8 104 -25
163 -38 l108 -22 -26 27 c-40 42 -34 65 23 80 59 16 120 46 150 73 27 25 29
67 5 117 -17 34 -63 70 -63 49z"/>
<path d="M4385 4641 c-74 -6 -84 -9 -125 -42 -60 -49 -112 -75 -192 -95 -63
-15 -72 -15 -145 1 -60 13 -83 24 -105 47 -15 17 -28 36 -28 43 0 33 -28 22
-141 -54 -66 -45 -147 -95 -180 -111 -69 -35 -101 -64 -93 -84 8 -20 62 -3
154 49 133 75 219 115 248 115 31 0 82 -42 82 -67 0 -18 84 -71 135 -84 22 -6
78 -24 125 -39 47 -16 120 -32 163 -36 82 -7 78 -8 242 66 22 10 56 21 75 25
58 10 87 25 100 50 18 33 9 47 -55 95 -37 27 -62 56 -76 85 -24 51 -12 48
-184 36z"/>
<path d="M8193 4637 c-12 -6 -31 -24 -43 -39 -12 -17 -31 -28 -45 -28 -13 0
-25 -3 -27 -7 -1 -5 -30 -19 -63 -32 -80 -33 -322 -187 -311 -198 7 -7 312
147 379 192 38 25 73 45 78 45 5 0 9 5 9 10 0 6 6 10 14 10 22 0 76 34 73 45
-5 15 -39 16 -64 2z"/>
<path d="M6126 4529 c-29 -23 -36 -24 -36 -4 0 18 1 18 -36 6 -16 -5 -41 -12
-55 -15 -36 -8 -65 -67 -47 -95 16 -27 60 -31 142 -14 69 14 70 14 87 -8 l17
-23 -5 28 c-4 18 -1 31 7 36 11 7 11 11 1 23 -18 23 1 29 70 23 l60 -5 -4 32
-3 32 -87 1 c-72 1 -92 -2 -111 -17z"/>
<path d="M6487 4499 c14 -14 -3 -34 -42 -49 -22 -8 -25 -13 -15 -25 15 -18 5
-35 -21 -35 -17 0 -32 -12 -66 -54 -11 -13 -17 -13 -46 -1 -31 13 -35 12 -47
-6 -8 -10 -21 -19 -29 -19 -8 0 -41 -7 -73 -16 -55 -16 -58 -18 -55 -48 2 -26
-2 -32 -23 -34 -14 -2 -31 -8 -37 -14 -7 -6 -19 -8 -27 -5 -8 3 -24 -5 -37
-19 -17 -18 -33 -24 -64 -24 -62 0 -229 -45 -299 -81 -72 -36 -115 -77 -94
-91 8 -5 3 -6 -14 -2 -52 12 -108 -84 -94 -161 9 -45 56 -116 103 -153 33 -26
42 -29 47 -17 3 8 12 15 20 15 23 0 31 -22 13 -35 -14 -10 -4 -18 68 -53 47
-23 95 -42 106 -42 26 0 89 -29 89 -41 0 -5 -10 -9 -22 -10 -25 -1 -19 -4 25
-13 29 -7 36 -22 13 -28 -19 -4 -2 -48 20 -48 13 0 15 6 10 31 -5 28 -4 31 14
26 11 -3 23 1 28 9 6 11 20 12 82 1 66 -11 75 -14 72 -32 -2 -11 -1 -17 4 -13
4 4 13 3 21 -3 7 -6 13 -8 13 -4 0 4 7 2 15 -5 9 -7 23 -13 33 -14 31 -3 102
-29 102 -38 0 -16 18 -8 34 17 16 25 16 25 -9 13 -24 -11 -29 -9 -50 18 -30
36 -30 41 -5 49 11 3 23 18 26 31 6 22 10 24 36 18 21 -4 28 -3 24 5 -4 6 -2
11 3 11 6 0 11 -4 11 -10 0 -5 14 -10 30 -10 41 0 37 -11 -11 -35 -34 -16 -38
-20 -22 -26 11 -4 31 1 51 12 36 21 62 25 62 9 0 -13 37 -13 42 0 4 12 98 1
98 -11 0 -9 -4 -10 -174 -44 -15 -3 -27 -8 -25 -10 5 -4 200 -21 349 -31 l105
-6 12 43 c16 59 66 124 119 155 48 28 94 31 60 4 -48 -39 -75 -75 -66 -84 15
-15 12 -46 -6 -53 -8 -3 -20 -1 -27 6 -8 8 -8 11 2 11 7 0 10 4 6 9 -7 13 -61
-39 -68 -66 -3 -14 1 -24 11 -28 14 -5 14 -7 -1 -22 -15 -15 -32 -16 -194 -4
-354 26 -382 26 -398 5 -7 -10 -11 -22 -9 -26 3 -5 1 -8 -5 -8 -5 0 -13 9 -16
20 -3 11 -13 20 -21 20 -12 0 -13 -4 -3 -22 10 -18 8 -24 -7 -35 -26 -19 -83
-17 -91 3 -4 10 0 20 10 26 22 12 11 37 -14 31 -16 -4 -17 -8 -7 -14 10 -7 10
-11 0 -21 -10 -10 -15 -10 -22 2 -11 18 -16 13 -25 -22 -6 -22 -3 -27 17 -33
24 -8 49 -29 128 -108 33 -33 46 -54 43 -67 -3 -12 -10 -17 -21 -12 -22 8 -42
28 -42 41 0 5 -16 13 -35 17 -19 3 -38 10 -41 15 -3 5 -16 9 -30 9 -14 0 -23
-3 -21 -7 3 -5 -15 -8 -39 -9 -48 -1 -53 5 -27 32 25 24 25 45 0 67 -18 15
-23 16 -25 4 -2 -8 -29 -27 -60 -43 -31 -16 -58 -32 -60 -36 -2 -4 -10 -8 -18
-8 -24 0 5 35 40 49 l31 12 -25 14 c-29 17 -52 20 -30 4 13 -9 13 -10 0 -6 -8
2 -15 10 -15 18 0 8 -4 19 -8 25 -4 7 1 22 11 35 50 69 51 93 2 79 -16 -5 -32
-5 -35 -1 -2 5 -37 9 -77 10 -45 1 -75 6 -80 14 -4 6 -8 8 -8 3 0 -5 -7 -3
-16 5 -12 10 -17 10 -23 0 -5 -8 -33 -13 -75 -14 -37 -1 -62 -3 -56 -5 22 -8
8 -23 -17 -20 -22 2 -28 8 -28 28 0 18 -5 24 -17 22 -10 -2 -18 0 -18 4 0 4 8
13 18 20 15 12 15 12 -5 7 -13 -3 -23 -9 -23 -14 0 -5 -7 -9 -16 -9 -8 0 -12
5 -9 10 3 6 2 10 -4 10 -5 0 -13 -5 -16 -10 -4 -6 -16 -10 -28 -8 -17 2 -23
-3 -25 -22 -2 -14 -9 -30 -17 -35 -7 -6 -14 -19 -16 -29 -5 -24 -59 -32 -59
-9 0 9 -6 13 -15 9 -9 -3 -15 0 -15 10 0 9 -9 18 -19 21 -11 3 -22 16 -25 29
-4 14 -12 24 -19 23 -30 -4 -47 2 -47 16 0 8 5 15 10 15 6 0 10 4 10 10 0 5
-12 7 -27 5 -16 -3 -37 -7 -48 -8 -30 -4 -46 -17 -43 -34 2 -9 -3 -18 -9 -20
-8 -3 -13 4 -13 15 0 23 -25 32 -57 20 -13 -4 -30 -5 -39 -1 -8 3 -26 0 -39
-7 -16 -8 -36 -10 -62 -5 -42 9 -41 9 -65 0 -12 -5 -21 2 -33 25 -15 29 -18
30 -29 14 -20 -26 -30 1 -11 29 14 23 108 67 141 67 8 0 14 5 14 10 0 12 0 12
-39 -1 -25 -9 -45 -7 -96 6 -36 10 -65 20 -65 22 0 2 5 12 12 22 9 15 9 23 -1
35 -24 29 -33 18 -26 -36 3 -29 7 -68 10 -85 2 -18 -1 -33 -6 -33 -5 0 -9 5
-9 11 0 6 -7 8 -16 5 -9 -4 -23 -1 -30 5 -8 6 -21 9 -29 5 -9 -3 -18 0 -21 8
-3 8 -17 16 -32 19 -45 9 -117 63 -117 88 0 12 -6 24 -12 26 -9 3 -13 -6 -13
-26 0 -17 -5 -31 -11 -31 -7 0 -9 9 -6 21 4 15 2 19 -10 15 -8 -3 -19 -6 -24
-6 -5 0 -9 -7 -9 -15 0 -19 -14 -19 -29 -1 -9 11 -9 15 1 19 9 3 4 12 -14 26
-16 13 -28 29 -28 37 0 22 -28 16 -36 -8 -3 -12 -17 -32 -29 -44 l-23 -23 -26
30 c-30 34 -32 45 -10 88 15 29 20 32 48 27 21 -4 26 -3 17 3 -12 8 -12 12 -2
25 12 14 10 16 -12 16 -14 0 -27 -7 -31 -15 -6 -16 -46 -21 -46 -6 0 15 -90
18 -102 4 -14 -18 -29 -16 -22 2 4 8 1 15 -5 15 -6 0 -11 -11 -11 -24 0 -13
-7 -29 -14 -36 -8 -6 -20 -28 -26 -48 -22 -69 -35 -92 -50 -90 -11 3 -15 17
-14 58 3 114 13 230 20 242 4 7 4 10 0 6 -4 -3 -23 0 -41 8 -19 7 -40 11 -48
8 -9 -3 -19 9 -30 36 -8 22 -12 40 -9 41 60 6 81 21 63 43 -7 8 -10 20 -6 26
11 17 37 11 42 -10 3 -12 8 -19 12 -18 84 40 122 63 146 88 l29 30 -25 0 c-32
0 -150 -40 -249 -84 -45 -19 -131 -98 -158 -145 -20 -34 -26 -58 -26 -97 1
-65 42 -144 87 -168 18 -9 51 -31 74 -48 42 -31 68 -33 43 -3 -7 8 -9 15 -6
15 8 0 69 -42 77 -53 3 -4 14 -5 24 -1 13 5 16 4 11 -4 -4 -7 -15 -12 -24 -12
-27 -1 46 -37 130 -64 100 -33 260 -64 364 -73 46 -3 84 -10 84 -15 0 -5 -15
-7 -32 -4 -18 3 -62 8 -98 11 -161 15 -357 68 -482 131 -38 19 -68 30 -68 26
0 -11 179 -95 238 -113 23 -7 42 -16 42 -21 0 -9 -33 -5 -115 13 -31 6 -42 5
-51 -6 -6 -9 -19 -13 -27 -9 -9 3 -22 0 -30 -7 -12 -12 -12 -15 2 -26 15 -11
14 -12 -2 -13 -10 0 -28 6 -40 14 -64 42 -295 85 -497 93 -245 9 -450 -17
-641 -82 -162 -55 -251 -105 -345 -195 -188 -179 -132 -401 139 -551 70 -38
53 -37 -29 3 -58 28 -66 30 -80 16 -10 -9 -16 -38 -18 -74 -2 -32 -6 -67 -11
-77 -8 -19 10 -24 19 -4 3 6 3 2 0 -10 -3 -14 -1 -23 6 -23 6 0 10 -6 9 -12
-3 -27 1 -39 13 -32 8 5 9 2 5 -9 -3 -10 -2 -17 4 -17 6 0 6 -7 -1 -20 -9 -17
-8 -20 7 -20 10 0 27 -14 38 -30 11 -16 23 -30 28 -30 4 0 7 -6 7 -12 1 -21
101 -76 198 -107 50 -16 95 -32 100 -35 5 -3 2 -37 -6 -76 -19 -88 -7 -164 33
-212 14 -17 24 -37 21 -45 -3 -8 -2 -11 3 -8 5 3 12 1 16 -5 3 -5 10 -10 15
-10 5 0 0 16 -11 35 -11 19 -19 42 -17 52 2 10 -2 23 -8 28 -20 17 -25 61 -9
75 20 17 29 7 16 -18 -10 -19 -6 -32 11 -32 5 0 13 11 18 25 5 14 13 25 18 25
4 0 25 -25 47 -55 22 -30 48 -58 58 -61 9 -3 17 -10 17 -15 0 -12 -17 -12 -25
1 -9 15 -25 12 -25 -4 0 -7 14 -19 30 -26 36 -15 36 -14 10 -40 -11 -11 -20
-31 -20 -45 0 -14 -7 -28 -16 -32 -13 -5 -12 -9 7 -29 22 -24 14 -35 -9 -12
-9 9 -12 9 -12 1 0 -7 10 -19 22 -28 21 -14 23 -14 30 2 3 10 7 15 7 11 2 -19
51 38 57 65 l6 31 22 -37 c34 -56 57 -77 83 -77 12 0 23 -5 23 -11 0 -7 16
-27 36 -46 39 -36 41 -70 4 -60 -11 3 -20 1 -20 -4 0 -4 -8 -5 -17 -2 -16 6
-16 5 -4 -10 14 -18 2 -24 -14 -8 -15 13 -55 24 -55 14 0 -5 34 -26 75 -47 75
-39 85 -49 63 -62 -6 -4 -8 -3 -5 3 4 6 -7 13 -27 17 -19 4 -45 15 -59 26 -14
11 -34 20 -45 20 -23 0 -105 -44 -124 -67 -11 -14 -10 -16 12 -10 14 3 36 9
50 13 l25 7 -25 -27 c-13 -15 -40 -37 -60 -48 -41 -25 -80 -58 -80 -69 0 -4
25 3 55 17 62 27 84 30 86 12 2 -25 -3 -53 -12 -62 -16 -17 -10 -36 11 -36 16
0 18 -5 15 -32 -20 -144 -19 -150 63 -243 49 -55 164 -114 272 -139 32 -8 64
-18 72 -22 7 -5 38 -12 68 -16 30 -3 75 -11 100 -17 25 -5 91 -10 147 -11 56
0 114 -5 129 -10 20 -8 45 -7 93 4 36 9 100 20 141 27 128 19 261 50 359 85
52 19 104 34 116 34 12 0 30 9 41 21 10 11 32 27 49 35 16 7 38 19 48 26 15
11 20 10 36 -11 l18 -24 31 21 c42 30 49 28 57 -18 4 -22 10 -40 15 -40 16 0
18 -28 4 -55 -18 -35 -4 -55 39 -55 l30 0 -7 -48 c-21 -139 -24 -130 30 -110
20 7 35 20 38 34 3 12 15 24 26 27 16 4 20 0 20 -21 1 -15 7 -38 14 -51 9 -17
12 -43 8 -80 -11 -112 -11 -114 34 -136 36 -17 42 -26 50 -65 7 -35 15 -48 37
-58 15 -7 27 -17 27 -22 0 -17 78 -81 143 -120 173 -101 337 -135 676 -140
195 -3 297 4 371 29 36 11 83 21 105 21 22 0 50 6 61 14 11 8 40 19 64 26 25
7 51 17 58 23 7 6 27 12 45 14 17 2 40 12 51 22 12 10 39 24 61 31 25 8 56 31
84 61 24 27 49 49 55 49 18 0 44 35 78 106 18 35 38 64 44 64 17 0 33 56 33
115 -1 65 25 182 45 204 9 10 16 25 16 35 0 9 4 25 9 35 12 22 -1 44 -25 39
-12 -2 -24 -18 -32 -43 -7 -21 -15 -41 -17 -43 -6 -7 -104 101 -106 117 -5 58
28 78 64 39 12 -13 35 -30 51 -36 l29 -13 -6 38 c-4 20 -16 50 -27 65 -17 24
-20 37 -14 81 11 86 27 93 121 51 86 -38 180 -61 358 -90 140 -22 177 -24 300
-18 77 3 157 13 179 20 54 19 107 17 167 -6 28 -12 54 -19 56 -16 3 2 12 19
21 38 15 29 23 34 64 38 35 4 52 13 67 32 25 31 64 43 93 27 25 -13 29 -9 113
110 28 39 60 84 72 99 28 36 41 90 45 180 1 41 6 76 10 78 12 8 9 120 -4 149
-8 17 -17 24 -29 20 -16 -5 -16 -2 -4 52 21 85 18 93 -10 36 -78 -155 -270
-274 -535 -330 -91 -19 -157 -25 -315 -30 -183 -5 -215 -3 -379 21 -126 19
-214 39 -293 65 -91 30 -112 35 -109 22 3 -9 10 -44 15 -79 10 -63 7 -92 -10
-92 -5 0 -9 -7 -9 -16 0 -9 5 -12 11 -8 7 4 10 1 7 -6 -2 -8 -11 -16 -19 -18
-8 -3 -11 -1 -7 3 10 11 -21 67 -32 60 -6 -4 -10 -1 -10 4 0 6 4 11 8 11 14 0
33 48 22 55 -7 4 -6 13 0 26 7 13 7 19 0 19 -5 0 -10 6 -10 13 0 7 -14 29 -31
50 -25 30 -34 35 -45 26 -10 -8 -14 -8 -14 0 0 6 5 11 10 11 19 0 10 22 -22
48 -17 15 -38 27 -47 27 -8 0 -21 10 -27 23 -13 26 -106 95 -177 131 -26 13
-47 27 -47 31 0 5 -8 6 -19 3 -12 -3 -24 3 -33 16 -8 12 -18 18 -21 14 -4 -3
-7 -1 -7 6 0 7 -5 9 -12 4 -18 -11 -38 -13 -38 -3 0 7 -142 55 -184 62 -11 2
-21 9 -24 16 -3 10 5 12 34 6 35 -6 206 -59 259 -80 16 -6 18 -5 9 7 -6 8 -22
45 -35 83 -20 62 -22 75 -11 135 6 36 18 71 26 77 9 6 19 25 22 43 8 38 19 39
52 3 18 -18 24 -21 19 -8 -6 15 -4 17 17 12 13 -3 31 -9 40 -12 10 -4 16 -1
16 8 0 18 44 43 59 34 6 -4 11 -16 11 -27 0 -15 6 -12 35 18 19 20 38 46 41
58 6 19 16 31 92 112 16 18 27 36 23 40 -3 4 4 -1 17 -11 22 -19 22 -19 22 1
0 21 24 33 48 26 21 -8 13 -36 -18 -73 -17 -19 -32 -44 -35 -55 -15 -76 -15
-84 10 -102 30 -22 25 -60 -9 -65 -14 -2 -21 -10 -21 -25 -1 -35 -10 -36 -53
-8 -50 33 -78 30 -74 -8 2 -19 -2 -27 -13 -27 -8 0 -15 5 -15 10 0 13 -37 13
-45 1 -9 -16 -96 -61 -116 -61 -24 0 -27 51 -4 70 8 7 15 21 15 31 0 26 -31
24 -37 -2 -5 -17 -12 -20 -39 -17 -27 3 -34 0 -34 -13 0 -10 3 -19 8 -22 4 -2
1 -2 -6 0 -26 6 -5 -125 34 -204 35 -71 35 -72 124 -118 66 -34 113 -68 179
-130 49 -47 96 -85 106 -85 9 0 63 -16 118 -34 139 -48 302 -80 336 -67 14 5
58 9 96 7 54 -1 80 -7 109 -25 36 -23 44 -24 155 -18 331 18 592 110 724 256
73 82 104 206 72 291 -9 25 -20 62 -25 83 -4 22 -15 46 -24 55 -15 15 -17 15
-32 0 -12 -12 -24 -14 -45 -8 -16 5 -29 6 -29 3 0 -3 -7 0 -15 7 -12 10 -24 8
-60 -6 -25 -11 -45 -22 -45 -26 0 -4 14 -15 31 -24 19 -9 28 -19 22 -25 -11
-11 -192 -19 -199 -8 -2 4 9 16 26 26 27 15 30 22 24 48 -9 43 -13 46 -34 32
-16 -9 -24 -9 -40 0 -10 7 -44 16 -74 19 -45 5 -64 3 -101 -15 l-46 -21 -34
27 c-40 32 -41 34 -17 62 14 18 30 23 95 26 63 3 79 1 84 -11 4 -11 14 -13 34
-9 20 5 41 -1 74 -21 26 -15 49 -33 52 -40 7 -20 47 -17 67 4 19 22 91 46 107
36 7 -4 7 1 -1 15 -6 12 -17 20 -23 18 -7 -2 -20 2 -30 11 -15 14 -70 28 -137
37 -39 4 -60 16 -60 32 0 8 -4 11 -10 8 -5 -3 -10 -1 -10 5 0 6 -5 8 -10 5
-15 -9 -50 4 -50 20 0 7 -7 15 -15 19 -8 3 -15 12 -15 21 0 17 -25 21 -35 5
-3 -6 -14 -9 -23 -9 -15 1 -15 2 1 6 9 2 17 11 17 18 0 7 6 16 13 18 10 4 10
6 0 6 -8 1 -13 15 -13 34 0 21 -8 41 -20 52 -11 10 -18 20 -16 22 2 2 20 -11
40 -29 21 -19 70 -46 114 -62 42 -16 115 -47 162 -69 47 -22 99 -41 115 -42
51 -3 73 -15 86 -44 7 -15 22 -32 33 -37 12 -5 22 -17 24 -27 3 -15 0 -16 -24
-7 -41 16 -54 -3 -24 -35 27 -28 40 -32 40 -10 0 18 16 20 26 4 4 -7 14 1 26
20 11 17 25 31 31 31 15 0 77 43 77 53 0 5 8 16 19 25 10 10 29 37 42 62 36
67 50 80 86 80 18 0 33 4 33 10 0 5 -17 8 -37 7 -29 -1 -37 2 -35 13 18 83 20
105 7 113 -8 4 -12 14 -9 22 5 12 1 12 -20 2 -14 -7 -29 -20 -32 -29 -6 -20
-26 -25 -23 -5 1 6 -1 23 -5 37 -3 14 -2 48 3 75 8 43 7 55 -11 83 -11 17 -24
30 -29 26 -17 -10 -9 6 26 55 48 66 65 111 65 171 0 76 -40 151 -121 232 -79
78 -137 115 -74 47 22 -23 46 -49 53 -57 6 -7 12 -10 12 -5 0 4 8 -7 16 -24 9
-18 23 -33 30 -33 8 0 14 -3 15 -7 3 -26 8 -52 17 -80 13 -42 6 -106 -20 -165
-23 -53 -48 -82 -48 -54 0 19 -1 19 -34 6 -23 -8 -26 -7 -26 11 0 11 -4 17
-10 14 -5 -3 -10 -14 -10 -23 0 -11 -9 -18 -24 -18 -20 -2 -26 4 -31 27 -4 16
-11 29 -17 29 -6 0 -8 -8 -5 -17 2 -10 6 -24 8 -32 2 -8 -4 -17 -13 -19 -12
-2 -18 3 -18 14 0 10 -3 14 -7 10 -4 -4 -15 17 -25 46 -22 65 -22 69 -3 62 22
-9 19 18 -4 43 -21 22 -18 35 5 26 8 -3 14 0 14 6 0 17 -43 52 -57 47 -7 -3
-13 -1 -13 3 0 5 -3 17 -7 27 -5 14 -3 16 11 11 21 -8 35 21 15 34 -9 6 -18 3
-28 -9 -12 -15 -12 -15 -6 6 4 13 2 22 -4 22 -6 0 -11 7 -11 15 0 8 5 15 10
15 6 0 10 -5 10 -11 0 -5 5 -7 10 -4 6 3 10 13 10 21 0 8 -4 12 -10 9 -5 -3
-10 -2 -10 4 0 6 -7 7 -17 4 -11 -4 -14 -3 -9 5 4 7 1 12 -8 12 -20 0 -20 14
-1 30 12 10 15 10 15 -1 0 -8 8 2 19 21 10 19 15 37 10 38 -5 2 -9 10 -9 17 0
17 -52 35 -79 28 -18 -5 -21 -1 -19 23 1 16 5 34 10 40 5 6 5 19 2 28 -7 18
-26 15 -77 -11 -16 -8 -35 -12 -42 -9 -7 2 -16 -2 -19 -10 -10 -25 -26 -15
-26 17 0 30 -1 31 -36 24 -34 -6 -40 -3 -80 36 -24 24 -44 38 -44 31 0 -7 -5
-11 -12 -9 -7 1 -15 -13 -19 -33 -3 -19 -7 -30 -8 -23 0 7 -9 10 -18 7 -15 -5
-15 -3 1 10 11 9 18 16 15 17 -2 0 -13 3 -24 5 -11 3 -55 8 -97 11 -71 5 -78
8 -79 27 0 18 -1 18 -7 4 -7 -17 -9 -17 -38 1 -27 16 -34 17 -45 6 -8 -8 -27
-15 -44 -17 -25 -2 -31 1 -33 19 -3 19 -7 21 -22 13 -10 -5 -21 -19 -25 -29
-4 -15 -18 -21 -53 -26 -26 -3 -77 -10 -115 -15 -55 -8 -71 -8 -90 5 -28 18
-68 4 -83 -30 -6 -13 -20 -21 -41 -23 l-33 -3 5 48 c4 34 3 41 -3 23 -22 -62
-58 -110 -84 -110 -9 0 -6 85 3 96 7 9 7 19 0 33 -6 11 -9 37 -6 58 5 34 2 43
-34 83 -22 24 -46 57 -52 72 -6 15 -18 28 -26 28 -8 0 -24 5 -36 12 -20 10
-20 12 -4 17 17 6 16 9 -7 33 -13 15 -37 30 -53 33 -15 3 -48 12 -73 20 -25 8
-53 15 -62 15 -12 0 -18 8 -18 24 0 39 -19 79 -52 109 -24 22 -29 34 -25 55 8
38 -16 144 -39 175 -10 14 -32 31 -49 37 -22 8 -27 8 -18 -1z m-541 -430 c11
-10 26 -19 34 -19 20 0 50 -31 50 -52 0 -13 -7 -18 -26 -18 -16 0 -24 -5 -21
-12 2 -7 8 -12 13 -11 5 0 15 -6 23 -15 13 -13 12 -14 -12 -9 -14 4 -29 3 -32
-3 -9 -14 -51 -12 -63 3 -6 7 -9 23 -5 35 9 37 -31 28 -48 -10 -16 -37 -21
-37 -106 -12 -54 16 -62 24 -40 41 19 15 108 43 118 37 18 -11 29 7 17 26 -30
48 49 63 98 19z m724 -84 c23 -24 23 -25 5 -45 -18 -19 -16 -22 15 -24 8 -1
14 -9 12 -18 -3 -17 26 -31 68 -32 15 -1 26 -8 28 -19 5 -24 -25 -33 -47 -13
-20 18 -47 21 -56 6 -9 -15 -55 -12 -55 3 0 7 6 19 13 26 10 11 9 13 -5 8 -10
-3 -20 -2 -23 3 -4 6 -17 10 -31 10 -14 0 -24 6 -24 15 0 8 -11 17 -25 21 -49
12 -15 44 53 48 8 1 18 9 23 19 13 23 21 22 49 -8z m-3047 -25 c10 -21 27 -42
37 -45 12 -4 24 -22 31 -45 11 -36 10 -41 -14 -69 -21 -25 -25 -38 -20 -66 7
-43 -1 -44 -39 -4 -33 34 -46 33 -28 -1 6 -12 10 -24 7 -26 -8 -8 -67 66 -67
84 0 9 -3 34 -6 55 -8 47 9 49 50 7 16 -17 36 -30 44 -30 23 0 9 83 -21 129
-14 21 -23 42 -20 45 14 14 29 3 46 -34z m-318 -575 c22 -15 136 -35 235 -42
80 -5 142 -34 233 -109 38 -30 72 -52 75 -48 4 4 1 9 -6 11 -6 3 -10 9 -7 13
10 17 35 -2 35 -27 0 -15 4 -22 11 -18 6 4 8 13 5 20 -3 8 2 19 10 26 12 10
14 7 10 -22 -2 -21 2 -43 11 -54 13 -19 15 -19 24 -2 17 29 31 20 24 -14 -7
-29 -5 -31 15 -26 16 4 20 2 16 -9 -3 -8 1 -14 11 -14 35 0 -9 -138 -53 -167
-13 -8 -24 -20 -25 -27 0 -6 -16 -24 -35 -40 -28 -23 -37 -26 -47 -16 -8 9 -8
11 -1 7 16 -9 25 28 11 42 -9 9 -6 13 11 17 25 7 28 30 7 57 -13 18 -14 18
-24 -1 -7 -13 -7 -23 2 -32 10 -10 8 -12 -5 -7 -10 4 -18 3 -18 -2 0 -10 -35
-51 -44 -51 -3 0 -3 12 0 26 7 26 6 26 -15 8 -23 -20 -29 -59 -8 -51 10 4 14
-5 13 -36 -1 -39 -2 -41 -61 -66 -33 -15 -61 -31 -62 -37 -1 -8 54 -13 173
-16 169 -5 202 -10 176 -27 -8 -4 21 -13 69 -19 89 -13 118 -9 47 5 -24 6 -42
15 -41 21 2 7 -2 12 -8 12 -8 0 -7 6 2 17 16 18 16 23 -1 33 -9 6 -9 13 -1 28
13 25 53 38 249 82 l137 31 50 -22 c28 -13 53 -25 58 -27 4 -2 7 3 7 12 0 8
-16 20 -35 27 -40 15 -39 18 9 29 26 6 36 4 40 -6 9 -24 29 -16 75 28 l44 43
158 -3 c88 -2 159 1 159 5 0 10 -53 58 -63 58 -4 0 -14 12 -22 28 -18 35 -11
34 25 -3 16 -16 34 -30 40 -30 5 0 10 -7 10 -15 0 -9 14 -16 38 -20 20 -4 44
-9 54 -11 9 -3 19 0 23 6 3 6 -4 10 -17 10 -13 0 -31 7 -41 14 -17 13 -17 15
-1 30 19 19 18 21 -13 30 -14 5 -23 3 -23 -3 0 -6 -11 -11 -24 -11 -25 0 -36
16 -36 53 0 40 -14 49 -38 27 -12 -12 -22 -17 -22 -11 0 5 -16 25 -36 45 -39
39 -39 66 1 40 27 -18 39 -7 29 31 -4 16 -2 25 6 25 7 0 10 -7 6 -16 -6 -17 6
-12 39 16 11 9 26 16 34 16 22 -1 26 -26 4 -26 -13 0 -8 -7 17 -22 19 -12 37
-26 40 -30 3 -4 30 -11 60 -16 55 -9 55 -9 27 -22 -37 -18 -30 -32 24 -50 24
-8 56 -26 70 -38 l27 -24 -25 -24 c-13 -13 -39 -31 -56 -39 l-32 -15 45 6 c25
3 64 7 88 8 23 0 42 4 42 7 0 17 56 28 99 20 3 -1 -4 -8 -15 -16 -18 -14 -17
-14 10 -5 20 7 32 7 41 0 9 -7 22 -5 45 7 25 14 34 15 37 5 4 -9 9 -10 18 -2
7 5 27 8 46 6 28 -3 35 -8 42 -37 5 -19 13 -38 18 -44 36 -37 -40 -41 -91 -5
-36 25 -60 26 -32 1 29 -24 28 -28 -8 -28 -16 0 -30 5 -30 10 0 5 -13 7 -30 5
-20 -3 -30 0 -30 8 0 8 -11 12 -30 11 -16 -1 -28 -6 -26 -12 2 -5 -11 -18 -28
-27 -17 -9 -25 -17 -18 -18 21 0 13 -20 -8 -20 -11 0 -20 5 -20 10 0 15 -87
12 -102 -3 -10 -11 -16 -10 -35 7 -27 23 -30 46 -5 46 13 0 14 2 3 9 -7 5 -10
14 -7 20 11 18 -8 13 -24 -6 -8 -10 -21 -30 -27 -45 -9 -20 -20 -28 -39 -28
-26 0 -26 1 -10 25 16 24 16 25 -8 25 -14 0 -31 7 -40 15 -19 19 -40 19 -33 0
9 -22 -12 -30 -27 -10 -12 16 -15 16 -37 2 -29 -19 -86 -19 -93 0 -3 7 -15 13
-26 13 -12 0 -29 4 -38 9 -11 5 -28 3 -47 -5 l-30 -13 45 -1 c44 0 46 -2 69
-50 14 -28 29 -50 33 -50 13 0 9 -22 -9 -42 -18 -20 -63 -25 -63 -7 0 7 -8 18
-17 25 -15 11 -21 9 -40 -8 l-21 -20 -12 22 c-9 16 -14 19 -25 10 -9 -8 -15
-8 -20 0 -3 5 -14 10 -23 10 -16 -1 -16 -2 0 -14 10 -7 19 -26 20 -42 1 -16 6
-35 11 -41 6 -9 5 -14 -4 -17 -24 -9 -207 -37 -221 -35 -7 1 -25 -3 -39 -8
-14 -6 -51 -14 -81 -18 -40 -5 -55 -11 -52 -20 7 -16 -33 -45 -63 -45 -12 0
-38 11 -57 24 -32 21 -39 23 -71 12 -19 -7 -38 -15 -41 -19 -14 -13 -53 -7
-63 11 -6 9 -11 12 -11 6 0 -7 -16 -15 -35 -18 -39 -8 -75 -50 -58 -67 6 -6
14 -5 23 6 24 28 40 18 40 -26 l0 -42 -42 7 c-23 4 -49 13 -58 21 -43 38 -119
82 -128 73 -6 -6 -21 -4 -41 6 -28 15 -32 15 -37 1 -4 -9 3 -23 17 -34 22 -18
22 -20 7 -26 -10 -4 -18 -13 -18 -21 0 -7 -9 -18 -21 -24 -16 -9 -18 -14 -9
-26 23 -27 -16 -27 -59 0 -22 14 -47 26 -55 26 -8 0 -18 5 -21 10 -4 6 -12 10
-18 9 -27 -3 -37 2 -37 21 0 14 -9 21 -37 26 -21 4 -48 14 -61 22 -19 12 -21
20 -16 48 5 29 3 34 -13 34 -29 0 -35 11 -16 32 13 14 13 18 2 18 -20 0 -34
-12 -42 -34 -6 -14 -13 -17 -35 -12 -20 5 -23 4 -12 -4 8 -5 27 -10 41 -10 35
0 56 -24 39 -45 -6 -8 -15 -14 -18 -13 -4 1 -19 -4 -34 -10 -19 -8 -36 -8 -54
-2 -22 9 -32 5 -67 -23 -23 -18 -54 -41 -69 -50 -14 -9 -29 -25 -33 -36 -4
-13 -17 -21 -37 -23 -41 -4 -45 -19 -14 -50 30 -29 47 -107 25 -109 -8 -1 -18
0 -24 1 -5 1 -31 2 -57 1 -28 -1 -48 2 -48 9 0 5 8 10 17 10 28 0 53 31 53 67
0 43 -15 42 -31 -2 -13 -36 -29 -47 -29 -20 0 8 -4 15 -10 15 -5 0 -10 -14
-10 -31 0 -24 -4 -30 -15 -25 -9 3 -21 -4 -32 -20 -14 -22 -14 -27 -2 -36 11
-7 11 -11 1 -15 -22 -9 -42 -34 -42 -53 0 -22 -26 -74 -32 -63 -10 19 1 74 26
122 14 29 24 57 20 62 -3 5 2 9 11 9 11 0 15 5 11 16 -3 8 -2 13 3 10 4 -3 38
24 76 59 37 36 87 74 111 85 23 12 48 29 56 38 12 15 11 15 -14 -1 -33 -21
-56 -23 -40 -4 6 7 34 21 62 31 28 10 49 21 46 24 -9 8 27 31 48 32 15 0 17 5
11 27 -8 35 -10 37 -30 29 -9 -3 -13 -10 -10 -16 9 -14 -130 -12 -250 4 -243
33 -451 115 -578 226 -26 23 -52 52 -58 64 -9 18 -7 18 13 -4 13 -14 35 -34
49 -45 l24 -20 -21 25 c-30 37 -54 78 -54 92 1 7 10 2 20 -11 23 -27 24 -25 9
18 -6 17 -15 31 -20 31 -21 0 -7 28 16 32 14 3 25 1 25 -4 0 -5 5 -6 10 -3 10
6 14 -13 11 -47 -1 -9 3 -19 9 -23 5 -3 10 0 10 7 0 10 3 9 10 -2 11 -17 7
-22 50 63 18 37 41 75 49 85 9 10 27 33 39 51 22 30 22 32 4 22 -25 -13 -32
-14 -32 -3 0 4 17 14 38 21 20 8 62 28 92 46 30 19 82 41 115 50 33 10 83 26
110 37 75 29 200 59 340 83 88 14 188 10 220 -10z m1525 -117 c0 -6 -3 -8 -7
-5 -3 4 -12 2 -19 -4 -8 -7 -14 -7 -19 1 -3 6 -11 8 -16 4 -6 -3 -5 -12 3 -22
10 -12 10 -14 1 -8 -7 4 -13 2 -13 -3 0 -10 14 -15 33 -12 4 0 7 -3 7 -9 0 -5
-4 -10 -10 -10 -5 0 -10 -7 -10 -16 0 -9 -5 -13 -12 -9 -7 4 -5 0 5 -8 13 -11
15 -16 5 -20 -9 -3 -4 -12 15 -29 37 -33 26 -39 -36 -21 -39 11 -56 12 -69 4
-10 -6 -27 -11 -38 -11 -14 0 -19 -4 -14 -12 4 -6 3 -8 -3 -5 -10 6 -9 39 2
107 5 29 11 40 21 36 8 -3 13 -2 13 2 -3 21 4 33 29 46 33 18 132 21 132 4z
m1655 -112 c11 -7 40 -16 65 -19 36 -4 52 -13 77 -42 36 -42 18 -41 216 -8
l98 16 -19 21 c-38 42 -34 50 5 13 35 -34 44 -38 74 -32 27 5 41 1 62 -15 32
-25 34 -45 7 -60 -18 -10 -153 -34 -303 -55 -47 -6 -48 -7 -34 -28 8 -12 23
-21 32 -19 9 2 76 11 149 21 72 10 138 21 147 25 9 4 25 -1 40 -14 13 -11 18
-19 10 -18 -7 2 -16 -3 -18 -9 -3 -7 1 -13 7 -13 10 0 10 -3 0 -15 -10 -12 -9
-16 4 -21 9 -3 16 -10 16 -14 0 -5 -14 -2 -31 7 -28 14 -32 14 -47 0 -12 -13
-13 -19 -3 -31 7 -9 11 -22 8 -30 -5 -11 0 -13 23 -6 16 5 46 6 67 3 34 -4 41
-1 61 26 14 19 31 31 46 31 26 0 74 -43 87 -78 9 -24 29 -22 29 3 0 16 23 26
40 15 14 -8 100 70 139 127 15 23 35 36 64 43 23 7 47 18 54 27 10 13 14 12
32 -6 12 -12 27 -21 35 -21 26 0 29 -21 5 -46 -22 -23 -22 -25 -4 -38 13 -9
19 -26 19 -55 1 -36 4 -41 21 -39 15 2 20 11 21 38 1 18 6 36 13 38 9 3 9 8 1
17 -8 10 -6 13 12 12 13 0 34 3 48 7 28 8 80 -24 80 -49 0 -22 -47 -72 -82
-85 -18 -8 -34 -14 -35 -14 -1 -1 7 -25 17 -55 26 -78 12 -111 -34 -76 -11 8
-34 15 -50 14 -28 0 -29 -1 -10 -9 12 -5 25 -14 29 -20 4 -6 19 -16 33 -22 15
-6 22 -12 15 -15 -6 -2 -22 3 -35 11 -23 15 -67 15 -121 1 -20 -5 -33 -3 -47
10 -10 9 -24 18 -32 19 -46 8 -92 48 -140 124 -15 23 -34 42 -41 42 -30 0 -47
-43 -31 -84 5 -12 10 -13 25 -5 15 7 21 6 25 -5 9 -23 -1 -41 -22 -41 -31 0
-20 -50 21 -100 19 -24 35 -51 35 -60 0 -23 -34 -87 -59 -109 -11 -10 -18 -22
-16 -26 4 -6 -86 -7 -117 -1 -5 0 -8 14 -8 30 0 16 -4 41 -10 55 -12 33 -5 52
23 60 20 6 21 7 5 17 -10 5 -18 19 -18 29 0 23 10 26 28 8 8 -8 14 -5 21 14 5
14 17 28 26 32 24 9 13 31 -16 31 -19 0 -24 5 -22 25 2 19 -7 32 -39 53 -22
16 -42 36 -45 46 -3 13 -11 17 -29 13 -13 -2 -30 0 -37 5 -6 6 -30 8 -51 5
l-39 -5 24 -18 c20 -15 21 -19 8 -24 -10 -4 -15 -14 -12 -24 4 -18 -23 -49
-33 -38 -4 3 -2 19 4 34 7 22 6 32 -5 42 -13 11 -16 12 -23 0 -5 -7 -6 -17 -4
-21 3 -4 0 -8 -6 -8 -6 0 -8 -4 -5 -10 3 -5 -1 -21 -10 -34 -9 -14 -14 -29
-11 -34 8 -14 -10 -26 -83 -57 -76 -31 -155 -80 -193 -120 -34 -33 -35 -45 -6
-45 20 0 21 -1 3 -20 -21 -23 -43 -26 -51 -6 -4 10 -15 13 -40 9 -29 -5 -34
-3 -34 15 0 22 48 62 67 55 15 -5 26 13 28 49 2 21 -2 28 -15 28 -17 0 -90 67
-90 82 0 4 -11 8 -25 8 -14 0 -25 5 -25 11 0 5 -6 7 -12 3 -7 -5 -1 8 15 27
15 18 37 51 50 71 17 29 27 36 43 32 37 -9 104 14 114 40 5 13 17 26 26 30 16
6 16 9 4 17 -12 8 -12 12 -2 16 10 4 10 8 1 19 -16 20 -29 17 -29 -6 0 -16 -7
-20 -36 -20 -19 0 -45 5 -57 12 -12 6 -48 12 -80 14 -60 2 -80 10 -61 22 19
13 23 41 8 56 -17 18 -1 32 32 28 14 -2 23 3 26 16 7 24 -8 52 -27 52 -7 0
-20 6 -27 13 -7 6 -30 23 -50 37 -31 21 -34 26 -20 32 24 10 25 9 47 -6z
m-1835 -169 c0 -15 -89 -57 -123 -57 -13 0 -136 -27 -271 -60 -136 -33 -261
-60 -279 -60 l-32 0 25 20 c14 11 33 20 42 20 9 0 20 5 23 10 3 6 1 10 -5 10
-6 0 -1 18 11 41 19 37 23 41 50 35 121 -24 206 -28 279 -12 41 9 111 24 155
33 44 9 82 20 83 25 6 13 42 9 42 -5z m180 -365 c14 -7 30 -25 37 -39 7 -14
10 -23 6 -19 -3 3 -12 1 -19 -4 -6 -6 -16 -10 -20 -9 -28 5 -36 -2 -31 -26 3
-20 -5 -36 -37 -71 l-41 -46 -30 23 c-29 23 -29 22 5 -18 19 -23 39 -42 43
-42 9 -1 53 -51 79 -89 9 -14 16 -44 16 -67 0 -23 7 -59 16 -80 21 -49 20
-104 -1 -127 -14 -16 -15 -21 -4 -28 18 -10 6 -60 -14 -60 -10 0 -15 -10 -15
-27 0 -33 -9 -47 -33 -56 -9 -4 -20 -15 -24 -24 -3 -10 -15 -31 -26 -46 -25
-36 -62 -34 -62 3 0 14 6 26 13 26 23 3 24 4 12 19 -7 8 -23 15 -36 15 -17 0
-24 6 -24 20 0 25 18 26 36 3 12 -17 13 -16 14 5 0 26 15 29 29 5 9 -16 10
-14 11 9 0 17 -7 31 -19 37 -27 15 -31 32 -14 76 8 22 15 48 15 57 -1 10 3 20
9 23 5 4 9 -1 9 -11 0 -13 3 -14 15 -4 9 7 15 8 15 2 0 -5 -6 -12 -13 -15 -16
-6 -22 -87 -7 -87 6 0 10 9 10 20 0 32 1 35 16 43 18 10 14 56 -7 68 -18 9
-79 -15 -79 -32 0 -5 -8 -9 -19 -9 -11 0 -21 -9 -24 -21 -7 -28 -32 -19 -31
11 0 13 -7 31 -17 41 -12 12 -16 27 -13 45 3 19 -1 31 -16 41 -11 8 -20 21
-20 29 0 17 12 18 27 3 18 -18 78 7 113 47 16 19 30 39 30 44 0 19 -58 10 -94
-15 -20 -14 -38 -25 -39 -25 -1 0 -1 18 1 40 5 50 -3 84 -24 105 -12 12 -14
19 -6 27 8 8 22 3 49 -18 21 -16 42 -28 46 -26 4 1 10 -5 13 -13 4 -8 15 -15
26 -15 41 0 57 -17 49 -53 -5 -18 -13 -44 -20 -57 -10 -21 -9 -22 1 -6 19 28
44 53 58 58 34 11 -69 115 -187 190 -35 22 -63 43 -63 48 0 12 -92 48 -123 48
-16 0 -34 5 -40 11 -8 8 -5 11 13 10 14 -1 95 8 180 19 141 20 237 30 250 27
3 0 16 -6 30 -13z m3140 -157 c0 -7 -6 -20 -12 -27 -7 -8 -20 -27 -30 -43 -18
-34 -34 -44 -132 -81 -67 -26 -156 -43 -156 -31 0 14 106 104 173 145 91 57
157 73 157 37z m-4666 -86 c5 -4 22 -5 37 -2 16 3 29 1 29 -4 0 -16 -22 -32
-36 -26 -18 7 -40 -11 -57 -46 -25 -50 -2 -64 56 -35 17 9 51 18 76 20 24 1
49 8 55 14 8 9 1 10 -26 5 -34 -6 -38 -5 -38 13 0 11 6 23 13 25 6 3 2 6 -10
6 -31 1 -29 29 2 37 13 3 43 -1 67 -9 38 -12 43 -18 41 -42 -1 -15 -9 -35 -18
-44 -9 -9 -22 -24 -29 -35 -20 -30 -218 -58 -233 -33 -14 23 -69 40 -91 28
-25 -13 -36 0 -27 29 9 30 61 80 82 80 11 0 28 9 38 20 18 20 47 20 69 -1z
m366 -101 c14 -2 26 -10 28 -18 5 -29 -21 -49 -68 -51 -45 -3 -88 -22 -103
-46 -4 -7 -14 -10 -22 -7 -20 8 -20 63 0 70 8 4 15 11 15 17 0 6 8 19 17 30
14 15 26 18 63 13 25 -3 56 -7 70 -8z m839 -22 c-6 -13 -44 -42 -86 -65 l-75
-42 -22 20 c-12 12 -27 21 -32 21 -17 0 -56 51 -50 66 8 20 60 17 87 -5 22
-18 25 -18 42 -4 15 14 21 14 42 3 21 -11 27 -10 55 14 36 30 54 26 39 -8z
m1479 -220 c-27 -20 -22 -34 18 -51 45 -19 41 -20 48 10 9 34 46 35 46 1 0
-16 11 -32 30 -46 17 -12 30 -18 30 -14 0 4 9 -1 20 -11 11 -10 17 -22 12 -27
-10 -10 -42 0 -42 13 0 5 -11 7 -24 3 -19 -4 -28 0 -41 20 -18 27 -45 35 -45
13 0 -16 37 -51 63 -60 10 -4 15 -12 12 -17 -5 -8 -11 -8 -20 0 -9 8 -14 6
-19 -5 -3 -8 -17 -15 -30 -15 -19 0 -27 7 -32 24 -15 60 -87 74 -100 20 -7
-29 4 -41 46 -49 14 -3 39 -11 55 -17 17 -6 49 -10 73 -10 55 3 82 -12 82 -43
0 -25 -11 -30 -55 -27 -16 2 -17 0 -5 -7 8 -6 12 -12 10 -15 -10 -9 -155 14
-165 27 -11 15 -43 11 -65 -8 -8 -7 -34 -16 -57 -20 -39 -6 -44 -4 -54 18 -13
29 2 67 26 67 8 0 15 4 15 8 0 4 -16 6 -35 4 -22 -3 -45 2 -60 12 -31 20 -69
21 -85 1 -7 -8 -17 -15 -22 -15 -18 0 -118 52 -118 61 0 5 -9 0 -19 -10 -12
-12 -27 -17 -40 -14 -18 5 -94 -13 -164 -39 -28 -11 -57 -53 -57 -83 0 -9 7
-29 15 -45 17 -33 5 -74 -24 -85 -26 -10 -239 65 -272 96 -33 31 -35 38 -15
64 12 17 15 17 54 2 35 -14 42 -14 52 -2 7 8 18 15 24 15 6 0 17 9 23 19 8 12
19 18 32 14 16 -4 24 5 43 44 17 36 29 49 48 51 34 5 69 39 63 61 -4 15 0 18
21 14 20 -4 28 0 37 21 10 22 14 24 23 10 8 -10 32 -17 75 -19 46 -2 66 -8 76
-21 13 -18 14 -18 32 -1 11 9 29 17 40 17 11 0 28 9 38 20 10 11 23 20 30 20
7 0 26 7 43 16 24 12 40 13 67 5 22 -6 37 -6 41 0 6 10 49 8 60 -4 4 -3 -5
-20 -20 -37 -14 -17 -26 -36 -26 -41 0 -13 24 -11 38 3 6 6 28 11 48 10 35 -1
36 -1 30 28 -5 27 -3 30 18 30 16 0 26 7 30 22 5 22 6 22 23 5 17 -17 17 -19
1 -31z m300 -209 c7 -5 35 -7 62 -4 48 6 50 5 50 -18 0 -14 9 -34 21 -44 32
-29 36 -33 74 -73 37 -40 55 -48 55 -23 0 17 26 20 35 5 4 -6 15 -8 26 -5 30
10 41 -3 24 -27 -10 -15 -11 -25 -4 -34 13 -16 -59 -54 -93 -47 -14 3 -39 -2
-56 -11 -18 -9 -55 -16 -87 -16 -48 0 -58 3 -62 20 -4 15 -11 18 -28 14 -29
-7 -53 5 -69 37 -9 18 -20 24 -46 24 -28 0 -35 4 -35 20 0 14 8 21 28 23 32 4
45 25 28 46 -10 11 -5 22 20 50 30 35 31 38 14 50 -10 7 -15 18 -11 24 7 11
31 6 54 -11z m-2320 -51 c40 -3 77 -8 82 -11 17 -11 11 -33 -10 -40 -11 -4
-20 -12 -19 -18 5 -44 -37 -55 -98 -26 -35 17 -45 18 -62 7 -12 -7 -19 -19
-16 -27 4 -10 0 -10 -19 2 -21 14 -26 14 -36 2 -10 -12 -9 -15 4 -15 25 0 32
-31 11 -46 -22 -16 -34 -17 -54 -5 -12 8 -12 12 -2 25 12 14 10 15 -18 5 -17
-6 -31 -15 -31 -21 0 -5 -4 -7 -9 -4 -5 3 -7 23 -6 44 4 35 1 38 -35 56 -47
23 -51 42 -11 51 34 7 108 -10 113 -27 7 -21 74 -19 94 3 16 17 16 19 1 19
-10 0 -17 6 -17 13 0 8 -3 7 -10 -3 -5 -8 -13 -11 -17 -6 -14 13 26 34 60 31
18 -2 65 -6 105 -9z m1093 -281 c12 -19 25 -35 30 -35 5 0 9 -6 9 -14 0 -21
-83 -86 -108 -86 -12 0 -40 -7 -62 -16 -48 -19 -152 -13 -175 9 -21 21 -31 87
-14 97 7 5 17 6 22 3 5 -3 4 -9 -2 -12 -8 -5 -6 -13 7 -24 17 -16 20 -15 54
16 19 17 39 43 43 57 11 36 21 40 103 40 73 0 73 0 93 -35z m1683 -28 c35 -37
62 -51 71 -37 4 6 2 10 -4 10 -6 0 -8 6 -5 14 3 8 12 12 20 9 8 -3 12 -8 9
-13 -6 -10 40 -52 48 -43 15 14 6 -21 -9 -38 -9 -10 -13 -23 -9 -28 11 -18 23
-12 27 12 2 12 10 22 18 22 8 0 19 -10 25 -22 5 -13 13 -23 17 -23 12 0 22 24
11 27 -5 2 -8 14 -6 28 4 16 10 22 20 18 8 -3 12 -11 9 -18 -3 -8 6 -12 27
-11 27 1 32 4 29 24 -3 17 2 22 17 22 14 0 21 -6 21 -20 0 -11 6 -20 13 -20 6
-1 2 -9 -11 -20 -13 -11 -18 -21 -12 -25 7 -4 7 -12 0 -25 -5 -10 -10 -30 -10
-45 0 -14 -7 -28 -15 -32 -21 -7 -27 0 -29 34 -3 29 -25 78 -26 56 0 -6 4 -14
9 -17 21 -13 -3 -43 -52 -65 -88 -41 -130 -30 -122 31 3 24 1 28 -15 23 -23
-7 -90 49 -90 76 0 10 -3 19 -7 19 -5 0 -18 9 -31 18 -20 16 -23 24 -17 55 9
48 36 49 79 4z m-1469 -210 c78 -42 105 -62 105 -78 0 -21 -21 -29 -86 -35
-45 -4 -53 -1 -67 19 -11 17 -12 28 -5 42 9 15 8 17 -10 13 -17 -5 -19 -3 -12
11 5 9 11 24 14 34 7 21 12 21 61 -6z"/>
<path d="M3508 2982 c-10 -2 -18 -7 -18 -12 0 -4 -24 -11 -52 -15 -68 -8 -88
-14 -88 -26 0 -13 57 -11 65 2 4 6 23 8 49 4 61 -9 93 -24 111 -51 8 -13 21
-21 29 -18 7 3 21 -6 30 -20 17 -27 53 -35 61 -13 12 33 9 62 -6 62 -9 0 -23
6 -31 13 -8 6 -17 9 -20 7 -8 -8 -106 44 -110 58 -2 7 -11 11 -20 9z"/>
<path d="M5916 4376 c-10 -39 -6 -88 10 -119 9 -18 20 -38 23 -46 7 -14 28
-12 23 2 -1 4 11 13 27 18 37 13 68 56 52 72 -17 17 -13 24 19 37 17 7 30 17
30 22 0 12 -40 0 -61 -18 -24 -21 -43 -17 -62 15 -22 37 -53 46 -61 17z"/>
<path d="M4096 4224 c-72 -14 -121 -38 -111 -54 10 -17 51 -11 78 10 40 32 57
26 57 -19 0 -46 16 -61 35 -34 8 11 43 34 79 52 88 43 87 61 -1 60 -38 -1 -99
-8 -137 -15z"/>
<path d="M734 4145 c-8 -20 -12 -39 -10 -44 3 -4 38 -13 78 -21 83 -14 204
-57 293 -102 149 -76 236 -163 275 -277 24 -72 25 -117 5 -196 -44 -167 -172
-304 -442 -471 -52 -32 -90 -60 -85 -62 15 -5 175 82 262 141 84 58 249 218
297 287 62 91 123 267 80 231 -10 -8 -17 -7 -25 1 -18 18 -15 38 6 39 9 1 24
2 32 3 22 2 24 76 5 144 -21 70 -59 138 -99 175 -63 58 -271 132 -431 152 -27
4 -63 10 -80 15 -16 5 -56 11 -88 15 l-57 6 -16 -36z"/>
<path d="M4528 4052 c-31 -18 -36 -32 -13 -32 18 0 20 -19 3 -21 -7 -1 -35 -3
-63 -5 -27 -1 -72 -6 -98 -9 -43 -6 -47 -9 -41 -29 3 -11 14 -27 25 -35 10 -7
19 -21 20 -30 0 -10 2 -11 6 -3 2 6 11 12 19 12 8 0 14 5 14 10 0 17 20 11 27
-7 8 -22 42 -53 57 -53 6 0 17 -4 25 -9 12 -8 12 -12 2 -25 -12 -14 -10 -16 8
-16 11 0 21 5 21 10 0 6 5 10 10 10 6 0 10 -19 10 -42 0 -67 13 -76 46 -34 16
20 36 36 45 36 9 0 19 9 22 20 4 15 14 20 40 20 60 0 94 -25 45 -32 -26 -4
-35 -23 -13 -32 10 -3 26 4 41 19 26 26 49 32 59 15 11 -17 74 -42 93 -36 14
5 25 -4 45 -35 15 -22 27 -49 27 -59 0 -12 8 -17 27 -17 14 0 32 -9 39 -18 11
-15 14 -16 19 -3 7 17 95 25 95 8 0 -5 -4 -10 -10 -10 -5 0 -14 -8 -19 -19 -9
-16 -7 -20 13 -23 31 -6 77 29 55 43 -9 6 -10 9 -2 9 7 0 30 26 50 57 36 54
38 60 37 136 -2 75 -4 82 -32 108 -16 15 -32 26 -35 23 -3 -3 -14 0 -26 7 -24
16 -39 5 -22 -15 7 -8 10 -20 6 -26 -4 -6 0 -19 8 -28 8 -9 17 -26 19 -37 2
-15 -4 -20 -32 -25 -19 -4 -45 -12 -57 -18 -19 -10 -24 -9 -32 7 -6 10 -7 21
-4 25 3 3 1 6 -6 6 -9 0 -12 9 -9 24 5 23 3 23 -21 13 -14 -6 -31 -15 -38 -20
-17 -13 -35 2 -28 23 4 13 -2 22 -22 32 -19 9 -29 22 -31 41 -3 22 -8 27 -29
27 -15 0 -34 6 -42 14 -9 7 -37 25 -63 40 l-46 27 -15 -22 c-9 -11 -20 -18
-26 -15 -5 4 -18 -5 -27 -19 -12 -18 -20 -23 -29 -15 -7 6 -19 8 -28 4 -10 -3
-20 3 -28 18 -14 25 -38 47 -54 47 -5 0 -22 -7 -37 -17z"/>
<path d="M250 3835 c-24 -39 -29 -41 -68 -22 -15 8 -38 11 -52 7 -14 -3 -41
-3 -60 2 -68 15 -71 9 -68 -110 l3 -107 130 0 c137 0 185 11 265 61 34 20 69
54 57 54 -4 0 12 19 33 43 22 23 40 45 40 50 0 4 6 7 14 7 8 0 17 7 20 16 5
12 -3 10 -26 -8 -50 -38 -190 -62 -227 -39 -8 5 -14 24 -15 42 -1 45 -20 47
-46 4z"/>
<path d="M5360 3755 c0 -26 35 -91 72 -134 33 -37 32 -40 -8 -47 -15 -3 -35
-9 -43 -14 -14 -8 -14 -9 -1 -10 19 0 51 -35 42 -46 -4 -4 -1 -4 6 0 7 5 11
14 8 22 -3 8 1 14 9 14 15 0 16 -25 2 -47 -13 -21 8 -22 33 -1 14 11 18 16 10
12 -12 -6 -13 -5 -2 7 11 12 14 12 21 0 6 -8 11 -9 15 -3 3 6 2 13 -4 17 -22
14 -8 23 22 14 18 -5 51 -9 73 -8 35 1 37 2 14 9 -46 13 -113 58 -167 110 -28
27 -52 53 -52 58 0 4 -11 21 -25 37 -21 26 -24 27 -25 10z"/>
<path d="M1562 3454 c-77 -154 -210 -291 -397 -413 -44 -29 -106 -65 -137 -79
-32 -15 -56 -31 -55 -36 2 -5 34 -26 73 -46 38 -20 68 -42 67 -48 -2 -7 6 -12
16 -12 11 0 23 -9 26 -20 3 -11 12 -20 20 -20 37 0 185 -203 185 -255 0 -8 5
-15 10 -15 27 0 -28 122 -85 190 l-36 43 25 16 c28 17 32 26 16 36 -20 13 -9
26 43 49 85 38 128 97 247 336 50 102 69 253 39 320 l-16 35 -41 -81z"/>
<path d="M663 2804 c-3 -8 -12 -13 -19 -10 -7 3 -17 -1 -21 -8 -12 -20 -93
-28 -100 -10 -3 8 -9 14 -14 14 -4 0 -6 -6 -3 -14 4 -9 -6 -16 -30 -20 -47 -9
-106 -34 -106 -45 0 -5 8 -12 18 -15 29 -11 76 -38 97 -56 11 -9 29 -20 40
-24 15 -5 16 -9 6 -15 -20 -13 4 -23 36 -15 15 4 39 16 53 26 15 12 26 15 28
9 2 -6 11 -11 21 -11 9 0 26 -7 37 -15 26 -20 51 -19 63 3 10 16 10 16 11 -1
0 -13 6 -16 24 -11 13 3 27 1 31 -5 3 -6 11 -8 17 -5 7 4 8 2 4 -5 -4 -6 0
-14 9 -17 18 -7 55 22 55 43 0 8 5 11 10 8 6 -4 10 6 11 22 2 53 4 57 29 63
22 5 23 7 6 13 -12 5 -25 2 -36 -8 -9 -8 -22 -15 -28 -15 -6 0 -16 -8 -21 -17
-8 -14 -10 -14 -11 -3 0 8 12 24 27 35 15 13 23 27 19 33 -10 17 -26 15 -20
-3 4 -8 3 -15 0 -15 -4 0 -11 12 -16 26 -6 14 -16 24 -23 21 -51 -19 -54 -18
-49 8 5 26 6 25 -63 29 -11 1 -19 6 -18 13 4 21 -41 -2 -53 -26 -7 -14 -14
-18 -18 -12 -4 6 -2 20 4 31 6 11 8 20 5 20 -3 0 -8 -7 -12 -16z"/>
<path d="M1266 2408 c-2 -7 -9 -38 -16 -68 -12 -52 -94 -210 -109 -210 -4 0
-14 -13 -24 -29 -28 -48 -88 -89 -138 -95 -24 -2 -45 -5 -46 -5 -2 -1 -3 -5
-3 -11 0 -5 7 -7 15 -4 8 4 23 3 33 -1 16 -6 16 -7 -2 -21 -19 -13 -32 -64
-17 -64 11 0 42 36 36 41 -3 3 11 20 30 39 31 30 33 31 28 9 -6 -21 -2 -19 32
14 26 26 36 42 32 56 -3 12 2 26 12 33 14 12 15 11 2 -4 -12 -16 -11 -18 2
-18 19 0 69 63 92 115 23 53 45 140 50 193 4 40 -2 57 -9 30z"/>
<path d="M47 2348 c2 -5 11 -8 19 -8 8 0 12 -5 9 -10 -4 -6 4 -19 17 -30 15
-13 18 -19 9 -20 -12 0 -12 -3 -3 -12 16 -16 15 -25 -3 -25 -8 0 -15 6 -15 13
0 7 -8 10 -19 7 -10 -3 -22 0 -25 6 -13 21 -36 12 -36 -14 0 -19 5 -25 23 -25
12 0 28 -9 35 -20 7 -11 8 -20 3 -20 -5 0 -11 5 -13 10 -2 6 -13 12 -26 15
-17 3 -22 -1 -22 -16 0 -18 10 -23 35 -20 6 1 -1 -7 -15 -18 -21 -17 -22 -21
-9 -26 9 -3 20 -5 25 -4 21 4 34 -2 34 -15 0 -8 8 -17 18 -19 13 -4 12 -5 -5
-6 -12 0 -25 4 -29 10 -4 8 -9 8 -17 0 -7 -7 -14 -7 -24 0 -10 9 -13 5 -13
-17 0 -20 3 -25 9 -16 6 10 10 9 14 -7 4 -17 13 -21 44 -20 l38 1 -32 9 c-18
5 -33 14 -33 19 0 15 63 -1 77 -19 6 -9 15 -13 19 -8 4 4 2 7 -4 7 -21 0 -13
26 18 55 16 15 27 31 25 36 -3 4 5 5 17 1 14 -3 19 -2 14 6 -4 7 -2 12 4 12 6
0 9 4 5 10 -3 5 -13 6 -22 3 -10 -4 -14 -2 -10 4 4 6 1 14 -5 16 -10 4 -10 6
0 6 17 1 46 30 39 38 -3 3 -18 -4 -32 -15 -16 -13 -33 -18 -43 -14 -16 6 -16
7 1 10 24 5 22 22 -3 22 -11 0 -20 5 -20 10 0 6 11 10 25 10 27 0 35 27 11 36
-9 3 -12 13 -9 22 6 15 4 15 -14 -1 -16 -14 -22 -15 -31 -5 -11 14 10 43 22
31 3 -4 6 -2 6 3 0 5 -20 9 -44 9 -24 0 -42 -3 -39 -7z"/>
<path d="M9514 2335 c3 -11 12 -49 21 -85 8 -36 19 -81 24 -100 22 -94 8 -351
-24 -425 -7 -16 -16 -46 -20 -65 -4 -19 -11 -39 -15 -45 -4 -5 -10 -28 -13
-50 l-6 -40 15 28 c16 29 22 31 42 19 13 -9 12 -30 -7 -77 -6 -16 -13 -35 -16
-42 -7 -21 -44 -2 -48 26 -4 21 -5 19 -5 -9 -1 -19 -6 -55 -12 -80 -6 -25 -16
-74 -22 -110 -9 -55 -58 -160 -74 -160 -3 0 -2 5 1 10 4 6 2 17 -5 25 -6 7
-15 42 -19 77 l-8 63 -16 -37 c-10 -21 -17 -44 -17 -51 0 -8 -19 -34 -42 -58
-24 -24 -62 -64 -84 -89 -326 -354 -732 -608 -1324 -827 -98 -36 -157 -53
-345 -102 -60 -15 -132 -38 -160 -49 -61 -26 -151 -48 -270 -66 -80 -12 43
-14 1073 -15 1048 -1 1162 1 1162 15 0 8 14 27 30 41 17 13 28 29 25 33 -3 5
10 30 30 55 19 26 35 53 35 61 0 8 5 14 10 14 6 0 10 4 10 10 0 10 59 111 70
120 11 9 23 44 25 74 2 16 8 32 15 36 12 7 33 41 45 70 4 8 11 22 16 30 5 8
20 40 35 70 14 30 33 67 40 82 8 14 14 32 14 38 0 7 7 18 16 25 14 10 14 14 3
26 -13 13 -15 24 -10 72 0 9 8 17 17 17 9 0 14 7 12 17 -2 10 -11 18 -21 18
-9 0 -17 4 -18 8 -2 18 14 74 27 94 12 20 12 24 -6 36 -20 14 -20 16 -5 82 14
59 14 68 1 79 -8 6 -17 33 -19 59 -3 26 -12 59 -21 73 -10 14 -16 41 -14 63 1
23 -4 47 -13 57 -11 13 -11 18 -1 21 6 3 12 9 12 14 0 6 -4 8 -9 5 -15 -10
-43 6 -37 20 3 8 1 14 -4 14 -5 0 -12 17 -16 38 -4 20 -11 42 -16 49 -5 7 -7
17 -3 23 4 6 12 48 20 93 12 81 12 149 -1 277 -7 72 -57 281 -74 308 -10 15
-10 15 -6 -3z"/>
<path d="M732 2323 c2 -10 13 -19 25 -21 22 -3 22 -4 4 -23 -13 -15 -25 -18
-45 -13 -16 4 -26 2 -26 -5 0 -13 66 -15 74 -3 3 5 19 7 37 4 21 -3 27 -7 18
-13 -18 -11 -6 -21 15 -13 14 5 21 23 17 46 0 4 6 5 14 1 11 -4 13 -9 5 -18
-12 -14 -3 -26 15 -19 7 3 15 -2 18 -10 8 -21 -29 -42 -47 -27 -9 8 -18 7 -31
-3 -14 -10 -15 -15 -5 -21 7 -4 15 -2 19 4 8 12 41 5 41 -9 0 -4 12 -11 28
-15 15 -4 21 -10 15 -12 -7 -3 -13 -9 -13 -15 0 -5 14 2 31 16 44 38 70 17 29
-24 -21 -21 -35 -27 -25 -10 8 12 -5 13 -24 1 -12 -7 -12 -13 -3 -24 7 -7 10
-16 7 -19 -3 -3 4 -13 16 -24 19 -17 21 -17 30 -2 6 10 16 15 25 11 11 -4 12
-8 4 -13 -7 -4 -8 -10 -4 -13 5 -3 22 6 39 19 25 20 27 25 16 36 -12 11 -12
10 -6 -2 7 -12 6 -13 -7 -3 -8 7 -19 9 -23 5 -5 -4 -5 -2 -2 5 4 6 2 13 -5 15
-6 2 -8 9 -4 16 3 6 13 9 21 6 8 -4 12 -11 9 -16 -4 -6 -1 -8 7 -6 8 3 13 11
12 17 -2 6 2 11 8 11 5 0 7 5 4 10 -3 6 -1 10 4 10 15 0 14 33 -1 48 -9 9 -9
12 0 12 7 0 12 7 12 15 0 8 -9 15 -19 15 -11 0 -22 4 -25 8 -3 5 -19 7 -37 6
-18 -1 -39 4 -46 12 -8 8 -24 14 -36 14 -20 1 -21 2 -5 14 21 15 6 36 -25 36
-16 0 -17 -3 -8 -14 15 -18 -1 -30 -28 -21 -16 5 -18 2 -14 -17 6 -23 6 -23
-13 -3 -10 11 -36 28 -57 38 -37 17 -38 17 -35 0z"/>
<path d="M1285 2117 c-11 -12 -24 -30 -30 -41 -5 -10 -18 -24 -29 -30 -10 -6
-33 -26 -51 -44 -34 -34 -129 -99 -205 -141 -25 -13 -58 -34 -75 -46 -16 -12
-59 -36 -95 -55 -36 -18 -67 -37 -68 -42 -11 -26 -331 -142 -494 -178 -32 -7
-58 -16 -58 -21 0 -8 146 -109 158 -109 9 0 36 -20 87 -62 18 -16 37 -28 43
-28 6 0 15 -7 19 -15 15 -27 317 -216 403 -251 19 -8 53 -18 75 -21 35 -5 38
-4 26 11 -17 21 1 46 35 46 26 0 55 35 47 56 -3 8 6 23 21 35 14 11 24 25 21
30 -4 5 -1 9 5 9 6 0 8 5 5 10 -4 6 7 13 24 16 47 10 37 25 -11 19 l-43 -5 42
19 c40 19 42 22 33 45 -8 21 -6 28 11 37 11 6 18 16 16 24 -3 7 6 22 19 34 36
32 20 44 -26 21 -63 -32 -60 -23 7 19 34 22 60 45 59 53 -4 24 -31 58 -46 58
-12 1 -12 3 3 14 16 13 16 15 2 30 -9 9 -21 16 -26 16 -6 0 -9 8 -8 18 4 35
-56 136 -75 125 -6 -4 -5 1 3 10 7 9 11 17 8 17 -6 0 -44 -38 -146 -144 -40
-42 -80 -66 -51 -31 22 27 4 16 -34 -20 -28 -26 -46 -35 -71 -35 -28 0 -43 -9
-82 -50 -43 -45 -52 -50 -90 -50 -24 0 -43 -3 -43 -7 -1 -16 -47 -41 -88 -48
-35 -6 -42 -4 -42 9 0 18 -15 21 -25 6 -10 -17 -35 -11 -33 8 3 40 -2 49 -25
45 -58 -10 -57 46 1 66 44 15 78 29 113 47 14 7 35 11 46 8 12 -3 30 -1 40 5
14 8 14 10 3 11 -8 0 -1 7 15 16 17 8 42 13 56 10 19 -4 32 1 45 16 11 11 42
31 71 44 28 13 55 29 58 34 3 6 14 10 24 10 10 0 29 8 42 19 13 10 41 24 62
32 20 7 37 17 37 21 0 4 7 8 16 8 8 0 12 5 9 10 -3 6 -2 10 3 10 6 0 9 8 8 18
-1 13 5 16 23 14 17 -3 33 6 56 32 17 20 35 33 40 28 4 -4 5 -1 1 6 -4 7 -1
12 8 12 8 0 18 9 21 20 3 11 11 20 16 20 10 0 86 81 81 87 -1 2 4 11 13 19 8
9 15 20 15 25 0 12 -1 11 -25 -14z"/>
<path d="M715 1980 c-3 -5 -14 -10 -23 -10 -10 0 -26 -13 -35 -30 -12 -20 -26
-30 -43 -30 -15 0 -24 -6 -24 -16 0 -11 -6 -14 -21 -9 -13 5 -19 3 -15 -3 3
-5 26 -15 51 -21 25 -6 45 -16 45 -21 0 -5 -7 -7 -15 -4 -9 4 -15 0 -15 -10 0
-9 7 -16 16 -16 8 0 22 -6 29 -14 12 -11 10 -17 -11 -35 -13 -11 -24 -19 -24
-16 0 3 -13 -1 -30 -10 -34 -17 -44 -19 -35 -5 3 6 0 10 -8 10 -8 0 -29 3 -47
7 -24 4 -31 3 -26 -5 4 -7 16 -12 26 -12 11 0 17 -5 15 -12 -3 -7 -1 -19 4
-27 7 -11 26 -7 101 24 113 46 247 125 230 135 -9 5 -9 9 -1 14 6 4 11 2 11
-3 0 -16 21 -13 41 5 10 9 15 23 12 31 -3 8 0 19 8 24 8 5 9 9 3 9 -6 0 -17
-7 -24 -15 -7 -8 -21 -15 -32 -15 -10 0 -21 7 -24 15 -7 17 -44 21 -44 4 0 -5
-5 -7 -11 -3 -7 4 -8 9 0 17 7 7 3 15 -12 27 -30 23 -64 33 -72 20z"/>
<path d="M1545 1918 c18 -190 114 -470 218 -632 27 -43 31 -59 33 -130 3 -98
29 -230 54 -271 9 -16 20 -52 24 -79 3 -27 10 -54 15 -60 5 -6 12 -29 16 -51
4 -22 18 -60 30 -85 12 -25 26 -56 30 -70 8 -27 88 -202 107 -235 6 -11 17
-31 24 -45 7 -14 26 -37 41 -51 27 -25 130 -99 137 -99 1 0 44 -25 94 -55 l91
-55 1023 1 c651 1 999 5 958 10 -120 17 -242 39 -289 53 -25 8 -82 22 -126 31
-159 35 -566 174 -730 250 -16 8 -66 28 -110 46 -44 17 -145 65 -225 107 -80
41 -158 82 -175 90 -47 24 -138 87 -159 110 -10 12 -31 24 -47 27 -35 8 -266
180 -318 238 -8 9 -21 17 -27 17 -7 0 -14 7 -18 15 -6 16 -36 21 -36 6 0 -14
-40 -4 -61 15 -11 10 -19 24 -19 33 0 19 -46 64 -68 67 -24 4 -52 45 -52 79 0
39 -16 65 -28 47 -5 -7 -16 -10 -26 -6 -19 7 -52 64 -36 64 5 0 10 5 10 11 0
6 -7 9 -15 5 -9 -3 -15 0 -15 8 0 29 -25 61 -45 59 -11 -2 -14 0 -7 3 20 9 14
40 -12 59 -14 10 -27 34 -31 52 -3 19 -13 37 -21 40 -7 3 -14 15 -14 27 0 12
-9 32 -19 43 -11 12 -17 23 -14 26 3 3 -2 18 -10 34 -9 15 -18 36 -21 46 -3
10 -11 15 -17 12 -6 -4 -8 -14 -5 -22 3 -8 1 -11 -4 -8 -13 8 -13 35 0 35 13
0 13 31 -1 67 l-10 28 -18 -40 c-13 -28 -20 -35 -24 -25 -28 70 -35 109 -31
160 4 47 2 58 -11 64 -15 6 -16 -1 -10 -66z"/>
<path d="M0 587 l0 -423 60 -42 c32 -23 62 -42 65 -42 4 0 32 -18 62 -40 l56
-40 586 0 586 0 -40 23 c-22 13 -94 62 -160 109 -315 223 -491 349 -610 438
-178 133 -265 196 -365 265 -47 32 -120 85 -162 117 l-78 58 0 -423z"/>
</g>
</svg>
