<?xml version="1.0" encoding="iso-8859-1"?>
<!-- Generator: Adobe Illustrator 19.0.0, SVG Export Plug-In . SVG Version: 6.00 Build 0)  -->
<svg version="1.1" id="Capa_1" xmlns="http://www.w3.org/2000/svg" xmlns:xlink="http://www.w3.org/1999/xlink" x="0px" y="0px"
	 viewBox="0 0 463.002 463.002" style="enable-background:new 0 0 463.002 463.002;" xml:space="preserve">
<path d="M430.342,35.421c-2.254-3.476-6.897-4.466-10.373-2.211c-0.121,0.078-12.216,7.925-24.129,15.756
	c-7.012,4.608-12.595,8.314-16.595,11.014c-2.409,1.626-4.28,2.911-5.56,3.82c-0.605,0.429-1.312,0.932-2.006,1.527
	c-3.356-2.786-7.29-4.874-11.57-6.068c-3.411-0.95-6.848-1.304-10.198-1.12L326.943,4.548c-1.632-3.808-6.041-5.572-9.848-3.939
	c-3.808,1.632-5.571,6.041-3.939,9.848L335.5,62.592c-5.815,3.511-10.531,8.932-13.156,15.78c-1.261,3.291-2.615,6.489-4.043,9.614
	l-10.881-5.441c-3.707-1.854-8.211-0.352-10.063,3.354c-1.853,3.705-0.351,8.21,3.354,10.063l10.02,5.01
	c0,0.059-0.007,0.116-0.006,0.175c0.007,0.391,0.053,0.771,0.118,1.145c-2.158,3.646-4.443,7.162-6.868,10.534l-9.777-8.444
	c-3.134-2.707-7.871-2.36-10.578,0.773c-2.708,3.135-2.361,7.871,0.773,10.578l10.155,8.771c-3.838,4.241-7.941,8.204-12.292,11.901
	l-6.866-10.671c-2.241-3.483-6.882-4.489-10.366-2.249c-3.483,2.242-4.49,6.883-2.249,10.366l7.481,11.626
	c-3.725,2.499-7.597,4.838-11.626,7.004l-4.818-9.237c-1.914-3.674-6.445-5.099-10.118-3.181c-3.672,1.915-5.097,6.445-3.181,10.118
	l4.553,8.729c-2.478,1.027-5.004,2.001-7.579,2.919c-1.718,0.613-3.464,1.243-5.222,1.883l-5.548-10.637
	c-1.916-3.673-6.446-5.097-10.118-3.181c-3.673,1.915-5.097,6.445-3.181,10.118l4.702,9.015c-3.791,1.475-7.638,3.018-11.529,4.635
	l-7.03-11.049c-2.225-3.495-6.861-4.523-10.354-2.302c-3.494,2.224-4.525,6.859-2.302,10.354l5.758,9.05
	c-3.725,1.693-7.467,3.459-11.214,5.302l-7.611-10.701c-2.4-3.376-7.082-4.168-10.458-1.765c-3.376,2.4-4.166,7.083-1.765,10.458
	l6.382,8.972c-0.92,0.502-1.838,1.011-2.755,1.523c-0.232,0.113-0.458,0.241-0.678,0.379c-2.291,1.285-4.574,2.602-6.849,3.954
	l-10.473-9.128c-3.122-2.722-7.86-2.396-10.582,0.727c-2.721,3.122-2.396,7.86,0.727,10.582l7.085,6.176
	c-3.024,2.027-6.022,4.114-8.977,6.28c-0.078,0.052-0.157,0.103-0.232,0.158l-13.522-7.478c-3.624-2.002-8.189-0.689-10.193,2.934
	c-2.004,3.625-0.69,8.188,2.934,10.193l8.018,4.434c-3.041,2.573-6.029,5.223-8.939,7.975c-0.233,0.22-0.457,0.446-0.689,0.667
	l-7.26-7.151c-2.951-2.906-7.7-2.871-10.606,0.081c-2.906,2.951-2.87,7.699,0.081,10.606l6.9,6.796
	c-0.066,0.208-0.129,0.418-0.178,0.635c-0.04,0.178-0.066,0.356-0.093,0.535c-2.647,2.95-5.202,5.956-7.646,9.031l-3.509-6.229
	c-2.031-3.608-6.607-4.889-10.215-2.854c-3.609,2.032-4.887,6.606-2.854,10.215l6.878,12.21c-2.379,3.581-4.646,7.236-6.784,10.977
	l-5.564-7.247c-2.523-3.285-7.229-3.904-10.517-1.382c-3.285,2.522-3.904,7.23-1.382,10.517l9.865,12.849
	c-1.756,3.785-3.41,7.64-4.947,11.577l-11.148-6.017c-3.646-1.968-8.196-0.607-10.162,3.037c-1.968,3.646-0.607,8.195,3.037,10.162
	l13.263,7.159c-1.199,3.862-2.298,7.797-3.308,11.798l-12.173-2.136c-4.077-0.717-7.967,2.01-8.683,6.091
	c-0.717,4.079,2.011,7.967,6.091,8.683l11.548,2.026c-0.847,4.507-1.592,9.092-2.22,13.768l-14.52,4.426
	c-3.963,1.207-6.195,5.398-4.987,9.36c0.985,3.233,3.958,5.315,7.171,5.315c0.725,0,1.461-0.105,2.189-0.328l8.437-2.572
	c-0.549,8.366,2.249,16.651,7.732,22.947l-23.952,47.903c-1.853,3.705-0.351,8.21,3.354,10.063c1.077,0.539,2.222,0.794,3.349,0.794
	c2.751,0,5.4-1.52,6.714-4.147l22.964-45.928c0.926,0.354,1.871,0.661,2.828,0.927v49.646c0,4.143,3.357,7.5,7.5,7.5
	s7.5-3.357,7.5-7.5v-49.185c13.318-2.823,23.715-14.153,24.777-28.102c0.014-0.184,0.032-0.363,0.046-0.546l6.512,3.515
	c1.133,0.611,2.353,0.901,3.556,0.901c2.668,0,5.251-1.427,6.606-3.938c1.968-3.646,0.607-8.195-3.037-10.162l-11.818-6.379
	c0.803-5.326,1.79-10.441,2.954-15.362l9.103,3.867c0.957,0.406,1.951,0.599,2.93,0.599c2.918,0,5.693-1.714,6.906-4.569
	c1.619-3.813-0.158-8.216-3.971-9.836l-10.822-4.597c1.671-4.957,3.55-9.699,5.639-14.235l10.874,6.996
	c1.256,0.808,2.661,1.193,4.051,1.193c2.466,0,4.881-1.215,6.314-3.443c2.241-3.483,1.233-8.124-2.25-10.365l-11.932-7.677
	c2.053-3.389,4.238-6.659,6.563-9.811l11.956,7.691c1.256,0.808,2.661,1.193,4.051,1.193c2.466,0,4.881-1.215,6.314-3.443
	c2.241-3.483,1.233-8.124-2.25-10.365l-10.417-6.702c3.786-4.075,7.834-7.948,12.148-11.64l5.712,8.075
	c1.462,2.066,3.777,3.17,6.13,3.17c1.497,0,3.01-0.447,4.324-1.378c3.382-2.393,4.184-7.073,1.792-10.454l-6.117-8.647
	c3.679-2.626,7.511-5.161,11.494-7.614l3.737,9.726c1.146,2.981,3.988,4.812,7.003,4.812c0.894,0,1.804-0.161,2.688-0.501
	c3.866-1.485,5.796-5.824,4.311-9.691l-4.569-11.89c3.602-1.923,7.303-3.802,11.111-5.637l5.54,10.22
	c1.358,2.506,3.938,3.927,6.601,3.927c1.207,0,2.432-0.292,3.567-0.907c3.642-1.975,4.993-6.526,3.02-10.168l-5.05-9.314
	c3.694-1.6,7.471-3.174,11.333-4.727l7.049,9.779c1.466,2.033,3.761,3.115,6.09,3.115c1.52,0,3.054-0.461,4.38-1.417
	c3.36-2.422,4.12-7.109,1.698-10.47l-4.75-6.59c3.016-1.12,6.072-2.234,9.178-3.341c0.734-0.262,1.454-0.541,2.183-0.809
	l9.762,8.981c1.441,1.326,3.261,1.98,5.076,1.98c2.024,0,4.043-0.814,5.521-2.422c2.805-3.049,2.606-7.793-0.441-10.598l-4.588-4.22
	c4.105-1.864,8.114-3.837,12.025-5.921l10.68,8.993c1.407,1.185,3.121,1.763,4.827,1.763c2.136,0,4.258-0.907,5.741-2.669
	c2.668-3.169,2.262-7.9-0.906-10.568l-6.597-5.555c4.901-3.134,9.634-6.457,14.186-9.979l5.724,8.92
	c1.433,2.232,3.851,3.45,6.319,3.45c1.387,0,2.79-0.385,4.044-1.188c3.485-2.237,4.498-6.877,2.262-10.363l-6.769-10.548
	c3.661-3.331,7.189-6.807,10.587-10.424l4.495,7.005c1.433,2.232,3.851,3.45,6.319,3.45c1.387,0,2.79-0.385,4.044-1.188
	c3.485-2.237,4.498-6.877,2.262-10.363l-6.884-10.728c0.091-0.115,0.182-0.231,0.273-0.345l0.987-0.029
	c-0.004-0.122-0.02-0.511-0.083-1.115c2.599-3.327,5.115-6.742,7.526-10.27l5.084,7.922c1.433,2.232,3.851,3.45,6.319,3.45
	c1.387,0,2.79-0.385,4.044-1.188c3.485-2.237,4.498-6.877,2.262-10.363l-8.904-13.876c2-3.49,3.912-7.072,5.75-10.731l11.777,6.651
	c1.166,0.658,2.432,0.971,3.682,0.971c2.617,0,5.158-1.372,6.537-3.813c2.037-3.607,0.765-8.182-2.842-10.219l-12.841-7.252
	c0.943-2.222,1.869-4.461,2.759-6.738c3.003-7.689,2.89-16.235-0.236-23.781c0.319-0.245,0.623-0.507,0.898-0.799
	c3.997-2.989,26.535-17.822,46.624-30.854C431.606,43.54,432.596,38.896,430.342,35.421z M356.08,73.709
	c4.489,1.251,8.111,4.241,10.198,8.419c2.112,4.229,2.328,9.201,0.594,13.643c-1.859,4.761-3.854,9.382-5.967,13.881
	c-5.213-6.322-14.109-12.902-29.061-15.248c1.6-3.471,3.109-7.02,4.505-10.663c2.515-6.56,8.668-10.64,15.313-10.64
	C353.123,73.101,354.606,73.298,356.08,73.709z M234.585,214.146c-2.406,0.942-4.784,1.893-7.136,2.853
	c-0.724-8.279-4.376-18.772-15.347-29.366c5.521-2.298,11.097-4.505,16.71-6.634c15.658,12.647,15.686,24.539,14.693,29.736
	c-2.766,1.033-5.498,2.076-8.197,3.128C235.065,213.944,234.823,214.038,234.585,214.146z M198.342,230.167
	c-0.714-8.911-4.747-19.593-15.583-29.027c4.647-2.379,9.364-4.658,14.137-6.854c15.28,12.044,16.253,23.471,15.481,29.182
	C207.567,225.641,202.887,227.87,198.342,230.167z M171.464,245.67c-1.722-8.018-6.577-17.828-18.493-27.111
	c5.005-3.359,10.14-6.554,15.394-9.594c18.745,12.619,15.125,27.129,14.278,29.738C178.801,240.956,175.074,243.275,171.464,245.67z
	 M258.864,205.092c-0.31-8.213-3.399-18.978-14.157-29.944c4.077-1.516,8.051-3.169,11.919-4.958
	c17.704,10.839,18.619,23.121,18.175,27.948C269.657,200.648,264.35,202.974,258.864,205.092z M289.383,190.222
	c-1.316-8.083-5.698-18.424-17.809-27.93c4.038-2.42,7.94-5.003,11.696-7.754c18.035,6.987,22.914,17.223,24.145,23.321
	C301.705,182.316,295.687,186.43,289.383,190.222z M319.768,167.24c-3.293-7.701-10.029-16.468-23.55-23.353
	c3.008-2.773,5.899-5.671,8.673-8.69c18.858,3.205,25.835,12.006,28.401,17.798C329.031,158.012,324.522,162.76,319.768,167.24z
	 M128.998,284.839c-4.295-6.303-12.769-13.703-29.14-15.476c4.119-5.84,8.529-11.35,13.199-16.56
	c20.267,6.362,23.416,18.418,23.899,22.29C134.165,278.226,131.517,281.475,128.998,284.839z M98.093,369.419
	c-6.91-3.434-17.623-5.748-32.984-1.45c0.791-7.762,1.887-15.2,3.258-22.341c24.885-4.935,31.359,6.682,31.631,7.194l-0.08-0.164
	l0.639-0.297C99.545,357.836,98.722,363.518,98.093,369.419z M75.777,317.205c0.002,0,0.005-0.001,0.007-0.001
	c23.825-5.607,30.849,6.296,31.815,8.225c-1.214,3.495-2.333,7.087-3.352,10.785c-6.382-4.393-16.607-8.146-32.281-6.32
	C73.128,325.546,74.395,321.313,75.777,317.205z M113.946,309.856c-5.945-5.26-15.966-10.406-31.897-8.881
	c2.64-6.011,5.531-11.746,8.657-17.219c0.54,0.125,1.1,0.197,1.678,0.198c9.747,0.018,17.356,2.357,22.006,6.769
	c3.331,3.159,4.081,6.318,4.111,6.452l-0.03-0.153l2.627-0.477C118.52,300.8,116.133,305.231,113.946,309.856z M81.094,392.002
	h-0.19c-4.597,0-8.852-1.866-11.979-5.255c-0.991-1.073-1.804-2.257-2.47-3.507c16.854-5.534,25.185-0.88,28.164,1.615
	C91.66,389.166,86.673,392.002,81.094,392.002z M148.884,263.1c-3.351-7.319-10.233-16.028-24.331-22.055
	c4.976-4.677,10.18-9.085,15.579-13.254c17.386,11.699,17.624,23.846,17.001,28.294C154.291,258.356,151.541,260.693,148.884,263.1z
	 M315.562,122.2c3.162-4.318,6.115-8.836,8.864-13.541c20.904,1.446,26.943,12.521,28.432,16.449
	c-3.012,5.229-6.229,10.243-9.632,15.058C338.412,133.337,330.054,126.216,315.562,122.2z"/>
<g>
</g>
<g>
</g>
<g>
</g>
<g>
</g>
<g>
</g>
<g>
</g>
<g>
</g>
<g>
</g>
<g>
</g>
<g>
</g>
<g>
</g>
<g>
</g>
<g>
</g>
<g>
</g>
<g>
</g>
</svg>
