<?xml version="1.0" encoding="iso-8859-1"?>
<!-- Generator: Adobe Illustrator 19.0.0, SVG Export Plug-In . SVG Version: 6.00 Build 0)  -->
<svg version="1.1" id="Capa_1" xmlns="http://www.w3.org/2000/svg" xmlns:xlink="http://www.w3.org/1999/xlink" x="0px" y="0px"
	 viewBox="0 0 463.002 463.002" style="enable-background:new 0 0 463.002 463.002;" xml:space="preserve">
<path d="M396.136,337.605c-13.164-10.348-34.308-27.079-38.654-30.786c-33.669-60.553-80.089-85.022-89.403-89.465
	c1.829-3.123,2.921-6.439,2.921-9.853c0-3.274-1.147-7.757-3.174-15.399c-1.353-5.1-2.913-10.985-3.885-16.244
	c0.711,0.021,1.423,0.043,2.132,0.043c29.333,0,56.244-17.283,57.521-18.115c1.678-1.094,2.849-2.813,3.252-4.774
	c0.403-1.962,0.005-4.004-1.106-5.67l-12.245-18.368c15.538-12.017,32.422-18.369,32.603-18.437
	c3.886-1.435,5.873-5.748,4.438-9.634c-1.435-3.885-5.749-5.87-9.634-4.437c-0.952,0.352-23.53,8.801-42.363,25.41
	c-2.814,2.482-3.361,6.663-1.279,9.785L308.8,148.97c-8.463,4.413-23.972,11.217-40.121,11.881c0.383-1.466,0.565-2.824,0.616-4.014
	c0.28-6.454-2.577-12.725-8.491-18.64c-2.119-2.119-3.794-5.211-5.567-8.485c-1.974-3.646-4.308-7.946-7.818-11.398
	c5.019-18.58,40.684-80.711,76.261-104.585c3.439-2.308,4.356-6.967,2.048-10.406c-2.309-3.44-6.967-4.358-10.407-2.049
	c-37.082,24.884-73.297,85.674-81.617,110.82c-0.712-0.057-1.443-0.092-2.203-0.092s-1.491,0.035-2.203,0.092
	c-8.32-25.146-44.536-85.936-81.617-110.82c-3.439-2.31-8.1-1.393-10.407,2.049c-2.308,3.439-1.391,8.099,2.048,10.406
	c35.577,23.874,71.242,86.005,76.261,104.585c-3.511,3.452-5.844,7.752-7.818,11.398c-1.773,3.274-3.448,6.366-5.567,8.485
	c-5.915,5.915-8.771,12.186-8.491,18.64c0.052,1.187,0.232,2.543,0.614,4.005c-16.105-0.681-31.634-7.479-40.111-11.884
	l11.531-17.297c2.082-3.122,1.535-7.303-1.279-9.785c-18.833-16.609-41.411-25.059-42.363-25.41
	c-3.884-1.438-8.199,0.551-9.634,4.437s0.552,8.199,4.438,9.634c0.187,0.069,17.013,6.364,32.604,18.436l-12.246,18.369
	c-1.111,1.666-1.509,3.708-1.106,5.67c0.403,1.962,1.575,3.681,3.252,4.774c1.278,0.832,28.186,18.115,57.521,18.115
	c0.709,0,1.42-0.022,2.132-0.043c-0.972,5.259-2.532,11.144-3.885,16.244c-2.027,7.643-3.174,12.125-3.174,15.399
	c0,3.414,1.092,6.729,2.921,9.853c-9.314,4.441-55.735,28.904-89.403,89.465c-4.346,3.707-25.49,20.438-38.654,30.786
	c-3.256,2.56-3.821,7.275-1.261,10.531c1.48,1.883,3.68,2.865,5.901,2.865c1.622,0,3.256-0.523,4.63-1.604
	c40.662-31.965,40.983-32.549,41.938-34.284c24.22-44.067,56.204-68.095,72.998-78.45l-1.954,9.416
	c-1.154,5.559-1.948,11.151-2.398,16.757c-1.451,5.849-10.718,44.326-10.718,72.665v95.6c0,8.768,7.133,15.9,15.938,15.9
	c8.161,0,14.958-6.12,15.813-14.235l1.577-14.984l5.412,31.122c1.42,8.169,8.469,14.098,16.76,14.098s15.34-5.929,16.76-14.097
	l5.413-31.122l1.577,14.983c0.854,8.116,7.652,14.236,15.851,14.236c8.767,0,15.9-7.133,15.9-15.9v-95.6
	c0-28.337-9.266-66.811-10.718-72.664c-0.45-5.606-1.244-11.198-2.398-16.758l-1.963-9.458
	c16.758,10.292,48.682,34.236,73.007,78.494c0.954,1.734,1.275,2.318,41.937,34.283c1.375,1.08,3.008,1.604,4.63,1.604
	c2.222,0,4.421-0.982,5.901-2.865C399.957,344.881,399.392,340.165,396.136,337.605z M231.501,224.002
	c-8.014,0-24.5-11.103-24.5-16.494c0.025-1.577,1.555-7.347,2.672-11.56c1.715-6.463,3.732-14.069,4.72-20.946h34.215
	c0.988,6.877,3.005,14.483,4.72,20.946c1.117,4.213,2.647,9.982,2.672,11.554C256.001,212.899,239.515,224.002,231.501,224.002z
	 M212.804,148.805c3.663-3.663,6.047-8.065,8.15-11.95c4.033-7.446,5.74-9.854,10.546-9.854s6.514,2.407,10.546,9.854
	c2.103,3.885,4.487,8.287,8.15,11.95c2.739,2.739,4.2,5.36,4.112,7.382c-0.059,1.363-0.85,2.685-1.828,3.814h-41.96
	c-0.978-1.129-1.769-2.451-1.828-3.814C208.604,154.166,210.065,151.545,212.804,148.805z M192.833,431.197
	c-0.048,0.459-0.433,0.805-0.933,0.805c-0.496,0-0.9-0.404-0.9-0.9v-95.6c0-5.429,0.384-11.336,1.003-17.337l7.929,45.59
	L192.833,431.197z M233.482,446.336c-0.168,0.965-1.001,1.666-1.981,1.666s-1.813-0.701-1.981-1.667l-26.447-152.072
	c-1.706-9.808-2.185-19.686-1.455-29.517c0.019-0.183,0.036-0.365,0.041-0.546c0.398-5.042,1.108-10.071,2.145-15.071l3.933-18.95
	c5.264,3.536,11.096,6.209,16.264,7.642v129.682c0,4.143,3.358,7.5,7.5,7.5s7.5-3.357,7.5-7.5V237.82
	c5.168-1.432,11-4.106,16.264-7.642l3.933,18.95c1.038,5,1.748,10.029,2.145,15.071c0.006,0.182,0.022,0.364,0.041,0.546
	c0.73,9.83,0.251,19.708-1.455,29.517L233.482,446.336z M272.001,431.101c0,0.496-0.404,0.9-0.938,0.9
	c-0.462,0-0.846-0.346-0.895-0.806l-7.099-67.441l7.929-45.591c0.619,6.001,1.003,11.908,1.003,17.337V431.101z"/>
<g>
</g>
<g>
</g>
<g>
</g>
<g>
</g>
<g>
</g>
<g>
</g>
<g>
</g>
<g>
</g>
<g>
</g>
<g>
</g>
<g>
</g>
<g>
</g>
<g>
</g>
<g>
</g>
<g>
</g>
</svg>
