<?xml version="1.0" encoding="iso-8859-1"?>
<!-- Generator: Adobe Illustrator 19.0.0, SVG Export Plug-In . SVG Version: 6.00 Build 0)  -->
<svg version="1.1" id="Capa_1" xmlns="http://www.w3.org/2000/svg" xmlns:xlink="http://www.w3.org/1999/xlink" x="0px" y="0px"
	 viewBox="0 0 463.003 463.003" style="enable-background:new 0 0 463.003 463.003;" xml:space="preserve">
<path d="M373.678,3.246c-2.35-3.411-7.021-4.271-10.432-1.922c-71.052,48.948-114.943,118.413-121.426,129.069
	c-3.117-1.53-6.619-2.393-10.319-2.393s-7.202,0.863-10.319,2.393C214.7,119.737,170.808,50.272,99.756,1.324
	c-3.413-2.35-8.081-1.489-10.432,1.922c-2.35,3.411-1.489,8.081,1.922,10.432c72.682,50.069,117.353,124.885,117.795,125.634
	c0.393,0.666,0.879,1.239,1.423,1.733c-1.239,2.481-2.055,5.209-2.344,8.09l-12.146-4.049l-30.616-38.271
	c-2.587-3.234-7.307-3.76-10.542-1.171c-3.234,2.588-3.759,7.308-1.171,10.542l32,40c0.903,1.129,2.113,1.973,3.484,2.43
	l18.872,6.291v8.188l-13.348-4.449l-39.294-23.577c-3.552-2.13-8.158-0.979-10.29,2.573c-2.131,3.552-0.979,8.158,2.573,10.29l40,24
	c0.469,0.281,0.968,0.511,1.486,0.684l18.872,6.291v3.094h-31.758l-39.271-7.854c-4.062-0.813-8.013,1.822-8.825,5.884
	c-0.813,4.062,1.822,8.013,5.884,8.825l40,8c0.484,0.097,0.977,0.146,1.471,0.146h32.5v9h-24.5c-0.697,0-1.391,0.097-2.061,0.288
	l-56,16c-3.982,1.139-6.289,5.29-5.151,9.272c0.941,3.294,3.944,5.441,7.208,5.441c0.683,0,1.376-0.094,2.064-0.29l54.99-15.712
	h23.449v9h-24.5c-1.623,0-3.202,0.526-4.5,1.5l-30.788,23.091l-30.531,7.633c-4.019,1.005-6.461,5.077-5.457,9.096
	c0.853,3.407,3.91,5.683,7.271,5.683c0.603,0,1.215-0.073,1.825-0.226l32-8c0.97-0.243,1.881-0.677,2.681-1.276l30-22.5h22v10.644
	l-26.319,6.58c-0.97,0.243-1.881,0.677-2.681,1.276l-30.788,23.091l-30.531,7.633c-4.019,1.005-6.461,5.077-5.457,9.096
	c0.853,3.407,3.91,5.683,7.271,5.683c0.603,0,1.215-0.073,1.825-0.226l32-8c0.97-0.243,1.881-0.677,2.681-1.276l30.788-23.091
	l21.212-5.303v3.286l-36.552,36.552l-46.32,15.44c-3.93,1.31-6.053,5.558-4.743,9.487c1.048,3.143,3.974,5.13,7.114,5.13
	c0.786,0,1.586-0.125,2.373-0.387l48-16c1.104-0.368,2.108-0.988,2.932-1.812l27.196-27.196v3.815l-22.456,37.427l-55.348,55.347
	c-2.929,2.93-2.929,7.678,0,10.607c1.465,1.464,3.385,2.196,5.304,2.196s3.839-0.732,5.304-2.196l56-56
	c0.434-0.434,0.812-0.919,1.128-1.445l16.585-27.642c0.191,0.2,0.384,0.398,0.582,0.591l-14.563,36.407
	c-0.354,0.886-0.536,1.831-0.536,2.785v46.556l-15.464,38.659c-1.538,3.846,0.333,8.21,4.179,9.749
	c0.913,0.365,1.855,0.538,2.783,0.538c2.976,0,5.793-1.784,6.966-4.717l16-40c0.354-0.886,0.536-1.831,0.536-2.785v-46.556
	l13.65-34.123c0.935,0.114,1.885,0.179,2.85,0.179s1.915-0.065,2.85-0.179l13.65,34.123v46.556c0,0.954,0.182,1.899,0.536,2.785
	l16,40c1.173,2.933,3.989,4.717,6.966,4.717c0.928,0,1.87-0.173,2.783-0.538c3.846-1.539,5.717-5.903,4.179-9.749l-15.464-38.659
	v-46.556c0-0.954-0.182-1.899-0.536-2.785l-14.563-36.407c0.198-0.193,0.391-0.391,0.582-0.591l16.585,27.642
	c0.316,0.526,0.694,1.012,1.128,1.445l56,56c1.465,1.464,3.385,2.196,5.304,2.196s3.839-0.732,5.304-2.196
	c2.929-2.93,2.929-7.678,0-10.607l-55.348-55.347l-22.456-37.427v-3.815l27.196,27.196c0.823,0.823,1.827,1.443,2.932,1.812l48,16
	c0.787,0.262,1.587,0.387,2.373,0.387c3.14,0,6.066-1.987,7.114-5.13c1.31-3.93-0.813-8.178-4.743-9.487l-46.32-15.44
	l-36.552-36.552v-3.286l21.212,5.303l30.788,23.091c0.8,0.6,1.711,1.033,2.681,1.276l32,8c0.611,0.152,1.223,0.226,1.825,0.226
	c3.36,0,6.418-2.275,7.271-5.683c1.004-4.019-1.438-8.091-5.457-9.096l-30.531-7.633l-30.788-23.091
	c-0.8-0.6-1.711-1.033-2.681-1.276l-26.319-6.58v-10.644h22l30,22.5c0.8,0.6,1.711,1.033,2.681,1.276l32,8
	c0.611,0.152,1.223,0.226,1.825,0.226c3.36,0,6.418-2.275,7.271-5.683c1.004-4.019-1.438-8.091-5.457-9.096l-30.531-7.633
	l-30.788-23.091c-1.298-0.974-2.877-1.5-4.5-1.5h-24.5v-9h23.449l54.99,15.712c0.688,0.196,1.382,0.29,2.064,0.29
	c3.264,0,6.267-2.147,7.208-5.441c1.138-3.982-1.169-8.134-5.151-9.272l-56-16c-0.67-0.191-1.363-0.288-2.061-0.288h-24.5v-9h32.5
	c0.494,0,0.986-0.049,1.471-0.146l40-8c4.062-0.813,6.696-4.764,5.884-8.825s-4.764-6.696-8.825-5.884l-39.271,7.854h-31.758v-3.094
	l18.872-6.291c0.519-0.173,1.018-0.402,1.486-0.684l40-24c3.552-2.132,4.704-6.738,2.573-10.29
	c-2.133-3.552-6.739-4.703-10.29-2.573l-39.294,23.577l-13.348,4.449v-8.188l18.872-6.291c1.371-0.457,2.581-1.301,3.484-2.43l32-40
	c2.588-3.234,2.063-7.954-1.171-10.542s-7.954-2.063-10.542,1.171l-30.616,38.271l-12.146,4.049
	c-0.289-2.882-1.106-5.609-2.344-8.091c0.544-0.494,1.03-1.067,1.423-1.732c0.442-0.749,45.113-75.564,117.795-125.634
	C375.167,11.327,376.028,6.657,373.678,3.246z M223.001,287.506c0-0.003,0-0.007,0-0.01v-16.495h17v16.495c0,0.003,0,0.007,0,0.01
	v0.495h-17V287.506z M240.001,256.001h-17v-17h17V256.001z M240.001,224.001h-17v-17h17V224.001z M240.001,183.632
	c0,0.009,0,0.018,0,0.027v8.343h-17v-8.343c0-0.009,0-0.018,0-0.027v-8.631h17V183.632z M231.501,143.001c4.687,0,8.5,3.813,8.5,8.5
	v8.131c0,0.009,0,0.018,0,0.027v0.343h-17v-0.343c0-0.009,0-0.018,0-0.027v-8.131C223.001,146.814,226.815,143.001,231.501,143.001z
	 M223.001,311.501v-8.5h17v8.5c0,4.687-3.813,8.5-8.5,8.5S223.001,316.187,223.001,311.501z"/>
<g>
</g>
<g>
</g>
<g>
</g>
<g>
</g>
<g>
</g>
<g>
</g>
<g>
</g>
<g>
</g>
<g>
</g>
<g>
</g>
<g>
</g>
<g>
</g>
<g>
</g>
<g>
</g>
<g>
</g>
</svg>
