<?xml version="1.0" encoding="iso-8859-1"?>
<!-- Generator: Adobe Illustrator 19.0.0, SVG Export Plug-In . SVG Version: 6.00 Build 0)  -->
<svg version="1.1" id="Capa_1" xmlns="http://www.w3.org/2000/svg" xmlns:xlink="http://www.w3.org/1999/xlink" x="0px" y="0px"
	 viewBox="0 0 463.004 463.004" style="enable-background:new 0 0 463.004 463.004;" xml:space="preserve">
<path d="M461.502,107.003c-2.485-3.313-7.186-3.984-10.5-1.5l-61.272,45.954c-2.098,1.574-4.097,3.309-5.943,5.154l-60.728,60.728
	l-42.091,21.046c-0.641-1.257-1.316-2.494-2.047-3.694l21.885-21.885c1.047-1.048,1.761-2.381,2.051-3.833l14.026-70.132
	c1.105-5.525,3.304-10.667,6.534-15.282l50.229-71.756c0.595-0.85,1.007-1.813,1.21-2.83l8-40c0.812-4.062-1.822-8.013-5.884-8.825
	c-4.061-0.816-8.013,1.821-8.825,5.884l-7.691,38.458l-49.327,70.467c-4.427,6.324-7.44,13.37-8.955,20.943l-13.581,67.905
	l-17.591,17.59v-21.893c0-10.336-6.71-19.128-16-22.266v-15.886c0-5.923,0.729-11.839,2.165-17.584l5.611-22.445
	c1.005-4.019-1.438-8.091-5.457-9.096c-4.014-1-8.09,1.439-9.095,5.457l-5.611,22.445c-1.734,6.935-2.613,14.075-2.613,21.223
	v15.886c-3.195,1.079-6.084,2.825-8.5,5.075c-2.416-2.25-5.305-3.996-8.5-5.075v-15.886c0-7.147-0.879-14.288-2.613-21.223
	l-5.611-22.445c-1.005-4.018-5.078-6.46-9.095-5.457c-4.019,1.005-6.462,5.077-5.457,9.096l5.611,22.445
	c1.436,5.745,2.165,11.661,2.165,17.584v15.886c-9.29,3.138-16,11.93-16,22.266v21.893l-17.591-17.59L160.83,135.9
	c-1.515-7.573-4.528-14.619-8.955-20.942L102.548,44.49L94.856,6.032c-0.813-4.062-4.763-6.698-8.825-5.884
	c-4.062,0.813-6.696,4.764-5.884,8.825l8,40c0.204,1.017,0.616,1.98,1.21,2.83l50.229,71.757c3.23,4.614,5.429,9.756,6.534,15.281
	l14.026,70.132c0.291,1.452,1.004,2.785,2.051,3.833l21.885,21.885c-0.732,1.2-1.406,2.437-2.047,3.694l-42.091-21.046l-63.14-63.14
	c-0.251-0.251-0.52-0.483-0.803-0.696l-64-48c-3.313-2.484-8.015-1.813-10.5,1.5c-2.485,3.313-1.813,8.015,1.5,10.5l63.574,47.681
	l63.623,63.623c0.57,0.569,1.228,1.044,1.949,1.404l44.923,22.461c-0.696,3.505-1.069,7.125-1.069,10.831
	c0,1.355,0.066,2.694,0.162,4.025l-43.497,31.069c-5.256,3.755-11.416,6.223-17.813,7.137l-44.413,6.345
	c-0.591,0.085-1.17,0.239-1.725,0.461l-40,16c-3.846,1.539-5.716,5.903-4.178,9.749c1.173,2.933,3.989,4.717,6.966,4.717
	c0.927,0,1.87-0.173,2.783-0.538l39.165-15.666l43.523-6.218c8.765-1.253,17.206-4.635,24.41-9.78l38.329-27.378
	c1.199,3.105,2.657,6.082,4.369,8.89l-45.328,45.328c-6.473,6.473-11.284,14.528-13.915,23.296l-20.201,67.336l-15.378,23.068
	c-2.298,3.446-1.367,8.103,2.08,10.4c1.279,0.853,2.724,1.261,4.153,1.261c2.423,0,4.802-1.173,6.247-3.341l16-24
	c0.412-0.618,0.73-1.294,0.943-2.005l20.522-68.409c1.919-6.397,5.431-12.276,10.154-17l44.248-44.248
	c1.207,1.13,2.466,2.205,3.77,3.225c-18.166,12.919-29.379,35.334-29.379,60.276c0,39.425,28.486,71.5,63.5,71.5
	s63.5-32.075,63.5-71.5c0-24.93-11.215-47.353-29.379-60.276c1.305-1.021,2.563-2.095,3.771-3.226l44.248,44.247
	c4.724,4.725,8.235,10.604,10.155,17.001l20.522,68.409c0.213,0.711,0.531,1.387,0.943,2.005l16,24
	c1.445,2.168,3.823,3.341,6.247,3.341c1.43,0,2.875-0.408,4.153-1.261c3.447-2.298,4.378-6.954,2.08-10.4l-15.378-23.068
	l-20.201-67.336c-2.63-8.768-7.442-16.823-13.915-23.297l-45.328-45.327c1.712-2.808,3.17-5.785,4.369-8.89l38.329,27.379
	c7.204,5.145,15.645,8.526,24.41,9.779l43.523,6.218l39.165,15.666c0.914,0.365,1.856,0.538,2.783,0.538
	c2.977,0,5.793-1.784,6.966-4.717c1.539-3.846-0.332-8.21-4.178-9.749l-40-16c-0.555-0.222-1.134-0.376-1.725-0.461l-44.413-6.345
	c-6.397-0.914-12.557-3.382-17.813-7.136l-43.497-31.07c0.096-1.331,0.162-2.67,0.162-4.025c0-3.706-0.372-7.326-1.069-10.831
	l44.923-22.461c0.721-0.36,1.379-0.835,1.949-1.404l61.589-61.589c1.347-1.348,2.806-2.613,4.337-3.762l61.271-45.953
	C463.315,115.017,463.987,110.316,461.502,107.003z M231.502,304.003c-22.332,0-40.5-18.168-40.5-40.5s18.168-40.5,40.5-40.5
	s40.5,18.168,40.5,40.5S253.833,304.003,231.502,304.003z M247.502,191.003c4.687,0,8.5,3.813,8.5,8.5v14.217
	c-5.254-2.596-10.975-4.378-17-5.196v-9.021C239.002,194.816,242.815,191.003,247.502,191.003z M215.502,191.003
	c4.687,0,8.5,3.813,8.5,8.5v9.021c-6.025,0.818-11.746,2.6-17,5.196v-14.217C207.002,194.816,210.815,191.003,215.502,191.003z
	 M280.002,367.503c0,31.154-21.757,56.5-48.5,56.5s-48.5-25.346-48.5-56.5c0-22.506,11.743-43.014,29.446-51.87
	c5.945,2.18,12.363,3.37,19.054,3.37c6.692,0,13.11-1.191,19.056-3.371C268.257,324.487,280.002,345.008,280.002,367.503z"/>
<g>
</g>
<g>
</g>
<g>
</g>
<g>
</g>
<g>
</g>
<g>
</g>
<g>
</g>
<g>
</g>
<g>
</g>
<g>
</g>
<g>
</g>
<g>
</g>
<g>
</g>
<g>
</g>
<g>
</g>
</svg>
