<?xml version="1.0" encoding="iso-8859-1"?>
<!-- Generator: Adobe Illustrator 19.0.0, SVG Export Plug-In . SVG Version: 6.00 Build 0)  -->
<svg version="1.1" id="Capa_1" xmlns="http://www.w3.org/2000/svg" xmlns:xlink="http://www.w3.org/1999/xlink" x="0px" y="0px"
	 viewBox="0 0 462.999 462.999" style="enable-background:new 0 0 462.999 462.999;" xml:space="preserve">
<g>
	<path d="M230.993,384c-4.142,0-7.5,3.358-7.5,7.5v8c0,4.142,3.358,7.5,7.5,7.5s7.5-3.358,7.5-7.5v-8
		C238.493,387.358,235.135,384,230.993,384z"/>
	<path d="M230.993,336c-4.142,0-7.5,3.358-7.5,7.5v24c0,4.142,3.358,7.5,7.5,7.5s7.5-3.358,7.5-7.5v-24
		C238.493,339.358,235.135,336,230.993,336z"/>
	<path d="M206.993,304h-16c-4.142,0-7.5,3.358-7.5,7.5s3.358,7.5,7.5,7.5h16c4.142,0,7.5-3.358,7.5-7.5S211.135,304,206.993,304z"/>
	<path d="M247.493,311.5c0,4.142,3.358,7.5,7.5,7.5h16c4.142,0,7.5-3.358,7.5-7.5s-3.358-7.5-7.5-7.5h-16
		C250.851,304,247.493,307.358,247.493,311.5z"/>
	<path d="M407.19,45.345c-1.19-3.968-5.371-6.219-9.339-5.028l-80,24c-1.98,0.594-3.628,1.98-4.553,3.83l-21.037,42.072
		c-1.015,2.031-2.76,3.544-4.914,4.262l-8.929,2.976c-0.68-10.567-6.588-19.733-15.164-24.924
		c4.506-5.245,7.238-12.054,7.238-19.495c0-10.684-5.63-20.253-14.385-25.576l5.648-17.385l82.001-14.909l30.431,7.607
		c4.015,1.006,8.09-1.438,9.095-5.457c1.005-4.018-1.438-8.09-5.457-9.095l-32-8c-1.034-0.259-2.112-0.294-3.161-0.103l-88,16
		c-2.714,0.494-4.939,2.438-5.791,5.062l-6.928,21.325l-9.134-2.284c-1.194-0.299-2.443-0.299-3.638,0l-8.197,2.049l-6.852-21.09
		c-0.852-2.624-3.077-4.568-5.791-5.062l-88-16c-1.048-0.191-2.127-0.156-3.161,0.103l-32,8c-4.019,1.004-6.462,5.077-5.457,9.095
		c1.004,4.019,5.075,6.46,9.095,5.457l30.431-7.607l82.001,14.909l5.483,16.877c-9.243,5.208-15.234,15.056-15.234,26.083
		c0,7.44,2.732,14.25,7.238,19.495c-8.487,5.137-14.358,14.167-15.139,24.594l-7.94-2.647c-2.153-0.718-3.899-2.231-4.915-4.262
		l-21.036-42.072c-0.925-1.85-2.572-3.235-4.553-3.83l-80-24c-3.966-1.191-8.148,1.061-9.339,5.028
		c-1.19,3.968,1.061,8.149,5.028,9.339l76.896,23.069l19.587,39.174c2.808,5.614,7.633,9.799,13.587,11.784l13.117,4.372
		c0.916,12.023,3.029,23.934,6.349,35.553l1.083,3.792l-5.92,5.92c-0.059,0.059-0.181,0.183-0.434,0.14
		c-0.252-0.041-0.33-0.196-0.367-0.27l-5.647-11.295c-2.328-4.656-6.803-7.816-11.969-8.452c-5.168-0.638-10.275,1.343-13.663,5.296
		l-33.134,38.657c-5.314,6.2-9.258,13.64-11.406,21.516l-8.532,31.282c-8.555,31.369-12.893,63.761-12.893,96.278
		c0,4.142,3.358,7.498,7.5,7.498s7.5-3.36,7.5-7.502c0-31.181,4.16-62.245,12.364-92.328l8.532-31.282
		c1.567-5.748,4.445-11.176,8.323-15.701l33.134-38.656c0.061-0.071,0.177-0.207,0.441-0.171c0.266,0.033,0.344,0.188,0.386,0.272
		l5.647,11.295c2.222,4.444,6.477,7.572,11.381,8.368c4.903,0.795,9.93-0.827,13.443-4.34l1.115-1.115
		c1.096,1.823,2.333,3.545,3.695,5.154l-33.057,27.925c-4.407,3.722-8.192,8.09-11.25,12.982l-33.227,53.162
		c-2.679,4.286-3.891,9.216-3.503,14.258l2.65,34.453c3.32,43.166,16.429,85.852,37.909,123.442c0.059,0.103,0.124,0.21,0.188,0.311
		c1.429,2.246,3.854,3.473,6.331,3.473c1.378,0,2.772-0.379,4.021-1.174c3.406-2.167,4.469-6.628,2.462-10.088
		c-20.372-35.665-32.806-76.163-35.956-117.114l-2.65-34.452c-0.14-1.824,0.298-3.607,1.267-5.158l33.227-53.163
		c2.231-3.57,4.993-6.757,8.209-9.474l35.318-29.835c3.308,1.726,6.873,2.989,10.598,3.721v2.646
		c-13.709,3.362-23.922,15.716-23.996,30.43c-20.961,10.4-36.357,30.887-39.406,54.802c-2.65,20.79,3.782,41.578,17.649,57.033
		c14.231,15.862,21.753,34.15,21.753,52.887v3.439c0,12.958,10.542,23.5,23.5,23.5h16c12.958,0,23.5-10.542,23.5-23.5v-1.636
		c0-20.707,7.08-39.437,19.936-52.739c12.938-13.387,20.064-31.011,20.064-49.625c0-20.337-8.704-39.778-23.881-53.336
		c-4.889-4.367-10.325-7.985-16.123-10.822c-0.073-14.715-10.286-27.07-23.996-30.432v-2.646c3.959-0.778,7.737-2.157,11.219-4.053
		l35.712,30.167c3.216,2.717,5.978,5.904,8.209,9.474l33.226,53.163c0.969,1.55,1.408,3.333,1.267,5.156l-2.65,34.453
		c-3.149,40.943-15.578,81.431-35.943,117.091c-2.028,3.464-0.965,7.938,2.45,10.11c1.248,0.794,2.641,1.173,4.018,1.173
		c2.48,0,4.908-1.229,6.338-3.477c0.063-0.1,0.125-0.202,0.184-0.305c21.48-37.591,34.588-80.276,37.909-123.442l2.65-34.452
		c0.388-5.041-0.824-9.971-3.503-14.258l-33.226-53.163c-3.057-4.891-6.842-9.259-11.249-12.982l-33.648-28.424
		c1.353-1.652,2.574-3.421,3.65-5.29l1.751,1.751c3.513,3.514,8.539,5.137,13.443,4.34c4.904-0.796,9.159-3.924,11.38-8.368
		l5.648-11.295c0.042-0.084,0.12-0.24,0.386-0.272c0.26-0.037,0.38,0.099,0.441,0.17l33.134,38.657
		c3.877,4.523,6.755,9.952,8.323,15.701l8.532,31.281c8.204,30.083,12.364,61.147,12.364,92.332c0,4.142,3.358,7.498,7.5,7.498
		s7.5-3.36,7.5-7.502c0-32.514-4.338-64.905-12.893-96.275l-8.532-31.281c-2.148-7.877-6.092-15.317-11.406-21.516l-33.134-38.657
		c-3.388-3.952-8.492-5.934-13.663-5.296c-5.167,0.636-9.641,3.796-11.969,8.452l-5.648,11.295c-0.037,0.074-0.114,0.229-0.367,0.27
		c-0.251,0.042-0.375-0.081-0.434-0.14l-6.709-6.709l0.858-3.003c3.288-11.507,5.389-23.301,6.319-35.205l14.162-4.72
		c5.956-1.985,10.781-6.17,13.587-11.785l19.587-39.174l76.896-23.069C406.129,53.494,408.381,49.313,407.19,45.345z
		 M217.826,58.523l13.167-3.292l13.167,3.292c6.673,1.667,11.333,7.637,11.333,14.515c0,8.25-6.712,14.962-14.962,14.962h-19.076
		c-8.25,0-14.962-6.712-14.962-14.962C206.493,66.16,211.153,60.191,217.826,58.523z M207.611,174.363l-2.813-9.847
		c-4.184-14.643-6.305-29.788-6.305-45.016c0-9.098,7.402-16.5,16.5-16.5h6.462h2.038v41h-8.5c-4.142,0-7.5,3.358-7.5,7.5
		s3.358,7.5,7.5,7.5h8.5v31.791C215.96,188.325,209.865,182.253,207.611,174.363z M287.493,303.5
		c0,14.704-5.629,28.626-15.85,39.202c-15.573,16.113-24.15,38.545-24.15,63.163v1.636c0,4.687-3.813,8.5-8.5,8.5h-16
		c-4.687,0-8.5-3.813-8.5-8.5v-3.439c0-22.173-9.087-44.513-25.588-62.904c-11.116-12.389-16.065-28.413-13.935-45.119
		c2.074-16.267,11.394-30.519,24.522-39.402v6.863c0,4.142,3.358,7.5,7.5,7.5s7.5-3.358,7.5-7.5v-14.057
		c3.194-0.979,6.497-1.685,9.886-2.068c2.243-0.253,4.473-0.379,6.684-0.379c5.649,0,11.164,0.834,16.43,2.434v14.07
		c0,4.142,3.358,7.5,7.5,7.5s7.5-3.358,7.5-7.5v-6.925c2.126,1.437,4.172,3.029,6.126,4.775
		C280.613,272.066,287.493,287.43,287.493,303.5z M246.434,233.738c-7.704-1.705-15.72-2.175-23.74-1.268
		c-2.409,0.272-4.781,0.684-7.117,1.2c2.363-6.225,8.373-10.669,15.416-10.669C238.062,223,244.089,227.477,246.434,233.738z
		 M238.493,159h8.5c4.142,0,7.5-3.358,7.5-7.5s-3.358-7.5-7.5-7.5h-8.5v-41h2.038h6.462c9.098,0,16.5,7.402,16.5,16.5
		c0,15.228-2.121,30.373-6.305,45.016l-2.813,9.847c-2.254,7.89-8.349,13.961-15.882,16.429V159z"/>
</g>
<g>
</g>
<g>
</g>
<g>
</g>
<g>
</g>
<g>
</g>
<g>
</g>
<g>
</g>
<g>
</g>
<g>
</g>
<g>
</g>
<g>
</g>
<g>
</g>
<g>
</g>
<g>
</g>
<g>
</g>
</svg>
