<?xml version="1.0" encoding="iso-8859-1"?>
<!-- Generator: Adobe Illustrator 16.0.0, SVG Export Plug-In . SVG Version: 6.00 Build 0)  -->
<!DOCTYPE svg PUBLIC "-//W3C//DTD SVG 1.1//EN" "http://www.w3.org/Graphics/SVG/1.1/DTD/svg11.dtd">
<svg xmlns="http://www.w3.org/2000/svg" xmlns:xlink="http://www.w3.org/1999/xlink" version="1.1" id="Capa_1" x="0px" y="0px" width="512px" height="512px" viewBox="0 0 354.84 354.84" style="enable-background:new 0 0 354.84 354.84;" xml:space="preserve">
<g>
	<g>
		<g id="Layer_5">
			<g>
				<path d="M197.483,315.193c-0.94,8.785-11.605,16-17.881,16c-6.562,0-16.978-7.209-17.88-16      c-1.848-17.998,12.652-5.332,17.88-5.332C184.308,309.861,199.365,297.627,197.483,315.193z" fill="#FFFFFF"/>
				<path d="M177.458,89.555c-79.552,0-147.417,72.309-132.168,151.459c7.261,37.689,16.751,90.182,64.957,108      c12.782,4.729,28.476,5.879,42.793,5.824c4.511-0.016,3.669-1.717-0.823-2.867c-43.875-11.254-76.402-51.115-76.402-98.449      c0,0,0-22.994,0-30.658c0-3.666,2.024-4.953,5.228-4.953c5.425,0,14.231,0,22.309,0c10.309,0,11.019-47.453,16.779-47.453      c7.548,0,11.12,47.156,23.186,47.156c41.873,0,112.678,0.221,131.229,0.279c2.933,0.01,4.56,1.137,4.56,5.137      c0,7.623,0,30.492,0,30.492c0,47.646-32.96,87.715-77.271,98.658c-3.855,0.951-4.751,2.309-0.615,2.223      c16.239-0.338,37.361-2.283,47.355-6.855c53.973-24.684,54.004-68.865,61.058-106.533      C324.541,161.362,257.008,89.555,177.458,89.555z" fill="#FFFFFF"/>
				<path d="M177.458,76.411c21.34,0,42.803,4.867,62.656,13.74c2.031,0.91,4.928,2.695,7.688-0.596      c3.478-6.611,3.764-10.387,3.764-17.959c0-31.527-33.18-57.086-74.108-57.086s-74.107,25.559-74.107,57.086      c0,7.514,0.665,12.129,4.088,18.699c2.854,3.217,5.221,0.619,7.24-0.285C134.404,81.182,155.808,76.411,177.458,76.411z" fill="#FFFFFF"/>
				<path d="M122.082,20.999c2.312-1.488,2.318-3.932,0.014-5.434L99.873,1.101c-2.306-1.5-5.419-0.842-6.919,1.463l-1.637,2.514      c-1.5,2.305-0.842,5.418,1.463,6.918l18.114,11.791c2.305,1.5,5.286,1.703,6.713,0.559      C118.695,23.468,122.082,20.999,122.082,20.999z" fill="#FFFFFF"/>
				<path d="M240.218,26.843c2.062,1.822,5.572,2.336,7.96,0.971l27.801-15.871c2.39-1.363,3.229-4.434,1.863-6.822l-1.487-2.604      c-1.361-2.389-4.433-3.227-6.819-1.863l-31.901,18.213c-2.388,1.363-3.175,3.33-1.559,4.559      C236.074,23.425,238.976,25.745,240.218,26.843z" fill="#FFFFFF"/>
				<path d="M143.218,252.439c-0.126-0.203-12.875-20.254-36.643-8.295c-2.069,1.041-5.97,2.049-8.849-2.893      c-0.834-1.434-2.671-1.916-4.102-1.082c-1.433,0.834-1.917,2.67-1.083,4.102c4.539,7.791,11.849,7.689,16.729,5.232      c1.482-0.744,2.905-1.332,4.271-1.791c0.358-0.121,0.572,0.221,0.35,0.521c-1.202,1.613-1.916,3.611-1.917,5.781      c0,5.371,4.355,9.729,9.728,9.729c5.373,0,9.729-4.355,9.729-9.729c0-1.898-0.552-3.668-1.495-5.166      c-0.135-0.213,0.087-0.373,0.336-0.24c5.005,2.615,7.628,6.65,7.844,6.99c0.568,0.914,1.548,1.416,2.551,1.416      c0.537,0,1.083-0.145,1.573-0.447C143.653,255.699,144.09,253.85,143.218,252.439z" fill="#FFFFFF"/>
				<path d="M213.92,252.439c0.126-0.203,12.875-20.254,36.642-8.295c2.07,1.041,5.972,2.049,8.851-2.893      c0.834-1.434,2.671-1.916,4.102-1.082c1.434,0.834,1.917,2.67,1.083,4.102c-4.539,7.791-11.849,7.689-16.729,5.232      c-1.482-0.744-2.905-1.332-4.271-1.791c-0.357-0.121-0.573,0.221-0.35,0.521c1.202,1.613,1.916,3.611,1.917,5.781      c0,5.371-4.355,9.729-9.729,9.729s-9.728-4.355-9.728-9.729c0-1.898,0.552-3.668,1.495-5.166      c0.135-0.213-0.088-0.373-0.337-0.24c-5.006,2.615-7.628,6.65-7.845,6.99c-0.566,0.914-1.547,1.416-2.55,1.416      c-0.538,0-1.083-0.145-1.574-0.447C213.486,255.699,213.05,253.85,213.92,252.439z" fill="#FFFFFF"/>
			</g>
		</g>
	</g>
</g>
<g>
</g>
<g>
</g>
<g>
</g>
<g>
</g>
<g>
</g>
<g>
</g>
<g>
</g>
<g>
</g>
<g>
</g>
<g>
</g>
<g>
</g>
<g>
</g>
<g>
</g>
<g>
</g>
<g>
</g>
</svg>
