<?xml version="1.0" encoding="iso-8859-1"?>
<!-- Generator: Adobe Illustrator 19.0.0, SVG Export Plug-In . SVG Version: 6.00 Build 0)  -->
<svg version="1.1" id="Capa_1" xmlns="http://www.w3.org/2000/svg" xmlns:xlink="http://www.w3.org/1999/xlink" x="0px" y="0px"
	 viewBox="0 0 463 463" style="enable-background:new 0 0 463 463;" xml:space="preserve">
<path d="M463,151.5c0-13.184-6.527-23.753-18.877-30.567C433.379,115.005,418.366,112,399.5,112
	c-31.137,0-101.862,19.43-132.136,28.181l14.936-19.914c3.031-4.042,4.7-9.049,4.7-14.1V76.834c0-1.827,0.604-3.638,1.7-5.1
	L309.5,44c2.485-3.314,1.813-8.015-1.5-10.5c-3.313-2.485-8.015-1.813-10.5,1.5l-20.8,27.733c-3.031,4.042-4.7,9.049-4.7,14.1
	v29.333c0,1.827-0.604,3.638-1.7,5.1l-12.065,16.087c-0.372-0.992-0.742-1.953-1.1-2.879c-0.577-1.492-1.109-2.867-1.55-4.142
	c2.449-5.474,3.697-13.82-2.139-21.406c-0.286-0.372-0.584-0.714-0.88-1.063C255.07,81.113,263.527,50.855,292,29.5
	c3.314-2.485,3.985-7.186,1.5-10.5c-2.484-3.313-7.185-3.985-10.5-1.5c-29.213,21.91-40.069,51.761-44.096,71.495
	c-2.865-0.824-5.469-1.076-7.404-1.004c-1.931-0.07-4.536,0.183-7.404,1.008C220.071,69.265,209.215,39.411,180,17.5
	c-3.313-2.485-8.015-1.813-10.5,1.5c-2.485,3.314-1.814,8.015,1.5,10.5c28.474,21.355,36.93,51.613,39.435,68.364
	c-0.296,0.349-0.594,0.691-0.88,1.063c-5.836,7.586-4.588,15.932-2.139,21.406c-0.441,1.274-0.973,2.649-1.55,4.142
	c-0.358,0.926-0.728,1.886-1.1,2.879L192.7,111.267c-1.096-1.462-1.7-3.273-1.7-5.1V76.834c0-5.051-1.669-10.059-4.7-14.1L165.5,35
	c-2.485-3.314-7.187-3.985-10.5-1.5s-3.985,7.186-1.5,10.5l20.8,27.733c1.096,1.462,1.7,3.273,1.7,5.1v29.333
	c0,5.051,1.669,10.059,4.7,14.1l14.936,19.914C165.362,131.43,94.637,112,63.5,112c-18.866,0-33.879,3.005-44.623,8.933
	C6.527,127.747,0,138.316,0,151.5c0,6.518,2.073,11.84,6.162,15.817c5.388,5.241,13.373,7.286,23.312,7.971
	C26.044,180.151,24,185.772,24,191.5c0,6.86,3.027,16.344,11.523,22.389c4.849,3.45,10.781,5.351,17.742,5.725
	c0.08,6.001,1.587,13.062,5.386,19.102c3.873,6.158,11.55,13.519,26.132,13.618c0.072,0,0.144,0,0.216,0
	c2.079,0,4.32-0.204,6.693-0.578c3.961,8.481,12.911,17.548,24.922,20.973c2.661,0.759,5.316,1.21,7.957,1.41
	c4.503,7.524,12.823,12.365,23.819,13.745c2.279,0.286,4.564,0.413,6.812,0.413c7.997,0,15.512-1.61,20.504-3.407
	c5.981-2.153,11.413-5.812,16.293-10.462V319.5c0,0.494,0.049,0.987,0.146,1.471l15.689,78.446c0.109,0.548,0.165,1.109,0.165,1.668
	V439.5c0,4.142,3.358,7.5,7.5,7.5s7.5-3.358,7.5-7.5v-38.416c0-1.544-0.153-3.095-0.456-4.609L207,318.757V255.5
	c0-0.289-0.02-0.573-0.052-0.853c0.837-1.479,1.638-2.983,2.413-4.5l5.716,46.337c1.021,8.275,8.078,14.515,16.429,14.515
	c8.338,0,15.395-6.24,16.415-14.515l5.717-46.338c0.775,1.517,1.576,3.021,2.413,4.5c-0.032,0.28-0.052,0.564-0.052,0.853v63.257
	l-15.544,77.719c-0.303,1.514-0.456,3.064-0.456,4.608V439.5c0,4.142,3.358,7.5,7.5,7.5s7.5-3.358,7.5-7.5v-38.416
	c0-0.559,0.056-1.12,0.165-1.667l15.689-78.446c0.097-0.484,0.146-0.977,0.146-1.471v-45.072c4.88,4.65,10.312,8.309,16.293,10.462
	c4.992,1.797,12.506,3.407,20.504,3.407c2.247,0,4.534-0.127,6.812-0.413c10.996-1.38,19.317-6.221,23.82-13.745
	c2.641-0.2,5.297-0.652,7.957-1.41c12.011-3.425,20.961-12.492,24.922-20.973c2.373,0.374,4.614,0.578,6.693,0.578
	c0.071,0,0.145,0,0.216,0c14.582-0.099,22.259-7.46,26.132-13.618c3.799-6.04,5.306-13.101,5.386-19.102
	c6.96-0.374,12.893-2.275,17.742-5.725C435.973,207.844,439,198.36,439,191.5c0-5.728-2.044-11.349-5.474-16.212
	c9.939-0.685,17.924-2.73,23.312-7.97C460.927,163.34,463,158.018,463,151.5z M231.002,102.988c0.009,0,0.017,0,0.025,0
	c0.461,0.05,0.484,0.05,0.945,0c0.699-0.01,5.783,0.145,9.583,5.085c2.239,2.911,0.277,6.374-0.231,7.169
	c-1.318,1.796-1.642,3.911-1.1,6.077c0.718,2.874,1.788,5.64,2.92,8.567c2.381,6.157,4.843,12.525,4.855,21.548
	c0,0.018,0.001,0.037,0.001,0.055c0,0.004,0,0.007,0,0.011c0,4.103-5.159,13.371-16.5,22.585c-11.344-9.217-16.5-18.483-16.5-22.585
	c0-0.006,0-0.012,0-0.018c0-0.015,0.001-0.031,0.001-0.046c0.012-9.024,2.473-15.392,4.855-21.55
	c1.132-2.927,2.202-5.693,2.92-8.567c0.526-2.104,0.115-4.333-1.126-6.112c-0.027-0.039-2.64-3.968-0.205-7.134
	C225.203,103.187,230.213,102.988,231.002,102.988z M15,151.5c0-21.317,30.387-24.5,48.5-24.5
	c32.657,0,116.836,24.279,137.288,30.325c0.828,3.201,2.258,6.334,4.054,9.314C177.072,164.338,118.484,160,71.5,160
	c-6.167,0-12.07,0.163-17.779,0.321c-15.889,0.439-32.319,0.894-37.1-3.756C15.866,155.831,15,154.592,15,151.5z M39,191.5
	c0-6.736,7.775-15.456,17.449-16.247C61.336,175.12,66.353,175,71.5,175c26.713,0,57.267,1.423,83.65,3.065
	c-25.604,6.01-54.235,14.067-78.108,22.349c-14.992,5.201-26.649,5.646-32.823,1.252C39.146,198.058,39,192.161,39,191.5z
	 M170.626,270.777c-7.007,2.523-19.098,3.832-26.992,0.604c14.462-5.071,27.631-16.031,37.592-26.335
	c2.879-2.979,2.798-7.727-0.18-10.605c-2.979-2.878-7.727-2.799-10.605,0.18c-18.768,19.416-35.956,27.604-49.714,23.683
	c-6.998-1.995-11.557-6.656-14.031-10.439c14.814-4.981,32.029-13.351,47.89-21.067c13.805-6.715,26.845-13.058,32.772-14.289
	c4.056-0.842,6.661-4.812,5.819-8.868c-0.841-4.055-4.811-6.664-8.868-5.819c-7.758,1.61-20.347,7.734-36.285,15.486
	c-20.855,10.145-49.39,24.024-63.006,24.024c-0.044,0-0.09,0-0.134,0c-6.067-0.041-10.37-2.012-13.155-6.026
	c-2.881-4.153-3.552-9.495-3.465-12.936c4.298-0.851,8.862-2.11,13.694-3.786C127.904,198.645,194.051,183,215.5,183
	c0.627,0,1.232-0.085,1.814-0.23c0.665,0.06,1.185,0.108,1.544,0.141c0.214,0.192,0.427,0.383,0.636,0.568
	c-4.682,4.758-9.841,12.226-11.415,22.93C204.28,232.249,188.88,264.205,170.626,270.777z M233.035,294.649
	c-0.095,0.771-0.751,1.351-1.542,1.351c-0.776,0-1.433-0.581-1.528-1.352l-9.258-75.04c0.974-3.926,1.718-7.649,2.213-11.017
	c1.175-7.991,5.443-13.115,8.581-15.892c3.137,2.778,7.404,7.905,8.578,15.892c0.495,3.368,1.24,7.09,2.213,11.017L233.035,294.649z
	 M391.271,231.308c-2.785,4.014-7.087,5.985-13.155,6.026c-0.044,0-0.088,0-0.134,0c-13.617,0-42.153-13.88-63.006-24.024
	c-15.938-7.752-28.527-13.876-36.285-15.486c-4.054-0.844-8.026,1.763-8.868,5.819c-0.842,4.056,1.763,8.026,5.819,8.868
	c5.927,1.23,18.967,7.573,32.772,14.289c15.862,7.716,33.076,16.086,47.889,21.067c-2.473,3.782-7.033,8.443-14.03,10.438
	c-13.755,3.921-30.946-4.269-49.714-23.683c-2.879-2.978-7.627-3.059-10.605-0.18c-2.978,2.879-3.059,7.627-0.18,10.605
	c9.961,10.304,23.13,21.264,37.591,26.335c-7.894,3.227-19.984,1.918-26.991-0.604c-18.254-6.572-33.654-38.528-37.454-64.368
	c-1.574-10.704-6.732-18.172-11.415-22.93c0.209-0.185,0.423-0.376,0.636-0.568c0.359-0.033,0.879-0.081,1.544-0.141
	c0.582,0.145,1.187,0.23,1.814,0.23c21.449,0,87.596,15.645,133.542,31.585c4.832,1.676,9.396,2.936,13.694,3.786
	C394.823,221.812,394.152,227.154,391.271,231.308z M418.781,201.667c-6.175,4.393-17.831,3.948-32.822-1.252
	c-23.872-8.282-52.504-16.339-78.108-22.349c26.383-1.643,56.937-3.065,83.65-3.065c5.147,0,10.164,0.12,15.051,0.253
	C416.225,176.044,424,184.764,424,191.5C424,192.161,423.854,198.058,418.781,201.667z M446.379,156.565
	c-4.781,4.65-21.211,4.195-37.1,3.756C403.57,160.163,397.667,160,391.5,160c-46.984,0-105.572,4.337-133.342,6.638
	c1.797-2.979,3.226-6.113,4.054-9.314C282.662,151.279,366.833,127,399.5,127c18.113,0,48.5,3.183,48.5,24.5
	C448,154.592,447.134,155.831,446.379,156.565z"/>
<g>
</g>
<g>
</g>
<g>
</g>
<g>
</g>
<g>
</g>
<g>
</g>
<g>
</g>
<g>
</g>
<g>
</g>
<g>
</g>
<g>
</g>
<g>
</g>
<g>
</g>
<g>
</g>
<g>
</g>
</svg>
