<?xml version="1.0" encoding="utf-8"?>
<!-- Generator: Adobe Illustrator 19.0.0, SVG Export Plug-In . SVG Version: 6.00 Build 0)  -->
<svg version="1.1" id="Calque_1" xmlns="http://www.w3.org/2000/svg" xmlns:xlink="http://www.w3.org/1999/xlink" x="0px" y="0px"
	 viewBox="0 0 180 180" style="enable-background:new 0 0 180 180;" xml:space="preserve">
<style type="text/css">
	.st0{fill:#FFFFFF;}
	.st1{fill:#1F1F1F;}
</style>
<g id="XMLID_5_">
	<path id="XMLID_17_" class="st1" d="M88.6,21.8c-36.2,0-65.5,29.3-65.5,65.5c0,36.2,29.3,65.5,65.5,65.5c36.2,0,65.5-29.3,65.5-65.5
		C154.1,51.2,124.8,21.8,88.6,21.8z"/>
	<path id="XMLID_14_" class="st0" d="M88.5,126.8c-3.8,0-7.6,0-11.4,0c-3.7-0.1-7.4-0.1-11.1-0.9c-8.6-1.9-14.8-8.4-16.3-17.1
		c-0.7-4-0.7-8.1-0.8-12.2c0-7.6,0-15.2,0.1-22.7c0-3.5,0.2-7,1.2-10.4c2.4-8.1,7.9-13,16.1-14.9c2.9-0.7,6-0.8,9-0.8
		c8.8-0.1,17.6-0.1,26.4,0c3.5,0,6.9,0.2,10.3,1.1c8.4,2.4,13.4,7.9,15.2,16.3c0.8,3.5,0.8,7.1,0.8,10.7c0,7.5,0,15.1,0,22.6
		c0,3.7-0.1,7.5-0.9,11.1c-2.1,8.9-7.7,14.3-16.6,16.3c-3.5,0.8-7,0.8-10.5,0.8C96.2,126.9,92.3,126.8,88.5,126.8z M88.5,54.6
		c0,0,0,0.1,0,0.1c-3.2,0-6.4,0-9.6,0c-3.6,0.1-7.3,0-10.9,0.7c-5.7,1.1-9.5,4.4-11.1,10.1c-0.7,2.5-0.9,5.1-0.9,7.7
		C56.1,81.4,56,89.6,56,97.7c0,3.3,0,6.7,0.7,10c1.2,5.7,4.5,9.5,10.2,11.1c2.4,0.7,4.9,0.8,7.4,0.9c9.5,0,18.9,0.1,28.4,0
		c2.1,0,4.2-0.2,6.2-0.6c5.8-1.1,9.6-4.4,11.2-10.2c0.7-2.5,0.8-5.1,0.9-7.7c0-9.3,0.1-18.5,0-27.8c0-2.4-0.3-4.8-0.7-7.1
		c-0.8-4-3-7.2-6.6-9.2c-2.6-1.5-5.5-2-8.5-2.1C99.6,54.8,94.1,54.7,88.5,54.6z"/>
	<path id="XMLID_10_" class="st0" d="M68.2,87.2c0-11.2,9.1-20.3,20.3-20.3c11.3,0,20.4,9.1,20.4,20.4c0,11.3-9.2,20.3-20.4,20.3
		C77.2,107.6,68.2,98.4,68.2,87.2z M88.5,74c-7.3,0-13.3,6-13.2,13.3c0,7.3,6,13.2,13.3,13.2c7.3,0,13.3-5.9,13.2-13.3
		C101.7,79.9,95.8,74,88.5,74z"/>
	<path id="XMLID_9_" class="st0" d="M109.7,70.9c-2.6,0-4.7-2.1-4.8-4.7c0-2.6,2.1-4.8,4.8-4.8c2.6,0,4.8,2.1,4.8,4.7
		C114.4,68.7,112.3,70.9,109.7,70.9z"/>
</g>
</svg>
