<?xml version="1.0" encoding="utf-8"?>
<!-- Generator: Adobe Illustrator 19.0.0, SVG Export Plug-In . SVG Version: 6.00 Build 0)  -->
<svg version="1.1" id="Calque_1" xmlns="http://www.w3.org/2000/svg" xmlns:xlink="http://www.w3.org/1999/xlink" x="0px" y="0px"
	 viewBox="0 0 180 180" style="enable-background:new 0 0 180 180;" xml:space="preserve">
<style type="text/css">
	.st0{fill:#FFFFFF;}
	.st1{fill:#1F1F1F;}
</style>
<g id="XMLID_19_">
	<path id="XMLID_23_" class="st1" d="M89.7,152.2L89.7,152.2c-36.2,0-65.6-29.4-65.6-65.6v0c0-36.2,29.4-65.6,65.6-65.6h0
		c36.2,0,65.6,29.4,65.6,65.6v0C155.3,122.8,125.9,152.2,89.7,152.2z"/>
	<g id="XMLID_20_">
		<path id="XMLID_21_" class="st0" d="M109.6,86.8c-4.4,0-8.6,0-13,0c0,15.5,0,30.8,0,46.3c-6.5,0-12.8,0-19.3,0
			c0-15.4,0-30.8,0-46.3c-3.2,0-6.2,0-9.3,0c0-5.3,0-10.4,0-15.7c2.3,0,4.6,0,6.9,0c2.4,0,2.3,0,2.4-2.3c0-3.9,0.1-7.8,0.1-11.7
			c0-8.3,5-14.5,13.2-16.1c2.1-0.4,4.2-0.6,6.4-0.6c4.4-0.1,8.8,0,13.2,0c0.4,0,0.8,0,1.3,0c0,5.5,0,10.9,0,16.4c-0.4,0-0.8,0-1.2,0
			c-2.9,0-5.9,0-8.8,0c-2.7,0-4.6,1.9-4.6,4.6c0,3.2,0,6.4,0,9.8c4.9,0,9.7,0,14.7,0C110.8,76.3,110.2,81.5,109.6,86.8z"/>
	</g>
</g>
</svg>
