<?xml version="1.0" standalone="no"?>
<!DOCTYPE svg PUBLIC "-//W3C//DTD SVG 20010904//EN"
 "http://www.w3.org/TR/2001/REC-SVG-20010904/DTD/svg10.dtd">
<svg version="1.0" xmlns="http://www.w3.org/2000/svg"
 width="820.000000pt" height="360.000000pt" viewBox="0 0 820.000000 360.000000"
 preserveAspectRatio="xMidYMid meet">

<g transform="translate(0.000000,360.000000) scale(0.100000,-0.100000)"
fill="#D70F64" stroke="none">
<path d="M4074 3500 c-12 -4 -31 -21 -44 -37 -45 -58 1 -143 79 -143 96 0 127
131 41 175 -32 17 -45 18 -76 5z"/>
<path d="M3925 3235 c-301 -66 -531 -268 -637 -558 -31 -86 -58 -200 -58 -248
l0 -29 -63 0 c-81 0 -97 -15 -97 -88 l0 -52 1035 0 1035 0 0 54 c0 72 -14 86
-90 86 l-59 0 -6 48 c-57 409 -323 709 -697 786 -93 19 -278 20 -363 1z m-25
-153 c-196 -134 -321 -329 -361 -564 l-11 -68 -79 0 c-54 0 -79 4 -79 12 0 33
36 151 66 216 84 184 227 322 409 394 81 32 89 33 55 10z"/>
<path d="M3111 2111 c-8 -14 -6 -33 8 -73 46 -132 122 -249 232 -352 l72 -69
96 6 c53 3 109 10 125 17 l30 11 -56 57 c-105 109 -163 202 -209 335 l-28 82
-130 3 c-120 2 -131 1 -140 -17z"/>
<path d="M3555 2098 c16 -71 68 -197 113 -271 l47 -78 46 6 c35 5 83 -2 200
-30 141 -34 163 -37 264 -32 128 5 186 22 350 102 122 59 370 213 398 246 20
25 22 60 5 77 -19 19 -88 14 -238 -18 -77 -16 -142 -30 -144 -30 -2 0 -6 -13
-9 -29 -7 -35 -50 -86 -91 -109 -26 -14 -65 -17 -239 -19 -160 -2 -208 0 -204
10 6 20 117 48 241 59 96 9 123 15 142 32 36 33 39 62 10 91 l-25 25 -436 0
-437 0 7 -32z"/>
<path d="M1757 1294 c-99 -31 -160 -124 -187 -281 l-12 -73 -49 0 c-57 0 -64
-10 -75 -106 l-7 -54 57 0 57 0 -6 -32 c-8 -53 -75 -615 -75 -637 0 -20 6 -21
84 -21 49 0 88 4 91 11 7 10 75 609 75 657 0 21 3 22 100 22 99 0 101 0 110
26 11 28 13 94 4 118 -5 13 -24 16 -101 16 l-94 0 6 38 c13 76 26 112 49 139
33 38 131 45 201 14 26 -12 49 -21 51 -21 8 0 3 87 -7 122 -7 27 -19 43 -42
55 -45 23 -169 27 -230 7z"/>
<path d="M4336 1297 c-21 -7 -42 -19 -47 -27 -4 -8 -17 -89 -28 -179 -12 -90
-23 -166 -25 -168 -2 -3 -21 0 -43 6 -113 32 -274 -8 -367 -89 -152 -133 -208
-506 -101 -660 45 -65 87 -85 187 -89 80 -3 94 0 144 24 34 17 66 42 83 66
l28 38 12 -39 c6 -21 25 -50 42 -64 26 -22 40 -26 94 -26 108 0 132 21 150
127 l7 42 -56 -6 c-52 -5 -56 -4 -65 19 -6 17 7 165 45 499 29 261 54 489 54
507 0 31 -2 32 -37 31 -21 0 -56 -6 -77 -12z m-132 -530 c17 -13 17 -22 -8
-218 l-25 -204 -40 -37 c-85 -80 -210 -73 -258 15 -28 50 -24 212 7 292 26 69
91 139 142 154 50 14 161 13 182 -2z"/>
<path d="M2260 925 c-123 -34 -219 -135 -264 -276 -65 -201 -34 -399 75 -493
63 -53 121 -69 242 -64 78 3 114 9 152 27 126 56 204 186 225 373 24 207 -41
360 -178 420 -60 27 -180 33 -252 13z m164 -149 c18 -8 43 -31 57 -52 22 -36
24 -49 24 -164 0 -132 -14 -192 -59 -253 -52 -71 -186 -89 -245 -33 -38 36
-53 94 -52 196 2 232 125 369 275 306z"/>
<path d="M3119 927 c-108 -31 -189 -103 -244 -218 -42 -88 -59 -187 -53 -307
5 -81 10 -102 39 -160 26 -51 46 -75 83 -99 67 -45 114 -56 231 -51 86 3 108
8 159 33 144 72 224 247 213 470 -7 166 -60 261 -173 314 -60 29 -186 37 -255
18z m192 -173 c44 -42 63 -118 56 -224 -12 -192 -84 -290 -213 -290 -105 0
-149 66 -149 220 1 165 42 266 126 309 62 32 138 25 180 -15z"/>
<path d="M4870 925 c-184 -51 -294 -233 -293 -485 0 -85 4 -116 23 -165 29
-78 97 -146 170 -170 74 -24 236 -18 303 13 131 59 202 174 228 370 27 201
-40 365 -173 422 -67 29 -183 36 -258 15z m185 -159 c46 -30 68 -96 67 -200
-1 -157 -39 -256 -116 -301 -89 -52 -189 -25 -228 62 -18 40 -20 61 -16 157 7
164 43 243 133 291 38 20 123 15 160 -9z"/>
<path d="M5807 925 c-22 -7 -50 -24 -64 -37 -27 -25 -63 -89 -63 -112 0 -8 -4
-17 -10 -21 -5 -3 -7 27 -3 80 l6 85 -39 -1 c-21 0 -55 -5 -74 -12 l-35 -12
-47 -375 c-26 -206 -47 -387 -48 -402 l0 -28 84 0 c47 0 87 4 91 9 3 5 17 112
30 237 21 189 29 237 51 283 30 66 67 108 111 127 39 17 107 18 135 3 31 -17
40 1 40 82 1 63 -2 75 -22 91 -27 22 -88 23 -143 3z"/>
<path d="M6352 929 c-81 -16 -159 -59 -217 -120 -100 -104 -140 -232 -133
-422 7 -213 77 -296 249 -297 93 0 166 32 209 92 l28 39 7 -33 c17 -73 53 -98
146 -98 100 0 139 36 139 130 l0 37 -49 -5 c-76 -7 -76 -9 -40 313 17 151 28
282 25 290 -7 20 -92 61 -154 74 -60 13 -147 13 -210 0z m179 -156 c9 -9 5
-65 -15 -220 -25 -194 -29 -210 -54 -237 -86 -92 -235 -84 -269 14 -16 47 -16
184 1 245 31 117 80 175 176 206 35 11 147 6 161 -8z"/>
</g>
</svg>
