<?xml version="1.0" standalone="no"?>
<!DOCTYPE svg PUBLIC "-//W3C//DTD SVG 20010904//EN"
 "http://www.w3.org/TR/2001/REC-SVG-20010904/DTD/svg10.dtd">
<svg version="1.0" xmlns="http://www.w3.org/2000/svg"
 width="450.000000pt" height="470.000000pt" viewBox="0 0 450.000000 470.000000"
 preserveAspectRatio="xMidYMid meet">
<metadata>
Created by potrace 1.14, written by Peter Selinger 2001-2017
</metadata>
<g transform="translate(0.000000,470.000000) scale(0.100000,-0.100000)"
fill="#000000" stroke="none">
<path d="M0 2350 l0 -2350 2250 0 2250 0 0 2350 0 2350 -2250 0 -2250 0 0
-2350z m2097 1615 c106 -129 112 -129 222 0 51 59 89 95 101 95 13 0 54 -41
115 -115 53 -63 98 -115 100 -115 3 0 26 13 52 29 54 33 228 91 272 91 16 0
34 -6 40 -14 13 -16 61 -180 61 -211 1 -37 12 -45 55 -34 86 21 210 37 227 28
34 -18 36 -267 3 -404 -22 -90 -25 -85 68 -85 109 0 121 -9 115 -82 l-4 -56
65 -5 c80 -6 149 -31 261 -95 111 -64 117 -79 70 -169 -38 -74 -82 -135 -152
-212 -27 -29 -48 -56 -48 -60 0 -4 29 -26 65 -49 73 -48 100 -81 91 -115 -3
-13 -43 -69 -89 -124 -46 -55 -87 -105 -91 -111 -4 -7 13 -43 41 -85 78 -118
157 -280 148 -306 -15 -48 -131 -100 -298 -136 -73 -16 -78 -18 -72 -38 10
-33 18 -193 11 -222 -4 -14 -17 -30 -30 -36 -22 -11 -22 -12 -22 -200 1 -158
-1 -191 -14 -199 -26 -17 -122 -10 -225 15 -55 14 -103 25 -107 25 -4 0 -19
-27 -34 -60 -15 -34 -35 -65 -45 -70 -26 -14 -62 -12 -85 5 -33 25 -41 17 -53
-47 -19 -100 -78 -257 -108 -290 -9 -10 -25 -18 -35 -18 -40 0 -183 85 -250
148 l-38 36 -37 -36 c-21 -20 -48 -41 -60 -47 -65 -33 -141 77 -161 234 -4 33
-12 60 -17 60 -6 0 -13 -32 -16 -72 -12 -130 -87 -247 -146 -227 -10 4 -37 25
-59 46 l-42 40 -63 -51 c-86 -69 -213 -135 -246 -126 -41 10 -105 170 -138
347 l-5 28 -33 -20 c-40 -25 -79 -26 -100 -2 -9 10 -28 44 -42 76 -17 38 -30
56 -39 53 -116 -45 -293 -71 -326 -48 -18 13 -26 207 -12 319 7 57 6 72 -5 72
-7 0 -22 9 -33 20 -17 17 -20 33 -20 104 0 47 6 101 14 124 l15 41 -50 10
c-28 6 -57 11 -65 11 -32 0 -171 52 -216 81 -66 43 -68 62 -13 170 54 108 86
160 132 216 l34 43 -89 102 c-147 169 -147 175 -2 269 27 18 50 36 50 40 0 5
-30 41 -66 81 -77 86 -164 228 -164 268 0 35 32 62 145 118 96 47 177 72 238
72 l46 0 -6 53 c-8 79 6 89 119 85 73 -2 87 -1 83 11 -25 65 -40 180 -40 311
0 122 7 165 27 173 18 6 131 -10 206 -29 34 -10 64 -15 65 -13 2 2 13 49 26
103 33 147 42 166 85 166 65 0 282 -79 301 -110 13 -22 33 -7 104 81 104 126
117 139 140 139 14 0 47 -31 98 -95z"/>
<path d="M1925 3923 c-118 -137 -167 -221 -179 -303 -6 -41 -4 -49 20 -70 15
-14 35 -42 44 -63 l18 -39 26 57 c14 32 26 69 26 84 0 17 3 22 8 13 7 -9 13
-8 26 7 18 20 18 20 58 0 22 -11 41 -19 42 -17 1 2 11 23 23 48 11 25 41 71
66 103 29 38 44 65 40 75 -14 38 -128 182 -143 182 -5 0 -39 -35 -75 -77z"/>
<path d="M2361 3943 c-28 -32 -60 -76 -72 -98 l-22 -41 49 -64 c27 -36 58 -85
68 -110 11 -25 21 -46 22 -48 6 -10 64 37 65 53 1 15 2 16 6 4 6 -24 41 -31
46 -10 3 9 5 4 6 -12 0 -15 17 -60 38 -100 36 -72 36 -72 44 -41 5 16 20 41
34 54 43 41 32 123 -32 228 -40 65 -182 242 -194 242 -4 0 -30 -26 -58 -57z"/>
<path d="M1445 3888 c-16 -45 -55 -208 -55 -230 0 -23 13 -37 69 -78 37 -27
81 -66 96 -86 26 -34 28 -35 46 -18 13 12 17 24 13 38 -15 47 -15 50 1 23 20
-34 39 -25 31 15 -5 25 -4 28 8 19 11 -9 15 -8 20 4 4 11 13 14 31 9 22 -6 25
-3 25 23 0 16 11 57 24 91 l24 62 -30 25 c-42 35 -68 48 -177 84 -105 34 -120
37 -126 19z"/>
<path d="M2835 3868 c-49 -17 -114 -46 -143 -66 -60 -39 -58 -27 -20 -154 21
-66 26 -75 41 -67 22 13 57 -6 57 -31 0 -27 17 -34 30 -13 9 16 10 15 5 -5 -5
-16 -1 -30 11 -43 17 -19 19 -19 73 34 31 30 73 64 94 76 33 20 37 27 37 64 0
23 -13 85 -28 137 -22 77 -31 95 -47 97 -11 1 -60 -12 -110 -29z"/>
<path d="M2141 3771 c-54 -56 -95 -121 -105 -167 -7 -30 -4 -34 50 -72 l58
-41 23 34 c35 51 59 47 106 -18 12 -18 16 -16 65 22 58 46 59 56 21 133 -26
52 -127 158 -151 158 -10 0 -41 -22 -67 -49z"/>
<path d="M1094 3653 c-24 -91 16 -400 58 -455 7 -9 37 -26 66 -38 l54 -20 -4
42 -3 43 55 5 c48 4 55 8 58 28 2 13 -2 30 -9 38 -10 12 -10 15 1 12 7 -2 17
9 22 24 8 23 4 35 -22 73 -38 56 -33 60 8 5 29 -39 29 -40 47 -20 23 26 34 25
75 -5 19 -14 37 -25 40 -25 4 0 12 18 19 40 14 49 1 79 -57 132 -76 69 -133
94 -277 122 -38 8 -82 17 -97 21 -24 6 -28 3 -34 -22z"/>
<path d="M3205 3660 c-179 -38 -270 -84 -329 -167 l-28 -41 17 -46 c10 -25 20
-46 22 -46 2 0 19 11 37 25 38 29 58 31 76 10 11 -13 16 -10 41 21 35 45 39
36 4 -10 -22 -29 -24 -37 -14 -64 6 -18 14 -32 18 -32 3 0 5 -18 3 -40 l-4
-40 56 0 56 0 0 -41 c0 -37 2 -40 23 -33 63 19 76 33 97 103 43 144 58 321 34
404 -6 20 -4 20 -109 -3z"/>
<path d="M1922 3533 c-71 -142 -90 -256 -57 -337 18 -44 82 -116 102 -116 7 0
44 31 81 68 37 38 78 75 91 83 24 15 24 16 8 57 -9 24 -17 67 -17 97 l0 54
-82 59 c-46 32 -88 62 -95 66 -8 4 -19 -7 -31 -31z"/>
<path d="M2397 3510 c-47 -33 -89 -65 -93 -72 -4 -6 -6 -31 -5 -56 1 -25 -6
-66 -16 -90 l-17 -45 35 -26 c18 -13 59 -51 90 -83 31 -32 63 -58 72 -58 23 0
92 83 105 128 24 80 10 171 -43 285 -20 42 -37 77 -39 77 -1 0 -41 -27 -89
-60z"/>
<path d="M1670 3479 c-96 -114 -101 -155 -30 -233 70 -79 83 -108 90 -206 l5
-85 70 -3 c84 -3 113 10 140 60 l20 37 -46 48 c-25 26 -65 79 -90 117 -42 67
-44 74 -49 163 -5 87 -8 95 -36 124 l-30 30 -44 -52z"/>
<path d="M2685 3500 c-26 -27 -29 -38 -35 -123 -6 -91 -8 -96 -54 -168 -27
-41 -67 -93 -89 -116 l-41 -43 17 -34 c26 -55 53 -67 138 -64 l74 3 -3 55 c-5
79 26 154 94 231 53 59 56 64 50 102 -6 38 -36 87 -93 155 l-28 33 -30 -31z"/>
<path d="M2185 3462 c-46 -70 -52 -126 -19 -179 21 -33 78 -32 100 2 25 39 21
106 -10 158 -14 25 -31 49 -36 52 -5 3 -21 -12 -35 -33z"/>
<path d="M1436 3307 c-28 -73 -21 -128 24 -211 29 -53 42 -89 46 -134 4 -34
10 -62 13 -62 3 0 46 13 95 28 102 32 110 43 104 128 -6 76 -41 138 -108 192
-54 44 -141 102 -152 102 -3 0 -13 -19 -22 -43z"/>
<path d="M2945 3340 c-4 -6 -32 -26 -63 -46 -116 -73 -161 -137 -169 -238 -7
-79 5 -103 55 -112 20 -4 59 -15 86 -26 54 -21 66 -15 66 33 0 41 24 110 55
159 24 37 29 56 29 105 0 95 -34 166 -59 125z"/>
<path d="M2153 3214 c-18 -9 -53 -36 -79 -61 -51 -50 -127 -161 -118 -174 3
-5 23 0 44 11 22 11 42 20 44 20 3 0 15 -19 27 -42 12 -24 23 -45 25 -47 2 -2
30 19 62 46 l58 51 57 -54 57 -54 25 50 c27 53 32 54 96 20 51 -28 -1 69 -85
158 -82 87 -145 109 -213 76z"/>
<path d="M937 3178 c-16 -12 -15 -20 13 -133 34 -136 70 -228 110 -283 27 -36
114 -91 127 -79 3 4 0 27 -7 51 -14 50 -9 76 15 76 23 0 19 62 -7 96 l-22 29
22 -19 c21 -18 22 -18 33 10 10 27 8 32 -28 63 -21 19 -27 27 -13 18 59 -40
59 -40 71 -10 6 15 12 50 13 78 1 45 -1 50 -28 63 -79 39 -267 64 -299 40z"/>
<path d="M1317 3099 c-5 -68 -14 -107 -33 -148 -41 -89 -32 -170 24 -209 l29
-21 31 48 c18 27 53 65 78 86 l46 38 -4 69 c-9 113 -67 206 -139 223 l-26 6
-6 -92z"/>
<path d="M3054 3176 c-52 -23 -100 -106 -115 -199 -10 -62 3 -96 50 -129 22
-16 52 -48 68 -73 15 -25 33 -45 39 -45 7 0 26 16 43 35 40 46 41 101 5 187
-18 43 -27 87 -31 149 -6 95 -8 97 -59 75z"/>
<path d="M3350 3184 c-66 -10 -138 -28 -162 -40 -24 -12 -28 -21 -28 -56 0
-44 19 -108 31 -108 4 0 11 4 14 10 3 5 16 15 28 21 13 6 9 0 -10 -16 -29 -23
-31 -28 -21 -51 8 -16 17 -23 27 -19 13 5 14 4 4 -6 -19 -19 -17 -109 1 -109
21 0 27 -30 16 -70 -6 -19 -10 -43 -10 -53 0 -17 1 -17 31 0 83 48 134 143
184 340 32 127 33 139 18 151 -16 11 -67 14 -123 6z"/>
<path d="M730 3017 c-63 -22 -203 -98 -215 -117 -16 -25 91 -183 189 -279 l65
-65 101 19 c98 18 100 19 100 46 0 18 -9 34 -27 48 -16 12 -20 18 -10 15 14
-5 17 0 17 26 l0 33 50 -5 c76 -8 67 25 -16 57 -36 14 -37 15 -6 9 45 -8 43
18 -5 64 -21 20 -30 33 -20 29 10 -4 17 -2 17 6 0 21 -30 109 -41 123 -18 22
-124 17 -199 -9z"/>
<path d="M3480 3026 c-10 -13 -40 -107 -40 -128 0 -4 8 -5 18 -1 9 3 0 -10
-20 -31 -42 -41 -51 -72 -18 -63 31 8 23 -1 -14 -17 -19 -8 -39 -24 -46 -35
-11 -21 -9 -21 44 -15 38 5 60 3 71 -6 16 -13 15 -41 -2 -62 -6 -7 -13 -26
-15 -43 -3 -29 -1 -30 52 -42 141 -31 125 -35 216 59 83 87 164 208 164 246 0
27 -126 103 -219 132 -76 24 -173 27 -191 6z"/>
<path d="M2178 2963 c-33 -36 -68 -94 -68 -113 0 -9 24 -39 53 -68 l53 -53 52
55 c29 30 52 60 52 66 0 29 -82 140 -104 140 -7 0 -24 -12 -38 -27z"/>
<path d="M1975 2953 c-22 -8 -101 -19 -175 -24 -164 -11 -206 -20 -293 -66
-123 -65 -166 -141 -173 -303 -2 -73 1 -107 15 -148 28 -81 34 -85 122 -71 41
6 78 14 82 18 4 4 3 21 -4 37 -6 16 -11 58 -11 94 -1 117 61 204 166 235 94
28 167 16 240 -40 40 -30 56 -26 90 24 47 67 60 159 32 226 -17 39 -28 41 -91
18z"/>
<path d="M2369 2949 c-22 -41 -28 -92 -18 -140 11 -51 60 -136 83 -145 8 -3
37 10 66 30 28 19 67 38 87 42 87 16 202 -22 253 -84 49 -60 57 -122 38 -277
-3 -17 7 -21 76 -34 78 -14 80 -13 98 9 30 36 42 99 42 206 -1 91 -4 108 -31
166 -59 127 -195 195 -403 205 -100 4 -141 11 -257 40 -15 4 -25 -1 -34 -18z"/>
<path d="M2086 2768 c-15 -39 -15 -44 0 -67 44 -69 117 -161 128 -161 17 0
136 165 136 189 0 24 -20 71 -31 71 -4 0 -29 -20 -56 -44 l-48 -44 -56 49 -56
49 -17 -42z"/>
<path d="M1228 2710 c3 -37 -2 -88 -13 -134 -21 -88 -18 -112 27 -191 27 -48
39 -61 62 -63 53 -6 57 1 34 65 -18 49 -21 78 -20 187 l2 128 -34 34 c-51 51
-63 46 -58 -26z"/>
<path d="M3159 2755 c-40 -22 -49 -58 -47 -185 2 -99 -1 -123 -20 -174 -26
-67 -21 -79 29 -74 31 3 37 10 71 73 40 76 41 97 12 217 -8 33 -11 77 -7 107
6 55 2 58 -38 36z"/>
<path d="M1685 2696 c-96 -44 -143 -129 -131 -234 9 -72 36 -123 92 -169 45
-37 50 -38 123 -38 42 -1 84 -4 93 -9 13 -6 22 2 42 42 27 54 58 78 112 90 30
6 39 15 62 61 l27 54 -90 93 c-49 51 -106 102 -125 113 -49 30 -139 28 -205
-3z m209 -158 c53 -35 96 -68 96 -75 0 -7 -17 -17 -37 -22 -21 -6 -56 -23 -78
-38 -46 -31 -130 -38 -160 -13 -41 34 -70 151 -47 186 9 15 35 21 88 23 35 1
57 -9 138 -61z"/>
<path d="M1716 2539 c-33 -39 -33 -71 2 -109 19 -22 36 -31 60 -32 42 -1 62
19 68 68 12 93 -74 140 -130 73z"/>
<path d="M2540 2699 c-48 -28 -219 -206 -209 -216 5 -5 15 -26 22 -48 14 -41
25 -50 69 -59 37 -8 86 -52 106 -95 13 -27 23 -35 37 -32 11 2 54 4 95 5 70 1
79 4 118 34 23 19 55 55 70 80 23 40 27 58 26 122 -1 82 -14 118 -61 162 -70
67 -202 90 -273 47z m218 -114 c14 -14 6 -111 -12 -148 -37 -74 -110 -85 -201
-29 -28 16 -65 33 -83 37 -18 4 -32 11 -30 16 2 5 46 38 98 74 l95 65 63 -4
c35 -2 66 -7 70 -11z"/>
<path d="M2607 2552 c-39 -42 -28 -135 17 -152 49 -18 110 30 110 85 0 69 -85
113 -127 67z"/>
<path d="M1010 2663 c5 -16 14 -64 21 -108 19 -137 76 -235 136 -235 29 0 38
34 28 98 -9 56 -9 114 -1 147 5 18 -1 30 -21 50 -33 30 -123 75 -152 75 -17 0
-19 -4 -11 -27z"/>
<path d="M3335 2665 c-27 -13 -62 -34 -77 -47 -26 -22 -27 -26 -19 -78 6 -37
5 -67 -3 -95 -15 -49 -9 -114 11 -122 8 -3 30 2 50 11 46 22 79 95 104 233 10
58 19 110 19 115 0 14 -33 8 -85 -17z"/>
<path d="M870 2563 c-67 -12 -290 -137 -290 -163 0 -15 142 -181 196 -229 65
-58 159 -102 234 -108 33 -3 60 -2 60 3 0 18 -51 169 -61 180 -5 7 -30 15 -56
19 -25 4 -55 11 -67 16 -17 8 -16 8 9 4 17 -2 48 -7 70 -11 l40 -6 -29 24
c-33 28 -31 56 5 65 16 4 17 8 7 14 -9 6 -5 9 14 9 27 0 27 1 13 33 -7 17 -19
60 -26 95 l-13 62 -41 -1 c-22 -1 -51 -4 -65 -6z"/>
<path d="M3455 2559 c-2 -8 -14 -49 -26 -93 -16 -60 -18 -80 -9 -86 9 -6 9 -9
-1 -13 -8 -3 -2 -6 12 -6 49 -2 59 -41 19 -71 l-25 -19 45 4 45 4 -47 -10 -47
-11 -31 -92 c-16 -50 -30 -96 -30 -102 0 -18 96 3 165 36 33 16 81 46 108 67
43 35 197 217 197 234 0 15 -101 81 -182 119 -92 43 -184 62 -193 39z"/>
<path d="M2147 2501 c-39 -25 -55 -51 -63 -99 -6 -39 -7 -40 -57 -46 -72 -10
-117 -56 -117 -119 0 -54 28 -93 77 -106 40 -11 46 -4 31 37 -16 40 1 79 38
88 30 8 59 -18 123 -111 l34 -50 23 30 c13 17 38 50 56 74 42 56 62 69 86 55
30 -19 43 -57 31 -93 -6 -18 -9 -34 -7 -36 2 -3 21 0 42 6 65 18 94 95 61 159
-21 40 -51 59 -106 66 -46 6 -47 7 -53 47 -5 28 -18 52 -45 79 -33 32 -45 38
-82 38 -26 0 -56 -8 -72 -19z"/>
<path d="M1220 2307 c0 -48 4 -61 30 -90 16 -19 57 -46 91 -61 54 -25 70 -28
147 -24 84 3 89 5 150 46 34 23 62 46 62 50 -1 14 -133 102 -154 102 -12 0
-61 -7 -111 -16 -108 -19 -149 -14 -187 22 l-28 28 0 -57z"/>
<path d="M3167 2327 l-38 -31 -92 12 c-51 7 -110 15 -132 18 -41 6 -76 -12
-158 -78 l-29 -23 77 -49 76 -48 92 4 c78 3 100 8 146 33 76 42 103 80 99 143
l-3 49 -38 -30z"/>
<path d="M1050 2281 c11 -22 34 -88 51 -148 17 -59 40 -122 50 -140 24 -39 90
-99 119 -108 27 -9 79 1 104 20 18 14 18 16 -7 87 -14 40 -29 89 -34 108 -6
25 -21 43 -52 64 -29 19 -50 44 -63 73 -25 58 -67 83 -136 83 l-52 0 20 -39z"/>
<path d="M3275 2310 c-26 -10 -45 -32 -71 -84 -12 -25 -34 -49 -57 -61 -36
-20 -49 -41 -62 -100 -3 -16 -15 -54 -26 -82 -12 -29 -19 -59 -16 -66 7 -19
81 -41 111 -33 36 9 103 71 127 117 10 21 30 75 43 121 27 93 54 167 69 186 7
9 -3 12 -44 11 -30 0 -63 -4 -74 -9z"/>
<path d="M1754 2232 c-16 -9 -51 -32 -77 -50 -98 -69 -172 -86 -272 -62 -58
13 -63 2 -36 -82 29 -90 60 -146 104 -185 38 -33 105 -52 117 -33 4 6 5 54 2
106 -5 105 4 130 45 119 16 -3 38 3 67 20 23 14 57 25 74 25 16 0 81 -19 144
-42 112 -41 114 -41 274 -46 l162 -4 134 46 c73 25 146 46 162 46 16 0 49 -11
72 -25 30 -17 51 -24 68 -19 39 9 50 -24 43 -125 -7 -100 -1 -116 40 -107 80
18 138 88 179 216 30 92 26 105 -26 90 -99 -28 -180 -7 -313 84 -38 25 -77 46
-88 46 -34 0 -74 -27 -102 -69 -48 -72 -133 -98 -212 -65 -37 15 -38 15 -64
-10 -34 -32 -38 -32 -72 -1 -26 26 -26 26 -68 9 -51 -20 -122 -14 -160 13 -14
11 -38 37 -52 58 -44 64 -89 78 -145 47z"/>
<path d="M753 2088 c-68 -75 -181 -282 -170 -311 14 -36 189 -101 305 -113
l60 -7 45 70 c47 73 90 115 144 141 18 9 33 19 33 24 0 15 -50 40 -67 34 -16
-6 -16 -6 0 12 27 29 0 46 -60 38 l-48 -6 47 15 c38 13 45 18 41 35 -5 18 -14
20 -85 20 -47 0 -77 4 -73 9 4 8 -110 81 -127 81 -3 0 -23 -19 -45 -42z"/>
<path d="M3545 2095 c-33 -19 -59 -40 -57 -45 1 -6 -26 -10 -67 -10 -54 0 -70
-4 -75 -16 -11 -28 -7 -33 29 -40 19 -3 37 -10 40 -14 2 -4 -16 -2 -41 3 -49
12 -69 0 -60 -35 3 -12 -2 -18 -13 -18 -10 0 -25 -8 -34 -18 -16 -18 -14 -20
30 -50 60 -38 93 -73 131 -137 l29 -50 60 2 c100 2 295 71 309 108 9 23 -122
265 -169 313 -22 23 -44 42 -47 42 -3 0 -32 -16 -65 -35z"/>
<path d="M1711 2044 c-36 -30 -38 -53 -9 -114 l21 -45 7 33 c4 18 15 41 24 51
32 35 65 32 173 -15 l102 -44 181 0 182 0 96 41 c54 22 111 41 129 42 37 1 73
-26 73 -57 0 -12 4 -27 9 -35 7 -11 13 -5 25 24 31 72 30 82 -2 115 -20 19
-41 30 -59 30 -16 0 -89 -21 -163 -46 l-135 -46 -170 4 -170 4 -109 42 c-128
49 -163 52 -205 16z"/>
<path d="M1613 2015 c-3 -10 -2 -105 3 -212 10 -203 15 -219 59 -223 45 -5 74
1 96 18 21 18 22 21 10 83 -7 35 -25 88 -41 119 -15 30 -42 90 -59 132 -36 86
-57 111 -68 83z"/>
<path d="M2759 1953 c-19 -43 -49 -107 -67 -142 -40 -79 -63 -198 -41 -212 52
-34 129 -29 145 10 9 22 28 387 20 406 -11 29 -24 15 -57 -62z"/>
<path d="M1770 1960 c-11 -11 -20 -31 -20 -45 0 -38 67 -337 82 -367 13 -27
37 -22 44 10 3 15 8 33 10 41 3 8 9 79 14 158 10 160 5 185 -41 209 -38 19
-65 18 -89 -6z"/>
<path d="M2570 1967 c-46 -24 -51 -50 -40 -213 15 -206 18 -224 46 -224 17 0
30 31 50 120 7 36 23 105 34 154 23 105 24 126 8 149 -18 23 -68 30 -98 14z"/>
<path d="M1348 1872 c-38 -18 -128 -96 -128 -111 0 -5 28 -32 61 -60 53 -44
66 -51 93 -46 17 3 51 9 76 13 40 7 49 13 78 57 17 27 32 53 32 57 0 3 -16 12
-35 18 -19 6 -53 29 -76 51 -46 44 -50 45 -101 21z"/>
<path d="M2984 1856 c-20 -19 -53 -42 -75 -51 -21 -10 -39 -23 -39 -29 0 -6
16 -32 34 -57 33 -45 36 -46 107 -56 l74 -10 45 32 c25 19 54 43 64 54 20 21
19 22 -25 67 -41 43 -107 83 -136 84 -7 0 -29 -15 -49 -34z"/>
<path d="M1147 1851 c-102 -52 -139 -102 -193 -262 -51 -152 -43 -223 23 -221
94 2 233 31 233 48 0 2 -16 18 -35 35 -19 17 -35 38 -35 46 0 8 29 45 65 82
50 52 62 70 53 79 -7 7 -20 12 -30 12 -10 0 -17 3 -17 8 4 26 -3 34 -26 30
-20 -4 -23 -2 -15 8 8 9 8 18 -2 33 -11 18 -8 25 26 60 37 38 37 40 18 50 -26
14 -21 14 -65 -8z"/>
<path d="M3206 1852 c-3 -5 10 -24 29 -42 39 -38 42 -51 20 -70 -9 -7 -14 -19
-11 -27 3 -8 2 -11 -3 -8 -5 3 -26 -10 -46 -28 l-37 -34 66 -64 c36 -36 66
-72 66 -81 0 -10 -18 -32 -40 -49 -22 -18 -40 -36 -40 -40 0 -9 73 -26 170
-39 70 -9 76 -8 93 11 21 26 22 72 2 153 -22 86 -54 164 -87 214 -48 70 -162
135 -182 104z"/>
<path d="M1914 1796 c-3 -13 -4 -35 -2 -47 3 -22 7 -24 49 -21 25 1 58 -2 72
-7 17 -7 28 -7 32 -1 4 6 26 10 51 10 51 0 84 -25 84 -66 0 -35 22 -26 32 14
5 17 17 36 27 41 10 6 69 9 134 6 64 -2 119 0 121 4 3 4 2 26 -1 48 l-5 42
-26 -17 c-17 -11 -51 -18 -92 -19 -36 -2 -111 -6 -168 -9 -73 -4 -108 -2 -118
7 -9 8 -31 9 -65 5 -41 -6 -57 -3 -85 13 l-34 20 -6 -23z"/>
<path d="M1567 1752 c-31 -34 -49 -93 -42 -139 8 -53 57 -107 105 -116 37 -8
162 2 181 14 21 13 -2 65 -27 61 -116 -16 -130 -15 -151 11 -15 19 -22 49 -27
107 -4 44 -11 80 -15 80 -4 0 -15 -8 -24 -18z"/>
<path d="M2825 1708 c-10 -101 -15 -118 -41 -135 -22 -14 -78 -14 -146 0 -6 1
-16 -11 -22 -26 -13 -37 -3 -43 90 -52 61 -5 80 -3 119 14 37 16 50 29 66 67
15 33 19 56 14 83 -7 38 -49 111 -64 111 -5 0 -12 -28 -16 -62z"/>
<path d="M1369 1636 c-21 -7 -49 -23 -65 -35 -42 -33 -116 -102 -112 -105 2
-2 28 -19 58 -40 43 -28 64 -36 100 -36 41 0 51 6 109 58 l65 59 -15 54 -14
54 -45 2 c-25 2 -61 -3 -81 -11z"/>
<path d="M2920 1595 l-14 -57 61 -59 c57 -55 64 -59 107 -59 37 0 59 8 107 38
l61 39 -64 57 c-80 73 -108 87 -183 94 l-61 4 -14 -57z"/>
<path d="M1910 1580 c-11 -11 -20 -29 -20 -40 0 -20 7 -20 326 -20 l326 0 -6
28 c-13 51 -18 52 -323 52 -270 0 -284 -1 -303 -20z"/>
<path d="M1478 1477 c-74 -56 -132 -176 -140 -287 l-3 -45 39 3 c139 11 281
147 308 297 2 15 -5 20 -35 27 -21 4 -51 15 -67 23 -41 21 -53 19 -102 -18z"/>
<path d="M2835 1489 c-22 -10 -50 -19 -62 -19 -34 0 -36 -14 -9 -78 26 -66 91
-154 139 -189 35 -26 107 -51 157 -55 l35 -3 -3 45 c-7 108 -68 232 -141 287
-48 38 -60 39 -116 12z"/>
<path d="M1884 1463 c-18 -42 -20 -134 -5 -191 18 -64 148 -212 187 -212 19 0
64 155 64 221 0 64 -9 89 -57 166 l-32 53 -72 -1 -71 -1 -14 -35z"/>
<path d="M2090 1484 c0 -24 80 -170 106 -195 l22 -21 32 43 c35 47 90 156 90
177 0 9 -32 12 -125 12 -109 0 -125 -2 -125 -16z"/>
<path d="M2378 1483 c-9 -10 -31 -47 -49 -82 -28 -52 -34 -76 -33 -120 1 -56
46 -215 64 -226 17 -11 148 129 175 186 29 63 34 168 11 224 l-15 35 -69 0
c-53 0 -72 -4 -84 -17z"/>
<path d="M1775 1481 c-50 -6 -50 -7 -84 -70 -42 -80 -44 -132 -8 -254 39 -128
33 -125 102 -69 33 26 69 64 80 84 19 35 19 38 1 94 -13 41 -17 80 -15 138 4
91 8 87 -76 77z"/>
<path d="M2577 1484 c-3 -4 -4 -39 -1 -78 5 -51 2 -86 -10 -125 -9 -30 -16
-65 -16 -77 0 -28 38 -74 104 -126 38 -30 51 -36 57 -26 4 8 22 65 39 128 29
102 31 118 20 154 -17 59 -60 135 -79 140 -37 10 -108 16 -114 10z"/>
<path d="M1184 1368 c-30 -27 -35 -29 -25 -10 6 12 10 22 9 22 -22 0 -142 -31
-152 -39 -23 -19 -37 -122 -34 -246 l3 -120 65 2 c61 2 200 37 252 63 13 7 34
22 46 34 l24 21 -39 5 -38 5 -3 53 c-2 31 6 88 17 134 12 45 19 83 17 86 -2 2
-14 -2 -26 -8 -12 -7 -20 -8 -17 -2 6 8 -33 32 -53 32 -5 0 -26 -15 -46 -32z"/>
<path d="M3151 1385 c-18 -8 -37 -12 -42 -9 -12 7 -12 4 10 -74 10 -37 18 -96
17 -132 l-1 -65 -48 -5 -49 -5 24 -21 c53 -49 187 -92 293 -96 l70 -3 3 124
c2 116 -8 209 -27 239 -4 7 -32 17 -62 22 -30 5 -65 12 -78 16 -22 7 -23 6
-11 -17 11 -20 7 -19 -22 9 -39 37 -33 36 -77 17z"/>
<path d="M2245 1270 c-22 -24 -33 -25 -56 -4 -10 9 -22 14 -27 10 -4 -3 -19
-47 -32 -99 l-24 -95 25 -47 c13 -26 37 -58 53 -71 25 -22 31 -23 50 -11 33
22 88 118 83 147 -7 37 -45 181 -50 186 -2 2 -12 -5 -22 -16z"/>
<path d="M1579 1184 c-27 -30 -113 -74 -144 -74 -11 0 -40 -17 -65 -39 l-44
-38 29 -73 c16 -40 34 -74 41 -77 21 -8 94 37 114 70 l20 32 0 -45 c0 -45 30
-188 52 -245 35 -94 62 -145 77 -145 23 0 157 80 209 125 23 20 42 43 42 52 0
8 -21 49 -46 89 -37 60 -49 72 -60 63 -12 -9 -14 -4 -14 29 0 84 -22 96 -40
21 -7 -27 -14 -48 -17 -46 -2 3 2 30 10 61 15 57 14 63 -12 47 -27 -17 -48 7
-71 79 -12 38 -25 70 -29 70 -7 0 -64 -82 -85 -125 -9 -16 -16 -24 -16 -17 0
20 39 92 72 133 21 27 28 43 23 58 -8 27 -16 26 -46 -5z"/>
<path d="M2806 1194 c-11 -28 -6 -43 24 -85 16 -23 39 -67 50 -98 12 -31 30
-66 41 -77 21 -22 96 -60 104 -53 2 3 17 36 34 74 l30 70 -37 37 c-33 34 -91
65 -135 72 -10 1 -34 19 -55 39 -43 42 -47 43 -56 21z"/>
<path d="M1899 1089 c-2 -41 -2 -42 -8 -12 l-6 33 -54 -48 -54 -48 34 -74 c18
-41 55 -103 81 -139 46 -64 151 -161 173 -161 30 0 85 151 85 235 0 42 -5 57
-31 88 -17 20 -39 37 -49 37 -10 0 -37 16 -60 35 -23 19 -43 35 -44 35 -1 0
-1 -17 1 -37 2 -30 1 -34 -6 -18 -5 11 -10 32 -10 46 -1 14 -12 36 -26 49
l-25 23 -1 -44z"/>
<path d="M2495 1100 c-15 -16 -31 -46 -35 -67 l-8 -38 -1 32 -1 33 -45 -35
c-25 -19 -51 -32 -58 -30 -6 2 -27 -17 -46 -42 -32 -44 -33 -50 -29 -114 6
-76 56 -199 82 -199 22 0 133 107 176 169 42 64 76 127 95 180 l13 37 -58 51
-57 52 -28 -29z"/>
<path d="M2788 1124 c-3 -5 -13 -34 -23 -64 -23 -72 -38 -84 -78 -64 l-30 16
6 -33 c3 -19 9 -45 12 -59 3 -14 -2 -5 -11 19 -16 42 -18 43 -31 25 -9 -12
-13 -36 -11 -62 3 -36 1 -40 -9 -26 -7 10 -14 16 -16 13 -39 -57 -97 -151 -97
-158 0 -31 220 -187 255 -179 38 7 125 276 125 386 0 36 -7 70 -20 96 -25 51
-66 101 -72 90z"/>
</g>
</svg>
