<?xml version="1.0" standalone="no"?>
<!DOCTYPE svg PUBLIC "-//W3C//DTD SVG 20010904//EN"
 "http://www.w3.org/TR/2001/REC-SVG-20010904/DTD/svg10.dtd">
<svg version="1.0" xmlns="http://www.w3.org/2000/svg"
 width="960.000000pt" height="640.000000pt" viewBox="0 0 960.000000 640.000000"
 preserveAspectRatio="xMidYMid meet">

<g transform="translate(0.000000,640.000000) scale(0.100000,-0.100000)"
fill="#000000" stroke="none">
<path d="M6589 6348 c-2 -139 -22 -1015 -29 -1268 -4 -157 -13 -503 -20 -770
-9 -373 -15 -490 -25 -506 -19 -30 -78 -55 -143 -61 -85 -7 -87 -9 -52 -41 29
-27 32 -36 40 -123 5 -52 9 -182 9 -289 0 -191 -10 -287 -37 -337 -7 -12 -12
-31 -12 -43 0 -11 -7 -23 -15 -26 -10 -4 -15 -20 -15 -46 0 -41 -23 -98 -40
-98 -6 0 -10 -15 -10 -32 0 -18 -4 -40 -10 -48 -6 -9 -5 -17 2 -21 7 -5 3 -15
-11 -30 -20 -22 -22 -33 -19 -117 3 -86 2 -92 -17 -93 -20 0 -20 0 0 -8 19 -8
19 -8 -3 -20 -28 -15 -29 -54 -2 -88 28 -36 25 -43 -15 -43 -34 0 -35 -1 -35
-39 0 -29 5 -41 18 -44 12 -3 4 -10 -25 -22 -40 -17 -43 -21 -43 -57 0 -23 -7
-46 -16 -55 -11 -11 -12 -18 -4 -23 6 -4 13 -24 17 -45 6 -36 5 -38 -18 -33
-13 3 -32 9 -41 13 -16 6 -18 0 -19 -66 0 -61 -2 -70 -11 -51 -9 17 -20 22
-50 22 -38 0 -38 0 -38 -40 0 -22 5 -40 10 -40 17 0 11 -14 -10 -28 -16 -9
-24 -10 -39 0 -15 9 -28 9 -60 -2 -35 -11 -41 -17 -41 -41 0 -16 7 -32 18 -38
16 -10 16 -10 -1 -11 -15 0 -18 -7 -16 -40 2 -21 0 -43 -5 -47 -13 -13 -4 220
9 242 6 11 20 50 30 87 22 83 17 151 -19 236 -21 49 -26 79 -27 149 -1 115
-16 167 -17 61 -1 -63 -6 -87 -28 -133 -15 -30 -33 -60 -39 -65 -6 -5 4 20 22
56 60 120 40 220 -69 340 -48 52 -246 194 -271 194 -7 0 -21 14 -32 30 -11 17
-28 33 -38 36 -15 5 -16 13 -11 52 8 66 -12 90 -93 106 -52 11 -63 11 -67 0
-7 -18 -26 -18 -26 0 0 9 -7 12 -20 9 -11 -3 -20 0 -20 6 0 6 -15 11 -34 11
-60 0 -139 20 -161 40 -22 21 -40 25 -48 13 -2 -5 -2 -2 -1 5 2 6 0 12 -4 13
-65 5 -83 5 -93 -2 -7 -4 -19 -4 -28 1 -9 4 -33 16 -54 26 -22 11 -49 28 -60
39 -12 11 -38 28 -58 38 -19 10 -48 30 -65 43 -28 25 -29 25 -32 5 -4 -25 3
-25 -68 0 -32 11 -71 18 -86 15 -30 -6 -49 10 -24 20 10 4 16 19 16 40 0 32
-2 34 -34 34 -35 0 -86 32 -86 54 0 7 -16 30 -35 50 -19 21 -35 41 -35 46 0 5
12 16 28 25 42 23 104 82 93 89 -10 6 -88 -20 -105 -36 -6 -4 -17 -8 -25 -8
-9 0 0 10 19 21 39 23 146 113 172 144 13 16 19 18 29 8 7 -7 16 -13 20 -13
11 0 8 119 -2 126 -5 3 -9 1 -9 -5 0 -19 -110 -78 -210 -111 -86 -29 -103 -32
-111 -19 -8 11 -12 11 -16 2 -6 -15 -33 -17 -33 -3 0 6 4 10 8 10 21 0 40 57
35 108 -5 48 -8 52 -32 52 -22 1 -24 2 -8 11 9 5 17 15 17 20 0 6 10 19 23 30
l22 18 -22 1 c-14 0 -23 6 -23 15 0 29 -31 65 -56 65 -13 0 -24 4 -24 8 0 5
10 8 22 8 15 -1 23 7 29 29 6 19 4 32 -3 36 -7 4 -8 20 -4 44 7 36 6 37 -16
31 -13 -4 -36 -9 -51 -10 -15 -2 -33 -8 -39 -14 -7 -7 -23 -12 -36 -12 -20 0
-22 -3 -13 -14 9 -11 9 -15 -1 -18 -10 -4 -10 -10 1 -32 17 -32 4 -51 -28 -41
-24 7 -30 60 -8 68 7 3 4 6 -6 6 -14 1 -17 6 -12 21 7 21 6 21 -32 4 -21 -9
-54 -20 -73 -25 -36 -10 -76 -25 -147 -54 -39 -16 -41 -19 -25 -31 22 -17 56
-18 46 -1 -4 6 2 4 13 -6 13 -11 33 -17 55 -15 18 1 39 -2 46 -6 18 -11 3 -29
-19 -23 -14 4 -19 0 -19 -14 0 -14 -7 -19 -25 -19 -49 0 -26 -47 31 -62 76
-19 96 -20 121 -7 21 11 27 11 30 2 3 -7 16 -13 29 -13 19 0 24 5 24 25 0 18
4 23 15 19 17 -7 21 -69 5 -79 -5 -3 -10 -15 -10 -26 0 -10 -4 -19 -10 -19 -5
0 -10 -9 -10 -19 0 -12 -8 -21 -22 -24 l-23 -4 23 -2 c17 -1 22 -7 22 -30 0
-23 -5 -31 -22 -34 l-23 -4 23 -2 c27 -1 32 -41 5 -41 -15 0 -16 -2 -3 -10 13
-8 12 -10 -3 -10 -10 0 -29 7 -42 16 -23 15 -25 15 -31 0 -3 -9 -11 -16 -16
-16 -6 0 -7 7 -4 16 3 8 2 12 -4 9 -6 -3 -10 -13 -10 -22 0 -11 6 -14 23 -9
18 4 23 1 24 -14 2 -28 -28 -25 -57 5 -13 14 -29 25 -37 25 -7 0 -21 9 -30 20
-10 11 -22 20 -28 20 -17 0 -80 59 -72 67 4 3 13 0 20 -8 12 -16 62 -49 72
-49 3 0 5 5 5 10 0 6 -7 10 -15 10 -21 0 -19 13 5 30 11 8 20 25 20 37 0 18
-6 23 -25 23 -20 0 -25 5 -25 24 0 13 -7 29 -15 36 -8 7 -15 20 -15 29 0 9 -9
27 -19 41 l-19 24 -30 -29 c-16 -17 -40 -38 -53 -48 l-24 -18 25 15 c35 23 39
20 37 -21 -1 -24 3 -42 13 -50 8 -6 11 -15 6 -20 -5 -4 -11 -2 -13 5 -3 6 -11
12 -18 12 -8 0 -30 16 -49 36 -19 20 -40 33 -45 29 -6 -3 -11 -2 -11 4 0 5 -9
13 -20 16 -11 3 -26 12 -33 18 -21 20 -56 37 -74 37 -9 0 -26 8 -37 19 -31 27
-86 44 -102 30 -10 -9 -14 -9 -14 0 0 22 -20 11 -36 -21 -12 -23 -15 -47 -11
-92 7 -69 13 -138 22 -246 3 -41 10 -93 15 -115 5 -22 10 -55 10 -73 l0 -34
-87 6 c-92 7 -114 9 -175 21 -21 4 -38 4 -38 0 0 -16 22 -45 31 -40 5 4 9 -1
9 -9 0 -19 21 -53 79 -130 34 -43 41 -60 31 -66 -19 -12 25 -23 64 -16 20 4
39 1 51 -8 18 -13 18 -14 -4 -37 -18 -20 -20 -25 -7 -27 27 -6 18 -16 -33 -39
-45 -20 -53 -21 -99 -8 -28 7 -56 16 -62 20 -9 5 -10 1 -5 -14 5 -15 2 -21 -9
-21 -9 0 -25 -9 -36 -20 -28 -28 -38 -25 -42 13 -2 25 -7 32 -23 30 -11 -1
-23 4 -27 10 -5 8 -8 7 -8 -4 0 -18 -75 -44 -106 -37 -14 3 -10 8 20 21 21 9
47 17 57 17 10 0 21 5 24 11 4 6 14 8 22 5 9 -4 21 -2 27 2 6 5 18 9 26 9 8 0
35 10 59 21 25 12 53 22 62 22 33 0 26 25 -22 73 l-48 47 -58 -20 c-77 -26
-111 -39 -287 -104 -82 -31 -156 -56 -164 -56 -17 0 -135 -51 -142 -62 -3 -4
-29 27 -57 70 -28 42 -90 120 -138 172 -48 52 -108 126 -133 165 -52 77 -170
228 -184 233 -4 2 -8 -1 -8 -6 0 -6 -17 -10 -38 -10 -83 2 -90 0 -97 -32 -4
-18 -11 -27 -17 -24 -8 5 -9 -8 -4 -42 3 -27 9 -82 13 -121 3 -40 9 -73 14
-73 10 0 2 -74 -12 -115 -11 -29 -9 -38 9 -69 12 -20 26 -54 32 -77 10 -36 9
-43 -7 -54 -16 -12 -16 -18 -4 -76 16 -77 19 -125 9 -142 -6 -9 -10 -8 -18 3
-7 11 -9 1 -8 -32 0 -27 4 -48 9 -48 5 0 9 -11 9 -25 0 -14 -5 -25 -11 -25 -8
0 -10 -18 -7 -57 3 -32 3 -50 1 -40 -7 26 -33 21 -33 -6 0 -13 -6 -32 -14 -42
-12 -16 -17 -17 -43 -6 -28 11 -32 10 -60 -18 l-30 -30 28 -58 c22 -45 27 -68
24 -106 -4 -53 -10 -67 -28 -67 -7 0 -13 -8 -13 -19 0 -11 5 -17 13 -14 15 6
8 -23 -12 -47 -14 -17 -38 -120 -30 -128 10 -11 18 9 23 58 2 27 8 47 13 44
16 -9 -2 -145 -22 -165 -9 -9 -20 -15 -23 -12 -16 16 -3 -59 20 -112 28 -67
30 -86 38 -370 4 -110 9 -221 12 -246 7 -51 -12 -159 -28 -159 -6 0 -7 -16 -3
-43 l7 -42 -21 19 c-12 11 -24 16 -28 12 -4 -3 3 -13 15 -22 31 -22 46 -52 33
-68 -6 -7 -8 -16 -4 -20 4 -4 -1 -4 -10 0 -13 5 -15 10 -8 17 15 15 14 24 -5
31 -12 4 -14 1 -9 -14 7 -23 -7 -27 -24 -6 -6 8 -21 16 -32 19 -20 5 -20 5 -4
-13 10 -11 27 -22 39 -26 11 -4 24 -12 28 -18 11 -16 10 -38 -2 -31 -6 3 -15
3 -22 -1 -8 -5 -6 -11 6 -19 15 -11 15 -14 0 -26 -14 -11 -13 -15 8 -32 13
-10 17 -16 11 -12 -7 3 -13 1 -13 -4 0 -6 7 -11 16 -11 8 0 12 -5 9 -10 -4 -6
-10 -8 -14 -6 -4 3 -12 -4 -19 -14 -9 -15 -8 -19 5 -24 11 -5 14 -2 9 10 -5
14 -4 15 9 4 10 -9 12 -17 6 -23 -5 -5 -7 -16 -4 -24 6 -16 -66 30 -79 50 -5
8 -8 4 -8 -10 0 -12 -8 -27 -17 -32 -23 -13 2 -15 26 -1 14 7 23 5 36 -10 16
-18 17 -20 2 -20 -10 0 -17 5 -17 10 0 6 -7 10 -15 10 -8 0 -15 -4 -15 -9 0
-5 -3 -18 -6 -28 -4 -13 -3 -14 3 -5 7 9 17 10 33 4 l24 -9 -25 -8 c-22 -7
-21 -8 15 -14 34 -5 37 -8 23 -19 -9 -8 -13 -20 -10 -30 6 -15 4 -15 -10 -4
-8 8 -15 19 -13 25 1 7 1 9 -1 5 -7 -13 -31 -9 -36 5 -2 6 -7 -12 -11 -40 -8
-51 -18 -65 -31 -43 -3 5 -1 18 4 29 15 27 -17 62 -50 55 -18 -4 -20 -3 -10 4
12 9 12 13 2 26 -19 23 -34 20 -26 -5 6 -19 4 -21 -14 -16 -11 3 -24 1 -27 -4
-3 -5 -2 -8 3 -7 4 2 23 -4 41 -11 27 -11 35 -12 42 -2 10 18 22 -2 14 -24 -5
-12 -14 -14 -35 -10 -40 9 -29 -18 12 -31 31 -9 38 -31 9 -27 -28 3 -85 21
-72 22 7 1 10 6 6 12 -4 8 -9 7 -15 -2 -13 -21 -12 -24 25 -42 20 -9 33 -22
32 -31 -3 -22 -16 -33 -16 -14 0 21 -36 29 -82 19 -30 -7 -35 -6 -31 6 3 7 2
13 -3 12 -19 -5 -63 13 -68 28 -3 8 -10 12 -15 9 -5 -4 -16 0 -24 8 -15 15
-57 11 -57 -6 0 -5 -5 -6 -10 -3 -6 4 -8 11 -5 16 4 5 -2 9 -13 9 -10 0 -22 3
-26 7 -11 11 -79 32 -88 27 -4 -3 -28 16 -53 43 -25 26 -45 42 -45 35 0 -7 -4
-11 -9 -8 -5 3 -7 16 -4 29 4 17 3 19 -6 11 -19 -17 -10 -59 12 -58 20 2 23
-12 5 -19 -8 -3 -6 -6 5 -6 10 -1 17 -9 17 -20 0 -11 9 -23 21 -26 28 -9 17
-17 -14 -10 -13 4 -31 18 -38 33 -27 52 -59 79 -59 49 0 -25 25 -67 37 -62 7
2 18 -5 24 -16 9 -19 9 -20 -10 -10 -11 6 -24 10 -29 9 -14 -5 -82 36 -79 47
2 5 14 12 27 15 19 5 21 7 8 18 -13 10 -18 8 -34 -13 -10 -14 -28 -25 -39 -25
-18 1 -19 1 -2 11 25 15 21 28 -20 67 -24 21 -30 32 -18 27 55 -20 85 -23 94
-8 5 10 15 13 30 8 12 -3 18 -11 15 -17 -4 -7 -9 -6 -14 2 -4 7 -13 9 -19 6
-17 -11 -3 -26 24 -26 35 0 47 28 23 52 -15 15 -28 18 -52 14 -24 -5 -38 -1
-55 13 -16 14 -18 21 -9 24 10 4 10 6 0 6 -7 1 -20 -8 -29 -19 -10 -11 -24
-20 -33 -20 -16 1 -50 23 -50 34 0 12 31 6 36 -8 3 -8 12 -12 20 -9 9 3 13 12
10 19 -3 8 -1 14 4 14 6 0 10 7 10 16 0 9 -7 14 -17 12 -20 -4 -60 39 -55 59
3 15 -14 18 -23 3 -8 -13 -35 -1 -35 17 0 10 -6 13 -16 9 -9 -3 -21 -3 -27 1
-6 4 -25 8 -42 10 -16 2 -32 8 -33 13 -5 13 -32 13 -32 0 0 -5 6 -10 14 -10 8
0 18 -9 21 -20 5 -15 12 -19 26 -15 10 4 19 2 19 -4 0 -19 -21 -23 -39 -7 -20
18 -41 21 -41 6 0 -5 18 -15 40 -21 23 -7 40 -18 40 -27 0 -19 -49 -7 -66 16
-11 14 -13 -21 -13 -187 -1 -183 1 -205 17 -217 16 -12 16 -13 0 -19 -16 -6
-18 -25 -18 -186 l0 -179 4800 0 4800 0 0 3200 0 3200 -1505 0 -1505 0 -1 -52z
m-2963 -2282 c-15 -13 -26 -29 -26 -35 0 -9 -10 -10 -30 -6 -19 4 -36 2 -45
-5 -8 -6 -22 -10 -32 -7 -13 3 -11 5 7 6 20 1 22 3 10 11 -13 9 -13 11 0 19 8
5 18 7 22 5 4 -3 8 -1 8 5 0 11 51 29 88 30 l23 1 -25 -24z m52 -154 c3 -9 -2
-13 -14 -10 -9 1 -19 9 -22 16 -3 9 2 13 14 10 9 -1 19 -9 22 -16z m147 -82
c-3 -5 -10 -10 -16 -10 -5 0 -9 5 -9 10 0 6 7 10 16 10 8 0 12 -4 9 -10z
m-395 -90 c0 -5 -4 -10 -9 -10 -6 0 -13 5 -16 10 -3 6 1 10 9 10 9 0 16 -4 16
-10z m323 -27 c-7 -2 -19 -2 -25 0 -7 3 -2 5 12 5 14 0 19 -2 13 -5z m87 -3
c0 -5 -2 -10 -4 -10 -3 0 -8 5 -11 10 -3 6 -1 10 4 10 6 0 11 -4 11 -10z m8
-36 c25 -7 30 -24 7 -24 -8 0 -15 4 -15 9 0 5 -8 12 -17 14 -10 3 -13 5 -8 6
6 0 20 -2 33 -5z m-95 -31 c-7 -2 -19 -2 -25 0 -7 3 -2 5 12 5 14 0 19 -2 13
-5z m14 -233 c9 0 25 -69 18 -78 -2 -2 -15 9 -31 23 -23 22 -26 28 -14 36 10
6 11 12 5 17 -5 4 -19 18 -30 32 -18 23 -17 23 11 -2 16 -16 35 -28 41 -28z
m336 -160 c92 -23 118 -42 41 -30 -47 7 -48 6 -80 -48 0 -1 -31 7 -67 19 -45
15 -64 26 -60 36 3 7 1 13 -3 13 -5 0 -20 9 -34 20 l-25 20 70 -4 c39 -2 109
-14 158 -26z m332 -99 c3 -5 1 -12 -5 -16 -5 -3 -10 1 -10 9 0 18 6 21 15 7z
m-220 -21 c25 -11 -1 -11 -35 0 -20 6 -21 8 -5 8 11 0 29 -3 40 -8z m190 -41
c28 -6 61 -16 75 -24 24 -14 24 -14 3 -15 -12 0 -25 -5 -28 -10 -7 -12 -115
-2 -129 11 -6 5 -23 9 -38 9 -15 0 -28 4 -28 9 0 5 28 7 63 5 l62 -4 -48 14
c-92 27 -58 29 68 5z m-1120 -180 c-4 -5 -16 -9 -28 -9 -20 0 -20 0 -2 14 21
15 40 12 30 -5z m-734 -62 c-9 -32 -23 -63 -29 -69 -7 -7 -12 -24 -12 -39 0
-15 -4 -31 -10 -34 -5 -3 -10 -15 -10 -26 0 -10 -4 -19 -9 -19 -15 0 -22 -32
-11 -46 9 -9 6 -15 -10 -24 -12 -6 -19 -18 -16 -25 7 -19 -34 -31 -45 -14 -13
21 -31 -9 -18 -32 7 -14 5 -16 -11 -12 -15 4 -20 0 -20 -16 0 -11 -4 -21 -10
-21 -5 0 -10 4 -10 10 0 5 -16 35 -36 66 l-36 56 43 45 c59 60 79 70 95 48 11
-15 17 -12 61 32 36 36 51 61 61 101 12 46 38 89 48 80 2 -2 -5 -30 -15 -61z
m82 28 c-3 -9 -8 -14 -10 -11 -3 3 -2 9 2 15 9 16 15 13 8 -4z m2518 -208
c-13 -13 -26 -3 -16 12 3 6 11 8 17 5 6 -4 6 -10 -1 -17z m87 -122 c0 -14 -4
-25 -9 -25 -5 0 -9 7 -9 16 0 8 -4 12 -10 9 -5 -3 -10 -2 -10 4 0 5 8 12 18
14 9 3 18 5 18 6 1 0 2 -10 2 -24z m-3852 -507 c82 -83 227 -169 397 -233 66
-25 70 -38 5 -16 -165 57 -321 146 -408 233 -50 51 -110 136 -110 158 0 8 16
-10 35 -40 20 -30 56 -76 81 -102z m4254 58 c0 -2 -8 -10 -17 -17 -16 -13 -17
-12 -4 4 13 16 21 21 21 13z m-40 -40 c0 -2 -8 -10 -17 -17 -16 -13 -17 -12
-4 4 13 16 21 21 21 13z m-2903 -198 c-3 -8 -6 -5 -6 6 -1 11 2 17 5 13 3 -3
4 -12 1 -19z m-1339 -89 c30 -27 69 -61 86 -74 61 -46 403 -212 516 -250 184
-61 172 -54 126 -70 -46 -16 -68 -13 -246 40 -69 20 -142 41 -164 46 -127 31
-348 191 -411 299 -8 13 -7 13 8 1 12 -9 17 -10 17 -2 0 7 5 9 12 5 9 -6 9 -9
0 -12 -7 -2 -10 -8 -6 -13 3 -5 12 -2 21 6 13 14 14 18 1 33 -50 58 -29 54 40
-9z m242 -35 c0 -8 -4 -14 -10 -14 -5 0 -10 9 -10 21 0 11 5 17 10 14 6 -3 10
-13 10 -21z m4376 -51 c-11 -11 -19 6 -11 24 8 17 8 17 12 0 3 -10 2 -21 -1
-24z m-3453 -70 c-7 -2 -21 -2 -30 0 -10 3 -4 5 12 5 17 0 24 -2 18 -5z m2217
-233 c-34 -11 -60 -11 -35 0 11 5 29 8 40 8 16 0 15 -2 -5 -8z m-61 -14 c-8
-8 -265 -56 -324 -61 l-60 -4 75 15 c226 46 321 62 309 50z m176 -37 c-54 -24
-426 -100 -560 -114 -33 -3 -73 -9 -90 -12 -21 -3 -27 -2 -20 5 6 6 44 16 85
22 106 16 389 68 490 89 96 21 125 24 95 10z m-568 -35 c-3 -3 -12 -4 -19 -1
-8 3 -5 6 6 6 11 1 17 -2 13 -5z m-4130 -500 c14 -14 23 -28 20 -31 -6 -5 -20
7 -46 40 -20 26 -4 20 26 -9z m-34 -41 c4 -3 -2 -13 -14 -21 -23 -16 -34 -10
-26 13 7 15 28 20 40 8z m1127 -23 c0 -5 -5 -10 -11 -10 -5 0 -7 5 -4 10 3 6
8 10 11 10 2 0 4 -4 4 -10z m-1085 -10 c-3 -5 -10 -10 -16 -10 -5 0 -9 5 -9
10 0 6 7 10 16 10 8 0 12 -4 9 -10z m-125 -30 c0 -5 -4 -10 -10 -10 -5 0 -10
5 -10 10 0 6 5 10 10 10 6 0 10 -4 10 -10z m56 -27 c-7 -7 -26 7 -26 19 0 6 6
6 15 -2 9 -7 13 -15 11 -17z m59 17 c3 -5 -1 -10 -9 -10 -8 0 -18 5 -21 10 -3
6 1 10 9 10 8 0 18 -4 21 -10z m45 -24 c-8 -8 -13 -7 -20 4 -12 20 -1 33 16
19 11 -9 12 -15 4 -23z m-100 -36 c0 -5 -4 -10 -10 -10 -5 0 -10 5 -10 10 0 6
5 10 10 10 6 0 10 -4 10 -10z m155 -13 c0 -6 15 -15 33 -19 31 -8 45 -28 20
-28 -18 0 -96 29 -80 30 6 0 12 10 12 22 0 12 3 18 8 14 4 -4 7 -13 7 -19z
m879 -113 c3 -8 2 -12 -4 -9 -6 3 -10 10 -10 16 0 14 7 11 14 -7z m-597 -20
c-3 -3 -12 -4 -19 -1 -8 3 -5 6 6 6 11 1 17 -2 13 -5z m47 -13 c3 -5 -3 -11
-14 -14 -13 -3 -20 0 -20 9 0 15 26 19 34 5z m38 -28 c-1 -4 6 -16 15 -25 13
-15 13 -16 -6 -11 -14 4 -21 13 -21 31 0 14 3 23 6 20 3 -4 6 -10 6 -15z
m-492 -3 c0 -5 -4 -10 -9 -10 -6 0 -13 5 -16 10 -3 6 1 10 9 10 9 0 16 -4 16
-10z m675 0 c3 -5 1 -10 -4 -10 -6 0 -11 5 -11 10 0 6 2 10 4 10 3 0 8 -4 11
-10z m295 -10 c0 -5 -4 -10 -9 -10 -6 0 -13 5 -16 10 -3 6 1 10 9 10 9 0 16
-4 16 -10z m-136 -35 c-4 -8 -11 -12 -16 -9 -6 4 -5 10 3 15 19 12 19 11 13
-6z m41 -25 c-3 -5 -10 -10 -16 -10 -5 0 -9 5 -9 10 0 6 7 10 16 10 8 0 12 -4
9 -10z m54 -6 c6 4 11 0 11 -8 0 -9 -4 -16 -8 -16 -12 0 -32 22 -32 35 0 5 4
4 9 -4 5 -7 14 -10 20 -7z m-249 -4 c0 -5 -4 -10 -10 -10 -5 0 -10 5 -10 10 0
6 5 10 10 10 6 0 10 -4 10 -10z m109 -36 c2 -2 -16 -4 -40 -4 -31 0 -40 3 -29
10 13 8 57 4 69 -6z m-199 -94 c0 -5 -6 -10 -14 -10 -8 0 -18 5 -21 10 -3 6 3
10 14 10 12 0 21 -4 21 -10z"/>
<path d="M3968 3223 c7 -3 16 -2 19 1 4 3 -2 6 -13 5 -11 0 -14 -3 -6 -6z"/>
<path d="M3950 4170 c0 -5 5 -10 10 -10 6 0 10 5 10 10 0 6 -4 10 -10 10 -5 0
-10 -4 -10 -10z"/>
<path d="M3788 4163 c6 -2 18 -2 25 0 6 3 1 5 -13 5 -14 0 -19 -2 -12 -5z"/>
<path d="M3730 4144 l-25 -15 25 7 c28 7 35 12 29 18 -2 2 -15 -2 -29 -10z"/>
<path d="M3905 4103 c-3 -10 -1 -19 4 -21 6 -2 11 -12 11 -23 0 -25 30 -25 37
1 3 11 13 20 23 20 13 0 17 6 13 20 -7 27 -77 29 -88 3z"/>
<path d="M3967 4033 c-14 -13 -6 -33 13 -33 22 0 23 1 14 24 -7 17 -16 20 -27
9z"/>
<path d="M3323 3945 l-21 -25 26 0 c32 0 46 9 55 33 10 27 -34 21 -60 -8z"/>
<path d="M3540 3671 c23 -4 34 -12 32 -21 -3 -11 0 -11 12 0 27 22 18 30 -31
29 -46 -2 -46 -2 -13 -8z"/>
<path d="M3600 3630 c0 -5 5 -10 11 -10 5 0 7 5 4 10 -3 6 -8 10 -11 10 -2 0
-4 -4 -4 -10z"/>
<path d="M1850 3480 c-8 -5 -11 -12 -7 -16 4 -4 13 -2 19 4 15 15 7 24 -12 12z"/>
<path d="M4174 3479 c-8 -14 11 -33 25 -25 11 7 4 36 -9 36 -5 0 -12 -5 -16
-11z"/>
<path d="M4160 3400 c0 -5 7 -10 16 -10 8 0 12 5 9 10 -3 6 -10 10 -16 10 -5
0 -9 -4 -9 -10z"/>
<path d="M2670 3320 c0 -5 5 -10 10 -10 6 0 10 5 10 10 0 6 -4 10 -10 10 -5 0
-10 -4 -10 -10z"/>
<path d="M1940 3230 c0 -5 5 -10 10 -10 6 0 10 5 10 10 0 6 -4 10 -10 10 -5 0
-10 -4 -10 -10z"/>
<path d="M2031 3176 c-13 -23 -13 -28 1 -42 19 -19 27 -3 19 40 l-6 29 -14
-27z"/>
<path d="M2740 3040 c0 -5 5 -10 10 -10 6 0 10 5 10 10 0 6 -4 10 -10 10 -5 0
-10 -4 -10 -10z"/>
<path d="M2817 3033 c-12 -11 -8 -23 7 -23 7 0 19 7 26 15 10 12 9 15 -7 15
-11 0 -23 -3 -26 -7z"/>
<path d="M2625 3020 c3 -5 10 -10 16 -10 5 0 9 5 9 10 0 6 -7 10 -16 10 -8 0
-12 -4 -9 -10z"/>
<path d="M6060 2300 c-12 -7 -12 -12 -3 -21 15 -15 26 -7 21 15 -2 11 -7 13
-18 6z"/>
<path d="M1181 1974 c0 -11 3 -14 6 -6 3 7 2 16 -1 19 -3 4 -6 -2 -5 -13z"/>
<path d="M5791 1813 c0 -12 -5 -25 -11 -28 -5 -3 -10 -11 -10 -18 0 -6 7 -1
16 11 8 12 13 30 11 40 -4 13 -5 12 -6 -5z"/>
<path d="M5819 1820 c-3 -8 0 -26 8 -40 13 -26 16 -12 4 30 -5 18 -8 21 -12
10z"/>
<path d="M225 1170 c3 -5 8 -10 11 -10 2 0 4 5 4 10 0 6 -5 10 -11 10 -5 0 -7
-4 -4 -10z"/>
<path d="M728 1173 c7 -3 16 -2 19 1 4 3 -2 6 -13 5 -11 0 -14 -3 -6 -6z"/>
<path d="M400 1126 c0 -2 7 -7 16 -10 8 -3 12 -2 9 4 -6 10 -25 14 -25 6z"/>
<path d="M1011 1094 c0 -11 3 -14 6 -6 3 7 2 16 -1 19 -3 4 -6 -2 -5 -13z"/>
<path d="M160 1060 c0 -5 7 -7 15 -4 8 4 15 8 15 10 0 2 -7 4 -15 4 -8 0 -15
-4 -15 -10z"/>
<path d="M200 1050 c0 -5 5 -10 11 -10 5 0 7 5 4 10 -3 6 -8 10 -11 10 -2 0
-4 -4 -4 -10z"/>
<path d="M680 1046 c0 -2 7 -7 16 -10 8 -3 12 -2 9 4 -6 10 -25 14 -25 6z"/>
<path d="M125 1010 c3 -5 8 -10 11 -10 2 0 4 5 4 10 0 6 -5 10 -11 10 -5 0 -7
-4 -4 -10z"/>
<path d="M60 956 c0 -2 7 -7 16 -10 8 -3 12 -2 9 4 -6 10 -25 14 -25 6z"/>
<path d="M1165 940 c3 -5 8 -10 11 -10 2 0 4 5 4 10 0 6 -5 10 -11 10 -5 0 -7
-4 -4 -10z"/>
<path d="M67 913 c-11 -10 3 -23 26 -23 18 0 19 -2 7 -10 -8 -5 -10 -10 -5
-10 6 0 17 5 25 10 12 7 12 12 2 22 -6 6 -12 9 -12 5 0 -4 -8 -3 -19 2 -10 6
-21 8 -24 4z"/>
<path d="M157 879 c7 -7 15 -10 18 -7 3 3 -2 9 -12 12 -14 6 -15 5 -6 -5z"/>
<path d="M190 860 c0 -5 5 -10 10 -10 6 0 10 5 10 10 0 6 -4 10 -10 10 -5 0
-10 -4 -10 -10z"/>
<path d="M235 849 c-4 -6 -4 -13 -1 -16 3 -4 6 -1 6 5 0 6 8 13 18 15 15 4 15
5 0 6 -9 0 -20 -4 -23 -10z"/>
<path d="M355 820 c3 -5 8 -10 11 -10 2 0 4 5 4 10 0 6 -5 10 -11 10 -5 0 -7
-4 -4 -10z"/>
<path d="M466 821 c-3 -5 1 -11 9 -14 9 -4 12 -1 8 9 -6 16 -10 17 -17 5z"/>
<path d="M1024 819 c-7 -12 13 -29 35 -29 11 0 10 5 -4 20 -21 23 -22 23 -31
9z"/>
<path d="M274 812 c3 -6 0 -13 -6 -16 -7 -3 -2 -3 11 0 19 5 23 3 18 -9 -4
-11 -2 -14 9 -10 22 8 12 38 -15 41 -14 2 -21 0 -17 -6z"/>
<path d="M980 810 c0 -5 7 -10 16 -10 8 0 12 5 9 10 -3 6 -10 10 -16 10 -5 0
-9 -4 -9 -10z"/>
<path d="M398 798 c5 -5 16 -8 23 -6 8 3 3 7 -10 11 -17 4 -21 3 -13 -5z"/>
<path d="M818 793 c7 -3 16 -2 19 1 4 3 -2 6 -13 5 -11 0 -14 -3 -6 -6z"/>
<path d="M1097 787 c-3 -9 2 -13 16 -11 12 1 26 3 31 3 15 1 -3 15 -23 18 -11
1 -21 -3 -24 -10z"/>
<path d="M340 770 c0 -5 -7 -10 -16 -10 -9 0 -14 -5 -12 -12 7 -20 68 -49 89
-43 28 9 23 26 -5 19 -16 -4 -25 -1 -30 11 -5 13 -2 15 14 10 24 -8 28 20 4
29 -24 9 -44 7 -44 -4z"/>
<path d="M960 765 c14 -16 40 -20 40 -6 0 9 -24 21 -42 21 -6 0 -6 -6 2 -15z"/>
<path d="M1120 756 c0 -2 7 -7 16 -10 8 -3 12 -2 9 4 -6 10 -25 14 -25 6z"/>
<path d="M1146 721 c-4 -5 3 -7 14 -4 23 6 26 13 6 13 -8 0 -17 -4 -20 -9z"/>
<path d="M500 710 c0 -5 5 -10 10 -10 6 0 10 5 10 10 0 6 -4 10 -10 10 -5 0
-10 -4 -10 -10z"/>
<path d="M648 713 c6 -2 18 -2 25 0 6 3 1 5 -13 5 -14 0 -19 -2 -12 -5z"/>
<path d="M430 690 c0 -5 5 -10 10 -10 6 0 10 5 10 10 0 6 -4 10 -10 10 -5 0
-10 -4 -10 -10z"/>
<path d="M700 681 c27 -22 40 -26 40 -12 0 5 -8 11 -17 15 -10 3 -25 9 -33 12
-8 3 -4 -4 10 -15z"/>
<path d="M1010 691 c0 -5 7 -11 15 -15 8 -3 15 -1 15 3 0 5 -7 11 -15 15 -8 3
-15 1 -15 -3z"/>
<path d="M471 677 c-6 -8 -8 -16 -5 -20 10 -9 34 4 34 19 0 18 -14 18 -29 1z"/>
<path d="M631 674 c0 -11 3 -14 6 -6 3 7 2 16 -1 19 -3 4 -6 -2 -5 -13z"/>
<path d="M800 680 c0 -5 5 -10 11 -10 5 0 7 5 4 10 -3 6 -8 10 -11 10 -2 0 -4
-4 -4 -10z"/>
<path d="M846 681 c-4 -5 4 -15 16 -22 22 -12 22 -11 8 7 -8 10 -15 20 -16 22
-1 2 -5 -1 -8 -7z"/>
<path d="M942 667 c10 -8 15 -17 11 -20 -13 -13 14 -7 33 8 14 11 15 14 4 15
-8 0 -26 3 -40 6 -23 5 -24 4 -8 -9z"/>
<path d="M654 656 c-9 -10 -6 -17 17 -30 16 -9 29 -13 29 -8 0 6 -7 12 -15 16
-8 3 -12 12 -9 21 7 18 -7 19 -22 1z"/>
<path d="M510 650 c0 -5 -7 -10 -17 -10 -9 0 -14 -2 -11 -5 8 -9 58 6 58 16 0
5 -7 9 -15 9 -8 0 -15 -4 -15 -10z"/>
<path d="M605 650 c-3 -5 -1 -10 4 -10 6 0 11 5 11 10 0 6 -2 10 -4 10 -3 0
-8 -4 -11 -10z"/>
<path d="M900 646 c0 -2 7 -7 16 -10 8 -3 12 -2 9 4 -6 10 -25 14 -25 6z"/>
<path d="M517 613 c-4 -3 4 -16 17 -28 13 -12 25 -28 28 -35 3 -9 11 -11 22
-7 17 7 15 11 -15 42 -35 36 -41 39 -52 28z"/>
<path d="M650 590 c0 -5 5 -10 10 -10 6 0 10 5 10 10 0 6 -4 10 -10 10 -5 0
-10 -4 -10 -10z"/>
<path d="M825 580 c3 -5 10 -10 16 -10 5 0 9 5 9 10 0 6 -7 10 -16 10 -8 0
-12 -4 -9 -10z"/>
<path d="M678 563 c7 -3 16 -2 19 1 4 3 -2 6 -13 5 -11 0 -14 -3 -6 -6z"/>
<path d="M865 560 c3 -5 16 -10 28 -9 21 0 21 1 2 9 -28 12 -37 12 -30 0z"/>
<path d="M401 534 c0 -11 3 -14 6 -6 3 7 2 16 -1 19 -3 4 -6 -2 -5 -13z"/>
<path d="M800 539 c0 -5 5 -7 10 -4 6 3 10 8 10 11 0 2 -4 4 -10 4 -5 0 -10
-5 -10 -11z"/>
<path d="M926 542 c-3 -6 -1 -14 5 -17 14 -9 20 -2 10 14 -6 8 -11 9 -15 3z"/>
<path d="M693 515 c24 -22 57 -33 57 -21 0 7 -66 46 -76 46 -5 0 4 -12 19 -25z"/>
<path d="M880 521 c0 -12 21 -28 50 -35 24 -7 24 -6 -5 18 -31 27 -45 32 -45
17z"/>
<path d="M800 500 c0 -5 5 -10 11 -10 5 0 7 5 4 10 -3 6 -8 10 -11 10 -2 0 -4
-4 -4 -10z"/>
<path d="M914 435 c21 -16 32 -13 21 4 -3 6 -14 11 -23 11 -15 -1 -15 -2 2
-15z"/>
</g>
</svg>
