<?xml version="1.0" standalone="no"?>
<!DOCTYPE svg PUBLIC "-//W3C//DTD SVG 20010904//EN"
 "http://www.w3.org/TR/2001/REC-SVG-20010904/DTD/svg10.dtd">
<svg version="1.0" xmlns="http://www.w3.org/2000/svg"
 width="960.000000pt" height="640.000000pt" viewBox="0 0 960.000000 640.000000"
 preserveAspectRatio="xMidYMid meet">

<g transform="translate(0.000000,640.000000) scale(0.100000,-0.100000)"
fill="#000000" stroke="none">
<path d="M7710 6360 c0 -29 -4 -40 -15 -40 -24 0 -20 -85 5 -117 22 -29 29
-123 9 -123 -8 0 -10 -17 -7 -52 6 -61 1 -88 -13 -67 -5 9 -9 -16 -9 -63 0
-42 -4 -79 -9 -83 -5 -3 -19 -36 -31 -73 -11 -37 -25 -75 -31 -84 -5 -10 -9
-27 -9 -38 0 -11 -7 -20 -15 -20 -8 0 -18 -17 -25 -42 -6 -24 -17 -58 -25 -76
-16 -34 -21 -122 -7 -122 4 0 18 -18 32 -40 15 -24 30 -38 38 -35 7 3 11 1 7
-4 -3 -5 13 -24 35 -41 36 -28 40 -36 40 -76 0 -32 -4 -44 -15 -44 -11 0 -15
-11 -15 -40 0 -29 4 -40 15 -40 12 0 15 -13 15 -59 0 -50 3 -61 23 -74 27 -18
18 -30 -23 -29 -24 0 -31 -4 -36 -24 -3 -13 -4 -33 -1 -44 3 -13 -3 -26 -19
-39 -17 -13 -24 -29 -24 -53 0 -22 -7 -40 -22 -53 l-23 -20 23 -3 c12 -2 22
-6 22 -10 -1 -17 -88 -71 -120 -74 -25 -2 -36 -8 -38 -22 -2 -10 -13 -28 -23
-39 -16 -18 -19 -37 -19 -134 0 -62 4 -121 9 -131 5 -9 15 -31 23 -48 16 -37
77 -93 79 -72 1 7 4 2 8 -12 9 -30 2 -62 -10 -54 -5 3 -41 2 -79 -2 -59 -6
-70 -9 -70 -25 0 -17 -11 -24 -32 -20 -5 0 -8 -5 -8 -13 0 -8 -13 -28 -30 -46
-21 -23 -30 -42 -30 -66 0 -19 5 -34 10 -34 6 0 10 -18 10 -40 0 -30 4 -40 16
-40 15 0 15 -2 0 -25 -20 -31 -21 -55 -1 -55 11 0 15 -11 15 -39 0 -37 -2 -40
-29 -39 -17 1 -37 -8 -51 -22 -16 -16 -24 -19 -30 -10 -5 9 -12 5 -24 -11 -22
-32 -21 -52 3 -44 17 5 19 2 14 -35 -5 -36 -3 -40 16 -40 18 0 21 -6 21 -41 0
-31 -3 -40 -14 -36 -10 4 -7 -14 11 -66 22 -63 25 -84 21 -167 -8 -153 -59
-255 -193 -385 -62 -61 -225 -185 -225 -171 0 2 37 32 83 64 92 67 184 157
227 221 47 70 84 178 83 246 -1 111 -69 248 -177 355 -56 55 -67 73 -76 116
-11 52 -38 85 -107 133 -31 21 -32 25 -30 80 1 46 -2 64 -17 79 -24 28 -93 37
-156 22 -33 -8 -55 -9 -63 -2 -13 10 -59 24 -95 28 -13 2 -29 7 -35 12 -7 6
-34 13 -62 16 -27 4 -68 12 -89 17 -22 6 -72 12 -113 14 -51 2 -81 8 -100 21
-14 11 -32 22 -39 27 -8 4 -22 12 -31 17 -10 6 -25 13 -33 16 -9 3 -26 21 -39
40 -13 19 -27 34 -32 34 -5 0 -9 6 -9 14 0 12 -94 66 -114 66 -4 0 0 -10 9
-22 8 -13 23 -23 33 -23 13 0 18 -10 20 -42 2 -33 0 -43 -12 -43 -8 0 -18 5
-21 10 -3 6 -13 10 -22 10 -8 0 -29 11 -45 25 -24 20 -33 23 -44 14 -11 -9
-20 -5 -43 20 -32 34 -43 38 -59 18 -9 -11 -29 -10 -109 6 -78 15 -104 17
-129 8 -17 -6 -54 -11 -83 -11 -44 0 -54 3 -58 20 -3 11 -13 20 -22 20 -10 0
-26 6 -36 14 -14 10 -26 11 -43 5 -13 -5 -50 -9 -82 -9 -50 0 -61 3 -71 21 -9
17 -17 20 -45 16 -27 -5 -36 -2 -44 14 -6 10 -19 19 -30 19 -10 0 -22 5 -26
11 -4 7 -9 8 -13 1 -3 -6 -19 -14 -34 -18 -26 -6 -28 -4 -25 17 3 27 5 27
-102 11 -36 -6 -73 -13 -84 -17 -10 -5 -21 -3 -25 4 -4 6 -38 13 -77 16 -162
11 -220 18 -239 28 -34 18 -98 24 -298 32 -65 2 -152 9 -194 15 -75 12 -103 7
-70 -11 9 -6 17 -18 17 -27 0 -26 62 -108 145 -193 41 -41 75 -79 75 -82 0 -4
-11 -7 -24 -7 -13 0 -26 -7 -29 -14 -3 -8 -22 -18 -42 -22 -52 -9 -52 -22 1
-16 45 5 46 5 42 -24 -2 -23 -9 -30 -30 -32 -16 -2 -28 -9 -28 -18 0 -27 -44
-38 -78 -20 -17 9 -42 16 -55 16 -22 0 -72 30 -88 53 -9 12 -58 -3 -69 -22 -9
-15 -9 -15 -10 1 0 26 60 77 105 88 22 6 55 17 73 25 18 8 48 15 67 15 22 0
35 5 35 13 0 17 -78 59 -93 50 -21 -13 -97 -15 -97 -3 0 16 26 40 44 40 42 0
27 41 -29 79 -42 28 -53 31 -85 18 -8 -3 -35 -11 -60 -18 -25 -6 -62 -20 -84
-31 -21 -11 -67 -24 -101 -29 -56 -8 -325 -106 -398 -146 -16 -8 -32 -11 -37
-7 -4 5 -19 41 -33 81 -27 74 -93 212 -144 299 -36 60 -126 302 -118 315 4 5
-12 35 -34 67 -22 31 -45 72 -52 90 -12 36 -21 39 -39 17 -7 -8 -20 -15 -28
-15 -13 0 -13 2 2 13 17 13 16 15 -17 36 -41 25 -121 38 -114 18 2 -7 -2 -25
-10 -40 -8 -16 -12 -35 -9 -42 3 -9 0 -12 -8 -9 -17 7 -25 -22 -33 -123 -5
-74 -4 -83 11 -83 13 0 15 -4 7 -18 -5 -9 -19 -47 -30 -82 -12 -36 -26 -73
-32 -84 -6 -10 -12 -35 -14 -55 -4 -45 20 -152 36 -162 10 -6 10 -13 -1 -36
-7 -15 -14 -31 -14 -35 -1 -3 -4 -9 -8 -13 -4 -4 -4 -20 -1 -36 5 -24 3 -28
-11 -23 -24 9 -35 -33 -27 -104 7 -55 5 -64 -16 -91 -27 -34 -44 -115 -37
-179 4 -49 -20 -73 -44 -44 -12 15 -13 13 -8 -16 7 -40 -13 -172 -26 -172 -5
0 -8 6 -7 13 3 26 -2 37 -16 37 -8 0 -15 -7 -15 -15 0 -8 -5 -15 -10 -15 -15
0 -38 -59 -33 -81 3 -11 10 -19 16 -19 7 0 6 -5 -2 -12 -10 -11 -18 -6 -39 20
-24 29 -33 33 -67 30 -33 -3 -40 -7 -47 -33 -5 -21 -4 -32 6 -37 21 -12 41
-159 27 -199 -10 -28 -8 -36 8 -53 12 -14 21 -43 26 -86 22 -218 183 -389 555
-592 69 -37 120 -68 115 -68 -23 0 -331 162 -388 205 -125 93 -221 200 -293
331 l-22 39 -1 -87 c-1 -102 -5 -114 -41 -149 -26 -24 -27 -30 -23 -88 2 -35
16 -102 32 -149 28 -86 29 -90 34 -405 5 -253 3 -336 -9 -409 -8 -50 -14 -105
-12 -122 4 -60 -2 -84 -27 -107 -29 -28 -31 -43 -9 -84 10 -19 11 -31 5 -33
-17 -6 -13 -52 4 -58 18 -7 20 -44 3 -45 -7 -1 -24 -2 -38 -2 -21 -2 -25 -7
-23 -30 2 -28 -21 -39 -30 -14 -2 6 -8 9 -12 4 -5 -4 6 -21 23 -38 18 -17 32
-35 32 -39 0 -5 7 -16 16 -24 14 -15 14 -16 0 -16 -9 0 -16 4 -16 9 0 5 -16
15 -35 22 -19 7 -35 17 -35 21 0 4 -6 8 -14 8 -13 0 -13 -4 -1 -26 19 -37 51
-64 77 -65 17 -1 18 -3 6 -6 -10 -2 -18 -9 -18 -15 0 -5 7 -8 15 -4 8 3 15 1
15 -4 0 -6 -11 -10 -25 -10 -16 0 -25 6 -25 15 0 8 -4 15 -9 15 -5 0 -7 -9 -4
-20 3 -11 14 -20 24 -20 11 0 19 -7 19 -15 0 -8 -7 -15 -15 -15 -8 0 -15 5
-15 10 0 6 -4 10 -10 10 -5 0 -10 -7 -10 -16 0 -8 -5 -12 -11 -9 -5 4 -8 12
-6 18 6 18 -45 59 -55 44 -11 -18 -43 5 -43 31 0 11 -10 29 -22 40 -13 11 -23
27 -23 35 0 9 -9 21 -19 26 -16 9 -19 7 -17 -17 0 -15 11 -37 24 -48 14 -13
20 -28 16 -38 -4 -9 -1 -16 6 -16 7 0 25 -13 40 -30 15 -16 31 -30 34 -30 4 0
22 -15 41 -34 18 -19 39 -36 47 -39 10 -4 10 -8 -2 -17 -11 -9 -12 -13 -2 -17
6 -2 12 -9 12 -14 0 -6 -14 -2 -30 8 -17 9 -30 21 -30 24 0 4 -9 11 -20 14
-11 3 -20 13 -20 20 0 20 -44 65 -64 65 -10 0 -14 5 -11 10 3 6 2 10 -3 10
-28 0 -13 -22 64 -96 48 -46 80 -85 74 -89 -5 -3 -10 -2 -10 3 0 6 -8 13 -17
17 -15 5 -16 4 -5 -6 14 -15 16 -29 3 -29 -5 0 -16 15 -24 32 -19 39 -129 148
-149 148 -20 0 -62 46 -53 59 3 7 -2 11 -14 11 -12 0 -21 -7 -21 -15 0 -29
-36 -16 -48 18 -20 52 -79 106 -102 92 -6 -3 -7 1 -4 10 4 9 -6 31 -22 52 -15
20 -30 31 -32 25 -5 -17 -17 -15 -58 13 -20 14 -39 23 -41 21 -12 -12 13 -58
43 -78 19 -13 34 -29 34 -36 0 -7 4 -10 10 -7 14 8 56 -22 108 -77 25 -27 51
-48 58 -48 8 0 14 -7 14 -16 0 -9 6 -14 13 -11 18 7 77 -19 77 -34 0 -6 -8 -9
-20 -6 -11 3 -20 1 -20 -4 0 -5 6 -10 13 -10 6 -1 19 -3 27 -4 8 -1 21 -3 28
-4 6 0 12 -6 12 -12 0 -6 -9 -8 -22 -4 -20 5 -21 4 -6 -5 12 -7 24 -8 37 -1
16 9 18 7 17 -21 -1 -37 28 -62 45 -38 9 12 10 12 5 -3 -8 -24 22 -56 34 -38
6 10 12 9 29 -5 25 -22 27 -49 5 -58 -30 -11 -39 -5 -14 10 15 9 18 13 6 9
-11 -3 -27 2 -38 11 -10 10 -21 14 -26 10 -4 -4 2 -14 12 -22 19 -14 19 -14
-1 -14 -31 0 -49 26 -32 46 12 15 11 16 -9 10 -12 -4 -22 -3 -22 2 0 6 5 12
11 14 6 2 -2 10 -18 18 -15 8 -32 21 -36 28 -15 23 -91 66 -95 53 -6 -18 -30
-13 -37 8 -3 12 -12 18 -20 15 -9 -4 -12 0 -9 13 3 12 -10 28 -41 52 -25 19
-50 42 -56 53 -5 10 -17 18 -27 18 -16 0 -92 76 -92 93 0 4 -9 7 -20 7 -13 0
-24 10 -30 24 -5 14 -19 30 -31 36 -17 10 -19 14 -8 21 10 6 4 9 -18 9 -23 0
-33 5 -33 15 0 9 -8 18 -17 21 -47 15 -112 51 -117 64 -3 8 -9 21 -12 28 -3 7
1 12 10 12 21 0 20 19 -1 42 -9 11 -11 18 -5 18 15 0 15 25 2 50 -15 27 -40
14 -40 -21 0 -16 5 -29 10 -29 11 0 14 -33 3 -43 -3 -4 -12 2 -20 13 -8 11
-23 20 -34 20 -21 0 -25 -10 -8 -27 6 -6 16 -22 23 -35 6 -12 25 -30 43 -38
18 -9 33 -25 36 -38 5 -28 -17 -29 -40 -2 -10 11 -21 20 -26 20 -5 0 -4 -7 3
-15 19 -23 -16 -20 -47 5 -14 11 -21 20 -14 20 6 0 11 6 11 14 0 9 -12 16 -32
18 -28 2 -33 7 -33 28 0 18 -6 26 -23 28 -12 2 -22 -1 -22 -7 0 -17 -31 -13
-52 6 -10 9 -18 11 -18 5 0 -17 32 -52 47 -52 18 0 36 -37 23 -45 -13 -8 -76
20 -87 39 -4 8 -24 24 -43 37 -20 13 -49 37 -65 52 -17 15 -32 22 -34 16 -2
-6 2 -15 9 -19 10 -6 9 -9 0 -15 -8 -5 -20 2 -32 18 -11 15 -26 27 -33 27 -20
0 -29 20 -16 33 6 6 11 20 11 30 0 13 5 17 15 13 23 -8 18 24 -7 45 -28 25
-31 24 -26 -11 3 -20 0 -30 -9 -30 -7 0 -13 5 -13 10 0 6 -9 10 -20 10 -11 0
-20 -4 -20 -10 0 -18 -29 -11 -76 19 -28 17 -42 31 -35 35 15 10 -28 65 -51
65 -14 1 -18 -7 -18 -39 0 -22 5 -40 11 -40 5 0 8 -4 4 -10 -3 -5 8 -16 25
-25 16 -8 30 -20 30 -25 0 -6 3 -9 8 -9 19 3 33 -2 27 -10 -3 -5 9 -21 27 -35
l32 -25 -27 -10 c-33 -13 -35 -20 -4 -14 17 4 26 -2 35 -22 7 -14 12 -31 12
-38 1 -14 65 -57 86 -57 8 0 19 -10 24 -22 5 -13 9 -17 9 -10 1 7 7 19 13 26
11 11 20 6 53 -28 28 -28 48 -40 63 -38 16 2 25 -4 31 -22 6 -14 19 -26 33
-28 l23 -3 -22 -20 c-28 -23 -29 -33 -5 -31 9 0 16 -5 15 -11 -2 -7 9 -19 25
-27 15 -8 47 -33 72 -55 25 -22 52 -41 60 -41 8 0 39 -23 69 -50 29 -28 57
-50 60 -50 4 0 32 -24 64 -53 61 -56 65 -59 117 -99 30 -22 38 -25 52 -14 10
7 14 17 10 22 -4 5 5 -2 21 -15 18 -17 24 -28 17 -35 -7 -7 -14 -6 -22 3 -11
10 -9 11 7 6 16 -6 17 -5 5 4 -9 6 -18 7 -24 1 -6 -6 7 -25 34 -50 24 -22 45
-40 48 -40 2 0 33 -27 69 -60 56 -53 95 -78 78 -51 -3 5 -1 13 5 16 8 5 8 11
1 19 -8 9 -7 13 4 13 8 0 12 -4 9 -9 -3 -4 1 -10 8 -13 7 -3 14 -16 14 -30 2
-26 -11 -34 -19 -12 -4 9 -6 9 -6 0 -1 -7 9 -17 20 -24 13 -7 19 -7 15 -1 -4
7 4 10 21 8 16 -2 28 -8 28 -14 0 -6 3 -14 8 -18 4 -4 7 -12 7 -18 0 -6 -9 0
-20 14 -10 14 -22 21 -26 17 -4 -4 4 -20 19 -35 23 -23 29 -25 38 -12 9 14 6
-11 -8 -62 -2 -10 0 -18 6 -18 6 0 22 -12 36 -27 14 -15 25 -24 25 -20 0 4 8
-1 19 -12 10 -10 27 -23 36 -28 10 -6 16 -16 13 -23 -3 -11 -29 6 -116 80 -28
23 -46 26 -39 6 3 -8 3 -17 0 -20 -8 -7 -53 24 -53 38 0 6 5 4 10 -4 8 -13 11
-13 26 2 15 15 14 17 -10 34 -21 13 -24 19 -14 26 9 7 8 8 -6 4 -11 -4 -27 0
-38 11 -13 12 -22 13 -29 6 -8 -8 -5 -13 9 -17 11 -4 27 -15 36 -25 15 -16 15
-19 1 -24 -9 -4 -15 -1 -15 8 0 15 -42 47 -75 58 -19 7 -19 6 -2 -7 9 -7 17
-18 17 -23 0 -11 -41 -26 -49 -18 -2 3 1 5 9 5 10 0 10 3 0 15 -7 8 -19 15
-26 15 -8 0 -14 5 -14 10 0 12 -39 29 -79 34 -14 2 -34 7 -45 11 -17 8 -17 9
5 21 l24 13 -22 1 c-13 0 -23 4 -23 9 0 5 -3 16 -6 24 -3 9 0 17 8 20 7 2 1 2
-14 0 -14 -2 -29 1 -33 6 -3 7 0 8 9 5 31 -12 15 6 -56 63 -40 32 -82 64 -92
73 -10 8 -26 23 -35 32 -8 10 -20 18 -25 18 -5 0 -18 8 -28 17 -18 16 -18 16
-12 -2 11 -29 -14 -9 -31 26 -15 28 -45 40 -45 18 0 -5 -5 -7 -11 -3 -8 4 -7
9 2 15 17 10 -8 39 -57 69 -28 16 -34 17 -34 4 0 -12 -4 -13 -23 -2 -19 10
-20 13 -4 16 29 6 16 28 -33 57 -10 5 -47 30 -82 54 -35 24 -69 44 -76 44 -8
0 -18 11 -23 25 -7 17 -13 21 -22 14 -17 -14 -47 -11 -47 5 0 7 -5 13 -12 13
-6 0 -4 8 6 19 16 17 16 19 -1 25 -10 4 -19 2 -21 -3 -6 -19 -22 -12 -22 9 0
12 -7 20 -17 20 -9 0 -13 3 -10 6 8 9 -75 73 -86 67 -5 -3 -6 -11 -3 -19 7
-18 -8 -18 -23 -1 -8 10 -7 17 1 25 19 19 -6 39 -27 22 -13 -11 -15 -47 -14
-251 l1 -239 32 -25 c17 -14 27 -25 22 -25 -6 0 -20 10 -33 22 l-23 21 0 -159
c0 -111 4 -164 12 -172 9 -9 9 -12 0 -12 -9 0 -12 -66 -12 -265 l0 -265 615 0
c569 0 618 1 642 17 26 17 27 17 20 0 -6 -15 2 -17 76 -17 l82 0 -30 25 c-39
31 -22 32 34 0 49 -29 61 -31 61 -11 0 7 -13 19 -30 26 -16 7 -30 16 -30 21 0
5 -6 9 -12 9 -21 1 -73 51 -61 58 7 4 -3 23 -24 47 -28 33 -36 37 -44 25 -8
-11 -12 -12 -16 -2 -2 6 -11 12 -19 12 -17 0 -19 17 -1 23 6 3 7 6 2 6 -6 1
-39 28 -75 61 -68 63 -83 72 -74 43 5 -14 4 -15 -4 -4 -6 8 -8 19 -6 25 2 6
-8 19 -23 29 -16 9 -48 35 -73 57 -25 23 -58 51 -74 63 -73 56 -80 64 -66 72
9 5 11 4 6 -3 -4 -8 3 -16 19 -22 25 -10 42 -23 114 -93 22 -20 47 -37 55 -37
9 0 16 -7 16 -15 0 -8 5 -15 10 -15 6 0 10 5 10 11 0 5 5 7 11 3 8 -5 8 -9 -1
-14 -7 -5 1 -14 24 -28 20 -12 36 -25 36 -30 0 -5 13 -15 28 -21 16 -7 43 -25
60 -40 21 -20 34 -25 41 -18 7 7 15 6 25 -2 7 -6 18 -10 23 -9 5 2 20 -8 34
-22 13 -14 32 -31 41 -39 25 -19 23 4 -2 29 -20 20 -15 25 14 14 9 -3 16 -11
16 -16 0 -11 46 -51 54 -46 3 2 13 -7 21 -19 9 -13 22 -23 30 -23 15 0 30 -18
22 -26 -8 -8 -98 38 -104 53 -7 19 -23 16 -23 -4 0 -13 -3 -14 -12 -5 -7 7
-16 12 -21 12 -5 0 11 -16 35 -36 23 -20 46 -41 49 -47 4 -5 14 -7 23 -4 11 5
18 -1 23 -21 8 -34 30 -51 67 -52 20 0 27 4 23 14 -3 8 1 17 10 20 9 4 17 -1
20 -14 5 -20 10 -20 2800 -20 2431 0 2794 2 2790 15 -4 9 -1 12 9 8 7 -3 14
-9 14 -14 0 -5 10 -9 23 -9 19 0 16 5 -23 40 l-45 41 45 -27 c24 -15 50 -33
57 -40 14 -14 283 -19 283 -5 0 4 -11 13 -25 19 -14 6 -25 17 -25 24 -1 20
-110 82 -122 70 -8 -8 -1 -15 23 -26 24 -10 28 -15 14 -15 -25 -1 -46 12 -48
30 -4 26 -17 36 -39 32 -14 -3 -36 6 -58 22 -26 20 -29 25 -12 20 13 -4 22 -2
22 4 0 6 7 11 15 11 8 0 15 5 15 10 0 7 -6 7 -19 0 -27 -14 -34 -13 -28 4 4
10 1 13 -9 9 -8 -3 -14 -1 -12 4 2 5 -14 24 -34 42 -30 26 -41 30 -56 22 -14
-7 -19 -7 -19 4 0 8 4 12 9 9 5 -3 15 0 23 6 11 9 15 9 15 1 0 -8 5 -9 19 -1
17 9 19 7 16 -13 -4 -17 0 -23 16 -24 12 -1 29 -10 38 -20 10 -10 45 -31 79
-48 34 -16 62 -35 62 -40 0 -6 18 -22 39 -35 21 -14 36 -29 33 -34 -3 -5 2 -7
11 -3 9 3 29 0 44 -8 15 -8 22 -15 14 -15 -11 0 -10 -5 4 -20 14 -16 20 -17
27 -8 11 19 10 0 -2 -23 -8 -15 -7 -19 4 -19 8 0 16 5 18 11 3 9 9 9 25 0 27
-14 108 -14 134 -1 13 7 19 7 19 0 0 -6 45 -10 123 -10 l122 0 -40 35 c-53 45
-35 45 21 0 l42 -35 741 0 741 0 0 3200 0 3200 -945 0 -945 0 0 -40z m-2705
-2181 c10 -15 -1 -23 -20 -15 -9 3 -13 10 -10 16 8 13 22 13 30 -1z m93 -7 c2
-7 -6 -12 -17 -12 -21 0 -27 11 -14 24 9 9 26 2 31 -12z m-1618 -32 c0 -5 -4
-10 -9 -10 -6 0 -13 5 -16 10 -3 6 1 10 9 10 9 0 16 -4 16 -10z m2435 -80 c-3
-5 -10 -10 -16 -10 -5 0 -9 5 -9 10 0 6 7 10 16 10 8 0 12 -4 9 -10z m-3608
-66 c-9 -9 -28 6 -21 18 4 6 10 6 17 -1 6 -6 8 -13 4 -17z m1277 -10 c10 -25
7 -34 -9 -28 -8 4 -15 15 -15 25 0 23 16 25 24 3z m-1284 -19 c0 -8 -4 -15
-10 -15 -5 0 -10 7 -10 15 0 8 5 15 10 15 6 0 10 -7 10 -15z m1200 -17 c0 -90
-43 -198 -78 -198 -6 0 -16 -18 -22 -40 -5 -22 -14 -57 -20 -79 -5 -21 -10
-50 -10 -64 0 -32 -35 -67 -67 -67 -16 0 -29 -10 -41 -31 -28 -51 -51 -78 -80
-92 -21 -10 -26 -19 -24 -39 3 -33 -11 -43 -31 -23 -14 13 -16 13 -19 -3 -2
-11 -11 -1 -27 31 l-23 47 20 43 c11 23 22 52 26 64 4 12 29 38 57 58 36 25
51 44 56 67 7 36 77 111 138 150 27 17 45 38 54 64 8 21 25 53 37 70 13 17 24
38 24 47 0 10 7 17 15 17 9 0 15 -9 15 -22z m1020 -508 c13 -11 30 -20 39 -20
21 0 154 -52 162 -63 4 -5 12 -6 18 -3 6 4 29 8 52 8 37 0 39 2 24 17 -8 10
-15 23 -15 30 0 18 41 9 54 -12 9 -15 7 -21 -9 -33 -11 -8 -28 -13 -37 -10
-23 5 -24 -12 -2 -21 14 -5 12 -8 -7 -19 -22 -12 -23 -13 -3 -14 11 0 24 -4
30 -9 52 -53 249 -111 375 -111 68 0 169 -22 274 -59 33 -12 95 -26 138 -32
85 -11 127 -23 127 -38 0 -5 -8 -10 -17 -10 -47 -2 -103 -14 -103 -22 0 -5 -7
-9 -16 -9 -8 0 -12 5 -9 10 7 11 -1 12 -31 4 -15 -4 -21 -13 -20 -34 1 -15 4
-26 9 -23 4 2 7 0 7 -6 0 -5 -6 -12 -12 -14 -7 -3 -3 -6 9 -6 29 -1 37 14 17
34 -20 19 -15 26 12 19 16 -4 20 -11 16 -32 -3 -15 -12 -33 -21 -40 -14 -10
-12 -11 10 -6 16 3 30 1 34 -6 4 -7 1 -11 -6 -9 -31 4 -59 -2 -59 -12 0 -6 9
-8 20 -4 11 4 20 2 20 -4 0 -6 7 -11 15 -11 8 0 15 5 15 10 0 6 12 10 26 10
l26 0 -23 -20 c-23 -20 -24 -20 -5 -35 11 -8 17 -18 13 -21 -10 -11 -90 -12
-115 -3 -15 6 -21 5 -17 -1 6 -10 -16 -8 -65 6 -10 3 -8 -1 4 -11 10 -8 39
-17 65 -20 25 -4 55 -11 66 -16 11 -5 46 -18 78 -29 54 -18 60 -18 83 -4 13 9
24 13 24 9 0 -4 6 -2 14 4 9 8 16 8 20 2 4 -6 14 -7 22 -4 10 3 12 9 6 15 -5
5 -7 19 -4 30 3 15 11 19 28 15 13 -2 24 0 24 5 0 5 4 6 10 3 6 -4 7 1 3 11
-4 12 -2 15 8 12 8 -3 13 -9 12 -14 -1 -5 15 -10 35 -11 26 -1 32 1 22 7 -12
8 -10 10 7 10 13 0 29 -10 38 -24 17 -26 49 -41 105 -50 26 -4 31 -3 20 4 -11
8 -5 10 24 8 22 -2 41 -9 44 -16 2 -7 -2 -10 -12 -6 -10 4 -34 -12 -68 -43
-62 -57 -105 -86 -117 -78 -5 3 -15 0 -23 -7 -32 -31 -48 -39 -89 -44 -24 -3
-48 -10 -54 -14 -9 -7 -140 -44 -203 -58 -13 -2 -26 -11 -29 -18 -2 -7 -12
-10 -20 -7 -10 4 -14 2 -10 -4 9 -14 -16 -34 -39 -31 -11 1 -39 -7 -64 -19
-25 -12 -70 -24 -100 -28 -49 -7 -53 -6 -41 8 7 9 10 21 6 27 -3 5 -2 10 3 10
5 0 14 11 20 25 8 16 17 23 27 19 11 -5 18 0 21 13 5 17 11 19 44 13 35 -6 37
-5 27 11 -6 9 -17 15 -25 11 -11 -4 -13 0 -8 15 5 15 0 25 -19 37 -14 9 -25
12 -25 6 0 -5 -4 -10 -9 -10 -5 0 -9 13 -9 29 1 38 -8 51 -37 51 -28 0 -75
-20 -75 -31 0 -10 -42 -2 -49 9 -7 9 -64 7 -100 -4 -19 -5 -22 -4 -16 6 6 10
4 12 -8 7 -9 -3 -19 -2 -22 3 -6 10 56 50 79 50 10 0 15 4 12 8 -3 5 0 9 7 10
72 7 151 23 163 33 14 11 13 15 -7 30 -13 9 -29 14 -38 11 -10 -4 -12 -1 -6 8
6 10 0 12 -27 7 -30 -4 -41 -1 -64 22 -41 39 -57 43 -168 42 -74 -1 -106 -6
-128 -19 -25 -15 -30 -15 -38 -2 -5 8 -10 10 -10 3 0 -6 -15 -11 -35 -10 -19
1 -42 -6 -52 -16 -12 -11 -23 -13 -33 -7 -10 6 -21 3 -37 -12 -12 -11 -27 -17
-33 -13 -7 4 -16 2 -20 -5 -13 -21 -30 -1 -24 29 4 17 1 32 -6 36 -9 5 -10 1
-5 -14 4 -13 2 -21 -5 -21 -6 0 -5 -11 5 -31 16 -30 16 -30 -4 -19 -12 6 -21
15 -21 20 0 6 -5 10 -11 10 -6 0 -17 7 -25 15 -9 8 -21 15 -27 14 -9 0 -8 -2
0 -6 19 -7 -10 -32 -46 -39 -26 -6 -31 -11 -31 -35 0 -16 -4 -29 -9 -29 -5 0
-11 -8 -14 -19 -3 -12 -24 -24 -61 -36 -31 -10 -56 -21 -56 -25 0 -3 -15 -5
-32 -3 -25 3 -29 2 -18 -6 17 -12 13 -17 -21 -26 -20 -5 -27 -2 -35 17 -13 29
-3 73 16 74 35 2 39 5 34 19 -4 9 0 15 10 15 21 0 21 34 0 54 -20 20 -25 20
-17 0 5 -14 2 -16 -20 -10 -24 6 -27 4 -27 -22 0 -39 -19 -57 -36 -34 -8 10
-13 12 -14 5 0 -18 -20 -16 -41 3 -9 8 -20 11 -23 6 -3 -5 6 -15 19 -22 32
-17 31 -25 -5 -94 -28 -52 -30 -60 -19 -91 11 -28 10 -36 -4 -50 -10 -9 -17
-20 -17 -25 0 -4 -20 -20 -45 -34 -25 -15 -45 -30 -45 -34 0 -4 -9 -18 -20
-32 l-20 -25 15 40 16 40 -21 -24 c-11 -13 -20 -20 -20 -17 0 3 -9 -3 -20 -14
-12 -12 -18 -26 -14 -32 5 -7 3 -8 -6 -3 -7 4 -16 2 -21 -6 -7 -12 -9 -12 -9
0 0 9 -9 4 -24 -12 -24 -26 -25 -26 -57 -10 -30 15 -35 15 -62 -1 -26 -15 -29
-15 -23 0 3 8 6 20 6 25 0 6 9 7 21 4 14 -5 19 -3 15 3 -3 6 -2 13 4 17 5 3
10 1 10 -6 0 -6 9 0 21 15 12 15 18 33 15 43 -6 15 -8 15 -19 -1 -11 -15 -14
-15 -35 -1 -12 9 -22 23 -22 31 0 18 41 35 67 28 13 -4 23 3 33 20 17 33 44
35 35 4 -7 -23 -7 -23 9 -3 18 23 20 42 5 47 -6 2 -5 14 5 33 9 17 16 24 16
16 0 -8 2 -12 5 -10 2 3 1 19 -4 36 -11 39 -5 48 43 61 21 6 50 21 63 34 13
12 38 23 54 24 17 1 32 4 35 6 8 9 -8 38 -17 32 -5 -3 -9 1 -9 8 -1 8 -7 5
-16 -7 -15 -20 -70 -33 -58 -14 3 5 1 16 -6 24 -7 8 -7 15 -1 19 5 4 12 2 16
-4 8 -14 35 -13 35 1 0 6 -7 9 -15 5 -23 -8 -19 24 7 51 12 13 29 23 38 23 9
0 25 9 34 19 22 24 98 51 124 44 10 -2 36 3 57 11 46 19 64 21 47 4 -17 -17
-15 -33 3 -18 17 14 80 -3 106 -29 8 -9 30 -24 48 -33 31 -17 32 -17 29 -1 -2
10 -17 24 -33 32 -16 8 -36 20 -43 28 -7 7 -20 13 -28 13 -14 0 -54 19 -64 31
-3 3 -16 13 -29 22 -21 14 -28 14 -50 3 -14 -8 -55 -22 -91 -31 -36 -10 -86
-29 -113 -42 -32 -16 -55 -21 -74 -17 -18 5 -24 4 -19 -5 4 -6 14 -11 22 -11
25 0 13 -15 -60 -77 -90 -76 -95 -85 -73 -123 10 -16 14 -30 8 -30 -12 0 -51
53 -51 70 0 7 -8 9 -19 5 -12 -4 -21 0 -25 11 -9 24 -4 25 27 9 25 -13 28 -12
49 17 12 18 17 28 10 24 -18 -11 -15 5 6 27 9 10 31 46 47 80 19 40 37 63 50
66 11 2 24 9 28 17 4 8 24 14 42 14 39 0 40 2 23 30 -10 16 -9 23 12 45 31 33
18 32 -47 -5 -29 -16 -57 -30 -63 -30 -20 0 -9 21 18 33 15 6 33 17 40 24 7 7
19 13 25 13 18 0 93 68 84 76 -9 9 22 44 38 44 7 0 15 7 19 15 3 8 12 15 21
15 8 0 15 4 15 8 0 5 19 27 41 50 23 22 46 50 53 62 7 14 44 37 101 61 50 21
90 39 91 39 1 0 11 -9 24 -20z m75 0 c8 -13 -5 -13 -25 0 -13 8 -13 10 2 10 9
0 20 -4 23 -10z m2672 -182 c-3 -8 -6 -5 -6 6 -1 11 2 17 5 13 3 -3 4 -12 1
-19z m-127 -41 c0 -7 -11 -25 -25 -42 -26 -31 -26 -25 -3 37 10 27 28 30 28 5z
m-4916 -13 c4 -10 1 -14 -6 -12 -15 5 -23 28 -10 28 5 0 13 -7 16 -16z m-224
-54 c0 -5 -2 -10 -4 -10 -3 0 -8 5 -11 10 -3 6 -1 10 4 10 6 0 11 -4 11 -10z
m0 -42 c0 -7 -6 -25 -14 -39 -8 -16 -10 -32 -5 -40 5 -8 9 -10 9 -5 0 24 70
-73 70 -99 0 -14 -24 -2 -54 27 -31 29 -33 33 -18 46 15 11 14 11 -7 2 -20
-10 -27 -9 -48 12 l-24 24 37 42 c37 43 54 52 54 30z m1903 -75 c-7 -2 -13
-11 -13 -19 0 -8 -4 -14 -10 -14 -5 0 -10 -7 -10 -15 0 -8 -4 -15 -10 -15 -13
0 -13 6 3 33 14 25 28 37 42 36 6 0 4 -3 -2 -6z m1746 -49 c-10 -23 -13 -25
-16 -11 -3 10 1 25 8 33 17 21 21 11 8 -22z m106 6 c-3 -5 -11 -10 -16 -10 -6
0 -7 5 -4 10 3 6 11 10 16 10 6 0 7 -4 4 -10z m47 -37 c-6 -2 -9 -9 -6 -14 3
-6 11 -5 20 2 11 9 14 8 14 -3 0 -8 18 -24 40 -37 41 -23 57 -41 18 -20 -17 9
-23 9 -26 0 -3 -9 -7 -9 -18 0 -11 9 -16 5 -25 -17 -9 -23 -13 -26 -18 -13 -4
11 -15 15 -34 13 -22 -2 -27 1 -23 12 3 8 2 14 -3 14 -16 0 -20 -13 -10 -32 8
-15 13 -17 25 -7 10 8 14 8 14 0 0 -19 -30 -25 -46 -9 -18 18 -9 69 11 62 7
-3 15 2 18 10 4 10 13 13 23 9 13 -5 15 -2 9 15 -5 17 -2 22 12 21 10 0 13 -3
5 -6z m-2442 -74 c0 -18 5 -21 33 -16 32 5 87 -16 87 -32 0 -5 12 -14 28 -20
27 -11 56 -56 46 -72 -2 -5 -20 -11 -39 -15 -34 -6 -49 -24 -21 -24 7 0 20 -7
27 -16 11 -14 10 -19 -9 -34 -12 -10 -30 -17 -39 -16 -10 2 -12 1 -5 -1 25 -9
11 -23 -22 -23 -19 0 -37 -4 -40 -9 -3 -4 -24 -11 -47 -14 -22 -3 -49 -13 -58
-21 -17 -16 -18 -12 -24 76 -6 100 -24 188 -38 188 -5 0 -9 -4 -9 -9 0 -5 -7
-17 -17 -26 -15 -16 -17 -14 -30 15 -7 18 -13 36 -13 40 0 13 81 41 100 35 9
-3 28 -1 41 4 37 15 49 13 49 -10z m3991 -34 c0 -20 0 -20 9 0 8 18 10 17 21
-12 10 -24 20 -33 36 -33 13 0 23 -6 23 -13 0 -8 18 -22 40 -32 22 -10 40 -22
40 -26 0 -4 29 -21 65 -38 36 -17 65 -35 65 -41 0 -5 6 -10 13 -10 6 0 23 -16
36 -35 13 -19 33 -37 45 -41 11 -4 31 -18 44 -31 17 -18 29 -23 46 -19 15 4
28 0 36 -9 7 -8 22 -16 34 -16 16 -1 17 -2 4 -6 -9 -2 -18 -14 -20 -26 -2 -18
-9 -21 -33 -19 -64 7 -119 2 -133 -12 -21 -21 -6 -50 33 -64 40 -15 155 -98
155 -112 0 -5 -7 -10 -15 -10 -28 0 -15 -30 20 -44 40 -17 44 -30 15 -46 -25
-13 -38 -6 -50 26 -5 13 -16 24 -24 24 -20 0 -96 -80 -96 -100 0 -19 84 -65
101 -54 19 11 59 -17 59 -43 0 -14 6 -23 15 -23 8 0 15 -4 15 -10 0 -5 -7 -10
-15 -10 -8 0 -15 -4 -15 -10 0 -5 18 -10 40 -10 29 0 40 4 40 15 0 23 16 18
34 -10 10 -15 12 -25 6 -25 -16 0 -37 -23 -42 -46 -4 -25 -35 -30 -59 -8 -18
16 -18 18 -3 36 15 16 15 18 1 18 -8 0 -17 5 -19 12 -2 6 -28 13 -56 14 -29 2
-57 6 -62 9 -5 3 -53 6 -107 6 -65 1 -108 6 -127 16 -27 14 -30 14 -52 -14
-13 -15 -23 -31 -24 -35 0 -5 -16 -8 -35 -8 -22 0 -35 -5 -35 -13 0 -23 10
-26 43 -12 20 8 51 11 82 8 62 -7 80 -27 51 -55 -12 -12 -11 -18 4 -39 l19
-24 10 28 c13 34 24 34 42 0 18 -37 30 -44 47 -31 20 17 56 -23 47 -51 -5 -18
-9 -19 -26 -8 -17 10 -22 9 -34 -6 -15 -21 -55 -15 -55 7 0 7 -11 19 -25 26
-14 7 -25 19 -25 26 0 7 -8 10 -18 7 -14 -3 -22 4 -31 26 -10 22 -24 34 -59
45 -55 19 -52 19 -52 1 0 -22 -17 -18 -23 5 -4 15 -14 20 -36 20 -32 0 -54 26
-33 39 5 3 13 23 17 44 7 37 9 38 39 33 37 -7 61 6 53 28 -5 11 -19 16 -50 16
-44 0 -75 -19 -63 -38 11 -18 -21 -32 -67 -29 -43 2 -47 4 -53 32 -4 18 -2 31
5 33 6 2 11 12 11 23 0 32 18 21 23 -13 2 -18 5 -2 5 36 2 64 1 68 -13 50 -14
-17 -15 -5 -10 131 5 158 9 181 43 256 12 25 26 75 31 110 10 62 7 226 -4 237
-3 3 -5 11 -5 19 0 22 40 -19 41 -42z m-1671 5 c-19 -13 -30 -13 -30 0 0 6 10
10 23 10 18 0 19 -2 7 -10z m200 -14 c0 -3 -4 -8 -10 -11 -5 -3 -10 -1 -10 4
0 6 5 11 10 11 6 0 10 -2 10 -4z m-183 -28 c-3 -8 -6 -5 -6 6 -1 11 2 17 5 13
3 -3 4 -12 1 -19z m-927 -18 c0 -5 -4 -10 -10 -10 -5 0 -10 5 -10 10 0 6 5 10
10 10 6 0 10 -4 10 -10z m-2485 -16 c13 -6 14 -9 3 -16 -9 -6 -4 -8 16 -6 19
2 31 -2 33 -12 4 -13 3 -13 -6 0 -8 12 -11 12 -11 1 0 -8 -6 -11 -15 -7 -8 3
-26 1 -40 -4 -32 -12 -43 5 -19 31 20 22 17 21 39 13z m2318 -13 c4 -17 2 -18
-14 -8 -22 14 -25 27 -5 27 7 0 16 -9 19 -19z m137 -9 c0 -13 -50 -31 -56 -20
-3 5 -4 10 -3 11 2 1 13 7 24 13 20 11 35 10 35 -4z m-2325 -32 c3 -5 1 -10
-4 -10 -6 0 -11 5 -11 10 0 6 2 10 4 10 3 0 8 -4 11 -10z m2125 -88 c-14 -2
-28 -9 -31 -14 -4 -6 -12 -7 -19 -3 -21 13 16 33 48 26 l27 -5 -25 -4z m820
-24 c-11 -12 -23 -19 -26 -15 -9 9 15 37 33 37 10 0 8 -6 -7 -22z m-3361 -172
c20 -22 61 -55 91 -74 30 -19 78 -54 105 -77 98 -83 283 -184 475 -260 91 -36
130 -55 82 -40 -15 4 -32 1 -47 -9 -32 -21 -53 -20 -99 4 -22 10 -43 17 -47
14 -5 -3 -9 0 -9 5 0 6 -8 11 -18 11 -10 0 -22 4 -27 9 -6 4 -46 23 -90 41
-44 17 -109 46 -145 62 -36 17 -83 37 -104 44 -55 20 -96 53 -206 164 -67 68
-105 115 -127 161 -37 74 -39 84 -18 93 8 3 15 12 15 20 0 13 28 -15 169 -168z
m2563 152 c-6 -6 -15 -8 -19 -4 -4 4 -1 11 7 16 19 12 27 3 12 -12z m-872 7
c0 -12 -40 -48 -47 -42 -3 4 -1 7 6 7 7 0 9 5 5 11 -3 6 0 15 7 20 16 10 29
12 29 4z m18 -44 c-18 -26 -34 -47 -36 -46 -6 5 18 52 37 73 34 35 34 26 -1
-27z m512 39 c0 -5 -5 -10 -11 -10 -5 0 -7 5 -4 10 3 6 8 10 11 10 2 0 4 -4 4
-10z m295 -32 c-9 -6 -19 -7 -22 -4 -9 8 -34 -15 -28 -25 3 -4 13 -6 23 -3 12
4 11 2 -3 -7 -11 -7 -26 -19 -33 -26 -18 -18 -38 -17 -23 1 6 8 10 18 9 23 -2
5 8 21 21 35 17 17 31 23 49 20 21 -4 22 -6 7 -14z m-132 -26 c-11 -15 -27
-27 -35 -27 -9 0 -22 -5 -29 -12 -23 -18 -92 -44 -106 -39 -7 3 -15 1 -18 -5
-8 -13 -25 -1 -25 17 0 11 7 14 23 10 12 -3 16 -3 9 0 -17 8 -5 24 19 24 10 0
19 5 19 10 0 6 14 10 30 10 17 0 42 7 56 16 13 9 27 14 31 11 3 -3 12 1 20 9
24 24 29 6 6 -24z m307 18 c0 -5 -5 -10 -11 -10 -5 0 -7 5 -4 10 3 6 8 10 11
10 2 0 4 -4 4 -10z m660 0 c0 -6 -7 -13 -15 -16 -8 -4 -15 -15 -15 -25 0 -10
-4 -19 -10 -19 -5 0 -10 5 -10 11 0 6 -7 9 -15 5 -26 -10 -16 8 18 31 36 25
47 28 47 13z m1450 5 c0 -2 -10 -9 -22 -15 -22 -11 -22 -10 -4 4 21 17 26 19
26 11z m-3004 -40 c3 -8 4 -19 2 -24 -4 -13 -50 9 -56 27 -6 18 47 15 54 -3z
m799 -5 c-3 -5 -13 -10 -21 -10 -8 0 -14 -6 -14 -12 0 -15 -57 -78 -71 -78 -5
0 -9 -6 -9 -12 0 -7 -20 -22 -45 -34 -25 -11 -45 -16 -45 -10 0 6 -4 6 -11 -1
-7 -7 -20 -8 -33 -4 -35 13 -129 5 -171 -14 -22 -10 -43 -18 -47 -17 -5 1 -8
-3 -8 -9 0 -8 -14 -10 -40 -6 -21 3 -41 1 -44 -4 -2 -5 -3 -4 -2 3 1 7 22 17
46 21 25 5 53 19 65 32 38 43 70 57 112 49 21 -5 42 -7 46 -6 5 1 25 -3 46 -9
47 -14 87 4 128 57 30 40 140 99 118 64z m655 -20 c0 -5 -7 -10 -16 -10 -8 0
-12 5 -9 10 3 6 10 10 16 10 5 0 9 -4 9 -10z m1440 0 c-8 -5 -19 -10 -25 -10
-5 0 -3 5 5 10 8 5 20 10 25 10 6 0 3 -5 -5 -10z m-45 -20 c-3 -5 -12 -10 -18
-10 -7 0 -6 4 3 10 19 12 23 12 15 0z m-1455 -4 c0 -3 -4 -8 -10 -11 -5 -3
-10 -1 -10 4 0 6 5 11 10 11 6 0 10 -2 10 -4z m-1780 -26 c8 -5 10 -10 4 -10
-7 0 -14 -9 -17 -19 -3 -13 -17 -22 -41 -27 -45 -8 -51 -3 -35 28 20 38 56 50
89 28z m4580 -44 c0 -2 -7 -6 -15 -10 -8 -3 -15 -1 -15 4 0 6 7 10 15 10 8 0
15 -2 15 -4z m-5230 -41 c19 -7 28 -14 20 -14 -8 0 -28 6 -45 14 -39 17 -21
18 25 0z m1189 -38 c-2 -1 -13 -9 -24 -17 -19 -14 -19 -14 -6 3 7 9 18 17 24
17 6 0 8 -1 6 -3z m-1014 -17 c13 -5 14 -9 5 -9 -8 0 -24 4 -35 9 -13 5 -14 9
-5 9 8 0 24 -4 35 -9z m52 -16 c-3 -3 -12 -4 -19 -1 -8 3 -5 6 6 6 11 1 17 -2
13 -5z m144 -34 c212 -50 682 -126 817 -131 31 -2 33 -3 9 -6 -40 -6 -349 33
-547 68 -152 28 -399 85 -409 95 -7 7 3 5 130 -26z m877 -2 c-8 -13 -19 -23
-25 -21 -8 3 -4 13 9 29 26 29 33 26 16 -8z m-267 -9 c-20 -8 -25 -4 -17 16 5
13 8 14 20 3 12 -11 12 -14 -3 -19z m289 -20 c0 -6 -4 -7 -10 -4 -5 3 -10 11
-10 16 0 6 5 7 10 4 6 -3 10 -11 10 -16z m-560 1 c0 -5 -12 -10 -26 -10 -14 0
-23 4 -19 10 3 6 15 10 26 10 10 0 19 -4 19 -10z m4591 -22 c24 -30 24 -38 -4
-38 -26 0 -70 36 -62 51 11 17 46 9 66 -13z m22 -80 c3 -10 9 -10 26 0 30 18
47 15 99 -15 69 -39 90 -61 97 -103 5 -30 14 -41 44 -59 22 -11 46 -21 55 -21
10 0 15 -4 12 -8 -8 -13 -116 11 -116 25 0 16 -32 17 -48 1 -9 -9 -12 -8 -12
4 0 9 -8 19 -17 22 -10 3 -29 16 -43 29 -34 31 -127 87 -145 87 -7 0 -17 -5
-20 -10 -5 -8 -11 -7 -21 1 -12 10 -9 16 18 35 35 26 64 31 71 12z m-4015 -15
c-16 -2 -40 -2 -55 0 -16 2 -3 4 27 4 30 0 43 -2 28 -4z m150 -10 c-21 -2 -57
-2 -80 0 -24 2 -7 4 37 4 44 0 63 -2 43 -4z m155 -10 c-18 -2 -48 -2 -65 0
-18 2 -4 4 32 4 36 0 50 -2 33 -4z m3980 -197 c26 -8 21 -26 -8 -26 -25 0 -65
31 -65 50 0 5 12 3 28 -5 15 -8 35 -16 45 -19z m127 4 c0 -13 -20 -13 -40 0
-12 8 -9 10 13 10 15 0 27 -4 27 -10z m-293 -45 l24 -13 -26 -6 c-14 -4 -25
-11 -25 -18 0 -6 -8 -17 -17 -24 -15 -10 -21 -10 -35 3 -10 9 -40 18 -68 21
-48 4 -69 16 -55 30 3 3 10 0 15 -8 8 -12 14 -12 44 3 20 9 36 20 36 25 0 11
78 2 107 -13z m-2358 11 c-12 -10 -60 -16 -54 -6 3 5 18 10 32 10 15 0 24 -2
22 -4z m-129 -26 c-75 -18 -198 -39 -260 -44 -43 -4 -20 3 65 18 72 13 139 26
150 28 11 3 34 6 50 6 29 0 29 0 -5 -8z m1768 -22 c-6 -18 -28 -21 -28 -4 0 9
7 16 16 16 9 0 14 -5 12 -12z m797 2 c3 -5 17 -10 31 -10 13 0 24 -4 24 -10 0
-5 -7 -10 -15 -10 -8 0 -24 -5 -34 -12 -17 -10 -23 -8 -40 13 -11 13 -20 27
-21 32 0 11 48 9 55 -3z m445 -10 c24 -19 24 -20 3 -20 -12 0 -23 -3 -25 -7
-4 -11 -101 -43 -126 -43 -12 0 -30 14 -42 31 l-22 30 38 -7 c22 -4 41 -11 42
-15 6 -15 32 -10 32 5 0 8 11 17 25 20 14 4 25 11 25 16 0 16 23 11 50 -10z
m-2805 -25 c-56 -23 -496 -96 -560 -94 l-30 1 30 8 c17 4 82 15 145 25 219 33
365 57 369 61 2 2 16 4 30 3 14 0 22 -2 16 -4z m1695 -45 c0 -5 -5 -10 -11
-10 -5 0 -7 5 -4 10 3 6 8 10 11 10 2 0 4 -4 4 -10z m832 -62 c-9 -9 -15 -9
-24 0 -7 7 -30 13 -52 13 -23 1 -31 4 -18 6 12 2 22 8 22 13 0 17 45 16 65 -2
15 -14 17 -20 7 -30z m213 42 c3 -5 19 -10 35 -10 44 0 100 -37 100 -66 0 -27
-12 -31 -30 -9 -7 8 -19 15 -27 15 -20 0 -103 60 -103 74 0 10 18 7 25 -4z
m-651 -38 c63 -22 71 -40 16 -37 -22 1 -40 0 -40 -3 0 -13 35 -42 50 -42 27 0
80 -30 80 -45 0 -7 6 -16 13 -19 6 -3 -4 -3 -23 0 -19 4 -42 12 -51 20 -8 8
-19 14 -23 14 -4 0 -16 9 -28 20 -12 11 -29 20 -39 20 -9 0 -36 9 -60 19 -24
11 -46 16 -49 12 -7 -11 -92 -52 -97 -47 -7 7 21 46 33 46 6 0 21 11 34 25 28
30 69 32 93 5 9 -11 26 -20 37 -20 24 0 25 8 3 32 -20 22 -11 23 51 0z m-249
-12 c3 -5 -3 -10 -14 -10 -12 0 -21 5 -21 10 0 6 6 10 14 10 8 0 18 -4 21 -10z
m389 -49 c10 -11 24 -17 32 -14 8 3 14 0 14 -7 0 -6 9 -23 20 -37 11 -15 18
-28 16 -30 -11 -11 -55 12 -67 35 -18 35 -28 42 -63 42 -24 0 -27 2 -16 15 17
21 43 19 64 -4z m-274 -11 c0 -11 -6 -20 -13 -20 -21 0 -27 11 -14 26 17 19
27 17 27 -6z m694 1 c4 -5 -3 -7 -14 -4 -23 6 -26 13 -6 13 8 0 17 -4 20 -9z
m74 -18 c-2 -11 5 -18 17 -21 52 -8 63 -13 68 -32 3 -11 1 -20 -4 -20 -18 0
-9 -17 16 -30 18 -10 22 -16 13 -21 -8 -5 -23 1 -38 14 -14 13 -37 29 -52 37
-16 7 -28 17 -28 22 0 4 -7 8 -15 8 -17 0 -18 4 -9 38 7 26 36 31 32 5z m-628
-94 c0 -12 -27 -11 -35 1 -11 17 5 32 21 19 8 -6 14 -15 14 -20z m260 22 c0
-5 8 -11 18 -14 16 -4 16 -4 -2 -12 -12 -5 -21 -3 -27 6 -12 19 -11 29 1 29 6
0 10 -4 10 -9z m540 -11 c0 -5 -11 -10 -25 -10 -14 0 -25 5 -25 10 0 6 11 10
25 10 14 0 25 -4 25 -10z m-404 -26 c-23 -16 -46 -18 -46 -4 0 6 9 10 19 10
11 0 23 5 26 11 4 6 10 7 13 4 4 -4 -2 -13 -12 -21z m-8021 5 c10 -15 -1 -23
-20 -15 -9 3 -13 10 -10 16 8 13 22 13 30 -1z m8200 -56 c16 -10 17 -13 6 -27
-12 -15 -16 -15 -31 -1 -9 8 -26 15 -39 15 -30 0 -49 49 -25 67 14 10 21 8 43
-16 14 -15 35 -32 46 -38z m-239 12 c1 -8 -1 -15 -6 -15 -10 0 -20 26 -13 34
8 8 16 -1 19 -19z m94 5 c0 -5 -7 -10 -16 -10 -8 0 -12 5 -9 10 3 6 10 10 16
10 5 0 9 -4 9 -10z m-622 -29 c3 -8 -1 -12 -9 -9 -7 2 -15 10 -17 17 -3 8 1
12 9 9 7 -2 15 -10 17 -17z m842 -12 c0 -5 -7 -9 -15 -9 -15 0 -20 12 -9 23 8
8 24 -1 24 -14z m-795 1 c3 -5 1 -10 -4 -10 -6 0 -11 5 -11 10 0 6 2 10 4 10
3 0 8 -4 11 -10z m622 -27 c14 -16 32 -27 40 -25 9 2 13 -2 11 -10 -3 -8 -22
-13 -54 -13 -44 0 -49 3 -52 23 -2 13 -10 26 -19 29 -12 5 -12 7 -1 14 24 16
49 9 75 -18z m-7877 -8 c17 -9 30 -20 30 -25 0 -6 3 -9 8 -8 9 3 82 -45 82
-54 0 -12 73 -83 82 -81 4 2 8 -2 8 -7 0 -5 7 -10 15 -10 9 0 18 -12 21 -28 3
-16 15 -34 26 -41 28 -18 33 -7 8 17 -15 14 -18 22 -10 27 14 9 40 -24 37 -46
-1 -9 4 -23 12 -32 11 -15 11 -17 -2 -17 -17 0 -47 26 -47 40 0 5 -8 11 -18
14 -10 4 -22 18 -28 32 -6 19 -17 28 -38 30 -17 2 -42 17 -62 38 -18 19 -40
36 -51 38 -10 2 -20 15 -24 33 -5 20 -7 23 -8 10 -2 -19 -3 -19 -13 3 -6 12
-19 22 -28 22 -9 0 -22 11 -28 25 -19 41 -16 43 28 20z m7728 -16 c-2 -6 -8
-10 -13 -10 -5 0 -11 4 -13 10 -2 6 4 11 13 11 9 0 15 -5 13 -11z m252 -3 c0
-24 -12 -46 -21 -40 -15 9 -10 54 6 54 8 0 15 -6 15 -14z m-8080 -6 c0 -5 -4
-10 -10 -10 -5 0 -10 5 -10 10 0 6 5 10 10 10 6 0 10 -4 10 -10z m238 -8 c6
-18 -15 -14 -22 4 -4 10 -1 14 6 12 6 -2 14 -10 16 -16z m7642 3 c0 -8 -6 -15
-14 -15 -17 0 -28 14 -19 24 12 12 33 6 33 -9z m320 -11 c0 -17 -22 -14 -28 4
-2 7 3 12 12 12 9 0 16 -7 16 -16z m-8143 0 c-3 -3 -12 -4 -19 -1 -8 3 -5 6 6
6 11 1 17 -2 13 -5z m320 -37 c40 -59 37 -73 -5 -28 -23 24 -42 48 -42 53 0
19 27 5 47 -25z m7123 23 c0 -5 -4 -10 -10 -10 -5 0 -10 5 -10 10 0 6 5 10 10
10 6 0 10 -4 10 -10z m-7880 -23 c9 -3 3 -6 -12 -6 -20 -1 -28 4 -28 15 0 12
4 14 13 7 6 -6 19 -13 27 -16z m8680 13 c0 -13 -20 -13 -40 0 -12 8 -9 10 13
10 15 0 27 -4 27 -10z m430 -6 c0 -8 -5 -12 -10 -9 -6 4 -8 11 -5 16 9 14 15
11 15 -7z m-8675 -14 c19 -8 19 -9 -2 -9 -12 -1 -25 4 -28 9 -7 12 2 12 30 0z
m245 0 c-8 -5 -19 -10 -25 -10 -5 0 -3 5 5 10 8 5 20 10 25 10 6 0 3 -5 -5
-10z m6987 4 c-3 -3 -12 -4 -19 -1 -8 3 -5 6 6 6 11 1 17 -2 13 -5z m653 -19
c7 -9 11 -18 8 -20 -9 -10 -38 7 -38 21 0 18 14 18 30 -1z m-7630 -25 c-20
-12 -33 -1 -19 16 9 11 15 12 23 4 8 -8 7 -13 -4 -20z m7860 20 c0 -5 -7 -10
-15 -10 -8 0 -15 5 -15 10 0 6 7 10 15 10 8 0 15 -4 15 -10z m-7715 -19 c3
-10 19 -24 35 -31 25 -10 28 -15 19 -31 -5 -11 -14 -19 -18 -19 -10 0 -71 79
-71 92 0 16 29 7 35 -11z m7783 -17 c-10 -10 -28 6 -28 24 0 15 1 15 17 -1 9
-9 14 -19 11 -23z m451 22 c17 -9 20 -15 11 -21 -7 -4 -21 1 -33 14 -24 24
-14 27 22 7z m-9111 -58 c2 -5 9 -8 16 -8 7 0 25 -13 41 -30 16 -16 34 -30 40
-30 17 0 112 -89 95 -90 -9 0 -31 15 -50 33 -42 39 -92 73 -165 111 -21 11
-31 25 -33 43 l-2 27 27 -25 c16 -13 29 -27 31 -31z m8417 42 c3 -5 -1 -10 -9
-10 -8 0 -18 5 -21 10 -3 6 1 10 9 10 8 0 18 -4 21 -10z m-7625 -15 c7 -8 8
-15 2 -15 -5 0 -15 7 -22 15 -7 8 -8 15 -2 15 5 0 15 -7 22 -15z m-685 -23
c-7 -8 -35 7 -35 18 0 6 7 6 20 -2 10 -7 17 -14 15 -16z m417 -18 c16 -8 28
-18 25 -20 -7 -7 -70 25 -79 40 -4 6 -2 14 5 18 7 4 13 1 15 -7 2 -9 17 -22
34 -31z m7151 -9 c18 -12 25 -21 18 -28 -6 -6 -19 -2 -37 12 -15 11 -33 21
-40 21 -15 0 -19 31 -7 44 4 4 15 -1 23 -12 8 -10 28 -27 43 -37z m788 38 c12
-15 12 -16 -4 -10 -10 4 -23 7 -28 7 -6 0 -7 5 -4 10 9 15 21 12 36 -7z m110
-6 c-1 -12 -15 -9 -19 4 -3 6 1 10 8 8 6 -3 11 -8 11 -12z m-527 -19 c9 -12
14 -24 11 -26 -5 -5 -54 31 -55 41 0 16 30 6 44 -15z m1301 2 c3 -5 1 -10 -4
-10 -6 0 -11 5 -11 10 0 6 2 10 4 10 3 0 8 -4 11 -10z m-8343 -54 c25 -27 35
-46 23 -46 -20 0 -57 28 -61 47 -4 12 -10 20 -15 17 -13 -8 -11 10 3 24 10 10
14 10 17 0 2 -7 17 -26 33 -42z m6588 50 c0 -11 -19 -15 -25 -6 -3 5 1 10 9
10 9 0 16 -2 16 -4z m593 -3 c-7 -2 -19 -2 -25 0 -7 3 -2 5 12 5 14 0 19 -2
13 -5z m445 -2 c9 -5 25 -12 35 -15 25 -8 21 -26 -6 -26 -13 0 -34 11 -47 25
-24 25 -15 33 18 16z m357 -1 c3 -5 -1 -10 -9 -10 -9 0 -16 5 -16 10 0 6 4 10
9 10 6 0 13 -4 16 -10z m240 0 c3 -5 1 -10 -4 -10 -6 0 -11 5 -11 10 0 6 2 10
4 10 3 0 8 -4 11 -10z m-9085 -10 c0 -5 -4 -10 -10 -10 -5 0 -10 5 -10 10 0 6
5 10 10 10 6 0 10 -4 10 -10z m7983 -18 c3 -15 -1 -19 -24 -18 -34 1 -33 0
-13 20 20 21 31 20 37 -2z m130 -14 c13 -13 25 -17 40 -12 12 3 19 3 15 -1
-11 -11 11 -35 26 -29 8 3 16 -4 19 -15 3 -12 13 -21 25 -21 11 0 23 -7 26
-16 9 -23 -3 -33 -15 -12 -5 9 -23 19 -39 23 -17 4 -30 10 -30 15 0 4 -15 15
-32 23 -18 9 -49 30 -68 47 -32 28 -33 30 -10 24 14 -3 33 -15 43 -26z m267
22 c0 -5 -2 -10 -4 -10 -3 0 -8 5 -11 10 -3 6 -1 10 4 10 6 0 11 -4 11 -10z
m757 -6 c-3 -3 -12 -4 -19 -1 -8 3 -5 6 6 6 11 1 17 -2 13 -5z m-8404 -18 c4
-10 1 -13 -9 -9 -15 6 -19 23 -5 23 5 0 11 -7 14 -14z m-652 -14 c30 -20 59
-48 59 -57 0 -7 -48 24 -79 53 -28 26 -17 29 20 4z m8999 8 c8 -5 11 -10 5
-10 -5 0 -17 5 -25 10 -8 5 -10 10 -5 10 6 0 17 -5 25 -10z m-8930 -20 c13
-11 21 -22 19 -25 -3 -2 -18 7 -33 20 -16 14 -25 25 -19 25 5 0 20 -9 33 -20z
m667 -10 c7 -14 9 -27 6 -30 -3 -3 -8 1 -10 8 -3 6 -11 12 -19 12 -8 0 -14 9
-14 21 0 26 21 20 37 -11z m7733 20 c0 -5 -4 -10 -10 -10 -5 0 -10 5 -10 10 0
6 5 10 10 10 6 0 10 -4 10 -10z m-7905 -32 c61 -61 117 -109 141 -120 24 -11
33 -28 14 -28 -5 0 -10 4 -10 9 0 5 -9 12 -19 16 -11 3 -40 26 -66 50 -25 25
-50 45 -54 45 -4 0 -17 14 -29 30 -30 40 -17 38 23 -2z m7145 12 c0 -5 -2 -10
-4 -10 -3 0 -8 5 -11 10 -3 6 -1 10 4 10 6 0 11 -4 11 -10z m273 -13 c-14 -6
-19 -15 -15 -33 5 -29 -13 -32 -21 -3 -7 24 21 58 42 51 11 -4 10 -8 -6 -15z
m-7528 3 c3 -5 -1 -10 -9 -10 -8 0 -18 5 -21 10 -3 6 1 10 9 10 8 0 18 -4 21
-10z m-644 -16 c17 -21 21 -46 6 -41 -7 3 -11 10 -9 17 2 8 -3 10 -13 7 -10
-5 -15 0 -15 13 0 24 13 26 31 4z m1053 -3 c15 -17 15 -19 1 -25 -24 -9 -37
-7 -30 3 3 5 1 12 -5 16 -11 7 -4 25 9 25 4 0 16 -8 25 -19z m7477 9 c5 0 9
-4 9 -10 0 -14 -13 -12 -36 6 -17 14 -17 15 -1 10 10 -3 23 -6 28 -6z m-7793
-69 c21 -11 31 -31 15 -31 -11 0 -93 75 -93 85 0 5 12 -3 28 -17 15 -14 37
-31 50 -37z m360 -36 c3 3 -7 17 -22 31 -42 43 -17 42 38 -1 17 -12 17 -17 5
-32 -12 -15 -12 -16 4 -10 19 7 19 7 23 -40 1 -18 -1 -33 -5 -33 -4 0 -35 30
-69 66 -49 52 -66 64 -75 55 -9 -10 -8 -16 7 -27 11 -8 16 -14 12 -14 -5 0 2
-9 15 -20 20 -16 22 -21 10 -29 -12 -8 -12 -12 -2 -25 19 -23 -1 -20 -27 4
-26 25 -51 28 -31 3 12 -14 12 -16 -1 -11 -8 3 -14 14 -13 25 1 10 -8 26 -19
34 -12 8 -32 23 -44 35 -12 12 -29 24 -37 27 -20 7 -42 47 -27 47 6 0 13 -7
16 -15 4 -8 11 -15 18 -15 6 0 33 -20 60 -45 75 -71 113 -85 61 -23 -27 32
-32 48 -14 48 8 0 8 5 -1 15 -7 8 -9 22 -6 31 5 12 17 5 63 -35 31 -28 59 -49
61 -46z m407 75 c3 -5 1 -10 -4 -10 -6 0 -11 5 -11 10 0 6 2 10 4 10 3 0 8 -4
11 -10z m5912 4 c-3 -3 -12 -4 -19 -1 -8 3 -5 6 6 6 11 1 17 -2 13 -5z m221
-11 c15 -10 29 -20 32 -24 3 -3 15 -9 28 -13 12 -4 22 -14 22 -21 0 -8 5 -17
12 -21 7 -4 8 -3 4 4 -4 7 -1 12 8 12 9 0 14 -8 13 -20 -1 -23 -10 -25 -29 -7
-7 7 -28 19 -46 26 -18 8 -41 24 -51 37 -11 13 -24 24 -30 24 -6 0 -11 5 -11
10 0 15 17 12 48 -7z m-5998 3 c0 -3 -4 -8 -10 -11 -5 -3 -10 -1 -10 4 0 6 5
11 10 11 6 0 10 -2 10 -4z m5837 -2 c-3 -3 -12 -4 -19 -1 -8 3 -5 6 6 6 11 1
17 -2 13 -5z m727 -10 c4 -10 1 -14 -6 -12 -15 5 -23 28 -10 28 5 0 13 -7 16
-16z m1131 -2 c-3 -3 -11 0 -18 7 -9 10 -8 11 6 5 10 -3 15 -9 12 -12z m-9025
-8 c0 -2 -7 -4 -15 -4 -8 0 -15 4 -15 10 0 5 7 7 15 4 8 -4 15 -8 15 -10z m60
6 c0 -5 -2 -10 -4 -10 -3 0 -8 5 -11 10 -3 6 -1 10 4 10 6 0 11 -4 11 -10z
m8050 0 c0 -5 -4 -10 -10 -10 -5 0 -10 5 -10 10 0 6 5 10 10 10 6 0 10 -4 10
-10z m-110 -14 c0 -3 -4 -8 -10 -11 -5 -3 -10 -1 -10 4 0 6 5 11 10 11 6 0 10
-2 10 -4z m-876 -12 c17 -7 22 -34 6 -34 -5 0 -10 6 -10 14 0 8 -6 17 -12 19
-7 3 -10 6 -6 6 3 1 13 -2 22 -5z m119 -12 c15 -10 25 -21 22 -24 -8 -8 -75
24 -69 34 8 12 16 10 47 -10z m715 -1 c3 -8 -1 -12 -9 -9 -7 2 -15 10 -17 17
-3 8 1 12 9 9 7 -2 15 -10 17 -17z m142 -7 c0 -8 -4 -14 -10 -14 -5 0 -10 9
-10 21 0 11 5 17 10 14 6 -3 10 -13 10 -21z m75 6 c23 -26 8 -26 -25 0 -18 14
-21 20 -9 20 9 0 24 -9 34 -20z m-6911 -6 c3 -8 2 -12 -4 -9 -6 3 -10 10 -10
16 0 14 7 11 14 -7z m-1296 -20 c13 -9 31 -13 42 -9 15 5 18 3 14 -9 -3 -9 -1
-16 5 -16 6 0 11 -6 11 -14 0 -8 10 -17 23 -20 12 -3 32 -14 45 -24 l23 -18
-35 0 c-20 0 -36 4 -36 8 0 4 -6 8 -13 8 -7 0 -19 9 -27 20 -8 12 -32 32 -52
47 -21 14 -38 30 -38 34 0 13 13 11 38 -7z m108 2 c29 -22 13 -24 -26 -4 -26
13 -30 18 -14 18 11 0 29 -6 40 -14z m7039 -7 c47 -22 55 -37 13 -23 -13 4
-29 7 -37 5 -13 -2 -31 15 -31 32 0 11 6 9 55 -14z m1310 11 c3 -5 2 -10 -4
-10 -5 0 -13 5 -16 10 -3 6 -2 10 4 10 5 0 13 -4 16 -10z m-8624 -17 c12 -16
12 -17 -1 -7 -8 7 -24 14 -35 17 -19 4 -19 5 1 6 12 0 28 -7 35 -16z m8155
-11 c-4 -3 -14 2 -24 12 -16 18 -16 18 6 6 13 -6 21 -14 18 -18z m-7072 -8 c7
-17 -6 -18 -22 -2 -7 7 -12 15 -12 20 0 12 28 -2 34 -18z m60 3 c21 -18 24
-25 14 -36 -11 -10 -7 -12 17 -9 16 2 30 -1 30 -7 0 -5 7 -21 14 -35 l14 -25
-24 21 c-28 23 -75 54 -85 54 -3 0 0 -7 7 -17 13 -15 12 -15 -8 -4 -17 9 -28
9 -44 0 -13 -7 -19 -7 -15 -1 3 6 2 13 -4 17 -5 3 -10 11 -10 17 0 7 7 5 18
-4 9 -8 24 -13 34 -11 26 6 29 31 5 48 -16 11 -17 15 -6 15 9 0 28 -10 43 -23z
m6246 19 c0 -3 -4 -8 -10 -11 -5 -3 -10 -1 -10 4 0 6 5 11 10 11 6 0 10 -2 10
-4z m305 -18 c0 -9 4 -20 8 -24 17 -17 5 -25 -13 -9 -11 10 -18 20 -15 23 3 3
-1 12 -7 20 -10 12 -9 14 7 10 11 -2 20 -11 20 -20z m224 8 c9 -11 6 -15 -14
-18 -19 -4 -25 -1 -25 13 0 22 23 25 39 5z m-368 -17 c30 -30 19 -32 -14 -3
-15 13 -23 24 -18 24 6 0 20 -9 32 -21z m45 -1 l19 -23 -25 20 c-14 11 -27 21
-29 22 -2 2 0 3 6 3 5 0 18 -10 29 -22z m-6857 -8 c-10 -7 -10 -11 0 -24 8 -9
18 -16 23 -16 6 0 5 7 -2 15 -20 24 5 17 26 -7 10 -12 13 -18 5 -13 -7 4 -16
3 -20 -4 -5 -7 -18 -2 -39 17 -28 25 -29 29 -14 39 9 6 21 8 26 6 4 -3 2 -9
-5 -13z m6728 14 c-3 -3 -12 -4 -19 -1 -8 3 -5 6 6 6 11 1 17 -2 13 -5z m283
-14 c0 -4 -6 -13 -14 -19 -11 -9 -15 -8 -20 5 -10 26 -7 32 14 27 11 -3 20 -9
20 -13z m-7425 0 c3 -5 2 -10 -4 -10 -5 0 -13 5 -16 10 -3 6 -2 10 4 10 5 0
13 -4 16 -10z m7890 0 c3 -5 2 -10 -4 -10 -5 0 -13 5 -16 10 -3 6 -2 10 4 10
5 0 13 -4 16 -10z m-7386 -26 c32 -37 20 -40 -14 -4 -16 17 -24 30 -19 30 6 0
21 -12 33 -26z m141 5 c0 -6 -4 -7 -10 -4 -5 3 -10 11 -10 16 0 6 5 7 10 4 6
-3 10 -11 10 -16z m525 11 c3 -6 -1 -7 -9 -4 -18 7 -21 14 -7 14 6 0 13 -4 16
-10z m5995 0 c0 -5 -5 -10 -11 -10 -5 0 -7 5 -4 10 3 6 8 10 11 10 2 0 4 -4 4
-10z m40 0 c0 -5 -5 -10 -11 -10 -5 0 -7 5 -4 10 3 6 8 10 11 10 2 0 4 -4 4
-10z m115 -8 c-3 -3 -11 0 -18 7 -9 10 -8 11 6 5 10 -3 15 -9 12 -12z m205 3
c11 -13 10 -14 -4 -9 -9 3 -16 10 -16 15 0 13 6 11 20 -6z m-467 -11 c-3 -8
-12 -13 -20 -10 -8 3 -17 6 -19 6 -3 0 -2 5 1 10 11 17 45 12 38 -6z m62 -22
c3 -37 1 -38 -27 -13 -17 17 -18 22 -7 35 20 22 31 15 34 -22z m240 17 c11
-16 1 -19 -13 -3 -7 8 -8 14 -3 14 5 0 13 -5 16 -11z m765 7 c0 -2 -7 -7 -16
-10 -8 -3 -12 -2 -9 4 6 10 25 14 25 6z m-8038 -44 c-4 -11 -1 -13 8 -7 9 5
11 4 6 -3 -10 -17 -26 -15 -26 4 0 10 -6 14 -15 10 -17 -6 -18 -4 -9 18 5 12
10 13 24 4 10 -7 16 -18 12 -26z m518 -6 c-1 -6 -9 -1 -19 11 -10 12 -22 19
-26 15 -5 -4 -5 -1 -1 6 6 11 12 10 27 -4 10 -9 19 -22 19 -28z m97 22 c3 6 9
12 15 12 5 0 0 -13 -12 -30 -12 -16 -17 -30 -12 -30 5 0 29 -18 53 -40 24 -22
52 -40 62 -40 10 0 20 -7 24 -16 3 -9 13 -14 24 -11 10 3 25 -4 36 -16 17 -20
17 -21 0 -8 -9 8 -20 11 -24 7 -4 -3 19 -29 50 -57 31 -28 57 -55 57 -61 0 -5
-16 4 -36 21 -19 17 -39 29 -45 26 -5 -4 -9 0 -9 7 -1 13 -55 78 -66 78 -8 0
-71 49 -113 87 -20 18 -39 33 -42 33 -4 0 -10 7 -13 16 -5 14 -4 15 9 4 24
-20 31 -3 9 22 l-19 23 24 -20 c17 -14 25 -16 28 -7z m88 -18 c-3 -4 2 -13 10
-20 8 -7 15 -18 15 -24 0 -6 -14 4 -31 22 -29 32 -32 65 -3 41 7 -6 12 -15 9
-19z m6679 15 c8 -8 21 -15 29 -15 8 0 18 -7 21 -16 5 -13 9 -14 21 -4 13 11
14 10 10 -3 -10 -25 13 -30 52 -12 32 16 36 16 49 1 8 -9 9 -11 2 -6 -20 17
-29 11 -18 -10 6 -12 21 -25 33 -30 40 -17 71 -46 57 -55 -7 -4 -16 -2 -21 6
-5 8 -9 10 -9 6 0 -4 -9 -3 -21 3 -24 14 -40 4 -19 -11 11 -8 9 -9 -8 -4 -21
6 -23 5 -13 -12 5 -11 17 -25 25 -33 9 -7 16 -16 16 -21 0 -5 -13 4 -30 19
-29 28 -40 62 -20 62 6 0 10 5 10 11 0 5 -4 8 -9 4 -5 -3 -16 2 -24 10 -9 8
-18 15 -21 15 -3 0 -30 16 -60 35 -30 19 -60 35 -66 35 -12 0 -40 24 -40 34 0
12 39 5 54 -9z m-6329 -4 c3 -5 1 -12 -5 -16 -5 -3 -10 1 -10 9 0 18 6 21 15
7z m6689 -6 c11 -8 15 -15 10 -15 -6 0 -19 7 -30 15 -10 8 -14 14 -9 14 6 0
19 -6 29 -14z m316 0 c7 -8 8 -15 2 -15 -5 0 -15 7 -22 15 -7 8 -8 15 -2 15 5
0 15 -7 22 -15z m-7595 -5 c3 -5 1 -10 -4 -10 -6 0 -11 5 -11 10 0 6 2 10 4
10 3 0 8 -4 11 -10z m305 -39 c0 -3 16 -17 36 -30 26 -18 32 -27 22 -33 -9 -6
-5 -7 10 -3 16 5 22 2 22 -9 0 -9 -6 -16 -13 -16 -16 0 -77 50 -62 50 6 0 2 5
-7 10 -9 6 -27 24 -39 41 l-22 32 26 -18 c15 -9 27 -20 27 -24z m6338 8 c18
-18 30 -24 26 -15 -4 12 -1 16 15 16 13 0 19 -5 15 -14 -6 -16 24 -30 74 -35
6 0 12 -8 12 -17 0 -14 3 -14 15 -4 9 7 15 8 15 2 0 -5 11 -13 25 -16 14 -4
25 -13 25 -21 0 -8 7 -15 15 -15 8 0 15 3 15 7 0 10 -62 62 -82 69 -10 3 -18
12 -18 19 0 9 -6 12 -17 8 -11 -4 -15 -2 -10 3 10 10 57 13 54 4 -3 -10 68
-68 94 -79 13 -5 37 -7 53 -6 25 3 27 1 21 -23 -5 -22 -4 -24 8 -13 12 10 18
8 29 -8 7 -10 30 -27 49 -36 20 -9 41 -25 47 -36 10 -16 8 -20 -16 -26 l-27
-6 30 -13 c23 -10 25 -13 10 -14 -11 0 -31 7 -44 16 -18 13 -20 19 -10 26 11
8 10 9 -3 4 -12 -4 -36 13 -77 54 -32 33 -65 60 -73 60 -7 0 7 -18 30 -40 24
-22 39 -40 32 -40 -6 0 -8 -5 -4 -12 4 -7 3 -8 -5 -4 -6 4 -8 12 -5 18 5 7 0
9 -14 6 -13 -4 -20 -2 -19 6 1 6 -3 10 -9 9 -7 -1 -11 5 -10 15 1 13 -6 17
-32 15 -25 -1 -32 2 -28 13 5 14 -3 17 -40 15 -11 -1 -44 17 -73 39 -29 23
-55 39 -58 36 -3 -3 -18 3 -32 13 -14 10 -34 21 -43 24 -10 4 -18 11 -18 17 0
19 26 10 58 -21z m22 21 c0 -5 -4 -10 -9 -10 -6 0 -13 5 -16 10 -3 6 1 10 9
10 9 0 16 -4 16 -10z m89 -25 c-7 -6 -13 -5 -19 5 -12 20 -2 32 15 17 8 -8 10
-16 4 -22z m136 1 c6 2 28 -7 50 -21 22 -13 57 -33 78 -45 20 -11 37 -27 37
-35 0 -20 -15 -19 -36 2 -20 21 -48 38 -86 54 -16 6 -26 15 -23 19 3 5 -7 10
-21 12 -20 2 -28 9 -30 28 -4 24 -3 24 9 4 6 -12 17 -20 22 -18z m-7449 13 c4
-8 9 -7 15 2 7 11 9 11 9 -2 0 -9 21 -35 46 -58 34 -31 52 -40 68 -36 18 5 19
5 4 -5 -21 -13 -29 -9 -90 43 -25 20 -53 44 -64 52 -10 8 -14 15 -7 15 6 0 15
-5 19 -11z m679 -26 c22 -19 56 -48 75 -64 19 -16 31 -29 26 -29 -8 0 -81 57
-131 102 -16 16 -25 28 -20 28 6 0 28 -17 50 -37z m7539 22 c25 -19 9 -19 -24
0 -14 8 -19 14 -10 14 8 0 24 -6 34 -14z m-7440 -11 c9 -23 8 -23 -18 -11 -16
8 -21 14 -13 19 18 11 24 10 31 -8z m127 -1 c13 -17 13 -17 -6 -3 -11 8 -22
16 -24 17 -2 2 0 3 6 3 6 0 17 -8 24 -17z m214 7 c3 -5 -1 -10 -10 -10 -9 0
-13 5 -10 10 3 6 8 10 10 10 2 0 7 -4 10 -10z m5849 -19 c-2 -3 -12 3 -22 13
-16 17 -16 18 5 5 12 -7 20 -15 17 -18z m-6352 -1 c-2 -8 3 -10 13 -6 9 3 13
2 10 -4 -3 -5 -19 -7 -36 -5 -20 2 -29 0 -26 -8 2 -7 13 -11 23 -10 10 1 13 0
6 -3 -10 -5 -10 -9 -1 -20 21 -25 -3 -15 -28 12 -26 28 -25 34 4 39 10 1 17 8
15 15 -1 6 3 10 10 7 7 -2 12 -10 10 -17z m333 10 c3 -5 1 -10 -6 -10 -8 0 -8
-5 2 -17 11 -15 11 -16 -1 -6 -16 15 -22 43 -10 43 5 0 12 -4 15 -10z m7496
-7 c13 -16 12 -17 -3 -4 -10 7 -18 15 -18 17 0 8 8 3 21 -13z m-8856 -13 c10
-11 16 -20 13 -20 -3 0 -13 9 -23 20 -10 11 -16 20 -13 20 3 0 13 -9 23 -20z
m7461 5 c10 -8 15 -14 9 -14 -5 0 -19 6 -29 14 -11 8 -15 15 -10 15 6 0 19 -7
30 -15z m-7322 -34 c-3 -3 -15 6 -27 18 l-22 24 27 -19 c14 -10 24 -21 22 -23z
m1345 13 c3 -16 1 -17 -13 -5 -19 16 -21 34 -3 29 6 -3 14 -13 16 -24z m6076
16 c3 -6 -1 -7 -9 -4 -18 7 -21 14 -7 14 6 0 13 -4 16 -10z m1145 -5 c11 -13
10 -14 -4 -9 -9 3 -16 10 -16 15 0 13 6 11 20 -6z m-7632 -19 c0 -19 -3 -22
-13 -13 -9 8 -10 16 -3 25 14 17 16 16 16 -12z m7833 7 c13 -16 12 -17 -3 -4
-17 13 -22 21 -14 21 2 0 10 -8 17 -17z m-7491 -13 c0 -24 -25 -27 -34 -4 -3
8 -2 12 4 9 6 -3 10 -1 10 4 0 6 5 11 10 11 6 0 10 -9 10 -20z m113 0 c9 -11
13 -20 9 -20 -10 1 -42 26 -42 34 0 12 16 6 33 -14z m6047 -38 c9 -8 -1 -6
-26 6 -22 11 -47 29 -55 38 -11 14 -5 13 26 -5 22 -13 47 -31 55 -39z m-7495
-1 c-3 -3 -18 8 -33 23 l-27 29 32 -23 c18 -13 30 -26 28 -29z m7212 43 c-3
-3 -12 -4 -19 -1 -8 3 -5 6 6 6 11 1 17 -2 13 -5z m68 -4 c3 -5 2 -10 -4 -10
-5 0 -13 5 -16 10 -3 6 -2 10 4 10 5 0 13 -4 16 -10z m110 -16 c17 -11 58 -37
93 -58 34 -21 62 -40 62 -43 0 -3 -17 5 -37 17 -21 12 -62 36 -90 52 -29 17
-53 34 -53 40 0 6 -11 8 -24 4 -14 -3 -27 -3 -30 2 -10 16 50 6 79 -14z m155
6 c3 -4 14 -12 25 -18 19 -11 19 -12 -4 -8 -14 1 -27 8 -29 14 -2 7 -10 12
-18 12 -8 0 -14 4 -14 10 0 10 31 2 40 -10z m-6975 0 c3 -5 -3 -10 -15 -10
-12 0 -18 5 -15 10 3 6 10 10 15 10 5 0 12 -4 15 -10z m7860 -8 c-3 -3 -11 0
-18 7 -9 10 -8 11 6 5 10 -3 15 -9 12 -12z m-7398 -6 c-6 -16 20 -43 30 -32 4
4 1 12 -7 17 -13 9 -13 10 0 6 23 -6 18 -32 -7 -33 -12 -1 -20 2 -18 7 3 4 1
10 -5 14 -14 8 -13 35 1 35 6 0 9 -6 6 -14z m359 -1 c-3 -9 3 -20 14 -27 11
-7 20 -17 20 -22 0 -5 -11 0 -23 13 -14 12 -31 19 -39 16 -9 -4 -19 -2 -23 4
-3 7 0 8 9 5 11 -4 16 0 16 10 0 9 7 16 16 16 10 0 14 -5 10 -15z m7368 6 c4
-5 -3 -7 -14 -4 -23 6 -26 13 -6 13 8 0 17 -4 20 -9z m-8834 -17 c0 -2 -7 -4
-15 -4 -8 0 -15 4 -15 10 0 5 7 7 15 4 8 -4 15 -8 15 -10z m755 -15 c27 -19
28 -20 5 -13 -13 3 -30 13 -38 20 -20 21 -1 17 33 -7z m775 17 c0 -3 -4 -8
-10 -11 -5 -3 -10 -1 -10 4 0 6 5 11 10 11 6 0 10 -2 10 -4z m5765 -6 c3 -5 2
-10 -4 -10 -5 0 -13 5 -16 10 -3 6 -2 10 4 10 5 0 13 -4 16 -10z m1916 -7 c13
-17 13 -17 -6 -3 -11 8 -22 16 -24 17 -2 2 0 3 6 3 6 0 17 -8 24 -17z m-8611
-14 c0 -6 -4 -7 -10 -4 -5 3 -10 11 -10 16 0 6 5 7 10 4 6 -3 10 -11 10 -16z
m485 1 c-3 -5 5 -19 17 -31 l23 -23 -25 16 c-14 8 -26 25 -26 36 -1 12 3 19 8
16 4 -3 6 -9 3 -14z m329 -3 c11 -5 16 -13 12 -23 -4 -12 -2 -15 9 -10 10 4
15 -1 15 -15 0 -15 5 -19 19 -14 10 3 24 -1 31 -10 10 -12 10 -15 0 -15 -10 0
-10 -3 0 -15 11 -13 15 -13 21 -3 5 7 9 11 10 8 0 -3 2 -15 5 -27 2 -13 -1
-23 -6 -23 -6 0 -10 4 -10 9 0 4 -17 20 -37 34 -66 46 -90 71 -97 102 -4 17
-3 25 1 19 4 -6 16 -14 27 -17z m6766 11 c0 -6 3 -8 6 -5 6 6 154 -90 154
-100 0 -6 -71 37 -86 52 -6 6 -30 19 -53 29 -38 18 -54 36 -31 36 6 0 10 -5
10 -12z m-6630 -8 c0 -5 -4 -10 -10 -10 -5 0 -10 5 -10 10 0 6 5 10 10 10 6 0
10 -4 10 -10z m5855 -11 c20 -12 34 -24 31 -26 -2 -3 -22 7 -43 21 -46 31 -38
34 12 5z m-6175 -11 c0 -6 -6 -5 -15 2 -8 7 -15 14 -15 16 0 2 7 1 15 -2 8 -4
15 -11 15 -16z m248 -3 c12 -14 19 -25 16 -25 -4 0 -17 11 -30 25 -13 14 -20
25 -15 25 4 0 17 -11 29 -25z m6152 10 c11 -13 10 -14 -4 -9 -9 3 -16 10 -16
15 0 13 6 11 20 -6z m900 -6 c0 -6 -4 -7 -10 -4 -5 3 -10 11 -10 16 0 6 5 7
10 4 6 -3 10 -11 10 -16z m65 11 c3 -5 1 -10 -4 -10 -6 0 -11 5 -11 10 0 6 2
10 4 10 3 0 8 -4 11 -10z m-7964 -17 c13 -16 12 -17 -3 -4 -10 7 -18 15 -18
17 0 8 8 3 21 -13z m6719 7 c0 -5 -2 -10 -4 -10 -3 0 -8 5 -11 10 -3 6 -1 10
4 10 6 0 11 -4 11 -10z m-7190 -20 c0 -5 -9 -6 -20 -3 -11 3 -17 9 -15 14 7
10 35 1 35 -11z m1200 -1 c0 -4 -7 -6 -15 -3 -8 4 -15 10 -15 15 0 4 7 6 15 3
8 -4 15 -10 15 -15z m197 10 c-10 -6 -14 -15 -10 -22 10 -17 11 -47 1 -41 -5
3 -7 13 -6 22 2 12 -3 16 -17 15 -18 -1 -18 0 4 18 13 10 28 19 35 19 6 0 3
-5 -7 -11z m6590 -14 l28 -26 -34 14 c-19 7 -36 18 -39 25 -6 20 15 14 45 -13z
m-7792 5 c3 -5 1 -10 -4 -10 -6 0 -11 5 -11 10 0 6 2 10 4 10 3 0 8 -4 11 -10z
m124 7 c-2 -1 -12 -9 -22 -16 -15 -12 -17 -12 -11 3 3 9 13 16 22 16 8 0 13
-1 11 -3z m736 -7 c3 -5 0 -10 -7 -11 -10 0 -11 -2 0 -6 10 -4 10 -8 1 -19 -9
-11 -8 -14 1 -14 8 0 11 -2 8 -5 -10 -11 -39 7 -30 19 5 6 8 19 7 29 -3 18 10
23 20 7z m6195 -10 c14 -11 31 -20 38 -20 6 0 12 -5 12 -10 0 -7 -6 -7 -17 -2
-10 5 -23 8 -29 5 -5 -2 -21 8 -34 22 -29 31 -7 34 30 5z m380 -5 c0 -15 -21
-12 -30 5 -11 20 -10 21 9 10 12 -6 21 -13 21 -15z m810 -11 c0 -2 -11 2 -25
8 -14 6 -25 15 -25 20 0 5 11 1 25 -8 14 -9 25 -18 25 -20z m-7332 14 c5 -7
13 -28 17 -45 7 -35 48 -75 69 -67 7 3 19 -2 26 -11 11 -13 10 -15 -6 -9 -13
5 -8 -5 15 -29 19 -21 30 -37 24 -37 -6 0 -17 9 -24 21 -9 13 -20 18 -30 14
-14 -5 -13 -10 10 -33 14 -16 33 -26 41 -24 13 3 13 3 0 -7 -11 -8 -22 -3 -47
21 -18 17 -31 36 -30 41 1 6 -9 16 -22 23 -13 7 -28 18 -32 26 -18 27 -8 26
23 -3 30 -26 48 -36 48 -25 0 3 -20 24 -44 48 -25 24 -46 54 -48 68 -2 14 -7
28 -13 32 -6 5 -6 8 1 8 6 0 16 -6 22 -12z m6982 -14 c0 -2 -9 0 -20 6 -11 6
-20 13 -20 16 0 2 9 0 20 -6 11 -6 20 -13 20 -16z m-7540 -25 c0 -5 -11 1 -25
13 -14 12 -25 23 -25 25 0 2 11 -4 25 -13 14 -9 25 -20 25 -25z m680 15 c0 -8
4 -13 9 -10 5 3 14 -1 20 -8 19 -23 -24 -8 -45 15 -16 17 -16 19 -1 19 10 0
17 -7 17 -16z m6540 -70 c0 -3 -17 5 -37 17 -21 13 -46 28 -55 33 -10 6 -20
16 -23 24 -2 7 22 -6 55 -28 33 -22 60 -43 60 -46z m764 57 c-2 -3 -12 3 -22
13 -16 17 -16 18 5 5 12 -7 20 -15 17 -18z m297 12 c13 -17 13 -17 -6 -3 -11
8 -22 16 -24 17 -2 2 0 3 6 3 6 0 17 -8 24 -17z m-1466 -11 c-3 -3 -11 0 -18
7 -9 10 -8 11 6 5 10 -3 15 -9 12 -12z m595 3 c7 -9 8 -15 2 -15 -5 0 -12 7
-16 15 -3 8 -4 15 -2 15 2 0 9 -7 16 -15z m165 -5 c10 -11 16 -20 13 -20 -3 0
-13 9 -23 20 -10 11 -16 20 -13 20 3 0 13 -9 23 -20z m85 -11 c0 -18 -18 -9
-23 12 -4 16 -3 18 9 8 8 -6 14 -15 14 -20z m-675 11 c3 -5 1 -10 -4 -10 -6 0
-11 5 -11 10 0 6 2 10 4 10 3 0 8 -4 11 -10z m-7465 -10 c0 -5 -2 -10 -4 -10
-3 0 -8 5 -11 10 -3 6 -1 10 4 10 6 0 11 -4 11 -10z m461 -7 c13 -16 12 -17
-3 -4 -10 7 -18 15 -18 17 0 8 8 3 21 -13z m660 -13 c36 -31 49 -37 49 -20 0
6 7 10 15 10 20 0 19 -16 -2 -24 -15 -6 -15 -8 -3 -16 8 -5 11 -12 6 -17 -4
-4 -11 -1 -16 8 -5 9 -27 28 -50 44 -22 15 -40 32 -40 36 0 14 5 11 41 -21z
m6171 1 c12 -14 11 -14 -4 -3 -9 8 -26 11 -37 7 -10 -3 -22 -1 -26 4 -4 7 1 8
11 4 11 -4 15 -3 11 4 -11 18 31 3 45 -16z m1134 21 c-3 -5 6 -15 19 -22 14
-7 25 -17 25 -22 0 -5 -13 1 -30 14 -31 22 -39 38 -19 38 5 0 8 -4 5 -8z
m-7818 -8 c17 -5 20 -10 11 -20 -12 -15 -35 -9 -43 12 -6 16 -2 17 32 8z
m6782 -26 c0 -5 -9 -3 -20 4 -11 7 -20 16 -20 20 0 5 9 3 20 -4 11 -7 20 -16
20 -20z m135 2 c11 -17 -5 -11 -28 11 l-22 21 22 -11 c12 -6 25 -16 28 -21z
m379 5 c11 -8 16 -15 11 -15 -4 0 -6 -2 -3 -5 3 -3 13 -2 23 1 15 6 15 8 -6
20 -13 7 -19 13 -12 14 7 0 28 -14 48 -31 30 -27 33 -34 23 -48 -10 -13 -10
-14 2 -3 14 12 39 18 27 5 -4 -3 11 -19 33 -35 22 -17 38 -33 36 -36 -2 -4 8
-8 22 -8 l27 -2 -24 17 c-14 9 -34 23 -44 32 -19 15 -20 16 -1 23 10 4 15 4
11 0 -4 -4 0 -16 9 -26 13 -14 20 -15 31 -6 10 8 13 8 11 0 -2 -6 11 -23 27
-37 23 -20 24 -23 7 -15 -15 7 -28 8 -40 1 -12 -8 -13 -10 -3 -11 8 0 11 -3 8
-6 -4 -4 -22 5 -41 20 -19 14 -45 30 -58 35 -35 13 -89 61 -82 73 3 5 13 7 21
3 13 -4 14 -3 3 9 -11 14 -14 14 -27 1 -19 -19 -18 -19 -59 9 -23 16 -31 26
-22 29 19 8 21 8 42 -8z m-7674 1 c0 -2 -7 -7 -16 -10 -8 -3 -12 -2 -9 4 6 10
25 14 25 6z m6989 -12 c13 -12 -8 -10 -29 2 l-25 15 25 -7 c14 -3 27 -8 29
-10z m571 -6 c0 -6 -6 -5 -15 2 -8 7 -15 14 -15 16 0 2 7 1 15 -2 8 -4 15 -11
15 -16z m816 0 l19 -23 -25 20 c-14 11 -27 21 -29 22 -2 2 0 3 6 3 5 0 18 -10
29 -22z m118 -7 c-2 -3 -12 3 -22 13 -16 17 -16 18 5 5 12 -7 20 -15 17 -18z
m-1618 -7 c18 -14 18 -14 -6 -3 -31 14 -36 19 -24 19 6 0 19 -7 30 -16z m334
-5 l25 -20 -32 16 c-18 8 -33 18 -33 20 0 10 16 4 40 -16z m-7155 -7 c-3 -3
-11 0 -18 7 -9 10 -8 11 6 5 10 -3 15 -9 12 -12z m355 8 c0 -5 -4 -10 -10 -10
-5 0 -10 5 -10 10 0 6 5 10 10 10 6 0 10 -4 10 -10z m6720 -67 c0 -8 -74 39
-95 60 -11 10 6 2 38 -18 31 -21 57 -40 57 -42z m6 61 c18 -14 18 -14 -6 -3
-31 14 -36 19 -24 19 6 0 19 -7 30 -16z m450 -9 c1 -9 -4 -11 -14 -7 -15 5
-15 4 -3 -12 12 -14 8 -13 -22 4 -38 23 -52 39 -18 20 25 -13 34 -13 26 0 -4
6 1 7 11 3 13 -5 15 -3 9 8 -5 8 -4 11 0 6 5 -4 10 -14 11 -22z m969 7 c-3 -3
-11 0 -18 7 -9 10 -8 11 6 5 10 -3 15 -9 12 -12z m106 1 c13 -16 12 -17 -3 -4
-17 13 -22 21 -14 21 2 0 10 -8 17 -17z m-7521 -3 c0 -5 -4 -10 -10 -10 -5 0
-10 5 -10 10 0 6 5 10 10 10 6 0 10 -4 10 -10z m6220 -5 c11 -13 10 -14 -4 -9
-9 3 -16 10 -16 15 0 13 6 11 20 -6z m317 -10 l28 -26 -40 23 c-51 28 -51 28
-32 28 9 0 29 -11 44 -25z m-6682 -14 c-3 -6 -14 -11 -23 -11 -15 1 -15 2 2
15 21 16 32 13 21 -4z m79 -23 c13 -9 3 -10 -18 -2 -9 3 -13 10 -10 15 3 5 -5
9 -18 10 -22 0 -22 1 -3 8 14 6 23 4 29 -8 5 -9 14 -19 20 -23z m5713 2 c4 0
16 -12 26 -25 28 -38 7 -29 -48 21 -30 28 -38 38 -18 25 17 -12 35 -21 40 -21z
m1685 2 c-16 -5 -27 -3 -27 6 0 4 -4 13 -9 21 -5 8 2 6 19 -5 15 -10 23 -20
17 -22z m-8510 -35 c15 -14 43 -38 63 -53 19 -14 35 -31 35 -36 0 -5 -6 -4
-12 1 -29 23 -105 90 -138 121 -32 29 -32 30 -5 12 17 -11 42 -31 57 -45z
m233 53 c3 -5 1 -10 -4 -10 -6 0 -11 5 -11 10 0 6 2 10 4 10 3 0 8 -4 11 -10z
m265 0 c0 -5 -2 -10 -4 -10 -3 0 -8 5 -11 10 -3 6 -1 10 4 10 6 0 11 -4 11
-10z m6725 0 c3 -6 -1 -7 -9 -4 -18 7 -21 14 -7 14 6 0 13 -4 16 -10z m435 -5
c10 -13 9 -15 -11 -14 -13 0 -18 3 -11 6 6 2 10 9 6 14 -9 15 2 10 16 -6z
m-369 -12 c13 -16 12 -17 -3 -4 -10 7 -18 15 -18 17 0 8 8 3 21 -13z m210 0
c16 -10 29 -22 29 -27 0 -5 -8 -2 -18 7 -20 19 -37 23 -27 7 3 -5 2 -10 -4
-10 -5 0 -13 5 -16 10 -3 6 0 10 7 10 9 0 9 3 -2 10 -26 17 1 11 31 -7z
m-7151 -85 c0 -17 -17 -4 -60 45 l-45 51 52 -44 c29 -25 53 -48 53 -52z m190
88 c0 -11 -19 -15 -25 -6 -3 5 1 10 9 10 9 0 16 -2 16 -4z m505 -6 c-3 -5 -12
-10 -18 -10 -7 0 -6 4 3 10 19 12 23 12 15 0z m-870 -10 c3 -6 -1 -7 -9 -4
-18 7 -21 14 -7 14 6 0 13 -4 16 -10z m6775 -16 c0 -2 -9 0 -20 6 -11 6 -20
13 -20 16 0 2 9 0 20 -6 11 -6 20 -13 20 -16z m81 9 c13 -17 13 -17 -6 -3 -11
8 -22 16 -24 17 -2 2 0 3 6 3 6 0 17 -8 24 -17z m-6453 -2 c32 -17 122 -111
107 -111 -8 0 -40 24 -70 54 -30 29 -57 51 -60 48 -3 -3 -5 0 -5 6 0 14 6 15
28 3z m329 -13 c25 -24 30 -38 11 -38 -6 0 -8 3 -5 7 11 10 -13 33 -35 33 -10
0 -16 5 -13 10 9 15 16 13 42 -12z m203 -20 c0 -5 -13 1 -30 14 -16 12 -30 23
-30 25 0 2 14 -4 30 -14 17 -9 30 -21 30 -25z m6624 17 c11 -8 15 -15 10 -15
-6 0 -19 7 -30 15 -10 8 -14 14 -9 14 6 0 19 -6 29 -14z m173 -55 c12 -11 32
-20 45 -21 23 0 23 0 -2 -10 -17 -7 -26 -7 -28 1 -2 6 -30 29 -63 51 -32 22
-59 42 -59 44 0 7 85 -44 107 -65z m-7479 35 c-3 -3 -9 2 -12 12 -6 14 -5 15
5 6 7 -7 10 -15 7 -18z m317 -10 c27 -23 35 -35 23 -35 -9 0 -24 7 -32 16 -9
8 -21 12 -27 8 -8 -4 -9 -3 -5 4 4 7 2 12 -3 12 -6 0 -11 7 -11 15 0 22 10 18
55 -20z m6218 -30 c43 -18 63 -40 45 -51 -7 -4 -10 -3 -5 1 4 5 -13 20 -37 34
-25 15 -54 40 -66 56 l-22 30 26 -28 c14 -15 41 -34 59 -42z m139 51 c7 4 8 3
4 -4 -10 -16 -18 -15 -42 4 -18 14 -18 15 4 4 12 -6 28 -8 34 -4z m146 -11
c20 -14 40 -25 45 -25 5 0 25 -12 45 -27 53 -38 59 -45 42 -41 -8 2 -26 13
-40 26 -27 24 -45 29 -34 10 4 -7 4 -10 0 -6 -4 3 -7 9 -6 13 2 8 -69 54 -83
55 -5 0 -5 -6 -1 -12 4 -7 3 -9 -1 -5 -10 8 -16 37 -9 37 3 0 22 -11 42 -25z
m43 8 c13 -16 12 -17 -3 -4 -10 7 -18 15 -18 17 0 8 8 3 21 -13z m-6396 -3 c3
-5 1 -10 -4 -10 -6 0 -11 5 -11 10 0 6 2 10 4 10 3 0 8 -4 11 -10z m5770 -8
c-3 -3 -11 0 -18 7 -9 10 -8 11 6 5 10 -3 15 -9 12 -12z m926 -2 l24 -21 -32
16 c-32 15 -42 25 -24 25 5 0 19 -9 32 -20z m244 -16 l40 -36 -40 28 c-53 37
-61 44 -49 44 5 0 27 -16 49 -36z m-625 -24 c33 -22 60 -43 60 -45 0 -4 -139
82 -150 93 -16 16 39 -13 90 -48z m264 21 c-2 -3 -12 3 -22 13 -16 17 -16 18
5 5 12 -7 20 -15 17 -18z m-6274 5 c-7 -7 -13 -7 -20 0 -6 6 -3 10 10 10 13 0
16 -4 10 -10z m5870 10 c0 -11 -19 -15 -25 -6 -3 5 1 10 9 10 9 0 16 -2 16 -4z
m-6109 -26 c5 0 23 -13 41 -30 17 -16 25 -30 18 -30 -14 0 -80 64 -79 77 0 4
3 2 6 -4 2 -7 9 -13 14 -13z m5869 -6 c0 -2 -9 0 -20 6 -11 6 -20 13 -20 16 0
2 9 0 20 -6 11 -6 20 -13 20 -16z m998 -4 c23 -17 42 -33 42 -35 0 -9 -42 15
-73 41 -41 34 -18 29 31 -6z m170 3 c50 -39 95 -83 83 -83 -6 0 -8 -7 -4 -16
5 -14 3 -14 -15 -3 -12 7 -17 16 -11 19 13 9 -69 90 -91 90 -5 0 -10 5 -10 10
0 15 8 12 48 -17z m-8431 11 c-3 -3 -12 -4 -19 -1 -8 3 -5 6 6 6 11 1 17 -2
13 -5z m7584 -11 c13 -16 12 -17 -3 -4 -10 7 -18 15 -18 17 0 8 8 3 21 -13z
m-120 -10 c13 -16 12 -17 -3 -4 -17 13 -22 21 -14 21 2 0 10 -8 17 -17z
m-6561 -3 c8 -5 11 -10 5 -10 -5 0 -17 5 -25 10 -8 5 -10 10 -5 10 6 0 17 -5
25 -10z m6306 -21 c4 -8 1 -8 -14 0 -12 6 -24 16 -28 22 -4 8 -1 8 14 0 12 -6
24 -16 28 -22z m879 21 c-3 -5 -12 -10 -18 -10 -7 0 -6 4 3 10 19 12 23 12 15
0z m-6575 -21 c0 -6 -4 -7 -10 -4 -5 3 -10 11 -10 16 0 6 5 7 10 4 6 -3 10
-11 10 -16z m5830 10 c12 -8 10 -9 -9 -4 -17 5 -22 4 -16 -5 5 -9 4 -11 -4 -6
-6 4 -9 12 -6 17 8 12 16 11 35 -2z m1180 -14 c4 3 13 -2 20 -10 10 -12 10
-15 -1 -15 -24 1 -52 28 -43 42 7 10 9 9 12 -5 2 -9 7 -15 12 -12z m-7620 -37
c0 -15 -19 -8 -44 16 -37 33 -32 40 9 14 19 -13 35 -26 35 -30z m357 39 c10 4
14 2 10 -4 -4 -6 4 -14 18 -17 32 -8 32 -19 0 -40 -14 -9 -25 -12 -25 -7 0 5
6 12 13 15 8 3 3 13 -15 28 -16 13 -28 28 -27 33 0 6 3 5 5 -2 3 -7 12 -9 21
-6z m103 -44 c0 -4 -11 4 -25 17 -14 13 -25 28 -25 33 0 6 11 -2 25 -17 14
-15 25 -30 25 -33z m6224 31 c26 -15 45 -28 42 -31 -2 -2 -22 7 -45 21 -45 28
-56 32 -45 14 4 -7 3 -8 -5 -4 -6 4 -9 12 -6 17 8 12 6 13 59 -17z m118 -27
c7 -2 10 -8 6 -12 -4 -4 -24 10 -45 30 -32 31 -33 34 -6 12 18 -14 38 -27 45
-30z m728 33 c8 -5 11 -10 5 -10 -5 0 -17 5 -25 10 -8 5 -10 10 -5 10 6 0 17
-5 25 -10z m-7855 -18 c-3 -3 -11 0 -18 7 -9 10 -8 11 6 5 10 -3 15 -9 12 -12z
m210 -2 c10 -11 15 -20 12 -20 -4 0 -16 9 -27 20 -11 11 -16 20 -12 20 5 0 17
-9 27 -20z m390 -19 c-7 -6 -55 21 -55 31 0 5 13 1 30 -8 16 -10 27 -20 25
-23z m53 12 c21 -20 0 -15 -28 7 -20 16 -21 19 -5 13 11 -4 26 -13 33 -20z
m6667 9 c-3 -3 -11 0 -18 7 -9 10 -8 11 6 5 10 -3 15 -9 12 -12z m155 -6 c0
-2 -8 -7 -17 -10 -10 -4 -14 -4 -10 0 4 4 1 14 -6 22 -10 13 -9 14 11 3 12 -6
22 -13 22 -15z m-6530 -45 c0 -19 -27 -12 -42 12 -23 34 -11 49 18 22 13 -12
24 -27 24 -34z m6304 -17 c26 -19 47 -72 24 -58 -5 3 -7 11 -5 17 2 7 -3 17
-12 24 -21 16 -39 17 -23 1 7 -7 12 -17 12 -22 0 -6 -5 -3 -11 7 -5 9 -16 17
-23 17 -8 0 -20 8 -27 18 -13 15 -12 16 3 4 10 -8 22 -12 28 -10 7 2 -9 18
-34 36 -25 18 -46 35 -46 38 0 5 71 -40 114 -72z m-6818 19 c19 -19 20 -22 6
-28 -9 -3 -13 -3 -9 1 4 4 -7 24 -25 43 -34 36 -9 23 28 -16z m6290 15 l29
-31 -32 22 c-35 23 -50 41 -35 41 4 0 21 -14 38 -32z m294 12 c14 -11 21 -20
17 -20 -5 0 -20 9 -34 20 -14 11 -22 20 -17 20 5 0 20 -9 34 -20z m665 10 c3
-5 2 -10 -4 -10 -5 0 -13 5 -16 10 -3 6 -2 10 4 10 5 0 13 -4 16 -10z m135 -5
c0 -2 -9 -3 -19 -2 -11 0 -18 5 -15 9 4 6 34 0 34 -7z m-163 -22 c-8 -7 -37 9
-31 19 3 5 12 4 20 -3 8 -6 13 -14 11 -16z m-772 7 c3 -6 -1 -7 -9 -4 -18 7
-21 14 -7 14 6 0 13 -4 16 -10z m634 -4 c18 -22 -2 -25 -21 -4 -14 13 -15 18
-4 18 7 0 19 -6 25 -14z m361 -6 c0 -5 -7 -7 -15 -4 -8 4 -12 10 -9 15 6 11
24 2 24 -11z m-7620 0 c0 -5 -2 -10 -4 -10 -3 0 -8 5 -11 10 -3 6 -1 10 4 10
6 0 11 -4 11 -10z m110 -6 c-15 -17 -17 -17 -23 -1 -3 8 3 14 15 14 16 2 17
-1 8 -13z m7370 6 c0 -5 -2 -10 -4 -10 -3 0 -8 5 -11 10 -3 6 -1 10 4 10 6 0
11 -4 11 -10z m365 0 c3 -5 1 -10 -4 -10 -6 0 -11 5 -11 10 0 6 2 10 4 10 3 0
8 -4 11 -10z m46 -7 c13 -16 12 -17 -3 -4 -17 13 -22 21 -14 21 2 0 10 -8 17
-17z m-8073 -13 c7 -11 11 -20 9 -20 -2 0 -12 9 -22 20 -10 11 -14 20 -9 20 5
0 15 -9 22 -20z m792 10 c0 -5 -4 -10 -10 -10 -5 0 -10 5 -10 10 0 6 5 10 10
10 6 0 10 -4 10 -10z m5655 -8 c-3 -3 -11 0 -18 7 -9 10 -8 11 6 5 10 -3 15
-9 12 -12z m1520 8 c-3 -5 0 -10 8 -10 7 0 26 -13 42 -30 l28 -30 -39 20 c-21
11 -45 18 -52 15 -7 -3 -11 -1 -9 3 2 4 7 15 10 25 4 9 9 17 12 17 4 0 3 -4 0
-10z m-1475 -10 c8 -5 11 -10 5 -10 -5 0 -17 5 -25 10 -8 5 -10 10 -5 10 6 0
17 -5 25 -10z m355 0 c3 -6 -1 -7 -9 -4 -18 7 -21 14 -7 14 6 0 13 -4 16 -10z
m211 -5 c10 -8 15 -14 9 -14 -5 0 -19 6 -29 14 -11 8 -15 15 -10 15 6 0 19 -7
30 -15z m179 5 c3 -6 -1 -7 -9 -4 -18 7 -21 14 -7 14 6 0 13 -4 16 -10z m253
-8 c6 -18 -15 -14 -22 4 -4 10 -1 14 6 12 6 -2 14 -10 16 -16z m-6527 -6 c-23
-8 -31 -15 -22 -20 9 -6 8 -11 -6 -22 -25 -19 -32 -17 -26 7 6 20 3 21 -23 15
-16 -4 -32 -12 -35 -18 -4 -6 -24 -12 -46 -14 -32 -3 -46 2 -74 26 -19 16 -28
29 -21 30 6 0 12 -5 12 -11 0 -5 4 -8 9 -5 14 9 41 -5 41 -21 0 -8 5 -11 11
-7 6 3 9 15 6 25 -6 24 18 26 27 2 5 -13 9 -14 15 -5 8 13 73 27 131 29 l35 1
-34 -12z m5769 -7 c0 -4 -7 -6 -15 -3 -8 4 -15 10 -15 15 0 4 7 6 15 3 8 -4
15 -10 15 -15z m1154 -10 c26 -17 45 -33 43 -36 -2 -2 -28 12 -58 32 -29 19
-49 35 -43 35 6 0 32 -14 58 -31z m-1459 11 c3 -6 -1 -7 -9 -4 -18 7 -21 14
-7 14 6 0 13 -4 16 -10z m1830 -28 c-5 -5 -45 22 -45 31 0 4 11 0 24 -10 13
-10 23 -19 21 -21z m-7815 7 c0 -5 7 -12 16 -16 26 -10 119 -106 107 -110 -9
-3 -62 40 -135 110 -22 21 -24 39 -3 31 8 -4 15 -10 15 -15z m-80 -10 c0 -6
-4 -7 -10 -4 -5 3 -10 11 -10 16 0 6 5 7 10 4 6 -3 10 -11 10 -16z m6121 -5
c23 -25 23 -26 2 -13 -13 7 -25 19 -27 26 -8 19 -2 16 25 -13z m408 -70 c57
-38 116 -77 133 -88 41 -26 27 -31 -19 -7 -48 27 -230 154 -252 176 -15 16
-14 17 9 2 14 -8 72 -46 129 -83z m-6615 70 c3 -8 2 -12 -4 -9 -6 3 -10 10
-10 16 0 14 7 11 14 -7z m6741 -57 c26 -25 21 -24 -32 12 -34 22 -65 46 -69
53 -12 19 68 -32 101 -65z m64 28 c34 -25 61 -47 61 -51 0 -6 -11 0 -70 40
-52 35 -75 56 -62 56 5 0 37 -20 71 -45z m-6993 4 c19 -22 19 -22 -3 -8 -13 8
-23 17 -23 21 0 12 6 9 26 -13z m7989 11 c3 -5 2 -10 -4 -10 -5 0 -13 5 -16
10 -3 6 -2 10 4 10 5 0 13 -4 16 -10z m-1745 -20 c21 -1 23 -2 8 -11 -18 -10
-58 7 -58 25 0 6 5 5 12 -2 7 -7 23 -12 38 -12z m95 10 c3 -6 -1 -7 -9 -4 -18
7 -21 14 -7 14 6 0 13 -4 16 -10z m320 0 c3 -5 2 -10 -4 -10 -5 0 -13 5 -16
10 -3 6 -2 10 4 10 5 0 13 -4 16 -10z m528 -15 c23 -14 60 -41 82 -61 36 -32
37 -34 10 -20 -16 8 -41 25 -55 38 -40 37 -80 59 -92 52 -7 -4 -8 -3 -4 4 10
16 11 16 59 -13z m-6833 -19 c21 -27 -3 -17 -30 11 -21 22 -22 25 -4 15 11 -6
26 -18 34 -26z m125 24 c3 -5 -3 -10 -15 -10 -12 0 -18 5 -15 10 3 6 10 10 15
10 5 0 12 -4 15 -10z m5640 0 c3 -6 -1 -7 -9 -4 -18 7 -21 14 -7 14 6 0 13 -4
16 -10z m591 -21 c19 -22 19 -22 -3 -10 -24 12 -39 31 -25 31 5 0 17 -10 28
-21z m1362 -5 c1 -1 0 -9 -4 -18 -5 -14 -9 -13 -20 10 -18 35 -18 39 4 23 9
-7 18 -14 20 -15z m-7308 6 c0 -5 -5 -10 -11 -10 -5 0 -7 5 -4 10 3 6 8 10 11
10 2 0 4 -4 4 -10z m5541 -6 c12 -14 11 -16 -5 -13 -11 2 -21 10 -24 17 -5 17
13 15 29 -4z m173 1 c11 -8 18 -17 15 -19 -2 -3 -15 4 -29 14 -14 11 -20 20
-15 19 6 0 19 -6 29 -14z m-74 -26 c0 -6 -7 -6 -20 1 -11 6 -20 15 -20 21 0 6
7 6 20 -1 11 -6 20 -15 20 -21z m681 14 c13 -16 12 -17 -3 -4 -10 7 -18 15
-18 17 0 8 8 3 21 -13z m-6827 1 c9 -3 16 -11 16 -16 0 -6 -7 -5 -16 3 -13 10
-17 10 -24 -1 -5 -8 -12 -11 -17 -7 -4 5 -1 12 7 17 18 12 15 11 34 4z m5892
-25 c3 -6 -5 -3 -20 6 -14 10 -26 19 -26 22 0 7 39 -17 46 -28z m-5981 5 c9
-9 14 -18 12 -20 -7 -8 -57 15 -57 26 0 15 27 12 45 -6z m655 -22 c8 -2 23
-14 33 -28 10 -13 25 -24 33 -24 8 0 14 -4 14 -10 0 -17 -28 -11 -49 11 -11
12 -31 27 -45 34 -23 12 -27 12 -41 -8 -15 -21 -15 -21 -29 -2 -8 11 -10 22
-5 23 5 2 7 8 3 13 -3 5 0 9 5 9 6 0 11 -4 11 -10 0 -19 18 -10 24 13 6 22 7
22 19 2 6 -11 19 -21 27 -23z m5525 28 c3 -5 1 -10 -4 -10 -6 0 -11 5 -11 10
0 6 2 10 4 10 3 0 8 -4 11 -10z m645 -15 c11 -13 10 -14 -4 -9 -9 3 -16 10
-16 15 0 13 6 11 20 -6z m-6610 -16 c0 -24 -12 -24 -33 -1 -14 16 -14 17 9 18
17 1 24 -3 24 -17z m-172 -4 c-2 -6 -9 -9 -15 -9 -7 1 -13 -2 -13 -8 0 -5 -5
-6 -11 -3 -6 5 -4 12 8 21 20 15 36 14 31 -1z m65 -4 c15 -8 27 -18 27 -23 0
-14 -14 -9 -45 18 -31 26 -28 27 18 5z m37 9 c8 -5 11 -12 8 -15 -4 -4 -17 0
-30 9 -24 17 -5 23 22 6z m6264 -32 c9 -12 16 -27 16 -33 0 -5 -5 -2 -11 8 -5
9 -16 17 -24 17 -13 0 -35 29 -35 45 0 11 39 -15 54 -37z m-198 -6 c-4 -3 -14
2 -24 12 -16 18 -16 18 6 6 13 -6 21 -14 18 -18z m-131 -8 l30 -26 -32 16
c-17 9 -35 20 -38 26 -11 18 9 10 40 -16z m1945 16 c0 -5 -7 -7 -15 -4 -8 4
-15 8 -15 10 0 2 7 4 15 4 8 0 15 -4 15 -10z m-1525 -10 c3 -5 1 -10 -4 -10
-6 0 -11 5 -11 10 0 6 2 10 4 10 3 0 8 -4 11 -10z m432 -13 c4 -7 0 -8 -11 -4
-10 4 -22 7 -27 7 -5 0 -9 4 -9 9 0 12 38 2 47 -12z m-472 3 c3 -5 2 -10 -4
-10 -5 0 -13 5 -16 10 -3 6 -2 10 4 10 5 0 13 -4 16 -10z m1080 0 c3 -5 1 -10
-4 -10 -6 0 -11 5 -11 10 0 6 2 10 4 10 3 0 8 -4 11 -10z m520 0 c3 -6 -1 -7
-9 -4 -18 7 -21 14 -7 14 6 0 13 -4 16 -10z"/>
<path d="M4451 3389 l-33 -41 28 4 c16 1 37 11 47 22 20 22 19 19 11 40 -9 24
-17 20 -53 -25z"/>
<path d="M4670 3281 c0 -13 25 -20 39 -11 10 5 8 9 -4 14 -23 8 -35 8 -35 -3z"/>
<path d="M4706 3181 c-12 -5 -15 -10 -9 -14 6 -4 24 0 39 8 23 12 25 15 9 14
-11 0 -29 -4 -39 -8z"/>
<path d="M5015 3166 c17 -8 32 -12 34 -10 7 7 -3 12 -34 18 l-30 6 30 -14z"/>
<path d="M5090 3150 c8 -5 26 -9 40 -9 23 0 23 1 5 9 -11 5 -29 9 -40 9 -17 1
-17 -1 -5 -9z"/>
<path d="M5185 3138 c6 -16 117 -54 181 -63 26 -3 54 0 79 11 49 20 35 30 -54
37 -35 3 -67 10 -70 14 -3 5 -36 10 -74 12 -55 2 -66 0 -62 -11z"/>
<path d="M4195 3077 c-22 -11 -41 -25 -43 -29 -2 -4 -7 -8 -12 -8 -10 0 -70
-52 -70 -62 0 -17 62 14 100 51 23 22 50 43 61 46 10 4 19 11 19 16 0 13 -10
11 -55 -14z"/>
<path d="M4975 3093 c-59 -6 -63 -19 -5 -15 28 2 50 8 50 13 0 5 -1 8 -2 7 -2
-1 -21 -3 -43 -5z"/>
<path d="M4825 3080 c3 -5 8 -10 11 -10 2 0 4 5 4 10 0 6 -5 10 -11 10 -5 0
-7 -4 -4 -10z"/>
<path d="M4859 3051 c-28 -34 -39 -60 -29 -66 14 -9 30 3 30 22 0 9 7 24 16
34 8 9 11 19 6 22 -4 4 -15 -2 -23 -12z"/>
<path d="M5108 3023 c7 -3 16 -2 19 1 4 3 -2 6 -13 5 -11 0 -14 -3 -6 -6z"/>
<path d="M5430 2950 c-13 -8 -12 -10 3 -10 9 0 17 5 17 10 0 12 -1 12 -20 0z"/>
<path d="M5491 2929 c-1 -31 28 -44 55 -24 14 10 14 14 4 20 -9 5 -15 4 -18
-3 -6 -19 -22 -14 -32 11 -9 21 -9 21 -9 -4z"/>
<path d="M4710 2910 c-13 -8 -12 -10 3 -10 9 0 17 5 17 10 0 12 -1 12 -20 0z"/>
<path d="M5262 2897 c-8 -9 -3 -17 19 -29 25 -15 29 -15 29 -2 0 10 7 13 25 8
16 -4 25 -2 25 6 0 6 -12 11 -27 10 -44 -3 -55 -1 -48 10 9 15 -11 12 -23 -3z"/>
<path d="M4575 2880 c-3 -5 -1 -10 4 -10 6 0 11 5 11 10 0 6 -2 10 -4 10 -3 0
-8 -4 -11 -10z"/>
<path d="M4672 2878 c-15 -15 -15 -28 -1 -28 5 0 7 5 4 10 -3 6 4 10 16 10 19
0 20 -2 8 -17 -12 -14 -12 -16 0 -12 23 8 24 27 3 38 -13 7 -22 7 -30 -1z"/>
<path d="M3875 2800 c-3 -6 1 -7 9 -4 18 7 21 14 7 14 -6 0 -13 -4 -16 -10z"/>
<path d="M6010 2800 c0 -5 5 -10 11 -10 5 0 7 5 4 10 -3 6 -8 10 -11 10 -2 0
-4 -4 -4 -10z"/>
<path d="M4380 2785 c-8 -9 -21 -13 -34 -10 -17 5 -18 4 -6 -5 13 -9 12 -13
-8 -30 -28 -23 -21 -40 18 -40 36 0 107 58 102 83 -4 22 -54 23 -72 2z"/>
<path d="M5875 2780 c-3 -5 -1 -10 4 -10 6 0 11 5 11 10 0 6 -2 10 -4 10 -3 0
-8 -4 -11 -10z"/>
<path d="M5904 2774 c3 -9 6 -18 6 -20 0 -3 10 0 21 7 17 9 19 13 8 20 -23 14
-42 11 -35 -7z"/>
<path d="M6020 2664 c0 -8 5 -12 10 -9 6 4 8 11 5 16 -9 14 -15 11 -15 -7z"/>
<path d="M5727 2648 c-10 -31 55 -43 66 -13 4 8 -3 11 -19 9 -13 -1 -24 2 -24
7 0 14 -18 11 -23 -3z"/>
<path d="M5465 2640 c-16 -7 -17 -9 -3 -9 9 -1 20 4 23 9 7 11 7 11 -20 0z"/>
<path d="M5670 2641 c0 -5 9 -7 20 -4 11 3 20 7 20 9 0 2 -9 4 -20 4 -11 0
-20 -4 -20 -9z"/>
<path d="M3825 2449 c-6 -9 -23 -21 -40 -27 -29 -11 -29 -11 15 -10 25 1 51
-2 58 -6 7 -4 12 -1 12 8 0 9 -6 16 -14 16 -8 0 -16 8 -18 18 -3 15 -5 15 -13
1z"/>
<path d="M7424 2365 c-17 -12 -16 -14 9 -37 34 -32 114 -45 136 -23 13 13 12
15 -5 21 -10 4 -42 17 -71 30 -43 19 -54 20 -69 9z"/>
<path d="M7600 2210 c0 -5 10 -15 23 -21 12 -7 25 -16 28 -21 3 -5 19 -8 34
-6 27 3 28 4 12 20 -9 9 -17 21 -17 27 0 6 -18 11 -40 11 -22 0 -40 -4 -40
-10z"/>
<path d="M7360 2175 c0 -8 7 -15 15 -15 9 0 12 6 9 15 -4 8 -10 15 -15 15 -5
0 -9 -7 -9 -15z"/>
<path d="M7280 2059 c0 -16 5 -20 27 -17 17 2 29 10 31 21 3 13 -3 17 -27 17
-25 0 -31 -4 -31 -21z"/>
<path d="M7703 2068 c2 -7 10 -13 17 -13 7 0 15 6 18 13 2 7 -5 12 -18 12 -13
0 -20 -5 -17 -12z"/>
<path d="M7815 2010 c-3 -5 1 -10 9 -10 9 0 16 5 16 10 0 6 -4 10 -9 10 -6 0
-13 -4 -16 -10z"/>
<path d="M7900 720 c0 -5 5 -10 11 -10 5 0 7 5 4 10 -3 6 -8 10 -11 10 -2 0
-4 -4 -4 -10z"/>
<path d="M8050 700 c0 -5 5 -10 10 -10 6 0 10 5 10 10 0 6 -4 10 -10 10 -5 0
-10 -4 -10 -10z"/>
<path d="M8110 641 c0 -9 30 -24 36 -18 2 1 -6 8 -16 15 -11 7 -20 8 -20 3z"/>
<path d="M1600 610 c0 -5 5 -10 11 -10 5 0 7 5 4 10 -3 6 -8 10 -11 10 -2 0
-4 -4 -4 -10z"/>
<path d="M7522 634 c10 -10 20 -16 22 -13 3 3 -5 11 -17 18 -21 13 -21 12 -5
-5z"/>
<path d="M7683 6035 c0 -22 2 -30 4 -17 2 12 2 30 0 40 -3 9 -5 -1 -4 -23z"/>
<path d="M4940 5391 c0 -6 5 -13 10 -16 6 -3 10 1 10 9 0 9 -4 16 -10 16 -5 0
-10 -4 -10 -9z"/>
<path d="M4951 5214 c0 -11 3 -14 6 -6 3 7 2 16 -1 19 -3 4 -6 -2 -5 -13z"/>
<path d="M4880 5131 c0 -6 -8 -8 -17 -4 -10 3 -15 3 -11 -2 9 -9 -29 -85 -42
-85 -6 0 -10 -8 -10 -19 0 -10 -7 -24 -15 -31 -9 -7 -14 -18 -12 -24 5 -15
-31 -86 -43 -86 -6 0 -10 -18 -10 -40 0 -33 -3 -40 -20 -40 -11 0 -21 -6 -22
-12 0 -7 -2 -17 -3 -23 -2 -5 -3 -15 -4 -22 -1 -7 -8 -10 -18 -6 -11 4 -14 3
-9 -5 4 -7 13 -12 21 -12 19 0 6 -40 -19 -62 -12 -10 -31 -17 -43 -18 -12 0
-24 -4 -27 -9 -8 -12 -259 -87 -320 -95 -21 -3 -46 -11 -55 -19 -9 -8 -27 -17
-41 -20 -14 -3 -47 -12 -74 -19 l-49 -14 74 -16 c41 -8 94 -16 119 -17 25 -1
59 -6 76 -12 20 -6 40 -6 56 0 35 13 174 5 239 -13 40 -11 73 -13 129 -8 41 4
122 3 180 -3 86 -8 109 -14 127 -31 40 -41 156 -43 166 -3 4 15 14 19 51 19
40 0 48 -4 76 -39 19 -24 45 -42 69 -50 42 -12 212 -32 222 -25 4 2 13 43 20
90 14 95 14 95 -63 225 -16 25 -28 55 -28 66 0 11 -7 34 -15 51 -13 26 -14 34
-3 51 7 12 16 21 20 21 4 0 30 20 57 44 27 24 53 45 58 47 15 6 77 89 71 94
-3 3 -16 1 -29 -4 -45 -18 -165 -51 -219 -61 -77 -12 -185 -37 -250 -56 -30
-9 -76 -22 -102 -29 -25 -7 -55 -18 -65 -23 -24 -12 -129 -22 -111 -10 10 7
10 11 -4 22 -15 11 -18 30 -18 129 0 63 -3 117 -7 119 -5 2 -19 18 -32 37 -17
25 -20 35 -11 41 9 5 9 9 1 14 -6 4 -11 3 -11 -3z m640 -421 c0 -5 -4 -10 -10
-10 -5 0 -10 5 -10 10 0 6 5 10 10 10 6 0 10 -4 10 -10z m-390 -305 c0 -8 -4
-15 -8 -15 -5 0 -9 7 -9 15 0 8 4 15 9 15 4 0 8 -7 8 -15z"/>
<path d="M3707 4003 c-24 -23 8 -30 37 -8 19 14 19 15 -5 15 -14 0 -29 -3 -32
-7z"/>
<path d="M1810 3530 c0 -5 5 -10 10 -10 6 0 10 5 10 10 0 6 -4 10 -10 10 -5 0
-10 -4 -10 -10z"/>
<path d="M136 1781 c-4 -7 -5 -15 -2 -18 9 -9 19 4 14 18 -4 11 -6 11 -12 0z"/>
<path d="M160 1756 c0 -3 13 -19 29 -37 l30 -32 -2 36 c-2 33 -5 37 -29 37
-16 0 -28 -2 -28 -4z"/>
<path d="M306 1701 c-4 -7 -5 -15 -2 -18 9 -9 19 4 14 18 -4 11 -6 11 -12 0z"/>
<path d="M1015 1600 c3 -5 10 -10 16 -10 5 0 9 5 9 10 0 6 -7 10 -16 10 -8 0
-12 -4 -9 -10z"/>
<path d="M345 1590 c4 -6 11 -8 16 -5 14 9 11 15 -7 15 -8 0 -12 -5 -9 -10z"/>
<path d="M920 1595 c0 -2 9 -9 20 -15 16 -9 20 -8 20 5 0 8 -9 15 -20 15 -11
0 -20 -2 -20 -5z"/>
<path d="M1213 1573 c-21 -8 -15 -27 20 -61 37 -36 47 -39 47 -17 0 8 -4 15
-9 15 -5 0 -12 13 -16 29 -6 30 -21 41 -42 34z"/>
<path d="M465 1560 c3 -5 8 -10 11 -10 2 0 4 5 4 10 0 6 -5 10 -11 10 -5 0 -7
-4 -4 -10z"/>
<path d="M480 1530 c0 -5 5 -10 11 -10 5 0 7 5 4 10 -3 6 -8 10 -11 10 -2 0
-4 -4 -4 -10z"/>
<path d="M870 1530 c0 -5 6 -10 14 -10 8 0 16 -6 19 -12 2 -7 8 -9 13 -5 5 5
1 15 -10 23 -23 16 -36 18 -36 4z"/>
<path d="M1318 1523 c7 -3 16 -2 19 1 4 3 -2 6 -13 5 -11 0 -14 -3 -6 -6z"/>
<path d="M1090 1470 c0 -13 5 -17 20 -13 11 3 20 9 20 13 0 4 -9 10 -20 13
-15 4 -20 0 -20 -13z"/>
<path d="M910 1460 c-8 -15 -8 -20 2 -21 7 -1 2 -4 -11 -8 -34 -9 -41 -34 -8
-26 14 4 35 4 47 0 20 -6 21 -8 4 -26 -19 -21 -17 -27 13 -32 12 -1 28 -8 36
-15 12 -10 16 -8 21 10 4 15 0 27 -12 36 -9 7 -16 18 -14 24 2 6 -3 15 -10 19
-7 5 -13 14 -14 21 -3 34 -5 38 -24 38 -10 0 -24 -9 -30 -20z"/>
<path d="M784 1459 c-3 -6 -1 -16 5 -22 8 -8 11 -5 11 11 0 24 -5 28 -16 11z"/>
<path d="M46 1428 c10 -13 24 -26 30 -30 21 -14 179 -142 209 -170 17 -15 38
-28 48 -28 9 0 17 -4 17 -8 0 -5 22 -24 49 -43 28 -18 55 -44 60 -57 6 -13 15
-21 20 -18 4 3 16 -3 26 -14 10 -11 24 -20 32 -20 7 0 13 -5 13 -11 0 -5 4 -8
9 -5 5 3 11 -1 15 -9 3 -8 12 -15 21 -15 14 0 35 -14 75 -50 32 -29 111 -82
116 -77 3 2 -8 12 -23 22 -15 10 -40 31 -56 47 -15 15 -31 28 -35 28 -4 0 -24
16 -45 35 -20 18 -54 46 -75 61 -119 88 -148 110 -155 121 -4 7 -15 13 -22 13
-8 0 -15 5 -15 10 0 11 80 -31 112 -57 10 -9 18 -10 22 -4 6 9 -100 90 -138
104 -10 4 -20 16 -23 27 -3 11 -10 20 -15 20 -5 0 -21 9 -35 20 -34 26 -46 25
-38 -2 7 -22 6 -22 -11 -5 -17 15 -17 19 -4 28 13 9 12 12 -4 22 -10 7 -31 22
-47 35 -16 13 -33 21 -39 17 -5 -3 -19 -1 -31 6 -17 9 -19 13 -8 20 11 7 10 9
-3 9 -10 0 -18 -5 -18 -12 0 -9 -3 -9 -12 0 -7 7 -19 12 -27 12 -11 0 -10 -5
5 -22z m252 -144 c12 -4 22 -12 22 -19 0 -7 6 -16 13 -18 7 -4 8 -6 1 -6 -6
-1 -17 6 -24 14 -7 8 -18 15 -26 15 -7 0 -16 5 -19 10 -7 11 0 12 33 4z"/>
<path d="M1350 1440 c-13 -8 -12 -11 5 -24 23 -18 32 -19 40 -7 3 5 -2 17 -11
25 -18 19 -15 18 -34 6z"/>
<path d="M1520 1434 c0 -17 40 -54 72 -66 26 -10 23 -5 -23 41 -46 46 -49 47
-49 25z"/>
<path d="M1093 1423 c9 -9 19 -14 23 -11 10 10 -6 28 -24 28 -15 0 -15 -1 1
-17z"/>
<path d="M1200 1433 c0 -5 9 -22 19 -40 14 -22 16 -33 8 -36 -15 -5 58 -37 84
-37 11 0 19 5 19 10 0 6 -6 10 -14 10 -7 0 -26 17 -42 38 -39 51 -74 77 -74
55z"/>
<path d="M1020 1404 c0 -8 5 -12 10 -9 6 4 8 11 5 16 -9 14 -15 11 -15 -7z"/>
<path d="M1420 1370 c0 -5 7 -10 16 -10 8 0 12 5 9 10 -3 6 -10 10 -16 10 -5
0 -9 -4 -9 -10z"/>
<path d="M1065 1340 c3 -5 11 -10 16 -10 6 0 7 5 4 10 -3 6 -11 10 -16 10 -6
0 -7 -4 -4 -10z"/>
<path d="M380 1301 c0 -6 5 -13 10 -16 6 -3 10 1 10 9 0 9 -4 16 -10 16 -5 0
-10 -4 -10 -9z"/>
<path d="M430 1260 c0 -5 5 -10 10 -10 6 0 10 5 10 10 0 6 -4 10 -10 10 -5 0
-10 -4 -10 -10z"/>
<path d="M1280 1263 c0 -13 29 -38 35 -31 3 3 -4 13 -15 23 -11 10 -20 13 -20
8z"/>
<path d="M1350 1250 c0 -5 5 -10 11 -10 5 0 7 5 4 10 -3 6 -8 10 -11 10 -2 0
-4 -4 -4 -10z"/>
<path d="M1393 1207 c8 -20 -3 -29 -20 -16 -10 9 -13 8 -13 -5 0 -12 9 -16 35
-16 40 0 44 8 13 34 -16 14 -20 15 -15 3z"/>
<path d="M1337 1196 c-4 -10 -5 -21 -2 -24 9 -9 17 6 13 25 -3 17 -4 17 -11
-1z"/>
<path d="M1320 1130 c6 -11 13 -20 15 -20 3 0 5 9 5 20 0 11 -7 20 -15 20 -13
0 -14 -4 -5 -20z"/>
<path d="M532 1110 c13 -21 37 -34 46 -25 7 7 -34 45 -48 45 -6 0 -6 -7 2 -20z"/>
<path d="M1430 1091 c0 -6 4 -13 10 -16 6 -3 7 1 4 9 -7 18 -14 21 -14 7z"/>
<path d="M800 850 c0 -5 3 -10 8 -10 4 0 18 -10 32 -23 27 -24 76 -57 85 -57
17 0 1 19 -20 24 -14 4 -23 11 -20 17 4 5 -7 14 -23 20 -17 6 -33 17 -36 25
-6 16 -26 19 -26 4z"/>
<path d="M1550 840 c0 -5 5 -10 10 -10 6 0 10 5 10 10 0 6 -4 10 -10 10 -5 0
-10 -4 -10 -10z"/>
<path d="M960 732 c0 -11 41 -34 48 -28 3 4 -3 13 -14 21 -21 16 -34 19 -34 7z"/>
<path d="M1022 678 c3 -7 16 -19 30 -28 14 -8 49 -34 78 -57 28 -24 56 -43 62
-43 6 0 8 -7 4 -15 -3 -8 -2 -14 2 -13 4 1 15 -2 25 -7 16 -6 37 0 26 8 -24
18 -145 113 -149 117 -14 15 -64 50 -72 50 -5 0 -8 -5 -6 -12z"/>
<path d="M1110 672 c0 -11 50 -57 78 -71 31 -16 28 1 -6 30 -37 31 -72 51 -72
41z"/>
<path d="M1220 573 c1 -10 83 -73 88 -68 3 2 -3 11 -12 20 -9 9 -16 13 -16 9
0 -4 -11 5 -25 20 -24 26 -35 32 -35 19z"/>
<path d="M1347 483 c-11 -10 -8 -20 8 -27 10 -4 15 1 15 14 0 20 -11 26 -23
13z"/>
<path d="M1350 216 c0 -9 5 -16 10 -16 6 0 10 4 10 9 0 6 -4 13 -10 16 -5 3
-10 -1 -10 -9z"/>
<path d="M7360 165 c7 -8 18 -15 24 -15 18 0 41 18 33 26 -3 4 -13 1 -21 -5
-10 -8 -16 -9 -21 -1 -3 5 -11 10 -17 10 -7 0 -6 -6 2 -15z"/>
</g>
</svg>
