<?xml version="1.0" standalone="no"?>
<!DOCTYPE svg PUBLIC "-//W3C//DTD SVG 20010904//EN"
 "http://www.w3.org/TR/2001/REC-SVG-20010904/DTD/svg10.dtd">
<svg version="1.0" xmlns="http://www.w3.org/2000/svg"
 width="960.000000pt" height="640.000000pt" viewBox="0 0 960.000000 640.000000"
 preserveAspectRatio="xMidYMid meet">

<g transform="translate(0.000000,640.000000) scale(0.100000,-0.100000)"
fill="#000000" stroke="none">
<path d="M8082 6243 c0 -87 -3 -302 -8 -478 -5 -176 -9 -453 -9 -616 l0 -297
25 -21 c14 -11 35 -24 48 -27 12 -3 22 -9 22 -13 0 -8 62 -27 155 -46 42 -9
93 -23 113 -32 21 -9 46 -20 57 -25 24 -10 118 -37 158 -45 15 -3 27 -10 27
-15 0 -5 5 -6 11 -3 5 4 28 -5 49 -19 22 -14 46 -26 55 -26 8 0 16 -4 16 -10
1 -5 2 -15 3 -21 0 -6 10 -17 20 -25 19 -14 19 -14 -2 -14 -12 0 -22 5 -22 11
0 7 -14 8 -40 4 -28 -5 -40 -3 -40 5 0 8 -12 10 -40 5 -29 -5 -40 -3 -40 6 0
9 -16 10 -60 6 -37 -4 -60 -3 -60 3 0 6 -9 10 -20 10 -11 0 -20 -4 -20 -10 0
-5 9 -10 20 -10 16 0 20 -7 20 -30 0 -24 4 -30 22 -30 20 0 18 -5 -21 -40 -35
-32 -51 -40 -82 -40 -28 0 -39 4 -39 15 0 11 -12 15 -44 15 -58 0 -76 -21 -33
-39 64 -26 77 -35 77 -52 0 -10 9 -19 22 -21 21 -3 21 -4 4 -20 -11 -12 -33
-18 -61 -18 -37 0 -44 3 -48 23 -2 12 -5 2 -6 -23 -1 -42 2 -48 41 -78 39 -30
42 -35 39 -77 l-3 -45 41 0 41 0 0 -40 c0 -29 -4 -40 -15 -40 -11 0 -15 -11
-15 -40 0 -29 4 -40 15 -40 11 0 15 -11 15 -40 0 -39 -1 -40 -35 -40 -34 0
-35 -1 -35 -40 l0 -40 40 0 c34 0 40 -3 40 -21 0 -21 -3 -21 -77 -14 -43 4
-79 11 -81 16 -5 12 -82 -33 -82 -48 0 -7 9 -13 20 -13 11 0 20 -5 20 -10 0
-6 7 -13 16 -17 9 -3 28 -17 42 -29 14 -13 33 -24 43 -24 33 0 21 -26 -17 -38
-40 -12 -81 -2 -90 23 -4 8 -14 15 -24 15 -10 0 -23 7 -30 15 -16 20 -60 20
-60 0 0 -8 -4 -15 -10 -15 -19 0 -10 -29 13 -41 29 -16 38 -31 26 -45 -7 -8
-6 -14 1 -19 5 -3 10 -16 10 -28 1 -29 40 -56 84 -59 25 -2 39 -10 47 -25 7
-13 18 -23 26 -23 7 0 13 -7 13 -15 0 -18 24 -31 73 -40 70 -13 39 -26 -58
-24 -52 2 -97 0 -101 -3 -11 -12 7 -28 30 -28 36 0 58 -22 54 -54 -4 -38 -35
-58 -49 -33 -10 17 -64 22 -111 10 -26 -6 -22 -22 7 -29 16 -4 25 -13 25 -25
0 -10 6 -19 14 -19 16 0 83 -37 104 -56 6 -7 12 -33 12 -58 0 -25 5 -56 11
-70 10 -20 15 -23 29 -13 14 8 22 8 34 -2 9 -7 13 -17 11 -22 -3 -4 10 -11 29
-14 23 -5 36 -14 40 -28 9 -34 8 -37 -19 -37 -19 0 -25 -5 -25 -21 0 -17 5
-20 25 -17 14 3 25 1 25 -3 0 -5 8 -9 18 -9 11 0 29 -9 42 -20 13 -11 27 -20
32 -20 7 0 30 -45 29 -60 0 -3 -10 -8 -23 -11 -29 -7 197 -26 597 -49 199 -12
331 -25 358 -35 16 -7 17 89 17 1919 l0 1926 -760 0 -760 0 2 -157z m558
-2093 c0 -5 -2 -10 -4 -10 -3 0 -8 5 -11 10 -3 6 -1 10 4 10 6 0 11 -4 11 -10z
m-96 -350 c40 0 57 -5 71 -20 18 -20 17 -20 -58 -20 l-77 0 1 43 c1 23 4 32 6
20 4 -20 10 -23 57 -23z m96 -630 c0 -5 -8 -10 -17 -10 -15 0 -16 2 -3 10 19
12 20 12 20 0z m-206 -35 c2 -7 -4 -15 -15 -18 -15 -4 -19 0 -19 19 0 25 24
25 34 -1z m352 -30 c-19 -14 -36 -12 -36 6 0 5 12 9 28 9 26 -1 26 -1 8 -15z
m-12 -127 c-5 -7 -2 -9 9 -5 23 9 30 -21 6 -33 -25 -14 -42 -4 -34 21 4 12 1
21 -9 25 -9 3 -13 10 -10 15 3 5 14 5 25 -1 11 -6 16 -16 13 -22z m201 22 c3
-5 1 -10 -4 -10 -6 0 -11 5 -11 10 0 6 2 10 4 10 3 0 8 -4 11 -10z m-429 -51
c11 -18 -13 -32 -41 -25 -22 6 -25 9 -15 21 15 18 46 20 56 4z m100 -184 c21
-21 17 -40 -11 -43 -17 -1 -23 2 -19 12 4 10 -5 16 -25 21 -17 4 -31 10 -31
15 0 23 62 20 86 -5z m53 -52 c-4 -23 3 -33 24 -34 16 -1 17 -3 5 -6 -10 -2
-15 -11 -12 -21 2 -9 -1 -7 -7 6 -7 12 -16 22 -21 22 -5 0 -6 5 -3 10 3 6 1
10 -4 10 -6 0 -11 5 -11 10 0 6 7 10 15 10 8 0 14 -3 14 -7z"/>
<path d="M5349 4617 c-30 -18 -66 -41 -81 -50 -20 -14 -27 -15 -31 -5 -3 10
-9 8 -26 -6 -25 -23 -27 -38 -3 -29 9 3 0 -11 -20 -33 -41 -43 -47 -57 -22
-47 9 3 40 0 70 -7 52 -13 55 -12 75 8 11 12 23 22 27 22 4 0 15 20 25 45 11
25 23 45 29 45 5 0 8 6 5 13 -2 6 2 20 11 30 11 12 12 17 2 17 -7 0 -10 7 -6
15 7 20 8 20 -55 -18z m-9 -77 c0 -12 -23 -26 -72 -45 -63 -23 -79 -10 -28 24
38 25 100 38 100 21z"/>
<path d="M8400 4575 c0 -8 9 -15 20 -15 24 0 27 15 4 24 -22 9 -24 8 -24 -9z"/>
<path d="M5122 4405 c-6 -14 -15 -25 -20 -25 -5 0 -9 -20 -10 -44 0 -25 -3
-55 -7 -68 l-6 -23 19 23 c14 19 31 25 80 29 35 3 65 9 67 14 3 4 -12 18 -32
30 -21 13 -39 27 -41 31 -2 4 -11 8 -19 8 -11 0 -14 7 -9 25 4 14 3 25 -2 25
-5 0 -14 -11 -20 -25z"/>
<path d="M4695 4225 c3 -26 0 -35 -10 -35 -8 0 -15 -4 -15 -10 0 -5 4 -10 9
-10 5 0 8 -16 6 -35 -2 -19 -2 -35 0 -35 10 0 36 116 31 136 -10 37 -26 28
-21 -11z"/>
<path d="M4882 4218 c-8 -18 -11 -19 -11 -5 -1 28 -18 19 -25 -14 -9 -45 19
-78 63 -74 18 1 37 8 41 15 4 6 11 11 16 10 9 -1 21 31 23 61 1 9 -8 19 -19
22 -15 4 -20 0 -20 -14 0 -19 -33 -43 -44 -32 -3 3 -3 17 0 29 8 30 -9 31 -24
2z"/>
<path d="M5225 4199 c-19 -35 -15 -44 14 -34 15 4 21 15 21 36 0 38 -15 37
-35 -2z"/>
<path d="M5270 4184 c0 -8 5 -12 10 -9 6 3 10 10 10 16 0 5 -4 9 -10 9 -5 0
-10 -7 -10 -16z"/>
<path d="M5370 4158 c0 -15 5 -28 11 -28 5 0 7 -4 4 -10 -3 -5 -11 -10 -16
-10 -6 0 -7 5 -4 10 3 6 -2 10 -12 10 -10 0 -27 7 -37 15 -11 8 -29 15 -40 15
-18 0 -16 -2 7 -15 16 -8 42 -26 58 -39 29 -25 29 -25 8 -36 -17 -10 -21 -8
-26 9 -3 11 -9 19 -13 16 -5 -3 -11 -1 -15 5 -3 5 -17 10 -31 10 -17 0 -24 5
-24 20 0 24 -6 25 -26 5 -10 -9 -11 -15 -4 -15 6 0 9 -8 6 -17 -5 -19 75 -88
124 -108 42 -17 80 -46 80 -63 0 -8 -3 -12 -7 -9 -3 4 -11 0 -17 -8 -17 -23
-74 -19 -156 10 -98 35 -288 75 -354 75 -43 0 -54 -4 -70 -25 -11 -14 -25 -24
-33 -21 -8 3 -13 -2 -13 -14 0 -14 5 -18 23 -14 59 13 139 15 204 5 109 -17
173 -32 173 -40 0 -5 -39 -12 -87 -17 -62 -6 -87 -13 -85 -21 1 -7 -2 -13 -8
-13 -5 0 -10 -9 -10 -21 0 -18 -5 -20 -36 -16 -34 5 -60 17 -36 17 6 0 26 9
44 21 l33 21 -33 -6 c-28 -5 -40 0 -70 24 -34 28 -38 29 -59 14 -22 -14 -24
-13 -32 7 -5 16 -10 19 -15 10 -6 -9 -14 -7 -33 10 -20 20 -26 21 -33 9 -5 -8
-12 -11 -16 -8 -13 13 4 33 45 55 32 17 41 19 41 7 0 -21 12 -16 39 17 26 33
22 51 -6 27 -20 -17 -47 -29 -78 -34 -11 -2 -30 -6 -42 -10 -13 -3 -23 -2 -23
3 0 19 -36 6 -68 -24 -21 -21 -28 -33 -20 -36 10 -4 9 -6 -1 -6 -8 -1 -23 -9
-33 -18 -13 -11 -22 -13 -29 -6 -7 7 -3 12 13 16 15 4 23 14 24 29 1 20 -3 23
-35 23 -26 0 -36 -4 -34 -15 4 -38 14 -64 25 -72 17 -10 -60 -78 -81 -71 -12
3 -11 1 2 -7 21 -14 22 -40 1 -40 -8 0 -13 -4 -10 -9 3 -5 -3 -11 -14 -14 -11
-3 -24 -17 -30 -31 -5 -14 -14 -26 -20 -26 -6 0 -15 -10 -20 -22 -6 -16 -9
-18 -9 -7 -1 9 -8 20 -18 23 -15 6 -14 8 2 20 25 18 13 46 -16 39 -18 -5 -21
-3 -16 11 4 10 7 20 7 23 0 3 7 0 15 -7 11 -9 19 -9 28 -2 7 6 24 9 38 6 24
-4 24 -4 1 5 -12 6 -30 8 -40 4 -31 -10 20 22 58 37 19 7 44 20 55 27 17 11
17 13 2 13 -9 0 -17 5 -17 10 0 6 7 10 15 10 8 0 15 5 15 10 0 6 4 10 10 10 5
0 7 -7 4 -15 -4 -9 0 -15 10 -15 9 0 16 4 16 8 0 15 -35 49 -55 55 -16 4 -15
5 6 6 36 1 35 41 -2 41 -5 0 -8 -4 -4 -9 9 -16 -9 -20 -46 -12 -27 6 -38 3
-52 -12 -19 -19 -18 -19 5 -12 16 5 20 4 13 -3 -5 -6 -36 -12 -68 -14 -35 -2
-56 -7 -53 -14 4 -11 -29 -12 -40 -1 -11 11 -21 8 -39 -10 -14 -14 -18 -14
-26 -2 -14 23 -10 47 9 53 9 2 65 12 125 22 59 9 107 20 107 24 0 3 -19 15
-42 26 -24 11 -86 43 -138 71 -126 68 -155 73 -225 38 -30 -15 -64 -38 -76
-51 -13 -13 -29 -24 -36 -24 -8 0 -12 -4 -8 -9 3 -5 -4 -12 -15 -16 -11 -3
-20 -10 -20 -14 0 -4 -21 -23 -47 -41 -27 -19 -55 -41 -63 -49 -25 -25 -154
-118 -254 -184 -295 -194 -437 -278 -660 -388 -285 -141 -501 -223 -748 -283
-269 -66 -708 -113 -1098 -117 -71 -1 -107 -5 -93 -10 12 -4 25 -14 30 -22 8
-13 323 -256 538 -413 174 -128 497 -339 650 -424 164 -92 230 -127 375 -202
158 -80 281 -138 297 -138 4 0 -76 42 -177 94 -282 142 -455 237 -595 324
-143 88 -432 282 -445 297 -13 16 0 21 15 6 13 -11 194 -83 275 -109 73 -24
209 -42 257 -35 18 3 74 32 125 64 51 32 176 101 278 153 102 51 205 104 230
118 38 20 161 70 330 133 93 35 505 154 712 206 106 26 131 29 143 19 9 -7 14
-19 11 -27 -3 -8 -1 -11 4 -8 6 3 10 1 10 -4 0 -6 -4 -11 -10 -11 -13 0 -13
-51 0 -84 5 -14 5 -28 0 -31 -8 -5 -27 -149 -22 -168 1 -4 -10 -19 -26 -32
-23 -19 -28 -30 -25 -57 7 -57 26 -108 41 -108 9 0 12 -6 8 -16 -3 -9 -6 -31
-6 -50 0 -19 -5 -34 -10 -34 -6 0 -8 13 -5 30 3 18 1 30 -5 30 -6 0 -8 5 -5
10 3 6 0 10 -8 10 -21 0 -28 -12 -16 -27 7 -7 13 -30 13 -51 1 -20 5 -50 9
-67 4 -16 4 -24 1 -17 -15 32 -61 -8 -48 -42 3 -9 1 -16 -5 -16 -6 0 -11 4
-11 10 0 16 -59 -24 -65 -45 -15 -43 -14 -47 4 -31 24 22 31 20 31 -8 0 -23 5
-30 46 -65 14 -12 14 -16 4 -19 -8 -3 -16 0 -18 7 -3 9 -8 9 -17 1 -10 -8 -15
-8 -21 1 -4 8 -3 9 4 5 17 -10 15 16 -3 40 -14 19 -14 18 -16 -3 -1 -13 -2
-31 -3 -40 0 -10 9 -22 21 -28 12 -5 25 -17 30 -27 14 -29 144 -118 190 -129
63 -16 55 -33 -13 -26 -69 7 -158 65 -188 120 -11 20 -24 33 -29 30 -6 -4 -5
-10 4 -17 8 -6 15 -18 17 -25 2 -8 13 -23 25 -33 68 -58 79 -69 73 -75 -10
-11 -90 35 -141 79 -48 43 -50 43 -35 4 11 -31 -4 -36 -20 -7 -5 11 -17 27
-26 35 -14 15 -13 16 10 16 14 0 26 4 26 9 0 14 -41 41 -62 41 -23 0 -23 26
-1 39 29 16 7 24 -24 8 -15 -8 -46 -20 -68 -26 -22 -6 -49 -17 -60 -26 -20
-15 -19 -15 8 -40 15 -14 39 -25 52 -25 25 0 48 -18 66 -52 18 -33 -3 -42 -93
-40 -135 3 -181 13 -172 37 6 13 -43 35 -80 35 -20 0 -20 0 2 -16 12 -8 22
-19 22 -25 0 -14 -32 -10 -54 6 -11 8 -27 15 -35 14 -10 0 -7 -4 7 -9 12 -5
22 -14 22 -20 0 -5 21 -10 46 -10 37 0 44 -3 35 -13 -16 -20 61 -70 181 -118
54 -21 111 -47 125 -56 14 -10 63 -34 109 -54 45 -20 95 -45 111 -56 45 -32
136 -72 184 -81 25 -5 54 -14 64 -20 17 -9 9 -11 -44 -12 -45 0 -88 8 -140 26
-115 40 -120 53 -11 29 14 -3 0 6 -30 20 -30 14 -62 32 -70 40 -9 9 -59 33
-110 55 -51 22 -100 46 -109 54 -9 7 -27 16 -40 19 -21 5 -20 3 10 -23 19 -17
45 -32 59 -36 14 -3 36 -11 50 -18 14 -7 37 -16 51 -20 15 -3 44 -21 65 -41
42 -37 39 -47 -4 -16 -15 10 -46 24 -69 31 -24 7 -43 17 -43 22 0 4 -12 8 -26
8 -18 0 -38 12 -60 36 -19 19 -34 31 -34 25 0 -6 -7 -11 -15 -11 -8 0 -15 5
-15 10 0 6 -11 10 -25 10 -31 0 -23 30 9 31 20 0 19 1 -3 10 -19 7 -27 6 -33
-5 -5 -8 -15 -13 -23 -10 -8 4 -15 3 -15 -1 0 -12 24 -30 45 -34 11 -1 29 -8
40 -14 17 -9 18 -12 4 -15 -25 -5 -12 -42 15 -43 11 -1 24 -1 29 0 4 0 7 -3 7
-9 0 -5 7 -10 16 -10 13 0 11 5 -7 24 -17 17 -26 21 -31 13 -5 -9 -10 -9 -19
0 -10 10 -9 14 4 19 19 7 80 -35 98 -67 8 -15 17 -19 34 -15 13 3 27 2 30 -4
3 -5 16 -10 28 -11 21 0 21 -1 2 -10 -16 -8 -14 -9 11 -6 23 2 31 0 27 -10 -6
-16 -3 -15 -41 -2 -19 6 -29 15 -25 22 4 6 0 8 -9 4 -22 -8 -89 14 -81 26 3 6
1 7 -4 4 -13 -8 -267 85 -418 153 -38 17 -86 38 -105 46 -19 9 -44 19 -55 24
-11 5 -87 40 -169 80 -82 39 -151 68 -153 66 -19 -19 458 -264 741 -381 191
-79 235 -104 227 -126 -4 -12 -12 -14 -28 -8 -13 5 -23 14 -23 21 0 10 -270
108 -350 126 -36 9 10 -18 68 -38 52 -19 61 -26 57 -41 -4 -13 -1 -19 8 -19 9
0 17 5 19 12 3 8 33 1 96 -22 84 -31 113 -50 80 -50 -7 0 -5 -5 5 -11 10 -6
29 -8 43 -5 28 7 73 -12 55 -23 -23 -15 1 -38 57 -55 31 -9 66 -21 77 -26 41
-17 61 -24 82 -26 12 -2 43 -12 69 -23 69 -31 552 -167 621 -175 18 -3 49 -10
70 -17 31 -10 34 -13 19 -19 -17 -6 -82 6 -301 56 -38 8 -148 38 -242 65 -639
183 -1349 478 -1938 806 -304 170 -539 324 -884 581 -128 96 -253 186 -277
201 -85 52 -189 124 -201 139 -17 20 -27 9 -20 -20 15 -56 34 -72 541 -444
225 -165 577 -398 701 -465 22 -12 58 -33 80 -48 22 -14 42 -26 45 -26 3 0 19
-9 35 -18 20 -12 23 -16 8 -12 -12 3 -24 1 -28 -5 -3 -5 -14 -10 -23 -9 -14 0
-13 2 3 9 24 10 2 13 -32 4 -27 -8 -30 -21 -5 -27 10 -4 8 -5 -8 -5 -55 2 -69
-2 -64 -17 5 -11 -1 -15 -21 -15 -21 0 -25 -3 -17 -13 23 -27 -4 -40 -87 -41
-45 0 -81 -2 -81 -4 0 -1 7 -18 14 -37 8 -19 11 -35 5 -35 -5 0 -9 5 -9 10 0
6 -4 10 -9 10 -15 0 -42 -31 -36 -41 4 -5 -5 -9 -19 -9 -29 0 -35 -16 -8 -23
16 -4 16 -5 -1 -6 -10 0 -15 -5 -12 -11 10 -16 -11 -12 -25 5 -14 17 -40 20
-40 5 0 -5 8 -14 17 -19 12 -7 13 -11 5 -11 -7 0 -20 7 -29 15 -22 23 -39 13
-35 -20 3 -22 1 -27 -12 -22 -15 6 -20 -3 -17 -30 2 -16 -16 -17 -21 -1 -2 6
-10 8 -17 4 -7 -5 -10 -15 -7 -23 3 -8 -1 -22 -10 -30 -13 -14 -17 -14 -26 -2
-7 10 -8 8 -3 -8 5 -18 2 -23 -12 -24 -10 -1 -25 -2 -33 -3 -8 -2 -23 -3 -32
-4 -10 -1 -18 -7 -18 -12 0 -7 7 -7 21 0 27 15 40 3 16 -15 -14 -10 -15 -14
-5 -19 7 -3 -3 -4 -22 -3 -38 2 -80 -28 -80 -57 0 -9 -5 -16 -11 -16 -5 0 -7
-5 -4 -10 4 -6 -7 -13 -24 -16 -20 -4 -28 -11 -24 -20 3 -8 1 -14 -4 -14 -6 0
-20 -9 -33 -20 -13 -11 -30 -20 -39 -21 -10 0 -12 -2 -3 -6 6 -2 12 -13 12
-22 0 -21 -33 -54 -43 -44 -4 3 -7 -1 -7 -10 0 -17 6 -23 60 -66 14 -10 23
-22 20 -25 -10 -10 -49 6 -44 17 5 14 -63 63 -73 53 -10 -10 24 -62 38 -58 17
4 48 -28 42 -44 -3 -8 1 -14 11 -14 9 0 16 -4 16 -9 0 -4 -18 -8 -40 -8 -22 0
-43 -3 -46 -6 -11 -11 24 -37 40 -31 9 3 16 2 16 -2 0 -5 13 -22 29 -39 37
-39 101 -97 101 -91 0 19 -22 56 -33 56 -17 0 -60 58 -53 73 2 7 5 4 5 -7 1
-16 3 -16 17 -5 13 10 17 10 24 -2 6 -9 4 -16 -6 -19 -10 -4 -1 -16 31 -44 29
-23 44 -44 41 -52 -3 -9 2 -18 12 -21 9 -4 20 -11 24 -17 5 -8 8 -7 8 1 0 7
-8 17 -17 22 -11 6 -13 11 -5 11 7 0 23 -10 35 -23 29 -28 77 -51 77 -36 0 6
-5 19 -10 30 -6 10 -7 19 -2 19 5 0 16 -14 25 -31 13 -28 16 -29 25 -14 6 12
17 16 30 13 16 -4 19 -2 15 10 -5 12 -2 14 18 8 13 -4 34 -10 47 -13 27 -7 23
-29 -4 -25 -17 3 -17 2 -4 -12 8 -8 28 -17 43 -20 16 -3 44 -14 63 -25 19 -12
41 -21 48 -21 17 0 61 -23 64 -32 1 -5 2 -15 2 -24 0 -8 5 -12 10 -9 6 4 24
-1 42 -9 36 -19 48 -20 48 -6 0 6 -6 10 -13 10 -7 0 -20 9 -30 20 -10 12 -22
18 -27 15 -6 -3 -10 -1 -10 5 0 7 7 9 16 6 9 -3 26 -9 39 -12 23 -6 41 -45 30
-64 -4 -6 8 -10 25 -10 28 0 31 3 25 23 -4 12 -18 30 -31 40 -24 19 -24 19 3
66 2 2 9 -2 17 -8 10 -8 16 -9 21 -1 3 6 10 8 15 5 6 -4 4 -14 -2 -25 -9 -14
-19 -18 -38 -13 -24 5 -23 4 9 -26 44 -40 69 -42 44 -5 l-17 27 23 -14 c13 -8
41 -31 63 -51 43 -40 57 -45 76 -26 9 9 12 8 12 -5 0 -10 8 -17 20 -17 11 0
20 -7 20 -15 0 -8 -9 -15 -20 -15 -33 0 -22 -17 15 -24 19 -4 35 -12 35 -18 0
-6 3 -8 7 -4 5 4 -1 14 -11 22 -19 14 -19 14 1 14 11 0 36 -13 54 -30 19 -16
38 -30 42 -30 4 0 20 -12 34 -28 16 -16 24 -20 20 -10 -3 10 -3 19 1 22 7 4
90 -9 125 -20 13 -4 11 1 -8 20 -14 14 -30 26 -34 26 -14 0 -22 33 -11 44 17
17 12 48 -7 44 -10 -2 -17 -10 -16 -16 2 -7 -5 -12 -15 -12 -19 0 -72 61 -72
83 0 8 -7 17 -15 21 -19 7 -19 36 0 36 8 0 15 -8 15 -17 0 -10 14 -33 30 -52
17 -18 30 -29 30 -23 0 6 7 9 15 6 8 -4 15 -1 15 6 0 7 -8 10 -19 7 -14 -3
-18 -1 -14 9 8 20 18 17 57 -16 19 -17 40 -28 49 -25 11 5 13 0 10 -19 -4 -20
-1 -26 11 -26 10 0 15 -4 12 -9 -3 -5 8 -14 25 -22 18 -7 45 -23 60 -37 16
-13 35 -22 41 -19 8 2 0 12 -19 23 -34 20 -59 59 -43 69 11 7 49 -13 66 -34 8
-11 15 -11 32 -2 14 8 22 8 22 1 0 -5 9 -19 20 -30 22 -22 19 -40 -6 -40 -23
0 -16 -19 10 -26 13 -3 26 -14 29 -25 3 -11 14 -19 27 -19 13 0 20 -5 17 -12
-2 -7 9 -30 25 -50 26 -33 32 -36 50 -27 24 13 40 -3 30 -29 -4 -12 -1 -14 13
-8 11 4 22 2 26 -6 7 -11 12 -11 29 0 26 16 34 11 50 -28 13 -32 17 -34 38
-21 21 13 10 46 -16 49 -12 2 -20 8 -17 13 12 19 33 8 64 -36 19 -26 40 -45
51 -45 11 0 24 -9 30 -20 6 -11 17 -20 25 -20 19 0 19 10 -1 38 -9 13 -13 29
-10 37 7 20 -3 45 -19 45 -7 0 -20 11 -28 24 -9 13 -23 31 -32 40 -9 8 -14 20
-10 26 6 10 9 9 59 -35 16 -14 34 -25 40 -25 6 0 19 -8 28 -17 29 -31 47 -43
64 -43 9 0 35 -19 58 -42 43 -44 60 -57 131 -104 34 -22 44 -25 72 -16 23 7
34 7 38 -2 4 -8 6 -8 10 0 4 8 17 9 43 3 20 -5 1348 -9 2950 -9 l2912 0 -2
757 -3 757 -23 12 c-13 6 -29 17 -35 23 -16 16 6 14 29 -4 10 -8 22 -15 26
-15 4 0 8 209 8 464 l0 464 -87 -91 c-91 -95 -257 -268 -359 -372 -111 -114
-279 -268 -369 -338 -139 -108 -350 -248 -343 -227 2 6 17 19 33 28 30 18 58
38 80 59 8 7 17 13 20 13 17 0 65 43 59 52 -4 7 -2 8 4 4 10 -6 106 61 167
116 11 10 31 27 45 38 163 135 720 692 720 720 0 5 -7 10 -15 10 -22 0 -65
-22 -60 -31 3 -4 0 -11 -6 -15 -8 -4 -9 -3 -5 4 12 19 -9 14 -40 -10 -21 -16
-25 -18 -14 -4 8 10 15 24 16 32 1 7 15 24 30 37 18 16 25 30 21 40 -6 15 -26
17 -154 18 -450 3 -663 12 -822 34 -57 8 -107 12 -112 9 -28 -17 -44 -86 -29
-124 1 -3 3 -10 4 -16 0 -6 9 -18 19 -28 9 -10 17 -27 18 -39 0 -12 3 -16 6
-9 2 6 9 10 13 7 5 -3 6 -13 3 -22 -5 -12 -2 -15 10 -10 13 5 17 1 18 -16 0
-12 3 -16 6 -9 7 19 43 -15 43 -42 1 -21 1 -21 15 -2 15 19 15 19 15 -3 0 -12
4 -19 10 -16 6 3 10 1 10 -6 0 -7 10 -9 30 -5 17 3 30 2 30 -3 0 -11 52 -35
72 -32 9 1 19 -3 22 -8 4 -6 13 -8 21 -4 8 3 15 0 15 -7 0 -9 3 -10 13 -1 10
8 17 7 25 -1 7 -7 12 -8 12 -2 0 12 119 13 138 1 6 -5 12 -4 12 1 0 5 23 12
50 16 28 4 50 11 50 15 0 5 9 11 20 14 13 3 20 14 20 29 0 13 -9 31 -20 41
-11 9 -20 24 -20 33 0 9 -8 23 -17 31 -14 11 -15 16 -5 20 10 4 8 11 -8 28
l-22 23 27 18 c14 9 48 21 75 25 66 10 302 10 295 -1 -3 -4 1 -10 7 -13 16 -6
-114 -133 -180 -177 -26 -17 -54 -29 -64 -27 -10 3 -18 -3 -21 -15 -3 -11 -15
-22 -26 -25 -12 -3 -21 -10 -21 -15 0 -12 -41 -50 -108 -101 -29 -22 -50 -42
-47 -45 5 -5 158 93 205 132 l25 21 -20 -24 c-21 -25 -188 -141 -203 -141 -5
0 -62 -32 -126 -70 -64 -39 -120 -70 -125 -70 -6 0 -13 -4 -16 -10 -7 -11 6
-6 90 30 112 48 324 180 380 236 14 14 30 22 35 19 6 -3 10 -2 10 3 0 5 12 17
28 27 44 27 -47 -54 -111 -99 -31 -22 -53 -44 -50 -49 4 -6 -2 -8 -15 -5 -16
4 -19 2 -15 -10 4 -10 2 -13 -5 -8 -7 4 -24 -1 -40 -12 -51 -36 -174 -102
-190 -102 -15 -1 -15 -2 1 -11 14 -8 24 -7 43 5 13 9 24 13 24 9 0 -5 -14 -16
-31 -25 -17 -10 -28 -22 -24 -28 4 -6 -1 -7 -11 -3 -12 4 -15 3 -10 -5 4 -8 2
-10 -8 -6 -8 3 -19 -3 -25 -14 -6 -11 -24 -25 -41 -32 -16 -7 -30 -18 -30 -24
0 -8 -2 -8 -8 0 -12 18 -118 -37 -147 -76 -14 -19 -47 -57 -74 -85 -44 -46
-103 -112 -158 -178 -41 -49 0 -28 51 26 89 92 101 100 125 85 16 -10 27 -10
50 -1 42 15 44 6 8 -27 -18 -16 -54 -49 -81 -73 -34 -31 -44 -46 -35 -51 8 -3
4 -3 -8 0 -23 5 -69 -13 -59 -23 3 -3 12 0 21 7 9 7 15 8 15 2 0 -5 -16 -19
-36 -31 -19 -12 -32 -15 -28 -9 6 9 3 9 -9 -1 -9 -7 -24 -10 -33 -7 -14 5 -15
4 -4 -9 11 -13 9 -15 -12 -15 -13 0 -34 -7 -46 -16 -27 -19 -25 -21 -40 39
-10 41 -30 82 -85 172 -7 11 -13 22 -14 24 -1 2 -14 -6 -29 -18 -28 -22 -54
-28 -54 -11 0 16 -56 12 -70 -5 -7 -8 -19 -15 -26 -15 -17 0 -19 -17 -2 -22 6
-2 -8 -13 -33 -23 l-44 -18 55 -12 c45 -9 51 -13 33 -19 -13 -4 -27 -5 -32 -2
-5 3 -14 -1 -22 -10 -27 -33 -79 -41 -79 -12 0 6 6 8 14 5 8 -3 16 2 19 14 6
22 -10 24 -37 4 -10 -8 -23 -12 -28 -9 -14 9 -128 -18 -121 -29 3 -5 -4 -6
-15 -3 -12 4 -31 2 -42 -4 -12 -7 -25 -9 -28 -5 -3 3 3 8 14 11 11 3 26 14 32
25 10 16 10 23 -2 34 -8 8 -20 15 -26 15 -6 0 -8 5 -5 10 3 6 25 10 48 10 31
0 52 8 81 30 49 37 56 37 56 0 0 -17 5 -30 13 -30 8 0 7 -4 -3 -10 -13 -8 -13
-10 1 -10 28 0 53 61 44 106 -5 21 -9 41 -9 44 -3 20 -87 150 -118 183 -20 21
-39 45 -42 53 -3 8 -10 14 -15 14 -13 0 -2 -30 21 -54 10 -11 15 -22 12 -25
-3 -3 -24 14 -45 38 -42 47 -45 47 -28 4 16 -40 27 -133 17 -139 -15 -9 -37
23 -31 45 3 13 -1 29 -12 41 -15 16 -16 26 -7 61 10 39 9 42 -26 82 -48 54
-74 76 -89 77 -7 0 -20 16 -28 37 -14 32 -14 38 0 53 8 9 15 24 15 33 0 8 9
17 20 19 18 3 16 8 -20 48 -21 25 -39 39 -40 32 0 -9 -5 -10 -18 -3 -10 5 -27
8 -38 6 -10 -2 -29 -4 -41 -4 -14 -1 -23 -8 -25 -22 -2 -12 -13 -28 -25 -37
-22 -14 -23 -13 -23 16 0 16 -7 35 -15 42 -13 11 -20 9 -38 -8 -21 -20 -25
-20 -45 -6 -12 8 -26 13 -31 10 -10 -7 -73 34 -78 50 -2 6 13 21 34 34 32 19
35 23 20 31 -9 5 -46 11 -82 12 -36 2 -71 9 -78 16 -9 9 5 10 71 5 59 -5 82
-4 82 5 0 6 -5 11 -12 11 -6 0 -9 3 -5 6 3 4 24 -3 47 -15 45 -23 65 -27 54
-9 -5 7 -1 9 13 6 12 -3 27 -2 34 3 11 7 9 13 -11 30 l-25 20 34 -6 c24 -5 32
-4 26 4 -8 14 -107 61 -126 61 -7 0 -9 3 -5 7 14 14 88 13 123 -2 19 -8 43
-15 52 -15 10 0 26 -8 37 -17 10 -10 31 -24 46 -32 15 -8 32 -27 37 -43 6 -15
16 -27 22 -26 7 2 20 -17 30 -42 14 -35 18 -39 18 -20 1 28 19 16 24 -17 1
-11 9 -28 17 -37 20 -25 30 -2 30 74 l0 65 38 -3 c106 -11 202 -9 213 5 7 7
10 15 8 17 -11 10 -291 106 -314 108 -18 2 -54 29 -113 86 -48 46 -96 88 -107
92 -17 7 -14 9 13 9 17 1 32 6 32 12 0 16 62 3 77 -17 6 -8 15 -15 20 -15 18
1 49 -13 80 -36 18 -14 50 -27 73 -30 22 -3 40 -9 40 -13 0 -4 14 -7 30 -7 17
0 26 4 19 7 -7 5 -3 13 12 25 24 17 24 17 2 10 -27 -8 -28 1 -6 45 12 24 13
35 5 38 -7 2 -10 7 -7 12 8 13 -18 26 -80 39 -33 7 -82 18 -110 24 -27 5 -57
10 -65 10 -8 0 -20 3 -26 8 -6 5 -25 9 -42 11 -18 1 -32 6 -32 10 0 9 -68 28
-116 32 -19 2 -37 6 -41 10 -3 3 -12 1 -20 -5 -8 -7 -13 -8 -13 -1 0 14 -114
67 -184 86 -33 8 -71 23 -85 34 -15 10 -107 44 -206 76 -170 55 -441 153 -585
211 -36 15 -99 39 -140 55 -41 15 -92 35 -112 44 l-37 16 35 57 c37 61 38 77
8 79 -34 2 -40 4 -28 12 22 16 55 82 49 101 -6 19 -50 57 -93 80 -20 10 -29 9
-62 -8 -21 -11 -41 -17 -46 -13 -4 4 -4 1 0 -6 11 -18 -56 -43 -119 -45 -57
-1 -115 18 -115 39 0 13 -24 17 -97 18 -13 0 -23 4 -23 9 0 5 -7 1 -16 -7 -8
-9 -12 -20 -9 -26 3 -5 3 -10 -2 -10 -11 0 -35 -79 -28 -91 4 -5 1 -9 -5 -9
-6 0 -8 -4 -5 -10 4 -6 -1 -7 -11 -3 -13 5 -15 2 -9 -15 4 -14 2 -22 -5 -22
-7 0 -9 -8 -5 -20 4 -13 -1 -29 -12 -44 -16 -20 -22 -22 -36 -11 -9 7 -17 17
-17 24 0 14 -17 15 -25 1 -3 -5 -16 -10 -28 -9 -21 1 -21 1 -2 7 53 18 57 25
61 112 3 67 7 85 24 100 29 25 25 32 -15 24 -26 -5 -40 -1 -60 14 -24 19 -24
20 -4 25 15 4 19 2 15 -9 -5 -12 -1 -12 24 1 33 17 40 35 13 35 -24 0 -8 12
18 14 12 0 24 8 26 16 4 13 3 13 -6 0 -8 -12 -12 -12 -29 3 -10 9 -26 17 -35
17 -9 0 -17 5 -17 10 0 19 29 22 52 6 13 -9 43 -16 71 -16 44 0 49 -3 61 -30
9 -23 15 -27 24 -18 7 7 12 19 12 28 0 9 11 22 25 28 37 17 39 15 11 -10 -13
-13 -27 -34 -30 -48 -6 -23 -5 -23 6 -6 23 35 49 57 58 51 16 -10 11 -22 -10
-28 -11 -3 -20 -10 -20 -16 0 -17 48 -25 65 -11 10 9 15 9 15 1 0 -6 -4 -11
-10 -11 -18 0 -10 -38 9 -43 15 -3 26 9 54 61 19 37 40 68 47 70 9 3 9 -1 0
-18 -8 -15 -8 -20 -1 -16 20 13 11 -5 -19 -37 -16 -17 -27 -33 -24 -36 3 -3
16 7 30 22 25 28 34 33 34 20 0 -16 -68 -83 -83 -83 -32 0 -17 -18 19 -22 28
-3 38 0 47 16 11 21 11 20 17 -4 l7 -25 13 28 c10 19 19 27 31 24 12 -3 24 4
35 20 13 20 18 23 25 12 7 -11 9 -11 9 -1 0 9 7 11 23 7 18 -6 16 -2 -12 24
-19 17 -31 34 -28 38 4 3 56 9 116 11 l109 4 4 47 c3 25 1 50 -4 56 -5 5 -8 2
-8 -8 0 -12 -8 -17 -27 -17 -26 1 -27 2 -10 14 15 12 16 14 2 20 -8 3 -15 1
-15 -4 0 -5 -6 -7 -14 -4 -22 9 -147 -33 -199 -66 -40 -25 -48 -27 -45 -13 2
10 21 24 43 33 22 8 55 24 73 35 31 19 32 20 10 28 -17 6 -19 10 -9 16 7 5 12
12 11 17 0 5 8 10 20 12 22 4 28 22 8 22 -7 0 1 11 17 24 27 22 28 25 12 32
-10 4 -36 2 -56 -5 -46 -13 -54 -14 -47 -2 3 5 23 12 43 16 46 8 86 32 77 46
-3 6 -17 8 -30 5 -33 -9 -30 0 7 19 18 10 29 22 25 30 -3 8 0 16 7 19 7 3 6 5
-3 5 -14 1 -139 -117 -189 -179 l-21 -25 7 35 c3 19 12 50 19 67 16 41 -1 56
-27 25 -20 -26 -29 -28 -29 -7 0 9 -6 12 -16 8 -13 -5 -15 -2 -9 16 4 13 1 27
-9 37 -9 8 -16 11 -16 5 0 -6 -5 -11 -11 -11 -6 0 -8 11 -4 28 5 23 2 28 -15
28 -15 0 -20 -7 -20 -28z m59 -142 c-6 -21 -12 -36 -14 -34 -3 2 0 21 6 42 6
21 12 36 14 34 3 -2 0 -21 -6 -42z m61 -6 c0 -5 -5 -10 -11 -10 -5 0 -7 5 -4
10 3 6 8 10 11 10 2 0 4 -4 4 -10z m0 -34 c0 -3 -4 -8 -10 -11 -5 -3 -10 -1
-10 4 0 6 5 11 10 11 6 0 10 -2 10 -4z m70 -32 c0 -8 -7 -14 -15 -14 -9 0 -21
-11 -27 -25 -6 -14 -18 -25 -27 -25 -14 1 -14 2 2 14 9 7 17 17 17 22 0 5 7
20 16 32 16 23 34 21 34 -4z m-96 -54 c-22 -43 -38 -48 -17 -6 9 20 20 36 24
36 4 0 1 -13 -7 -30z m-838 13 c-4 -4 -25 -13 -47 -19 -33 -10 -38 -10 -29 1
11 13 32 20 69 24 8 0 11 -2 7 -6z m-221 -33 c-3 -5 -16 -10 -28 -9 -20 1 -20
2 3 9 14 4 26 8 28 9 2 1 0 -3 -3 -9z m385 -5 c0 -8 -4 -15 -9 -15 -5 0 -11 7
-15 15 -3 9 0 15 9 15 8 0 15 -7 15 -15z m-106 -19 c-3 -8 -12 -12 -21 -9 -12
5 -12 7 -1 14 20 13 28 11 22 -5z m-394 0 c0 -3 -4 -8 -10 -11 -5 -3 -10 -1
-10 4 0 6 5 11 10 11 6 0 10 -2 10 -4z m488 -8 c13 -13 16 -29 5 -27 -22 4
-32 -3 -35 -23 -2 -13 -9 -22 -16 -20 -11 2 -14 -5 -11 -24 0 -4 -4 -10 -10
-13 -6 -4 -12 -16 -14 -26 -4 -32 -17 -45 -40 -45 -19 1 -20 2 -7 13 14 11 32
51 48 101 6 21 51 76 62 76 3 0 11 -5 18 -12z m-239 -32 c0 -7 -2 -6 -6 2 -2
6 -9 10 -14 6 -5 -3 -9 2 -9 12 0 13 3 14 15 4 8 -7 15 -18 14 -24z m953 12
c-7 -7 -12 -8 -12 -2 0 14 12 26 19 19 2 -3 -1 -11 -7 -17z m-1329 -3 c11 -7
26 -11 34 -8 8 3 19 0 25 -8 7 -11 11 -11 15 -1 2 6 9 12 14 12 6 0 8 -4 5 -9
-4 -5 -1 -11 5 -13 6 -2 8 -14 4 -31 -4 -15 -11 -25 -15 -22 -5 3 -21 0 -37
-6 -22 -8 -26 -8 -15 2 16 17 15 30 -2 23 -8 -3 -23 4 -33 15 -9 12 -24 21
-33 21 -12 0 -13 2 -1 9 7 5 10 14 7 20 -10 15 5 13 27 -4z m354 -21 c-3 -3
-12 -4 -19 -1 -8 3 -5 6 6 6 11 1 17 -2 13 -5z m-367 -22 c0 -4 -9 -8 -19 -8
-11 0 -17 4 -15 8 3 4 12 8 20 8 8 0 14 -4 14 -8z m380 -7 c0 -8 -7 -15 -15
-15 -26 0 -18 20 13 29 1 1 2 -6 2 -14z m33 -5 c-3 -11 -10 -23 -16 -27 -5 -3
-8 -2 -5 3 3 5 8 17 11 27 9 24 16 22 10 -3z m-393 -22 c0 -6 -3 -8 -7 -5 -7
8 -33 -11 -33 -25 0 -6 7 -8 15 -4 9 3 15 0 15 -8 0 -8 -13 -19 -30 -25 -28
-9 -42 0 -20 14 6 3 10 14 10 24 0 20 19 41 37 41 7 0 13 -5 13 -12z m8 -72
c-7 -8 -15 -12 -17 -11 -5 6 10 25 20 25 5 0 4 -6 -3 -14z m216 -21 c-6 -16
-24 -21 -24 -7 0 11 11 22 21 22 5 0 6 -7 3 -15z m49 -26 c-3 -12 -18 -25 -34
-31 -15 -5 -30 -16 -33 -24 -7 -19 -23 -18 -23 2 0 12 78 74 93 74 1 0 0 -9
-3 -21z m-299 -31 c25 -20 15 -36 -11 -17 -10 8 -19 25 -20 39 -1 14 0 18 3
10 4 -8 16 -23 28 -32z m531 14 c38 -2 101 -20 77 -21 -13 0 -31 -5 -40 -10
-9 -4 -30 -11 -47 -15 l-30 -6 35 21 35 20 -36 -5 c-33 -4 -36 -2 -31 16 2 11
8 16 11 11 3 -5 15 -10 26 -11z m195 14 c0 -3 -4 -8 -10 -11 -5 -3 -10 -1 -10
4 0 6 5 11 10 11 6 0 10 -2 10 -4z m420 -11 c16 -19 0 -19 -26 0 -16 12 -16
14 -3 15 9 0 22 -7 29 -15z m-1174 -62 c15 -16 -5 -81 -30 -95 -20 -11 -21 1
-1 29 15 22 15 22 -11 8 -15 -7 -30 -19 -34 -25 -5 -7 -16 -9 -29 -5 l-21 6
22 40 c12 21 26 39 30 39 5 0 7 -4 4 -9 -3 -4 9 -7 26 -5 36 5 51 14 22 14
-20 0 -44 17 -44 31 0 15 35 14 44 -1 5 -8 15 -20 22 -27z m74 17 c0 -5 -10
-14 -21 -21 -17 -9 -19 -13 -8 -20 9 -5 26 -1 46 11 18 11 33 15 33 10 0 -5 8
-11 18 -13 9 -3 0 -5 -20 -6 -21 0 -38 -5 -38 -10 0 -7 -33 -20 -57 -22 -15
-1 -12 17 7 49 19 31 40 43 40 22z m1510 -55 c11 -10 17 -22 14 -26 -8 -13
-54 -11 -54 2 0 6 -9 8 -22 4 -17 -6 -20 -4 -15 10 4 9 7 20 7 25 0 15 49 4
70 -15z m-1750 -9 c0 -3 -4 -8 -10 -11 -5 -3 -10 -1 -10 4 0 6 5 11 10 11 6 0
10 -2 10 -4z m870 -5 c0 -6 -4 -13 -10 -16 -5 -3 -10 1 -10 9 0 9 5 16 10 16
6 0 10 -4 10 -9z m-635 -21 c3 -5 1 -10 -4 -10 -6 0 -11 5 -11 10 0 6 2 10 4
10 3 0 8 -4 11 -10z m-30 -10 c3 -5 -3 -10 -14 -10 -12 0 -21 5 -21 10 0 6 6
10 14 10 8 0 18 -4 21 -10z m-175 -11 c0 -5 -13 -15 -30 -20 -20 -7 -30 -18
-30 -31 0 -10 -4 -16 -10 -13 -14 9 15 62 37 68 30 8 33 7 33 -4z m460 -9
c-12 -22 -21 -26 -17 -7 2 10 17 26 25 27 1 0 -2 -9 -8 -20z m380 -20 c0 -5
-6 -10 -12 -10 -7 0 -24 -9 -38 -20 -18 -14 -39 -19 -75 -18 -27 0 -40 3 -27
5 12 2 22 9 22 14 0 6 8 8 18 4 11 -3 39 4 63 15 52 23 49 23 49 10z m-839
-30 c-30 -26 -49 -26 -26 0 10 11 25 20 34 20 12 -1 10 -5 -8 -20z m308 11
c16 -10 6 -31 -14 -31 -17 0 -28 17 -20 30 8 12 16 12 34 1z m584 -16 c-3 -8
-1 -15 4 -15 6 0 10 -13 9 -30 -1 -16 -3 -30 -6 -30 -3 0 -7 -12 -8 -26 -2
-25 -25 -58 -35 -48 -10 10 4 96 18 111 19 18 19 27 1 20 -15 -6 -16 9 -3 31
11 16 28 6 20 -13z m-828 5 c3 -5 -1 -10 -9 -10 -8 0 -18 5 -21 10 -3 6 1 10
9 10 8 0 18 -4 21 -10z m1034 1 c20 -13 4 -31 -28 -31 -38 0 -45 11 -18 26 28
15 29 15 46 5z m-875 -23 c3 -13 1 -25 -6 -27 -6 -2 -19 -12 -29 -22 -20 -20
-34 -25 -24 -9 10 16 -15 12 -31 -5 -14 -13 -14 -16 1 -21 31 -12 80 -10 112
5 38 17 56 8 27 -14 -11 -8 -42 -15 -74 -15 -40 0 -51 -3 -40 -10 10 -7 -3 -9
-43 -4 -47 4 -63 2 -78 -11 -13 -13 -27 -16 -51 -11 -18 4 -48 8 -65 8 -18 1
-33 5 -33 10 0 16 -29 8 -33 -9 -3 -10 -5 -4 -6 12 0 31 18 65 36 65 6 0 16 7
24 16 7 9 22 14 36 11 13 -2 28 2 34 9 17 20 31 17 24 -5 -4 -13 1 -24 17 -35
22 -16 23 -15 29 6 3 13 1 26 -5 30 -6 4 3 8 21 8 17 0 35 5 38 11 5 6 11 4
19 -6 10 -14 13 -14 33 4 12 12 25 17 28 12 3 -6 -3 -14 -12 -20 -16 -9 -16
-10 4 -11 17 0 21 5 18 25 -3 31 20 34 29 3z m61 -16 c-3 -3 -11 0 -18 7 -9
10 -8 11 6 5 10 -3 15 -9 12 -12z m281 -49 c-2 -18 -10 -29 -22 -32 -10 -2
-21 -7 -24 -12 -3 -4 -11 1 -19 12 -7 12 -8 18 -2 14 6 -3 11 -1 11 4 0 6 5
11 11 11 5 0 7 -6 4 -12 -3 -7 4 -1 16 15 13 15 24 27 25 27 2 0 1 -12 0 -27z
m-146 3 c0 -3 -4 -8 -10 -11 -5 -3 -10 -1 -10 4 0 6 5 11 10 11 6 0 10 -2 10
-4z m351 -28 c-4 -13 -18 -28 -30 -34 -12 -6 -34 -22 -49 -35 -20 -18 -23 -19
-12 -4 23 32 54 60 63 57 5 -1 6 2 3 7 -5 8 17 29 31 31 1 0 -1 -10 -6 -22z
m154 12 c3 -5 -1 -10 -10 -10 -9 0 -13 5 -10 10 3 6 8 10 10 10 2 0 7 -4 10
-10z m-369 -70 c0 -15 -6 -20 -21 -18 -11 1 -26 -1 -32 -5 -8 -5 -13 -4 -13 2
0 6 5 11 10 11 6 0 10 7 10 15 0 9 9 15 23 15 16 0 23 -6 23 -20z m-76 -12 c0
-17 -3 -19 -9 -9 -5 7 -14 10 -20 7 -6 -4 -11 -2 -11 4 0 6 -4 8 -10 5 -5 -3
-10 -1 -10 4 0 6 14 11 30 11 24 0 30 -4 30 -22z m-560 -48 c0 -5 -2 -10 -4
-10 -3 0 -8 5 -11 10 -3 6 -1 10 4 10 6 0 11 -4 11 -10z m499 -17 c0 -25 -1
-26 -9 -8 -12 27 -12 35 0 35 6 0 10 -12 9 -27z m-449 -14 c0 -6 -4 -7 -10 -4
-5 3 -10 11 -10 16 0 6 5 7 10 4 6 -3 10 -11 10 -16z m1917 -229 c22 -5 65
-12 95 -15 68 -6 128 -33 128 -60 0 -26 10 -39 37 -53 14 -8 19 -18 16 -30 -2
-10 2 -24 10 -30 12 -10 21 -8 46 14 34 28 36 26 20 -20 -13 -37 2 -86 27 -86
10 0 14 5 11 14 -4 10 -1 13 7 10 7 -3 16 2 20 11 3 9 10 13 16 10 5 -3 10 -2
10 3 0 18 -13 21 -34 7 -25 -18 -48 -20 -25 -2 9 7 19 22 23 34 4 14 12 20 22
16 22 -8 18 43 -5 66 -11 11 -18 21 -16 23 2 2 -9 12 -25 23 -17 11 -32 26
-35 33 -5 14 9 8 37 -16 10 -8 26 -16 35 -17 29 -4 63 -17 63 -24 0 -4 37 -7
83 -7 122 0 236 -10 285 -25 33 -11 42 -19 42 -36 0 -16 -6 -23 -19 -23 -15 0
-20 -9 -23 -42 -3 -24 -3 -45 0 -48 2 -3 17 10 33 29 16 19 32 31 36 27 5 -5
2 -11 -4 -13 -7 -3 -13 -15 -13 -28 0 -12 -7 -25 -15 -29 -8 -3 -15 -17 -15
-31 0 -14 -9 -35 -20 -47 -11 -12 -20 -28 -20 -35 0 -19 -27 -16 -34 3 -6 15
-9 15 -29 -3 -16 -15 -31 -19 -59 -16 -34 5 -43 12 -39 36 2 11 -27 8 -35 -4
-3 -6 -19 -9 -35 -5 -18 3 -29 1 -29 -5 0 -6 -9 -9 -20 -6 -12 3 -24 -1 -29
-11 -9 -15 -12 -14 -35 7 -28 27 -33 50 -14 69 14 14 106 16 141 3 29 -11 39
2 31 41 -5 20 -4 21 8 7 8 -9 27 -15 51 -14 20 1 37 -2 37 -7 0 -4 5 -8 11 -8
7 0 9 10 7 25 -5 22 -2 25 23 25 16 0 29 5 29 10 0 6 -7 10 -16 10 -17 0 -183
62 -217 81 -24 13 -40 1 -34 -27 2 -13 -1 -25 -6 -27 -6 -2 -8 -11 -4 -20 7
-18 43 -22 66 -8 16 10 41 4 41 -10 0 -5 -9 -9 -19 -9 -11 0 -23 -4 -26 -10
-3 -5 -15 -15 -25 -20 -16 -8 -18 -8 -14 5 8 19 -6 19 -55 -1 -39 -15 -52 -34
-56 -79 -3 -31 -35 -32 -35 -1 0 22 -4 26 -31 26 -19 0 -28 -4 -24 -11 4 -6
-2 -13 -14 -16 -17 -4 -19 -8 -10 -19 9 -11 8 -14 -4 -14 -9 0 -23 -7 -31 -16
-9 -8 -16 -11 -16 -5 0 7 -8 7 -24 1 -13 -5 -27 -6 -30 -3 -3 4 -3 -8 0 -25 6
-28 3 -32 -20 -38 -15 -3 -30 -4 -33 0 -4 3 3 6 15 6 11 0 23 4 26 9 6 9 -107
49 -259 92 -94 26 -102 31 -110 71 -9 37 13 118 31 118 11 0 10 6 -1 33 -13
32 -13 34 26 79 35 41 38 49 29 73 -9 23 -8 26 7 21 10 -3 37 -10 60 -16z
m-1877 -123 c0 -5 -4 -5 -10 -2 -5 3 -10 14 -10 23 0 15 2 15 10 2 5 -8 10
-19 10 -23z m2861 -26 c-12 -8 -12 -12 -2 -25 12 -14 10 -16 -8 -16 -16 0 -21
6 -21 25 0 19 5 25 23 25 17 0 19 -2 8 -9z m170 -8 c5 -5 -18 -7 -49 -7 -78 2
-82 3 -82 14 0 12 119 5 131 -7z m331 -4 c17 -9 18 -13 7 -20 -19 -12 -32 -11
-24 1 3 6 1 10 -4 10 -6 0 -11 5 -11 10 0 13 6 13 32 -1z m-907 -29 c3 -5 1
-10 -4 -10 -6 0 -11 5 -11 10 0 6 2 10 4 10 3 0 8 -4 11 -10z m-2446 -46 c12
8 -16 -90 -39 -134 -11 -21 -26 -35 -38 -36 -10 -1 -24 -4 -30 -8 -6 -3 -8 1
-5 13 3 12 -2 20 -16 24 -34 8 -25 27 9 21 20 -4 30 -2 30 5 0 7 -3 10 -7 8
-5 -3 -9 17 -9 44 -1 27 2 49 7 49 5 0 15 13 24 30 l15 29 25 -25 c14 -14 29
-23 34 -20z m99 -30 c21 -4 29 -16 46 -71 6 -19 4 -23 -14 -23 -12 0 -18 -4
-15 -10 3 -5 15 -10 26 -10 10 0 19 -4 19 -10 0 -5 -6 -10 -13 -10 -21 0 -40
-39 -26 -56 6 -8 15 -29 18 -47 5 -24 13 -33 31 -35 15 -2 30 -13 37 -29 l13
-26 -25 23 c-14 13 -28 20 -32 17 -3 -4 2 -14 13 -23 18 -15 18 -15 -8 -10
-15 4 -39 17 -54 31 -15 14 -31 25 -35 25 -5 0 -9 7 -9 15 0 8 -5 15 -10 15
-7 0 -7 -6 -2 -17 5 -10 12 -34 16 -53 6 -32 5 -34 -10 -18 -9 9 -20 36 -24
59 -5 24 -12 52 -15 62 -6 13 0 20 24 28 17 6 28 15 25 21 -4 6 1 8 14 4 25
-8 40 12 15 21 -10 4 -21 11 -24 16 -9 13 -29 0 -39 -27 -8 -20 -9 -19 -9 6
-1 15 6 31 15 36 13 7 14 13 6 29 -6 11 -8 29 -5 41 6 24 -6 29 -25 10 -9 -9
-12 -9 -12 3 0 28 10 29 88 13z m2392 -34 c0 -5 -4 -10 -10 -10 -5 0 -10 5
-10 10 0 6 5 10 10 10 6 0 10 -4 10 -10z m-2017 -70 c-3 -11 -7 -20 -9 -20 -2
0 -4 9 -4 20 0 11 4 20 9 20 5 0 7 -9 4 -20z m-233 -5 c0 -8 -4 -15 -10 -15
-5 0 -7 7 -4 15 4 8 8 15 10 15 2 0 4 -7 4 -15z m54 -3 c2 -4 -4 -9 -15 -9
-10 -1 -19 2 -19 8 0 11 27 12 34 1z m1463 -24 c-3 -8 -6 -5 -6 6 -1 11 2 17
5 13 3 -3 4 -12 1 -19z m1271 -27 c3 -18 -2 -21 -30 -21 -56 0 -78 10 -78 35
0 17 7 25 23 27 34 6 82 -17 85 -41z m-1223 29 c3 -5 2 -10 -4 -10 -5 0 -13 5
-16 10 -3 6 -2 10 4 10 5 0 13 -4 16 -10z m1430 -4 c28 -7 34 -24 8 -20 -37 4
-84 17 -88 23 -4 8 44 6 80 -3z m-3015 -6 c0 -5 -5 -10 -11 -10 -5 0 -7 5 -4
10 3 6 8 10 11 10 2 0 4 -4 4 -10z m2320 -8 c0 -4 12 -9 27 -10 37 -3 40 -10
9 -22 -30 -11 -26 -30 7 -30 12 0 17 -4 12 -8 -12 -11 -107 -3 -100 8 3 4 14
6 25 3 15 -4 20 0 20 15 0 11 -7 23 -16 26 -8 3 -12 10 -9 16 7 12 25 13 25 2z
m-2350 -12 c0 -5 -9 -14 -20 -20 -17 -9 -20 -8 -20 10 0 13 7 20 20 20 11 0
20 -4 20 -10z m1709 1 c7 -5 9 -11 5 -14 -5 -3 -15 1 -22 9 -14 16 -5 18 17 5z
m342 -8 c-5 -10 -26 -34 -47 -53 l-37 -35 23 35 c32 48 51 70 62 70 5 0 4 -8
-1 -17z m-2011 -24 c0 -5 -4 -9 -10 -9 -5 0 -10 7 -10 16 0 8 5 12 10 9 6 -3
10 -10 10 -16z m1575 1 c18 -3 17 -8 -4 -19 -20 -11 -23 -9 -34 22 -5 14 -3
16 11 8 9 -5 22 -10 27 -11z m585 -38 c0 -7 5 -10 11 -6 7 4 10 1 7 -7 -8 -25
-55 -34 -101 -21 -23 7 -50 14 -61 17 -49 12 -27 30 47 38 28 4 55 11 61 17
12 12 36 -13 36 -38z m-510 18 c0 -5 -2 -10 -4 -10 -3 0 -8 5 -11 10 -3 6 -1
10 4 10 6 0 11 -4 11 -10z m595 -19 c-16 -15 -48 -17 -52 -3 -3 8 6 12 28 12
20 0 29 -4 24 -9z m-510 -11 c18 -8 17 -9 -7 -9 -16 -1 -28 4 -28 9 0 12 8 12
35 0z m-1790 -10 c3 -5 1 -10 -4 -10 -6 0 -11 5 -11 10 0 6 2 10 4 10 3 0 8
-4 11 -10z m-278 -42 c-3 -8 -6 -5 -6 6 -1 11 2 17 5 13 3 -3 4 -12 1 -19z
m1883 11 c0 -14 -43 -17 -73 -4 -31 13 -31 13 21 12 29 0 52 -4 52 -8z m-1833
-46 c-3 -10 -5 -2 -5 17 0 19 2 27 5 18 2 -10 2 -26 0 -35z m5387 28 c3 -5 -1
-11 -9 -14 -9 -4 -12 -1 -8 9 6 16 10 17 17 5z m-3014 -15 c0 -12 -138 -71
-147 -62 -3 2 124 69 145 75 1 1 2 -5 2 -13z m452 7 c-10 -4 -10 -8 -1 -19 9
-11 6 -16 -16 -24 -15 -6 -30 -8 -33 -5 -3 3 -12 -4 -20 -16 -10 -15 -17 -18
-25 -10 -6 6 -18 11 -26 11 -22 0 -101 33 -101 43 0 4 19 7 43 8 23 0 51 4 62
9 11 5 45 9 75 9 30 -1 49 -3 42 -6z m75 1 c-3 -3 -12 -4 -19 -1 -8 3 -5 6 6
6 11 1 17 -2 13 -5z m-2797 -8 c0 -15 -14 -35 -21 -30 -15 9 -10 34 6 34 8 0
15 -2 15 -4z m1997 -12 c-3 -3 -12 -4 -19 -1 -8 3 -5 6 6 6 11 1 17 -2 13 -5z
m-1827 -14 c0 -5 -7 -10 -16 -10 -11 0 -14 -5 -10 -16 4 -10 -1 -25 -10 -35
-18 -20 -64 -26 -64 -9 0 6 6 10 14 10 9 0 12 8 9 24 -3 13 0 27 6 30 6 4 11
1 11 -6 0 -8 5 -6 11 5 11 18 49 24 49 7z m5070 7 c0 -2 -19 -18 -42 -36 l-43
-32 39 35 c37 34 46 40 46 33z m-5383 -33 c15 -33 8 -47 -18 -34 -19 10 -26
40 -12 53 11 12 18 8 30 -19z m1923 -47 c0 -2 -10 -12 -21 -23 -22 -19 -22
-19 -8 4 12 19 29 30 29 19z m60 -1 c0 -3 -4 -8 -10 -11 -5 -3 -10 -1 -10 4 0
6 5 11 10 11 6 0 10 -2 10 -4z m686 -21 c18 -14 18 -16 2 -29 -26 -19 -22 -30
15 -49 l32 -16 -47 0 c-51 -1 -60 8 -79 71 -6 24 -5 29 6 24 8 -3 17 -1 20 4
9 14 28 12 51 -5z m2665 -25 c-17 -17 -31 -35 -31 -41 0 -5 -16 -17 -35 -25
-19 -8 -34 -18 -32 -23 1 -4 -28 -29 -66 -55 -37 -25 -79 -57 -95 -70 -80 -71
-98 -86 -104 -86 -6 0 -58 -84 -58 -95 0 -3 9 -3 20 0 11 3 20 4 20 2 0 -2
-37 -35 -82 -72 -46 -38 -93 -81 -105 -95 -32 -36 -28 -14 4 29 19 24 26 45
24 67 -1 18 2 35 8 39 6 3 11 13 11 21 0 19 43 57 103 91 26 14 47 30 47 35 0
5 -9 4 -20 -2 -11 -6 -20 -8 -20 -5 0 3 21 15 48 27 52 23 143 84 155 104 4 8
12 14 17 14 17 0 50 38 37 43 -6 2 9 13 34 25 24 12 64 39 89 61 52 47 78 56
31 11z m-2857 -25 c-19 -29 -29 -27 -19 4 3 12 13 21 21 21 12 0 12 -4 -2 -25z
m-750 -12 c11 -15 23 -36 26 -47 4 -12 19 -23 40 -29 19 -5 42 -15 50 -22 70
-64 112 -113 100 -117 -5 -2 -10 -26 -11 -55 -1 -29 -5 -50 -9 -48 -17 11 -28
-17 -32 -78 -5 -73 -18 -93 -51 -76 -10 6 -26 7 -35 3 -9 -4 -22 -8 -29 -9 -6
-2 -19 -8 -30 -13 -20 -12 -22 -10 33 -27 14 -4 14 -7 0 -20 -8 -8 -21 -15
-29 -15 -8 0 -17 -13 -20 -30 -4 -18 -13 -30 -22 -30 -8 0 -15 -5 -15 -11 0
-17 -18 -1 -34 32 -11 22 -13 37 -6 49 8 16 5 20 -24 30 -37 12 -106 11 -106
-2 0 -4 5 -8 10 -8 6 0 10 -5 10 -11 0 -5 -4 -8 -9 -5 -5 4 -7 -3 -4 -14 3
-11 9 -18 13 -15 13 8 23 -15 12 -28 -6 -8 -5 -27 5 -57 14 -44 16 -46 76 -60
33 -8 63 -21 65 -28 2 -7 -10 -25 -27 -41 -29 -27 -36 -29 -85 -24 -34 4 -56
2 -60 -6 -4 -6 -2 -11 4 -11 6 0 8 -4 5 -10 -3 -5 -18 -10 -33 -10 -21 0 -24
-2 -12 -10 13 -8 13 -11 1 -19 -7 -5 -11 -13 -7 -19 3 -6 -8 -4 -25 5 -17 8
-33 21 -35 28 -4 9 -25 13 -70 12 -35 -1 -64 -4 -64 -7 0 -14 99 -104 127
-116 66 -28 353 -18 501 18 46 11 86 17 89 15 11 -11 -30 -97 -46 -98 -12 0
-11 -2 4 -8 19 -8 19 -8 -2 -15 -13 -4 -27 -4 -33 -1 -5 3 -10 2 -10 -3 0 -5
-19 -14 -42 -20 -52 -13 -244 -25 -208 -13 19 6 7 9 -55 15 -44 4 -89 5 -100
2 -12 -2 -36 3 -55 12 -19 9 -40 16 -46 17 -7 0 -45 34 -87 75 -41 41 -100 98
-131 127 -31 28 -66 71 -76 95 -11 24 -35 60 -53 81 -26 31 -32 48 -32 84 0
38 5 49 33 74 18 16 40 29 50 29 9 0 32 14 51 31 l33 31 -25 26 -26 27 22 48
c17 36 27 47 45 47 12 0 22 6 22 14 0 8 23 39 51 70 42 46 55 55 75 50 18 -5
31 1 52 24 20 21 45 33 85 42 47 11 59 18 64 38 4 16 20 31 47 43 57 26 84 24
110 -8z m678 -11 c-21 -7 -45 3 -47 19 -3 15 0 15 28 1 17 -9 26 -17 19 -20z
m312 22 c23 -9 20 -24 -4 -24 -11 0 -20 7 -20 15 0 17 2 18 24 9z m-349 -44
c3 -5 1 -10 -4 -10 -6 0 -11 5 -11 10 0 6 2 10 4 10 3 0 8 -4 11 -10z m1118
-6 c3 -3 3 -13 0 -21 -5 -12 -7 -12 -14 -1 -15 23 -4 40 14 22z m-1226 -10
c-3 -3 -12 -4 -19 -1 -8 3 -5 6 6 6 11 1 17 -2 13 -5z m-27 -47 c0 -4 -9 -3
-20 3 -11 6 -20 15 -20 20 0 6 9 5 20 -2 11 -7 20 -16 20 -21z m191 10 c-13
-13 -26 -3 -16 12 3 6 11 8 17 5 6 -4 6 -10 -1 -17z m-1990 -24 c-12 -20 -14
-14 -5 12 4 9 9 14 11 11 3 -2 0 -13 -6 -23z m-834 1 c-3 -3 -12 -4 -19 -1 -8
3 -5 6 6 6 11 1 17 -2 13 -5z m2893 -4 c0 -5 -4 -10 -10 -10 -5 0 -10 5 -10
10 0 6 5 10 10 10 6 0 10 -4 10 -10z m2600 -11 c-47 -38 -71 -52 -77 -45 -4 4
3 9 15 13 12 3 22 9 22 14 0 7 47 38 60 38 3 0 -6 -9 -20 -20z m-2915 -9 c3
-5 30 -10 58 -10 43 0 55 -4 66 -21 12 -20 11 -21 -6 -14 -10 4 -35 9 -56 12
-37 6 -38 5 -31 -21 7 -31 -6 -34 -36 -9 -11 10 -20 30 -20 45 0 28 13 37 25
18z m3090 -110 c-13 -14 -14 -20 -5 -20 7 0 11 -2 8 -5 -3 -3 -13 -3 -22 1
-15 6 -15 9 5 30 27 29 40 23 14 -6z m-2855 10 c0 -5 -7 -10 -15 -10 -8 0 -15
5 -15 10 0 6 7 10 15 10 8 0 15 -4 15 -10z m-2581 -14 c7 -8 8 -17 3 -19 -4
-3 -13 3 -20 14 -14 22 0 26 17 5z m436 -6 c3 -5 1 -10 -4 -10 -6 0 -11 5 -11
10 0 6 2 10 4 10 3 0 8 -4 11 -10z m5062 4 c-3 -3 -12 -4 -19 -1 -8 3 -5 6 6
6 11 1 17 -2 13 -5z m-3169 -35 c12 -19 11 -19 -8 -9 -11 6 -20 15 -20 20 0
17 15 11 28 -11z m-2358 1 c0 -5 -5 -10 -11 -10 -5 0 -7 5 -4 10 3 6 8 10 11
10 2 0 4 -4 4 -10z m2595 -16 c13 -5 14 -8 3 -15 -19 -13 -28 -11 -28 6 0 17
2 18 25 9z m-2548 -10 c-3 -3 -12 -4 -19 -1 -8 3 -5 6 6 6 11 1 17 -2 13 -5z
m47 -9 c11 -8 16 -15 10 -15 -5 0 -18 7 -28 15 -11 8 -16 15 -10 15 5 0 18 -7
28 -15z m236 -27 c0 -4 6 -5 13 -2 8 3 20 -3 27 -13 12 -15 12 -16 0 -5 -21
19 -28 15 -23 -15 3 -24 1 -22 -13 10 -9 20 -20 37 -25 37 -5 0 -9 8 -9 18 1
15 2 15 15 -2 8 -11 15 -23 15 -28z m115 22 c-3 -5 -11 -10 -16 -10 -6 0 -7 5
-4 10 3 6 11 10 16 10 6 0 7 -4 4 -10z m1820 -10 c3 -5 2 -10 -4 -10 -5 0 -13
5 -16 10 -3 6 -2 10 4 10 5 0 13 -4 16 -10z m-1814 -38 c19 2 24 -3 30 -29 9
-45 -7 -55 -53 -35 -37 16 -37 16 -29 76 0 5 7 3 15 -4 8 -6 25 -10 37 -8z
m4482 -29 c-14 -26 -28 -66 -32 -88 -6 -31 -10 -36 -16 -22 -9 21 17 94 46
131 30 38 31 32 2 -21z m-2593 -8 c20 -24 6 -28 -15 -5 -10 11 -13 20 -8 20 6
0 16 -7 23 -15z m3440 -35 c0 -5 -4 -10 -10 -10 -5 0 -10 5 -10 10 0 6 5 10
10 10 6 0 10 -4 10 -10z m-1785 -98 c-6 -15 -7 -15 -15 -2 -4 8 -11 33 -15 55
l-6 40 21 -38 c12 -22 19 -46 15 -55z m1750 58 c3 -5 -1 -10 -10 -10 -9 0 -13
5 -10 10 3 6 8 10 10 10 2 0 7 -4 10 -10z m-1855 -10 c0 -5 -7 -7 -15 -4 -8 4
-15 8 -15 10 0 2 7 4 15 4 8 0 15 -4 15 -10z m-3645 -28 c-7 -8 -35 7 -35 18
0 6 7 6 20 -2 10 -7 17 -14 15 -16z m-325 -6 c0 -3 -4 -8 -10 -11 -5 -3 -10
-1 -10 4 0 6 5 11 10 11 6 0 10 -2 10 -4z m1887 -16 c2 -17 -1 -19 -19 -9 -17
9 -18 13 -7 20 21 13 25 11 26 -11z m-1362 -28 c-3 -3 -11 0 -18 7 -9 10 -8
11 6 5 10 -3 15 -9 12 -12z m4630 -40 c-3 -3 -11 0 -18 7 -9 10 -8 11 6 5 10
-3 15 -9 12 -12z m-795 -6 c0 -3 -4 -8 -10 -11 -5 -3 -10 -1 -10 4 0 6 5 11
10 11 6 0 10 -2 10 -4z m-4295 -76 c17 -18 17 -20 2 -14 -9 3 -17 10 -17 15 0
4 -7 6 -15 3 -8 -4 -15 -1 -15 5 0 18 25 13 45 -9z m662 4 c-3 -3 -12 -4 -19
-1 -8 3 -5 6 6 6 11 1 17 -2 13 -5z m-623 -61 c55 -28 46 -45 -11 -21 -15 6
-31 11 -35 10 -5 -1 -8 5 -8 13 0 19 11 19 54 -2z m4221 -3 c-28 -12 -37 -12
-30 0 3 6 16 10 28 9 21 0 21 -1 2 -9z m-1993 -30 c44 -16 53 -33 31 -56 -13
-13 -27 -15 -70 -9 -29 3 -105 1 -168 -6 -113 -12 -116 -12 -135 9 l-20 21 38
6 c20 3 73 15 117 25 113 27 117 28 145 26 14 -1 42 -8 62 -16z m-2026 -41
c24 -6 44 -16 44 -21 0 -10 -24 -4 -74 18 -38 16 -28 17 30 3z m164 -3 c0 -11
-19 -15 -25 -6 -3 5 1 10 9 10 9 0 16 -2 16 -4z m11 -29 c-10 -9 -11 -8 -5 6
3 10 9 15 12 12 3 -3 0 -11 -7 -18z m1374 13 c3 -5 2 -10 -4 -10 -5 0 -13 5
-16 10 -3 6 -2 10 4 10 5 0 13 -4 16 -10z m2625 -16 c0 -8 -5 -12 -10 -9 -6 4
-8 11 -5 16 9 14 15 11 15 -7z m50 2 c0 -2 -7 -7 -16 -10 -8 -3 -12 -2 -9 4 6
10 25 14 25 6z m-6870 -107 c0 -6 -4 -7 -10 -4 -5 3 -10 11 -10 16 0 6 5 7 10
4 6 -3 10 -11 10 -16z m40 -69 c0 -5 -2 -10 -4 -10 -3 0 -8 5 -11 10 -3 6 -1
10 4 10 6 0 11 -4 11 -10z m-26 -41 c-3 -5 -10 -7 -15 -3 -5 3 -7 10 -3 15 3
5 10 7 15 3 5 -3 7 -10 3 -15z m5272 1 c8 0 14 -4 14 -10 0 -5 -3 -9 -7 -9
-19 3 -36 -2 -30 -8 8 -7 -11 -33 -25 -33 -5 0 -6 10 -3 21 5 14 3 19 -3 15
-12 -7 -42 3 -42 14 0 10 48 19 68 13 8 -1 20 -3 28 -3z m-5276 -34 c0 -3 -4
-8 -10 -11 -5 -3 -10 -1 -10 4 0 6 5 11 10 11 6 0 10 -2 10 -4z m73 -41 c42
-39 45 -45 17 -45 -11 0 -20 7 -20 15 0 8 -11 22 -25 31 -24 16 -33 34 -17 34
4 0 24 -16 45 -35z m5244 0 c-4 -8 -2 -17 3 -20 22 -13 8 -33 -32 -45 -24 -7
-53 -19 -65 -27 -19 -11 -23 -11 -23 0 0 8 -12 19 -26 25 -36 17 -20 35 25 27
30 -5 41 -1 71 24 38 33 55 39 47 16z m-5104 -85 c27 -36 34 -50 23 -50 -9 0
-27 18 -41 40 -27 43 -34 47 -54 28 -11 -10 -10 -8 0 10 8 12 18 22 24 22 5
-1 27 -23 48 -50z m-51 -9 c-10 -6 -6 -12 12 -25 14 -9 26 -21 26 -26 0 -14
-37 -13 -46 1 -4 8 -9 7 -15 -2 -5 -9 -8 -4 -6 16 2 28 26 59 37 49 2 -3 -1
-9 -8 -13z m128 -11 c-20 -13 -33 -13 -25 0 3 6 14 10 23 10 15 0 15 -2 2 -10z
m-180 -10 c0 -5 -4 -10 -10 -10 -5 0 -10 5 -10 10 0 6 5 10 10 10 6 0 10 -4
10 -10z m203 -54 c8 -21 -2 -26 -29 -14 -18 8 -21 14 -12 20 19 12 35 10 41
-6z m57 -6 c6 -11 9 -20 7 -20 -2 0 -12 9 -22 20 -10 11 -13 20 -7 20 6 0 16
-9 22 -20z m-100 -20 c0 -5 -4 -10 -10 -10 -5 0 -10 5 -10 10 0 6 5 10 10 10
6 0 10 -4 10 -10z m470 -6 c0 -8 -5 -12 -10 -9 -6 4 -8 11 -5 16 9 14 15 11
15 -7z m-113 -16 c-3 -8 -6 -5 -6 6 -1 11 2 17 5 13 3 -3 4 -12 1 -19z m207
-14 c5 -14 4 -15 -9 -4 -17 14 -19 20 -6 20 5 0 12 -7 15 -16z m-409 -14 c3
-5 -1 -10 -9 -10 -9 0 -16 5 -16 10 0 6 4 10 9 10 6 0 13 -4 16 -10z m352 -12
c-3 -8 -6 -5 -6 6 -1 11 2 17 5 13 3 -3 4 -12 1 -19z m-262 -8 c3 -5 2 -10 -4
-10 -5 0 -13 5 -16 10 -3 6 -2 10 4 10 5 0 13 -4 16 -10z m170 -10 c4 -6 -6
-10 -22 -10 -22 0 -25 2 -13 10 19 12 27 12 35 0z m205 -77 c0 -13 -3 -13 -15
-3 -8 7 -15 19 -15 27 0 13 3 13 15 3 8 -7 15 -19 15 -27z m170 17 c0 -5 -2
-10 -4 -10 -3 0 -8 5 -11 10 -3 6 -1 10 4 10 6 0 11 -4 11 -10z m245 -10 c3
-5 2 -10 -4 -10 -5 0 -13 5 -16 10 -3 6 -2 10 4 10 5 0 13 -4 16 -10z m-145
-10 c0 -5 -4 -10 -10 -10 -5 0 -10 5 -10 10 0 6 5 10 10 10 6 0 10 -4 10 -10z
m-130 -20 c0 -5 -9 -10 -20 -10 -11 0 -20 5 -20 10 0 6 9 10 20 10 11 0 20 -4
20 -10z m655 -160 c3 -5 2 -10 -4 -10 -5 0 -13 5 -16 10 -3 6 -2 10 4 10 5 0
13 -4 16 -10z m-18 -52 c-3 -8 -6 -5 -6 6 -1 11 2 17 5 13 3 -3 4 -12 1 -19z
m83 -4 c0 -8 -4 -14 -9 -14 -5 0 -16 -3 -24 -6 -9 -3 -16 3 -20 16 -4 17 -2
20 14 15 11 -4 19 -2 19 5 0 6 5 8 10 5 6 -3 10 -13 10 -21z m-90 -59 c10 -12
10 -15 -4 -15 -9 0 -16 7 -16 15 0 8 2 15 4 15 2 0 9 -7 16 -15z m164 0 c3 -8
1 -15 -4 -15 -6 0 -10 7 -10 15 0 8 2 15 4 15 2 0 6 -7 10 -15z m56 -25 c0 -5
-4 -10 -9 -10 -6 0 -13 5 -16 10 -3 6 1 10 9 10 9 0 16 -4 16 -10z m207 -76
c-3 -3 -12 -4 -19 -1 -8 3 -5 6 6 6 11 1 17 -2 13 -5z m148 -54 c4 -6 4 -17 1
-25 -4 -11 -11 -11 -35 -2 -17 6 -31 17 -31 24 0 16 56 18 65 3z m130 -130 c3
-5 -3 -10 -14 -10 -11 0 -23 5 -26 10 -3 6 3 10 14 10 11 0 23 -4 26 -10z m45
-11 c0 -4 -7 -6 -15 -3 -8 4 -15 10 -15 15 0 4 7 6 15 3 8 -4 15 -10 15 -15z"/>
<path d="M3892 3308 c-18 -18 -15 -27 7 -21 22 6 37 33 18 33 -7 0 -18 -5 -25
-12z"/>
<path d="M4055 3310 c-3 -5 -1 -10 4 -10 6 0 11 5 11 10 0 6 -2 10 -4 10 -3 0
-8 -4 -11 -10z"/>
<path d="M3991 3251 c-12 -21 -6 -27 16 -13 7 5 9 13 4 21 -7 11 -11 9 -20 -8z"/>
<path d="M5915 2710 c-3 -10 1 -33 9 -49 20 -37 20 -45 1 -37 -24 9 -18 -6 13
-31 21 -18 24 -24 13 -32 -11 -7 -10 -11 5 -19 10 -6 19 -18 19 -28 0 -11 11
-20 28 -25 18 -5 25 -4 21 3 -5 8 5 9 29 5 23 -4 41 -1 54 9 17 14 15 14 -14
9 -32 -6 -50 6 -37 26 4 8 9 7 15 -2 5 -8 9 -9 9 -3 0 7 13 10 34 8 21 -3 38
1 46 11 10 12 10 15 -3 15 -8 0 -18 6 -20 13 -4 8 -8 9 -14 1 -10 -13 -45 -28
-58 -25 -36 10 -56 7 -51 -5 6 -16 -3 -18 -24 -4 -8 5 -10 10 -4 10 7 0 14 9
17 20 3 13 14 20 30 20 18 0 28 8 37 30 7 17 10 33 6 37 -3 3 -35 6 -71 7 -36
0 -65 4 -65 8 0 5 7 8 15 8 18 0 19 12 3 28 -18 18 -36 15 -43 -8z"/>
<path d="M6660 2619 c0 -7 3 -9 7 -6 3 4 13 1 21 -6 13 -10 14 -9 10 3 -6 19
-38 26 -38 9z"/>
<path d="M3940 2620 c0 -13 5 -20 13 -17 6 2 12 10 12 17 0 7 -6 15 -12 18 -8
2 -13 -5 -13 -18z"/>
<path d="M4090 2410 c0 -5 5 -10 10 -10 6 0 10 5 10 10 0 6 -4 10 -10 10 -5 0
-10 -4 -10 -10z"/>
<path d="M5194 1595 c-17 -7 -41 -23 -52 -36 -26 -27 -17 -43 37 -65 20 -8 68
-37 108 -65 76 -53 88 -56 124 -36 49 26 50 27 29 49 -11 12 -20 27 -20 34 0
6 -8 14 -17 16 -10 3 -31 30 -47 61 l-28 55 -52 0 c-28 1 -65 -5 -82 -13z
m106 -4 c0 -5 -6 -16 -14 -23 -8 -8 -16 -23 -19 -34 -3 -11 -5 -3 -6 18 -1 27
4 38 17 41 9 3 18 5 20 6 1 0 2 -3 2 -8z m47 -73 c-3 -8 -6 -5 -6 6 -1 11 2
17 5 13 3 -3 4 -12 1 -19z"/>
<path d="M5606 1587 c3 -10 9 -15 12 -12 3 3 0 11 -7 18 -10 9 -11 8 -5 -6z"/>
<path d="M5130 1485 c0 -17 -2 -17 -10 -5 -8 12 -10 9 -10 -13 0 -16 4 -26 9
-23 5 4 7 -3 4 -13 -7 -26 42 -51 99 -50 33 0 38 2 22 9 -11 4 -41 32 -67 62
-36 41 -47 48 -47 33z"/>
<path d="M4165 1740 c3 -5 8 -10 11 -10 2 0 4 5 4 10 0 6 -5 10 -11 10 -5 0
-7 -4 -4 -10z"/>
<path d="M5072 4153 c-6 -2 -10 -9 -6 -14 8 -14 21 -11 28 6 6 15 1 17 -22 8z"/>
<path d="M4825 4130 c-10 -11 -15 -23 -12 -27 7 -6 36 25 37 40 0 11 -6 8 -25
-13z"/>
<path d="M4644 4106 c5 -23 3 -36 -6 -39 -7 -2 -11 -7 -8 -10 3 -3 13 1 23 8
15 10 17 21 12 44 -9 43 -29 40 -21 -3z"/>
<path d="M4942 4115 c-11 -13 -9 -15 14 -15 22 0 25 2 14 15 -15 18 -12 18
-28 0z"/>
<path d="M4605 4100 c3 -5 8 -10 11 -10 2 0 4 5 4 10 0 6 -5 10 -11 10 -5 0
-7 -4 -4 -10z"/>
<path d="M4607 4019 c-4 -16 -3 -18 9 -8 16 13 19 29 5 29 -5 0 -11 -9 -14
-21z"/>
<path d="M4525 4020 c-3 -5 -12 -7 -19 -4 -14 5 -32 -13 -23 -22 7 -8 77 7 77
16 0 12 -29 20 -35 10z"/>
<path d="M4278 3923 c7 -3 16 -2 19 1 4 3 -2 6 -13 5 -11 0 -14 -3 -6 -6z"/>
<path d="M4340 3695 c-8 -9 -8 -15 -2 -15 12 0 26 19 19 26 -2 2 -10 -2 -17
-11z"/>
<path d="M5215 3700 c3 -5 10 -10 16 -10 5 0 9 5 9 10 0 6 -7 10 -16 10 -8 0
-12 -4 -9 -10z"/>
<path d="M8480 2819 c0 -5 5 -7 10 -4 6 3 10 8 10 11 0 2 -4 4 -10 4 -5 0 -10
-5 -10 -11z"/>
<path d="M7724 2658 c11 -15 16 -45 16 -90 0 -39 4 -68 10 -68 6 0 10 7 10 15
0 9 6 12 15 9 11 -5 13 -2 9 10 -4 11 -1 16 11 16 14 0 15 3 5 15 -7 8 -10 31
-7 54 4 37 2 41 -26 50 -50 18 -61 15 -43 -11z"/>
<path d="M3845 2660 c-3 -5 -16 -10 -28 -10 -12 0 -74 -18 -137 -40 -63 -23
-137 -48 -165 -56 -27 -9 -54 -20 -60 -25 -5 -5 -19 -9 -31 -9 -18 0 -245 -77
-319 -109 -199 -84 -435 -199 -460 -224 -7 -6 22 -8 83 -4 68 4 104 12 138 28
41 21 44 25 28 36 -10 7 -16 15 -13 17 2 2 47 16 98 31 95 28 174 59 286 113
109 52 520 222 539 222 6 0 25 9 41 20 17 11 25 20 18 20 -6 0 -15 -4 -18 -10z"/>
<path d="M8230 2662 c0 -10 78 -37 145 -51 61 -12 253 -30 395 -36 58 -3 134
-7 170 -9 36 -3 173 -7 305 -11 247 -6 285 -10 285 -27 0 -6 -19 -28 -42 -49
-24 -22 -39 -39 -34 -39 18 0 87 45 101 67 15 22 14 23 -18 36 -49 21 -142 28
-542 42 -88 3 -178 8 -200 10 -22 3 -101 9 -175 15 -154 12 -316 35 -355 50
-32 12 -35 12 -35 2z"/>
<path d="M8530 2650 c-9 -6 -10 -10 -3 -10 6 0 15 5 18 10 8 12 4 12 -15 0z"/>
<path d="M8069 2624 c-1 -2 -2 -7 -3 -11 -1 -5 -4 -12 -7 -18 -4 -5 -5 -19 -3
-30 7 -43 7 -102 0 -113 -12 -19 24 -64 47 -58 13 3 26 -2 33 -12 11 -14 13
-14 14 -2 0 12 2 12 9 2 6 -10 10 -9 14 8 4 18 2 20 -16 15 -12 -4 -17 -3 -11
2 6 4 13 18 16 29 4 17 2 20 -12 17 -15 -4 -18 2 -18 30 0 20 6 38 13 41 10 4
11 14 3 44 -8 32 -16 41 -44 50 -19 5 -35 8 -35 6z"/>
<path d="M9583 2526 c3 -8 -1 -17 -9 -20 -21 -8 -17 -26 6 -26 16 0 20 7 20
30 0 17 -5 30 -11 30 -6 0 -9 -6 -6 -14z"/>
<path d="M9345 2473 c-51 -12 -124 -40 -119 -46 3 -3 -8 -13 -25 -22 -33 -16
-41 -35 -16 -35 8 0 15 -4 15 -10 0 -5 -3 -10 -7 -10 -12 0 -44 -61 -38 -70 8
-12 56 7 85 33 14 12 46 37 71 56 61 43 97 90 78 102 -8 5 -16 8 -19 8 -3 -1
-14 -3 -25 -6z"/>
<path d="M3725 2406 c-21 -9 -26 -14 -16 -20 8 -5 21 -1 34 13 25 24 23 25
-18 7z"/>
<path d="M3653 2328 c-27 -13 -30 -28 -5 -28 21 1 54 25 45 33 -8 9 -13 8 -40
-5z"/>
<path d="M8064 2265 c-3 -8 -14 -17 -25 -20 -11 -4 -19 -16 -19 -30 0 -12 -7
-25 -15 -29 -8 -3 -15 -11 -15 -18 0 -10 2 -10 9 1 7 11 11 9 20 -8 7 -11 20
-21 30 -21 12 0 21 -10 26 -27 l7 -28 23 29 c12 15 24 24 26 18 2 -6 17 0 32
14 15 13 22 24 15 24 -8 0 -19 -5 -26 -12 -8 -8 -12 -8 -12 -1 0 6 7 16 15 23
23 19 18 37 -16 70 -34 32 -66 39 -75 15z"/>
<path d="M3685 2244 c-64 -26 -90 -30 -79 -13 4 7 -1 9 -12 7 -12 -2 -18 -11
-17 -25 2 -16 -8 -26 -40 -41 -51 -25 -87 -51 -69 -52 7 0 40 11 74 25 66 27
88 31 88 15 0 -5 7 -10 15 -10 8 0 15 6 15 13 0 14 57 76 86 94 30 19 4 13
-61 -13z"/>
<path d="M8185 2220 c3 -5 10 -10 16 -10 5 0 9 5 9 10 0 6 -7 10 -16 10 -8 0
-12 -4 -9 -10z"/>
<path d="M2318 2184 c17 -8 32 -21 32 -28 0 -21 21 -31 30 -16 5 7 6 20 3 27
-3 9 0 14 8 13 8 -1 21 -1 29 0 23 3 -60 19 -100 19 l-35 -1 33 -14z"/>
<path d="M2033 2166 c-12 -14 -7 -18 77 -53 l35 -15 -19 21 c-11 11 -27 21
-36 21 -10 0 -24 9 -31 20 -12 16 -16 17 -26 6z"/>
<path d="M2498 2163 c6 -2 18 -2 25 0 6 3 1 5 -13 5 -14 0 -19 -2 -12 -5z"/>
<path d="M2540 2156 c0 -2 33 -11 73 -21 39 -9 81 -19 92 -22 14 -4 17 -2 10
5 -21 21 -175 55 -175 38z"/>
<path d="M3080 2111 c0 -31 85 -53 131 -34 25 10 30 16 20 23 -8 4 -20 6 -28
3 -7 -3 -13 0 -13 6 0 7 -21 11 -55 11 -30 0 -55 -4 -55 -9z"/>
<path d="M2211 2092 c0 -4 17 -20 37 -37 l37 -30 -25 32 c-24 31 -51 50 -49
35z"/>
<path d="M2685 2081 c-3 -5 -1 -12 4 -15 5 -3 11 1 15 9 6 16 -9 21 -19 6z"/>
<path d="M2190 2070 c8 -5 20 -10 25 -10 6 0 3 5 -5 10 -8 5 -19 10 -25 10 -5
0 -3 -5 5 -10z"/>
<path d="M3665 2071 c-3 -5 -1 -12 5 -16 5 -3 10 1 10 9 0 18 -6 21 -15 7z"/>
<path d="M8850 2066 c-39 -12 -46 -29 -15 -34 22 -3 72 33 58 41 -4 3 -24 0
-43 -7z"/>
<path d="M2430 2056 c0 -3 140 -94 205 -134 50 -30 137 -73 141 -69 3 2 -15
14 -38 27 -73 37 -132 73 -212 128 -67 46 -96 60 -96 48z"/>
<path d="M2790 2040 c-8 -5 -13 -10 -10 -11 3 0 16 -2 29 -5 13 -2 34 -14 47
-27 12 -12 28 -23 33 -23 6 -1 16 -2 22 -3 5 0 8 -5 5 -10 -3 -4 13 -14 34
-21 22 -7 40 -17 40 -22 0 -4 5 -8 11 -8 15 0 156 -67 189 -90 33 -23 70 -34
70 -21 0 5 -6 12 -12 14 -7 2 0 3 15 1 16 -2 34 -10 42 -17 14 -15 94 -32 103
-22 3 3 -3 5 -13 5 -22 0 -122 57 -128 73 -3 8 -9 6 -19 -7 -12 -16 -18 -17
-29 -7 -22 19 -387 211 -402 211 -6 0 -19 -5 -27 -10z"/>
<path d="M3203 2038 c-12 -6 -24 -17 -27 -24 -5 -12 -1 -12 22 1 15 8 34 19
42 24 13 10 13 11 0 10 -8 0 -25 -5 -37 -11z"/>
<path d="M3700 2042 c0 -5 7 -15 15 -22 8 -7 15 -9 15 -6 0 4 -7 14 -15 22 -8
9 -15 11 -15 6z"/>
<path d="M3395 2020 c-4 -6 5 -10 19 -10 14 0 26 5 26 10 0 6 -9 10 -19 10
-11 0 -23 -4 -26 -10z"/>
<path d="M8593 2003 c-7 -2 -13 -11 -13 -19 0 -8 -5 -14 -11 -14 -7 0 -9 -11
-6 -26 4 -23 2 -25 -21 -19 -21 5 -24 4 -14 -8 13 -15 65 -21 56 -6 -3 5 2 9
11 9 8 0 23 4 33 9 9 5 29 14 45 22 15 7 27 16 27 21 0 13 -38 9 -46 -4 -6 -9
-10 -5 -14 12 -6 25 -23 33 -47 23z"/>
<path d="M3175 1980 c-3 -5 1 -10 9 -10 8 0 18 5 21 10 3 6 -1 10 -9 10 -8 0
-18 -4 -21 -10z"/>
<path d="M3845 1946 c28 -25 54 -46 59 -46 11 0 -31 38 -75 68 -23 16 -18 9
16 -22z"/>
<path d="M8683 1936 c-13 -6 -23 -14 -23 -18 0 -12 18 -10 25 3 4 6 17 14 29
19 11 5 14 8 6 8 -8 0 -25 -5 -37 -12z"/>
<path d="M2441 1936 c2 -2 18 -6 34 -10 22 -5 26 -4 15 4 -14 9 -59 15 -49 6z"/>
<path d="M7605 1920 c8 -27 22 -46 29 -39 3 3 -4 18 -15 34 -19 28 -20 28 -14
5z"/>
<path d="M7645 1920 c3 -5 23 -10 43 -9 30 0 33 2 17 9 -28 12 -67 12 -60 0z"/>
<path d="M2456 1906 c10 -8 21 -12 24 -10 5 6 -21 24 -34 24 -6 0 -1 -6 10
-14z"/>
<path d="M3170 1905 c27 -14 36 -13 25 4 -3 6 -16 11 -28 11 -21 -1 -21 -1 3
-15z"/>
<path d="M8745 1903 c-16 -9 -66 -29 -110 -44 -44 -15 -111 -39 -150 -54 -38
-14 -90 -33 -115 -40 l-45 -15 45 6 c68 9 253 69 305 100 25 14 48 24 51 21 3
-3 -59 -37 -138 -76 -79 -39 -137 -71 -130 -71 15 0 253 114 315 150 28 17 35
25 25 31 -17 11 -18 11 -53 -8z"/>
<path d="M7565 1890 c3 -5 8 -10 11 -10 2 0 4 5 4 10 0 6 -5 10 -11 10 -5 0
-7 -4 -4 -10z"/>
<path d="M3215 1870 c3 -5 8 -10 11 -10 2 0 4 5 4 10 0 6 -5 10 -11 10 -5 0
-7 -4 -4 -10z"/>
<path d="M2537 1859 c7 -7 15 -10 18 -7 3 3 -2 9 -12 12 -14 6 -15 5 -6 -5z"/>
<path d="M3000 1830 c8 -5 20 -10 25 -10 6 0 3 5 -5 10 -8 5 -19 10 -25 10 -5
0 -3 -5 5 -10z"/>
<path d="M7898 1773 c-3 -49 -9 -69 -23 -79 -18 -13 -17 -14 7 -14 15 0 29 4
32 8 2 4 32 9 65 10 61 3 101 -11 101 -35 0 -18 11 -17 150 22 116 32 120 34
60 28 -79 -8 -111 -6 -124 7 -6 6 -17 10 -25 10 -8 0 -22 6 -30 14 -9 8 -47
26 -85 40 -38 15 -74 30 -80 35 -37 28 -44 21 -48 -46z m212 -73 c0 -5 -7 -10
-15 -10 -8 0 -15 5 -15 10 0 6 7 10 15 10 8 0 15 -4 15 -10z"/>
<path d="M2820 1826 c0 -2 7 -7 16 -10 8 -3 12 -2 9 4 -6 10 -25 14 -25 6z"/>
<path d="M3070 1800 c8 -5 20 -10 25 -10 6 0 3 5 -5 10 -8 5 -19 10 -25 10 -5
0 -3 -5 5 -10z"/>
<path d="M3305 1760 c3 -5 8 -10 11 -10 2 0 4 5 4 10 0 6 -5 10 -11 10 -5 0
-7 -4 -4 -10z"/>
<path d="M3210 1739 c25 -11 59 -23 75 -25 17 -3 -1 6 -40 20 -83 31 -98 32
-35 5z"/>
<path d="M3340 1746 c0 -2 7 -6 15 -10 8 -3 15 -1 15 4 0 6 -7 10 -15 10 -8 0
-15 -2 -15 -4z"/>
<path d="M8298 1743 c7 -3 16 -2 19 1 4 3 -2 6 -13 5 -11 0 -14 -3 -6 -6z"/>
<path d="M3340 1700 c-15 -5 -18 -8 -8 -9 9 -1 18 -7 20 -13 3 -7 7 -2 10 10
4 12 5 22 5 21 -1 -1 -13 -5 -27 -9z"/>
<path d="M2828 1688 c5 -5 16 -8 23 -6 8 3 3 7 -10 11 -17 4 -21 3 -13 -5z"/>
<path d="M3370 1679 c0 -3 11 -11 24 -17 19 -8 28 -7 43 4 17 14 17 14 -4 4
-21 -10 -26 -7 -25 10 0 3 -8 6 -19 6 -10 0 -19 -3 -19 -7z"/>
<path d="M2877 1669 c7 -7 15 -10 18 -7 3 3 -2 9 -12 12 -14 6 -15 5 -6 -5z"/>
<path d="M3147 1600 c3 -11 12 -20 20 -20 8 0 11 5 8 10 -3 6 0 10 7 10 9 0 9
3 -2 10 -25 16 -39 12 -33 -10z"/>
<path d="M8125 1603 c4 -10 11 -31 14 -48 l7 -30 6 35 c6 42 1 60 -19 60 -11
0 -13 -5 -8 -17z"/>
<path d="M8135 1510 c3 -5 8 -10 11 -10 2 0 4 5 4 10 0 6 -5 10 -11 10 -5 0
-7 -4 -4 -10z"/>
<path d="M3435 1476 c11 -8 23 -12 28 -9 13 8 -3 23 -26 23 -20 0 -20 0 -2
-14z"/>
<path d="M3620 1410 c0 -5 5 -10 10 -10 6 0 10 5 10 10 0 6 -4 10 -10 10 -5 0
-10 -4 -10 -10z"/>
<path d="M1328 1313 c7 -3 16 -2 19 1 4 3 -2 6 -13 5 -11 0 -14 -3 -6 -6z"/>
<path d="M1163 935 c20 -14 37 -30 37 -35 0 -13 27 -13 35 1 4 6 -2 13 -14 16
-12 3 -21 9 -21 13 0 8 -45 30 -63 30 -6 0 5 -11 26 -25z"/>
<path d="M1070 946 c0 -12 31 -76 40 -81 21 -13 28 7 9 26 -11 11 -17 25 -13
30 4 6 0 15 -7 20 -15 9 -29 12 -29 5z"/>
<path d="M1130 905 c0 -8 4 -15 8 -15 5 0 23 -14 40 -31 43 -42 41 -21 -2 25
-38 40 -46 43 -46 21z"/>
<path d="M1264 864 c9 -8 16 -20 16 -26 0 -6 3 -9 6 -6 8 9 -14 48 -27 48 -6
0 -3 -7 5 -16z"/>
<path d="M1140 840 c0 -5 5 -10 11 -10 5 0 7 5 4 10 -3 6 -8 10 -11 10 -2 0
-4 -4 -4 -10z"/>
<path d="M1836 625 c4 -8 11 -15 16 -15 6 0 5 6 -2 15 -7 8 -14 15 -16 15 -2
0 -1 -7 2 -15z"/>
<path d="M2200 510 c0 -5 5 -10 10 -10 6 0 10 5 10 10 0 6 -4 10 -10 10 -5 0
-10 -4 -10 -10z"/>
<path d="M2785 420 c3 -5 8 -10 11 -10 2 0 4 5 4 10 0 6 -5 10 -11 10 -5 0 -7
-4 -4 -10z"/>
<path d="M2545 359 c-5 -7 2 -19 16 -30 43 -33 55 -18 15 20 -17 16 -26 19
-31 10z"/>
<path d="M2648 343 c7 -3 16 -2 19 1 4 3 -2 6 -13 5 -11 0 -14 -3 -6 -6z"/>
<path d="M2826 256 c5 -12 -1 -16 -21 -16 -15 0 -24 -4 -20 -10 3 -5 15 -10
26 -10 11 0 19 -7 19 -16 0 -10 7 -14 23 -12 28 4 29 32 0 36 -13 2 -20 8 -17
17 3 7 1 16 -5 20 -7 3 -8 0 -5 -9z"/>
<path d="M2640 230 c0 -5 9 -10 20 -10 11 0 20 5 20 10 0 6 -9 10 -20 10 -11
0 -20 -4 -20 -10z"/>
<path d="M2880 191 c0 -5 7 -11 15 -15 8 -3 15 -16 15 -30 0 -13 7 -26 15 -30
18 -6 19 3 4 41 -13 35 -49 60 -49 34z"/>
<path d="M3343 92 c-27 -4 -30 -24 -7 -43 12 -10 17 -10 23 0 6 9 11 8 21 -4
7 -8 20 -15 29 -15 13 1 11 5 -6 19 -13 11 -23 24 -23 30 0 14 -11 18 -37 13z"/>
</g>
</svg>
