<?xml version="1.0" standalone="no"?>
<!DOCTYPE svg PUBLIC "-//W3C//DTD SVG 20010904//EN"
 "http://www.w3.org/TR/2001/REC-SVG-20010904/DTD/svg10.dtd">
<svg version="1.0" xmlns="http://www.w3.org/2000/svg"
 width="960.000000pt" height="640.000000pt" viewBox="0 0 960.000000 640.000000"
 preserveAspectRatio="xMidYMid meet">

<g transform="translate(0.000000,640.000000) scale(0.100000,-0.100000)"
fill="#000000" stroke="none">
<path d="M8129 6223 c-1 -98 -4 -313 -7 -478 -3 -165 -5 -427 -5 -582 0 -320
-1 -319 81 -355 36 -16 57 -19 105 -14 58 6 163 -15 177 -36 4 -4 23 -9 43
-10 21 -2 37 -8 37 -15 0 -8 13 -13 33 -13 17 -1 70 -13 117 -29 50 -17 88
-25 91 -19 7 11 39 -18 39 -36 0 -16 130 -76 164 -76 15 0 29 -6 32 -14 3 -7
23 -19 45 -26 35 -12 55 -40 28 -40 -6 0 3 -13 20 -29 17 -16 31 -34 31 -40 0
-6 9 -11 20 -11 11 0 20 -4 20 -8 0 -4 15 -25 34 -45 18 -20 29 -37 24 -37 -5
0 -6 -5 -3 -11 9 -14 -21 -46 -62 -66 -23 -10 -33 -22 -32 -37 0 -27 16 -105
18 -88 0 6 6 12 11 12 6 0 9 -12 7 -27 -3 -16 -10 -27 -16 -25 -6 1 -11 -2
-11 -8 0 -6 -6 -9 -12 -8 -7 2 -12 -2 -11 -8 1 -6 -8 -9 -20 -7 -14 3 -30 -3
-41 -16 -19 -21 -19 -21 1 -21 18 0 21 -8 28 -77 9 -102 14 -123 32 -123 24 0
10 -35 -16 -38 -22 -4 -23 -7 -18 -59 4 -38 12 -62 26 -75 25 -23 26 -32 4
-54 -17 -16 -18 -16 -24 7 -5 18 -7 14 -8 -18 -1 -31 -5 -43 -16 -43 -11 0
-15 -11 -15 -40 l0 -40 -60 0 -60 0 0 35 c0 41 -2 42 -145 48 l-100 5 83 -10
82 -11 0 -33 c0 -27 4 -34 20 -34 17 0 20 -7 20 -40 0 -33 3 -40 20 -40 11 0
20 -7 20 -15 0 -8 9 -19 20 -25 15 -8 20 -21 20 -50 l0 -40 -60 0 c-33 0 -60
4 -60 8 0 4 -15 14 -32 22 -18 7 -36 15 -40 18 -5 2 -8 -5 -8 -16 0 -16 9 -22
40 -27 31 -5 40 -11 40 -26 0 -17 5 -19 33 -14 17 4 43 2 57 -4 21 -8 17 -9
-20 -5 -30 4 -41 2 -31 -4 11 -8 11 -10 0 -15 -8 -3 72 -3 176 0 229 7 256 2
273 -56 10 -32 8 -50 -13 -122 -48 -164 -167 -501 -220 -624 -67 -153 -145
-309 -156 -313 -5 -2 -9 -8 -9 -13 0 -10 -126 -216 -147 -240 -7 -9 -13 -22
-11 -30 2 -7 -4 -13 -12 -14 -8 0 -14 -8 -14 -17 1 -10 -4 -14 -11 -11 -7 2
-24 -9 -36 -26 -13 -17 -29 -31 -37 -31 -9 0 -12 -6 -8 -16 3 -8 2 -12 -4 -9
-5 3 -14 -5 -21 -17 -24 -46 -147 -156 -227 -203 -104 -61 -297 -128 -278 -96
4 6 -14 -2 -40 -19 -27 -17 -62 -30 -79 -30 -17 0 -78 -7 -135 -15 -57 -9
-126 -15 -154 -15 -28 1 -76 -3 -106 -9 -60 -11 -80 -13 -400 -36 -118 -8
-228 -17 -245 -20 -16 -3 -160 -7 -320 -9 l-290 -4 129 13 c109 12 134 18 165
40 59 42 65 48 88 95 30 63 37 108 18 136 -18 28 -13 31 75 58 106 33 144 55
168 97 23 40 23 40 3 46 -23 6 -27 24 -10 54 7 14 7 24 0 33 -6 7 -8 27 -5 43
6 30 5 31 -45 43 -56 13 -77 30 -37 30 20 0 26 5 26 23 0 15 16 35 50 62 28
22 54 51 57 65 3 14 16 38 27 53 13 18 17 30 10 35 -6 4 -14 16 -18 27 -7 19
-8 19 -20 3 -16 -22 -39 -23 -71 -2 -24 15 -25 15 -25 -2 -1 -11 -14 -35 -30
-54 -17 -19 -30 -40 -30 -48 0 -9 -7 -11 -20 -7 -11 3 -29 0 -40 -8 -14 -10
-32 -12 -60 -7 -22 4 -37 3 -34 -1 10 -16 -35 -9 -48 7 -7 9 -28 32 -45 51
-18 19 -33 43 -33 53 0 18 3 18 52 -3 32 -13 57 -31 67 -49 18 -31 34 -38 24
-10 -11 31 -37 54 -90 78 -29 12 -53 27 -53 33 0 5 -7 16 -15 25 -8 8 -17 31
-21 51 -5 31 -2 37 15 42 25 6 27 18 5 27 -8 3 -13 10 -9 16 3 5 -1 20 -10 33
-8 13 -12 26 -9 30 8 8 -15 77 -26 74 -11 -3 -13 8 -5 46 14 70 4 66 123 46
190 -33 334 -60 497 -95 88 -19 196 -41 240 -50 44 -9 94 -20 110 -25 17 -4
71 -15 120 -24 50 -9 123 -25 162 -36 40 -10 82 -19 92 -19 11 0 40 -6 63 -14
24 -8 69 -22 100 -31 32 -10 55 -22 52 -26 -11 -18 57 -8 138 20 46 16 94 31
108 34 14 4 61 30 105 60 44 29 107 69 140 87 60 33 210 163 295 254 25 27 72
79 106 115 33 36 95 110 138 164 47 60 95 109 122 125 50 31 54 39 20 48 -24
6 -319 -18 -716 -57 -273 -26 -923 -36 -1325 -20 -392 16 -732 44 -748 61 -10
10 -8 12 8 7 11 -2 28 -8 38 -12 13 -6 16 -3 11 9 -4 11 -1 16 10 16 9 0 16 5
16 10 0 6 -7 10 -15 10 -8 0 -16 10 -17 23 0 12 -2 28 -2 35 -1 8 -11 19 -24
26 -12 7 -19 15 -16 19 4 4 -13 7 -39 7 -46 0 -71 15 -43 26 19 7 21 37 5 67
-21 39 -49 49 -49 18 0 -15 -18 -31 -35 -31 -2 0 -7 15 -10 33 -4 17 -12 38
-17 45 -8 9 -5 12 10 12 11 0 22 -7 26 -15 7 -19 26 -20 26 -2 0 24 -40 51
-75 51 -33 0 -34 1 -18 18 9 10 11 18 5 18 -6 0 -20 -12 -31 -26 -12 -15 -21
-21 -21 -13 0 17 43 69 57 69 6 0 20 9 32 19 13 11 27 21 32 23 6 2 7 11 4 20
-7 18 -95 35 -115 23 -8 -5 -11 2 -8 21 2 21 -2 30 -14 32 -10 2 -18 -2 -18
-8 0 -7 -8 -9 -21 -5 -19 6 -21 4 -16 -14 4 -17 2 -19 -12 -12 -9 6 -43 11
-75 13 -35 2 -60 8 -63 16 -3 6 -14 12 -25 12 -15 0 -18 5 -14 17 9 24 -15 35
-36 17 -15 -15 -16 -14 -11 5 4 15 1 21 -11 21 -11 0 -16 9 -16 26 0 22 -2 25
-15 14 -8 -7 -15 -28 -15 -46 0 -19 -5 -34 -11 -34 -5 0 -8 4 -4 9 3 5 1 12
-5 16 -5 3 -10 20 -10 37 0 25 3 29 20 25 13 -3 20 0 20 9 0 8 -4 14 -10 14
-5 0 -9 5 -7 12 1 7 -2 13 -8 13 -5 1 -25 5 -44 9 l-33 8 7 61 c5 51 4 59 -7
49 -11 -9 -17 -7 -29 6 -15 19 -43 74 -53 106 -11 32 -18 11 -19 -56 -2 -46
-7 -69 -19 -82 -15 -14 -20 -15 -31 -4 -8 7 -12 19 -9 26 2 6 -1 12 -7 12 -6
0 -11 -11 -11 -25 0 -14 5 -25 10 -25 6 0 20 -11 32 -25 12 -14 28 -25 35 -25
7 0 18 -11 23 -24 11 -29 20 -35 60 -40 29 -3 59 -29 60 -51 0 -5 -4 -4 -9 4
-6 9 -10 4 -13 -18 -3 -21 0 -31 9 -31 7 0 12 -10 12 -22 -1 -16 -3 -18 -6 -6
-2 9 -14 18 -26 20 -14 2 -23 11 -25 26 -4 26 -21 30 -24 5 0 -10 -2 -23 -2
-30 -2 -23 -16 -25 -48 -5 -18 11 -39 17 -45 15 -7 -3 -13 0 -13 6 0 6 5 11
10 11 6 0 19 9 30 20 11 11 20 17 20 14 0 -4 7 -1 15 6 12 10 13 16 4 26 -16
19 -39 17 -55 -3 -8 -11 -13 -13 -14 -5 0 29 -18 9 -26 -30 -7 -34 -14 -44
-32 -46 -24 -4 -31 15 -7 24 11 5 10 10 -8 27 -20 20 -29 33 -56 85 -6 9 -17
38 -27 65 -9 26 -19 46 -21 44 -2 -2 4 -24 12 -47 9 -24 14 -49 11 -56 -2 -6
1 -17 7 -23 6 -6 8 -14 4 -18 -4 -4 -13 -1 -19 5 -7 7 -23 12 -36 12 -19 0
-23 4 -19 19 6 25 -50 93 -156 190 -56 51 -24 2 48 -74 70 -73 93 -106 63 -89
-7 4 -3 -4 9 -16 21 -22 21 -24 5 -36 -15 -12 -13 -13 16 -14 17 0 32 -5 32
-11 0 -6 -7 -8 -17 -4 -15 5 -16 4 -5 -6 16 -17 15 -29 -4 -29 -9 0 -12 5 -8
12 5 8 2 9 -10 5 -14 -5 -17 -3 -12 8 4 11 -1 15 -20 15 -22 0 -23 -2 -14 -21
17 -31 4 -35 -15 -5 -19 28 -41 36 -31 11 6 -17 -9 -21 -19 -5 -9 15 -25 12
-25 -5 0 -9 7 -18 15 -21 8 -4 15 -10 15 -16 0 -5 -5 -6 -12 -2 -6 4 -17 -1
-24 -10 -8 -11 -14 -13 -19 -7 -3 6 -14 11 -23 11 -12 0 -13 -3 -4 -12 17 -17
15 -25 -6 -30 -14 -4 -22 5 -36 38 -10 24 -23 44 -28 44 -6 0 -8 -6 -5 -14 7
-18 -18 -42 -28 -26 -3 6 -10 8 -15 5 -5 -3 -11 -1 -15 5 -3 5 -24 10 -46 10
-33 0 -39 -3 -39 -21 0 -11 -10 -29 -22 -40 -20 -16 -21 -20 -8 -29 8 -5 11
-10 5 -10 -5 0 -17 5 -25 10 -8 5 -11 10 -6 10 5 0 1 9 -8 19 -10 11 -15 28
-12 38 5 16 -23 63 -38 63 -3 0 -6 -13 -6 -30 0 -16 4 -30 8 -30 5 0 17 -17
28 -37 24 -48 41 -66 57 -60 7 2 18 -2 26 -10 12 -13 11 -14 -8 -8 -12 4 -21
2 -21 -4 0 -6 5 -11 10 -11 6 0 10 -5 10 -11 0 -22 -25 -1 -65 56 -35 51 -47
61 -88 71 -26 7 -47 8 -47 3 0 -5 8 -9 18 -10 12 0 10 -3 -8 -11 -23 -9 -24
-11 -6 -17 18 -7 18 -8 2 -14 -26 -10 -38 -9 -31 4 4 6 1 9 -6 8 -20 -3 -69
12 -69 21 0 4 -14 10 -30 12 -47 7 -35 -9 29 -38 49 -21 61 -32 66 -55 7 -32
19 -37 32 -15 12 22 98 -17 89 -40 -4 -9 -2 -22 4 -29 8 -9 8 -15 0 -20 -5 -3
-10 1 -10 10 0 12 -5 15 -16 11 -9 -3 -21 -6 -27 -6 -7 0 -6 -4 3 -10 13 -9
11 -13 -9 -29 -23 -18 -23 -19 -5 -24 16 -4 16 -5 2 -6 -10 0 -18 -5 -18 -10
0 -12 -76 -48 -113 -55 -41 -7 -59 -25 -51 -50 6 -21 6 -21 -10 -1 -8 11 -16
28 -16 37 0 23 -1 24 -157 63 -76 19 -167 44 -203 55 -36 10 -112 33 -170 50
-58 17 -123 37 -145 45 -22 7 -101 32 -175 55 -123 38 -329 104 -518 166 -82
27 -364 111 -428 127 -81 20 -112 -3 -248 -188 -230 -310 -479 -600 -672 -782
-180 -169 -248 -220 -439 -325 -207 -115 -442 -206 -317 -123 23 15 42 28 42
29 0 1 -15 2 -34 2 -19 0 -34 -4 -33 -9 3 -12 -114 -50 -233 -77 -116 -26
-160 -39 -160 -48 1 -13 46 -39 125 -71 44 -18 168 -71 277 -117 108 -46 208
-88 223 -94 15 -6 26 -13 23 -16 -3 -2 -70 23 -149 57 -320 137 -450 187 -499
195 -25 4 -53 11 -62 15 -10 6 -19 5 -23 -1 -14 -22 44 -88 98 -111 15 -6 27
-16 27 -21 0 -6 7 -8 15 -5 8 4 17 1 21 -5 5 -7 2 -8 -7 -3 -8 5 -11 4 -6 0 4
-5 17 -9 30 -11 23 -2 157 -49 217 -77 19 -8 71 -30 115 -48 44 -18 94 -41
110 -51 17 -10 37 -18 46 -18 15 0 95 -30 184 -70 22 -9 61 -25 88 -35 26 -10
46 -20 44 -22 -3 -2 -28 5 -56 17 -59 23 -75 25 -65 8 5 -8 2 -9 -10 -5 -10 4
-23 7 -29 8 -7 1 -1 4 13 8 23 7 21 9 -20 18 -25 6 -53 14 -62 18 -11 4 -20 0
-28 -15 -6 -12 -9 -24 -6 -28 3 -3 6 0 6 6 0 13 32 17 43 5 4 -3 2 -12 -3 -18
-12 -14 15 -30 32 -19 5 4 20 2 31 -4 12 -6 31 -13 41 -16 19 -6 19 -7 0 -21
-19 -13 -19 -14 1 -21 11 -4 22 -10 25 -14 3 -3 25 -14 50 -24 25 -10 59 -24
75 -31 49 -20 166 -63 223 -81 53 -16 73 -31 27 -20 -18 5 -23 3 -19 -7 7 -19
-22 -40 -47 -34 -15 4 -19 2 -15 -8 3 -8 -3 -17 -14 -20 -10 -3 -21 -12 -24
-21 -5 -13 -47 -36 -71 -38 -5 -1 -9 -12 -7 -25 1 -16 -4 -24 -18 -28 -11 -3
-20 -9 -20 -14 0 -11 -32 -49 -41 -49 -13 0 -77 -67 -80 -85 -3 -11 -15 -20
-32 -22 -31 -4 -73 -39 -54 -46 7 -2 3 -11 -10 -22 -12 -10 -19 -24 -15 -33 3
-10 1 -13 -6 -8 -8 4 -12 0 -12 -11 0 -20 -36 -57 -48 -49 -4 2 -15 -9 -25
-25 -10 -18 -12 -27 -4 -23 9 5 9 4 0 -6 -6 -7 -9 -19 -6 -26 3 -8 0 -14 -6
-14 -6 0 -11 9 -11 20 0 11 -5 20 -11 20 -7 0 -8 -11 -4 -29 3 -17 2 -32 -4
-36 -7 -4 -11 4 -11 20 0 15 -4 24 -10 20 -6 -3 -8 -17 -6 -31 3 -13 1 -24 -4
-24 -5 0 -18 -16 -30 -35 -12 -19 -28 -35 -36 -35 -18 0 -18 -19 0 -26 12 -5
12 -9 -2 -24 -29 -32 -42 -49 -42 -55 0 -4 -7 -13 -16 -22 -8 -9 -13 -22 -9
-30 3 -10 1 -13 -8 -10 -11 4 -14 -5 -11 -41 1 -26 0 -40 -3 -32 -9 25 -25 40
-34 34 -5 -3 -4 -14 2 -26 8 -16 8 -22 -2 -29 -10 -6 -10 -11 0 -22 10 -12 7
-17 -18 -28 -39 -18 -51 -58 -22 -78 21 -14 29 -41 11 -41 -5 0 -14 9 -20 20
-6 11 -15 20 -20 20 -11 0 -1 -32 14 -42 13 -9 -12 -38 -33 -38 -10 0 -25 -6
-35 -13 -15 -11 -17 -17 -7 -35 12 -22 -1 -32 -14 -12 -4 6 -11 8 -16 4 -5 -3
0 -18 11 -35 18 -24 19 -29 6 -29 -21 0 -20 -13 3 -34 11 -10 17 -24 15 -31
-3 -7 2 -15 10 -18 9 -4 16 -16 16 -28 0 -21 -1 -21 -26 5 -31 30 -49 34 -35
8 16 -30 39 -44 59 -38 15 5 21 1 26 -19 7 -27 25 -32 44 -13 17 17 15 41 -2
35 -10 -4 -13 -1 -9 9 7 20 22 18 47 -9 54 -55 130 -108 110 -75 -5 8 -2 9 12
4 10 -5 28 -11 39 -14 19 -5 19 -4 2 15 -27 30 -22 49 7 29 14 -9 31 -13 39
-10 8 3 18 0 22 -5 3 -6 11 -8 17 -5 5 4 -6 23 -28 45 -45 46 -42 61 5 19 31
-29 58 -32 48 -6 -3 7 4 13 14 13 18 2 27 -21 12 -30 -5 -2 -3 -3 3 -1 6 1 29
-6 52 -16 l40 -18 -5 34 c-3 19 -3 34 1 34 3 0 28 -16 55 -35 26 -19 53 -35
60 -35 6 0 11 -4 11 -9 0 -12 67 -81 79 -81 18 0 12 19 -9 32 -11 7 -20 18
-20 25 0 7 -4 13 -8 13 -8 0 -32 43 -32 56 0 3 15 -7 34 -21 21 -16 37 -22 41
-16 3 6 3 11 -2 11 -4 0 -16 12 -26 25 -17 24 -17 24 0 18 10 -3 23 -9 28 -13
6 -4 25 -6 43 -5 21 2 32 -1 32 -11 0 -7 26 -28 58 -47 71 -41 92 -50 92 -35
0 12 -38 48 -52 48 -5 0 -14 12 -21 28 -6 15 -21 34 -31 43 -10 8 -17 21 -15
28 3 8 23 -5 54 -34 69 -64 92 -78 126 -77 20 0 29 -4 29 -15 0 -13 2 -13 16
-2 14 11 18 10 30 -6 14 -18 14 -18 14 1 0 26 -11 41 -35 45 -11 2 -24 14 -30
27 -5 12 -17 22 -26 22 -10 0 -15 8 -15 23 1 16 -5 23 -21 25 -25 4 -32 22 -9
22 8 0 21 3 29 6 9 3 17 -2 21 -13 3 -10 21 -27 38 -38 39 -22 58 -40 58 -53
0 -5 10 -17 21 -28 16 -14 23 -15 26 -6 6 17 26 15 49 -5 11 -10 31 -24 43
-32 24 -13 24 -13 18 25 -5 33 -4 36 6 19 7 -11 23 -21 36 -23 20 -2 22 0 11
13 -10 12 -10 15 4 15 9 0 16 -5 16 -11 0 -5 4 -8 9 -5 5 4 23 -5 40 -20 17
-14 35 -23 41 -19 5 3 10 2 10 -3 0 -12 50 -62 61 -62 5 0 9 7 9 16 0 12 7 14
32 9 18 -4 36 -13 40 -19 6 -8 8 -8 8 1 0 6 -4 15 -10 18 -21 13 -9 25 24 25
40 0 54 -14 29 -29 -16 -8 -15 -11 10 -22 15 -7 27 -18 27 -26 0 -23 40 -14
52 12 13 29 21 31 42 9 9 -9 24 -13 35 -9 11 3 22 1 26 -5 3 -5 14 -10 24 -10
10 0 24 -7 31 -15 10 -12 16 -13 26 -4 10 8 14 8 14 0 0 -6 4 -11 9 -11 5 0 3
13 -5 30 -9 16 -22 30 -31 30 -8 0 -13 6 -10 12 2 7 -4 24 -15 37 -21 27 -17
37 9 26 10 -5 21 -7 26 -7 4 1 7 -4 7 -11 0 -8 23 -24 50 -37 27 -13 50 -27
50 -31 0 -4 16 -16 35 -28 19 -11 35 -17 35 -12 0 4 -20 34 -45 67 -24 32 -45
66 -45 75 0 9 -10 29 -22 44 -13 16 -16 26 -8 23 7 -2 18 -13 24 -23 25 -43
55 -70 67 -58 6 6 18 9 25 6 8 -3 20 0 28 6 7 6 16 8 19 4 12 -11 7 -23 -9
-23 -9 0 -14 -6 -11 -12 2 -7 16 -12 30 -10 20 2 30 -4 41 -27 9 -16 25 -32
36 -36 11 -3 20 -11 20 -16 0 -6 10 -9 23 -7 19 3 22 9 20 40 l-1 37 26 -16
c15 -9 34 -22 42 -29 8 -6 30 -15 48 -19 18 -4 39 -13 47 -22 8 -8 22 -13 31
-11 21 4 -62 93 -87 93 -10 0 -18 5 -16 10 1 6 8 9 14 9 7 -1 10 2 7 7 -3 5
-11 9 -19 9 -19 0 -26 27 -10 40 15 13 55 5 55 -11 0 -5 8 -9 17 -9 23 0 73
-49 66 -66 -3 -8 1 -14 8 -14 8 0 47 -16 86 -37 73 -37 97 -38 75 -3 -7 11
-12 21 -12 23 0 1 23 2 51 2 41 0 54 -4 63 -20 6 -11 15 -23 19 -26 11 -8 159
-5 173 4 6 3 26 2 45 -3 35 -10 75 -13 52 -3 -16 6 -17 43 -2 43 7 0 22 -11
35 -25 l23 -25 2760 0 2761 0 0 409 c0 380 -1 411 -17 421 -17 11 -17 11 0 6
16 -5 17 132 17 2779 l0 2785 -735 0 -735 0 -1 -177z m1321 -541 c0 -4 -17 -6
-37 -4 -59 5 -63 10 -10 11 26 1 47 -3 47 -7z m-70 -322 c18 0 20 -7 20 -80 0
-73 -2 -80 -20 -80 -17 0 -20 -7 -20 -40 0 -33 3 -40 20 -40 17 0 20 -7 20
-40 0 -34 3 -40 21 -40 20 0 21 -4 17 -77 -3 -43 -3 -61 -1 -40 3 29 9 37 24
37 17 0 19 -7 19 -80 0 -80 0 -80 -26 -80 l-26 0 8 -82 c5 -46 8 -118 6 -160
-2 -64 0 -78 13 -78 11 0 15 11 15 40 0 22 5 40 10 40 6 0 10 -28 10 -65 l0
-64 -47 15 c-27 8 -74 20 -105 27 -34 7 -58 17 -58 24 0 12 -24 18 -62 15 -13
-1 -18 6 -18 23 0 21 -5 25 -30 25 -16 0 -30 5 -30 10 0 6 5 10 10 10 6 0 10
45 10 115 0 110 8 147 35 168 6 4 6 10 -2 15 -8 5 -13 48 -15 125 -2 95 0 116
11 114 11 -2 13 15 12 81 l-2 82 80 0 81 0 0 40 c0 33 -3 40 -20 40 -18 0 -20
7 -20 84 0 67 4 88 18 102 16 17 17 13 20 -84 2 -94 4 -102 22 -102z m-103 3
c-3 -2 -13 -3 -23 -1 -16 3 -16 4 2 22 18 18 19 18 22 2 2 -10 1 -20 -1 -23z
m-557 -203 l0 -40 40 0 40 0 0 -40 c0 -33 3 -40 20 -40 18 0 20 -7 20 -80 0
-73 -2 -80 -20 -80 -17 0 -20 7 -20 40 l0 40 -40 0 -40 0 0 -40 c0 -33 -3 -40
-20 -40 -17 0 -20 7 -20 40 0 33 3 40 20 40 17 0 20 7 20 40 0 33 -3 40 -20
40 -18 0 -20 7 -20 80 0 73 2 80 20 80 17 0 20 -7 20 -40z m-273 -262 c-2 -13
-4 -5 -4 17 -1 22 1 32 4 23 2 -10 2 -28 0 -40z m740 -720 c-3 -8 -6 -5 -6 6
-1 11 2 17 5 13 3 -3 4 -12 1 -19z m-3450 -264 c3 -8 1 -20 -4 -25 -13 -13
-40 -2 -48 19 -5 14 -4 15 6 5 18 -18 30 -16 23 2 -4 8 -1 15 5 15 7 0 14 -7
18 -16z m-205 -156 c-6 -6 -16 -7 -22 -3 -9 6 -9 9 1 16 17 10 34 0 21 -13z
m-112 -32 c0 -2 -7 -6 -15 -10 -8 -3 -15 -1 -15 4 0 6 7 10 15 10 8 0 15 -2
15 -4z m-362 -24 c2 -7 -4 -12 -14 -12 -16 0 -16 -1 1 -20 24 -26 11 -26 -16
1 -16 16 -18 23 -8 35 13 16 31 14 37 -4z m597 -2 c8 -14 -19 -40 -42 -40 -13
0 -15 2 -5 9 7 4 12 12 11 17 -4 25 23 35 36 14z m-770 -10 c3 -6 -1 -7 -9 -4
-18 7 -21 14 -7 14 6 0 13 -4 16 -10z m200 0 c3 -5 1 -10 -4 -10 -6 0 -11 5
-11 10 0 6 2 10 4 10 3 0 8 -4 11 -10z m342 -31 c-1 -14 -7 -19 -19 -16 -9 3
-22 -1 -29 -9 -6 -8 -8 -14 -4 -14 5 0 6 -3 2 -6 -3 -4 -13 1 -22 10 -21 21
-12 50 14 43 10 -2 25 -1 32 4 22 14 28 11 26 -12z m147 -18 c-6 -6 -24 19
-24 34 1 6 7 1 15 -9 8 -11 12 -22 9 -25z m206 -1 c0 -22 -3 -40 -7 -40 -15 1
-43 27 -43 40 0 13 28 39 43 40 4 0 7 -18 7 -40z m-903 7 c-15 -5 -35 -6 -45
-2 -15 7 -15 8 2 14 11 4 31 5 45 3 l26 -5 -28 -10z m213 -7 c0 -5 -2 -10 -4
-10 -3 0 -8 5 -11 10 -3 6 -1 10 4 10 6 0 11 -4 11 -10z m150 6 c0 -3 -4 -8
-10 -11 -5 -3 -10 -1 -10 4 0 6 5 11 10 11 6 0 10 -2 10 -4z m80 -6 c0 -5 -5
-10 -11 -10 -5 0 -7 5 -4 10 3 6 8 10 11 10 2 0 4 -4 4 -10z m-175 -9 c6 -1 4
-5 -4 -10 -15 -10 -41 -4 -41 9 0 5 8 7 18 5 9 -2 22 -4 27 -4z m522 3 c-3 -3
-12 -4 -19 -1 -8 3 -5 6 6 6 11 1 17 -2 13 -5z m566 -1 c-7 -2 -19 -2 -25 0
-7 3 -2 5 12 5 14 0 19 -2 13 -5z m-933 -14 c13 -9 13 -10 0 -6 -8 2 -26 0
-38 -5 -13 -4 -29 -5 -35 -1 -7 4 -2 10 13 14 36 10 43 10 60 -2z m430 -20 c0
-11 -8 -28 -17 -37 -16 -16 -16 -16 -11 5 3 13 2 26 -3 29 -16 10 -10 24 11
24 14 0 20 -7 20 -21z m-520 1 c0 -5 -5 -10 -11 -10 -5 0 -7 5 -4 10 3 6 8 10
11 10 2 0 4 -4 4 -10z m-9 -28 c-7 -2 -18 1 -23 6 -8 8 -4 9 13 5 13 -4 18 -8
10 -11z m134 -2 c-3 -5 -23 -10 -43 -9 -30 0 -33 2 -17 9 28 12 67 12 60 0z
m196 -19 c13 -5 20 -10 14 -10 -16 0 -104 24 -110 31 -8 8 62 -8 96 -21z m662
-8 c-7 -2 -21 -2 -30 0 -10 3 -4 5 12 5 17 0 24 -2 18 -5z m57 -2 c0 -5 -9 -7
-20 -4 -11 3 -20 7 -20 9 0 2 9 4 20 4 11 0 20 -4 20 -9z m-3117 -15 c26 -6
49 -16 50 -22 1 -5 -20 -13 -48 -18 -75 -12 -93 -23 -178 -107 -73 -73 -80
-77 -112 -72 -28 4 -36 2 -42 -13 -4 -11 -28 -39 -54 -64 -25 -25 -51 -56 -58
-68 -17 -31 -31 -27 -22 6 8 27 116 184 130 190 4 1 16 -7 26 -18 10 -11 22
-20 26 -20 5 0 30 24 56 52 82 90 137 145 158 156 11 6 20 11 20 11 0 0 22 -6
48 -13z m1797 -15 c0 -9 -44 -41 -57 -41 -9 0 39 49 50 49 4 1 7 -3 7 -8z
m404 -6 c-4 -9 -19 -15 -42 -15 -37 0 -35 14 3 23 37 9 44 7 39 -8z m222 -24
c-9 -8 -19 -11 -23 -7 -4 4 -1 11 6 15 8 6 10 14 5 22 -6 11 -4 11 10 0 15
-13 15 -16 2 -30z m124 35 c0 -3 -4 -8 -10 -11 -5 -3 -10 -1 -10 4 0 6 5 11
10 11 6 0 10 -2 10 -4z m208 -15 c3 -10 -2 -12 -21 -7 -21 5 -25 3 -21 -9 7
-16 -13 -20 -34 -6 -11 6 -11 10 0 18 31 25 68 27 76 4z m-253 -9 c-3 -3 -11
0 -18 7 -9 10 -8 11 6 5 10 -3 15 -9 12 -12z m325 -12 c0 -5 -2 -10 -4 -10 -3
0 -8 5 -11 10 -3 6 -1 10 4 10 6 0 11 -4 11 -10z m154 -6 c5 -13 14 -15 41
-10 22 4 35 3 35 -4 0 -5 7 -10 15 -10 8 0 15 -5 15 -10 0 -6 -21 -8 -57 -4
-68 8 -59 4 -67 32 -8 25 8 31 18 6z m-2079 -24 c13 -25 14 -37 4 -70 -7 -22
-14 -40 -16 -40 -3 0 -25 12 -49 26 -37 22 -45 31 -42 52 2 16 14 32 33 43 42
25 52 23 70 -11z m1982 6 c-6 -17 -41 -13 -45 5 -2 13 3 15 23 11 14 -2 24
-10 22 -16z m-722 4 c-4 -6 -11 -7 -17 -4 -7 5 -9 1 -5 -9 4 -11 2 -14 -9 -10
-11 4 -12 9 -3 19 13 16 43 19 34 4z m213 3 c-10 -2 -26 -2 -35 0 -10 3 -2 5
17 5 19 0 27 -2 18 -5z m82 -33 c0 -5 -4 -10 -10 -10 -5 0 -10 5 -10 10 0 6 5
10 10 10 6 0 10 -4 10 -10z m175 -85 c-15 -30 -29 -36 -41 -20 -6 8 -14 12
-17 8 -4 -3 -7 -1 -7 5 0 7 5 12 10 12 6 0 21 17 33 37 l22 38 5 -30 c3 -17 1
-39 -5 -50z m36 38 c13 -16 12 -17 -3 -4 -10 7 -18 15 -18 17 0 8 8 3 21 -13z
m-948 -29 c-3 -7 -16 -14 -30 -14 -14 0 -22 -4 -18 -11 4 -6 -1 -16 -11 -23
-9 -7 -15 -20 -11 -28 3 -9 0 -21 -6 -27 -9 -10 -8 -15 6 -26 22 -16 9 -26
-22 -18 -16 4 -21 11 -18 24 3 11 1 19 -4 19 -4 0 -5 7 -2 17 4 9 2 14 -3 10
-5 -3 -11 5 -12 18 -1 13 -2 28 -3 32 -6 36 1 40 70 41 57 1 69 -2 64 -14z
m-710 -8 c19 -15 22 -51 7 -92 -10 -24 -8 -30 17 -50 18 -15 22 -22 12 -20
-10 1 -24 8 -32 14 -13 11 -19 8 -39 -20 -13 -18 -28 -40 -33 -50 -6 -9 -25
-35 -43 -57 -30 -36 -31 -41 -14 -41 18 0 19 -3 9 -25 -7 -14 -16 -25 -21 -25
-5 0 -1 -9 9 -20 22 -25 37 -25 100 -1 51 19 155 27 155 11 0 -12 -27 -20 -66
-20 -19 0 -34 -5 -34 -10 0 -6 -3 -9 -7 -8 -5 1 -21 -4 -36 -10 -16 -7 -32
-10 -37 -7 -5 3 -11 1 -15 -5 -4 -6 13 -10 45 -10 42 0 49 -2 38 -13 -7 -7
-30 -12 -50 -12 -20 1 -35 -2 -32 -7 3 -5 15 -6 27 -2 19 6 20 5 9 -8 -7 -9
-33 -19 -58 -23 -33 -5 -44 -10 -40 -20 7 -20 -42 -69 -83 -83 -19 -7 -36 -10
-38 -8 -2 2 5 19 16 37 11 18 18 36 15 41 -3 5 0 7 8 6 17 -4 12 30 -8 49 -8
8 -41 16 -76 18 -52 4 -65 1 -80 -15 -12 -13 -14 -21 -7 -26 7 -4 20 4 30 17
26 34 35 16 10 -20 -14 -19 -27 -28 -36 -24 -16 5 -45 -13 -45 -28 0 -14 22
-10 34 6 7 9 16 12 25 6 11 -7 7 -15 -15 -38 -16 -17 -44 -38 -61 -47 -18 -9
-33 -21 -33 -27 0 -6 7 -3 16 5 23 24 27 19 7 -8 l-18 -24 -16 25 c-16 24 -17
24 -28 7 -6 -11 -11 -14 -11 -6 0 9 -7 11 -20 7 -27 -9 -25 3 5 31 29 27 31
34 9 34 -11 0 -5 13 22 45 l36 45 -26 0 c-16 0 -25 -4 -21 -10 3 -5 2 -10 -4
-10 -5 0 -12 6 -14 13 -3 6 -4 -3 -2 -20 2 -18 -1 -33 -6 -33 -5 0 -9 -6 -9
-14 0 -30 -23 -28 -50 3 -28 32 -54 40 -66 20 -3 -6 -15 -8 -26 -6 -30 8 -49
-3 -43 -24 4 -11 2 -19 -4 -19 -6 0 -11 -7 -11 -16 0 -14 -54 -68 -72 -70 -4
-1 -12 -2 -18 -3 -5 0 -9 -4 -9 -8 3 -20 -2 -26 -12 -13 -8 12 -9 11 -6 -5 2
-11 9 -19 17 -17 8 2 19 -4 26 -12 10 -14 13 -14 23 -2 16 19 41 9 41 -15 0
-10 5 -19 10 -19 6 0 10 5 10 10 0 6 7 10 15 10 20 0 19 -15 -2 -35 -14 -14
-14 -18 -2 -26 8 -5 17 -9 22 -9 4 0 7 -7 7 -15 0 -9 -9 -15 -24 -15 -32 0
-54 -37 -59 -97 -4 -45 -7 -48 -32 -48 -23 0 -28 -5 -31 -30 -2 -16 -8 -31
-14 -33 -5 -2 -10 -10 -10 -18 0 -8 -7 -14 -15 -14 -22 0 -29 -46 -15 -91 7
-21 11 -41 8 -44 -9 -9 -82 -10 -105 -2 -18 6 -23 5 -23 -7 0 -10 -9 -16 -25
-16 -25 0 -33 -14 -15 -25 6 -3 10 -17 10 -31 0 -17 -6 -24 -19 -24 -11 0 -21
5 -23 12 -3 7 -17 0 -37 -18 -29 -25 -32 -33 -27 -64 4 -25 0 -47 -14 -73 -11
-20 -17 -42 -14 -50 12 -33 105 -66 229 -80 17 -2 8 -5 -20 -5 -27 -1 -67 2
-88 7 -21 5 -39 5 -43 0 -3 -5 -10 -9 -15 -9 -6 0 -8 4 -5 9 3 5 -2 15 -11 22
-15 12 -16 12 -10 -3 4 -12 2 -15 -9 -11 -7 3 -14 9 -14 15 0 5 -4 7 -9 4 -11
-7 -67 55 -76 84 -6 19 -12 21 -48 15 -67 -11 -75 -24 -29 -50 15 -9 19 -14
10 -11 -11 3 -15 0 -12 -7 2 -7 -9 -17 -25 -24 -26 -9 -32 -8 -51 12 l-22 24
-41 -22 c-65 -34 -148 -34 -270 0 -15 4 -18 14 -16 56 l3 51 -92 17 c-94 18
-154 46 -172 79 -6 10 -10 37 -10 60 0 38 -2 41 -22 34 -13 -3 -23 -7 -24 -8
0 0 -16 -21 -35 -46 -20 -25 -45 -61 -56 -81 l-21 -37 38 -6 c21 -3 50 -2 64
4 32 12 35 3 4 -10 -23 -9 -23 -9 -2 -9 12 -1 24 -7 27 -14 3 -8 34 -22 69
-31 34 -10 131 -41 213 -69 115 -38 166 -51 218 -52 53 -1 72 -6 90 -23 28
-27 71 -40 297 -97 311 -77 1006 -212 1036 -201 7 3 27 -2 43 -10 17 -8 48
-14 68 -12 39 3 52 20 20 26 -24 5 -57 33 -57 49 0 6 8 14 18 17 13 4 21 22
28 59 l9 52 57 7 c41 5 70 3 99 -7 23 -8 58 -15 78 -15 27 0 45 -8 70 -31 18
-16 30 -33 27 -37 -4 -3 -10 -1 -14 5 -4 7 -30 13 -57 13 -47 2 -112 24 -126
44 -9 11 -31 -3 -24 -15 4 -5 -1 -9 -9 -9 -9 0 -18 -11 -22 -25 -6 -23 -10
-24 -46 -20 -35 4 -39 3 -33 -12 4 -10 11 -33 17 -50 5 -18 14 -33 20 -33 5 0
8 -7 4 -15 -3 -8 0 -15 7 -15 7 0 41 -5 77 -10 171 -25 312 -41 317 -36 4 3
11 2 17 -3 11 -9 54 -16 179 -28 51 -4 56 -3 51 12 -5 13 -2 16 16 13 13 -1
25 -10 27 -18 4 -13 3 -13 -6 0 -5 8 -13 11 -16 8 -13 -13 6 -28 35 -28 23 0
28 3 23 17 -5 13 -2 15 18 10 13 -4 30 -7 38 -7 7 0 11 -6 8 -14 -4 -10 6 -16
36 -20 64 -9 362 -34 557 -45 224 -14 303 -21 296 -28 -19 -20 -574 19 -1046
73 -635 72 -1474 223 -1970 355 -63 17 -140 37 -170 45 -193 52 -468 140 -785
254 -27 9 -124 48 -215 85 -91 37 -187 76 -215 87 -46 18 -79 38 -62 38 4 0
95 -36 203 -80 107 -44 203 -81 211 -82 10 -2 20 8 26 27 13 37 87 130 136
169 20 16 30 23 24 16 -7 -8 -13 -20 -13 -28 0 -9 15 -2 39 19 28 24 40 42 40
62 1 35 83 120 156 162 28 16 74 49 104 73 30 24 71 52 90 62 20 10 56 36 81
58 63 57 202 142 247 153 21 5 56 9 78 9 46 0 96 27 121 65 19 30 50 49 64 40
6 -4 3 -16 -6 -30 -21 -32 -12 -55 21 -55 16 0 25 -6 25 -15 0 -21 24 -19 45
5 10 11 22 20 27 20 4 0 8 -9 8 -20 0 -28 9 -25 60 20 24 22 48 40 52 40 4 0
8 7 8 15 0 17 108 105 128 105 8 0 26 8 40 18 40 28 63 34 78 21 23 -19 17
-25 -43 -47 -92 -34 -370 -255 -360 -286 7 -22 24 -13 57 30 21 27 46 47 63
51 15 3 27 12 27 19 0 8 11 20 25 26 14 6 25 14 25 18 0 4 15 13 33 20 17 8
52 28 77 45 25 18 74 42 109 54 66 21 157 29 146 12 -8 -13 41 -60 54 -52 6 4
18 27 26 51 19 52 13 117 -12 135 -18 14 -10 35 14 35 11 0 14 6 9 23 -3 12
-6 28 -6 35 0 19 -31 14 -57 -10 -18 -17 -26 -19 -35 -10 -15 15 -42 16 -33 2
4 -6 1 -18 -6 -26 -10 -12 -10 -20 -1 -35 14 -21 8 -39 -11 -39 -7 0 -23 -9
-37 -20 -32 -25 -40 -25 -40 0 0 22 -15 27 -26 8 -9 -14 -34 18 -34 45 0 10
-9 21 -19 24 -11 3 -22 17 -25 34 -20 96 -21 89 10 91 48 2 67 -2 85 -18 18
-16 44 -11 34 7 -12 18 50 30 125 24 87 -7 110 -12 110 -26 0 -6 9 -7 20 -4
11 4 34 -1 52 -9 42 -21 71 -20 93 4 12 13 31 20 55 20 32 0 39 -4 44 -25 4
-14 4 -30 1 -34 -2 -5 4 -11 15 -14 19 -5 20 -1 19 49 -1 31 3 60 9 66 7 7 12
24 12 39 0 15 5 31 10 34 6 3 10 15 10 26 0 22 8 24 33 5z m547 -6 c-8 -5 -17
-7 -19 -4 -3 3 1 9 9 14 8 5 17 7 19 4 3 -3 -1 -9 -9 -14z m875 -1 c7 -9 -1
-10 -30 -5 -22 3 -56 6 -75 7 -29 0 -32 2 -15 10 25 11 106 3 120 -12z m255
13 c0 -5 -7 -17 -15 -28 -14 -19 -14 -19 -15 2 0 11 3 24 7 27 9 10 23 9 23
-1z m265 -2 c3 -6 -1 -7 -9 -4 -18 7 -21 14 -7 14 6 0 13 -4 16 -10z m-1168
-6 c-3 -3 -12 -4 -19 -1 -8 3 -5 6 6 6 11 1 17 -2 13 -5z m-837 -40 c0 -2 -4
-12 -9 -22 -5 -9 -12 -25 -15 -34 -3 -10 -12 -18 -21 -18 -18 0 -21 60 -4 77
9 9 49 7 49 -3z m1628 -9 c-3 -3 -9 2 -12 12 -6 14 -5 15 5 6 7 -7 10 -15 7
-18z m-2781 -1 c-3 -3 -12 -4 -19 -1 -8 3 -5 6 6 6 11 1 17 -2 13 -5z m3314
-21 c13 -17 13 -17 -6 -3 -11 8 -22 16 -24 17 -2 2 0 3 6 3 6 0 17 -8 24 -17z
m-1561 -33 c0 -5 -10 -10 -22 -10 -19 0 -20 2 -8 10 19 13 30 13 30 0z m4360
-30 c0 -5 -9 -10 -21 -10 -11 0 -17 5 -14 10 3 6 13 10 21 10 8 0 14 -4 14
-10z m-5712 -19 c3 -8 -1 -12 -9 -9 -7 2 -15 10 -17 17 -3 8 1 12 9 9 7 -2 15
-10 17 -17z m1397 9 c-3 -5 -12 -10 -18 -10 -7 0 -6 4 3 10 19 12 23 12 15 0z
m1683 -25 c3 -17 1 -17 -7 -5 -7 10 -11 11 -11 3 0 -7 -6 -13 -14 -13 -9 0
-12 7 -9 20 7 26 37 22 41 -5z m-3408 5 c0 -5 -10 -10 -22 -10 -19 0 -20 2 -8
10 19 13 30 13 30 0z m1760 0 c0 -5 -4 -10 -10 -10 -5 0 -10 5 -10 10 0 6 5
10 10 10 6 0 10 -4 10 -10z m4373 3 c-18 -2 -48 -2 -65 0 -18 2 -4 4 32 4 36
0 50 -2 33 -4z m-3093 -13 c0 -5 -5 -10 -11 -10 -5 0 -7 5 -4 10 3 6 8 10 11
10 2 0 4 -4 4 -10z m-2676 -8 c2 -4 -7 -12 -20 -19 -19 -9 -24 -8 -24 1 0 23
32 37 44 18z m1002 -62 c0 -38 -6 -74 -11 -79 -12 -12 -55 -3 -55 11 0 5 4 7
8 4 4 -2 9 5 9 17 2 17 0 19 -7 7 -5 -8 -10 -10 -10 -4 0 5 4 14 9 20 5 5 11
23 12 39 4 35 16 55 34 55 9 0 12 -19 11 -70z m1949 61 c-6 -11 -45 -10 -45 1
0 4 12 8 26 8 14 0 23 -4 19 -9z m-3360 -21 c-6 -18 -4 -19 21 -10 33 13 43 5
21 -17 -16 -16 -19 -16 -45 -1 -25 14 -28 14 -45 -2 -9 -9 -43 -23 -74 -30
-32 -7 -63 -20 -69 -29 -17 -22 -28 -7 -13 17 7 11 38 30 68 42 31 12 70 28
86 35 44 20 57 19 50 -5z m1326 -23 c9 -13 -2 -48 -13 -41 -5 3 -5 11 1 18 15
18 3 26 -41 26 -39 0 -46 8 -27 27 11 11 67 -10 80 -30z m1905 -4 c24 -16 44
-31 44 -35 0 -14 -17 -8 -35 12 -11 12 -30 20 -49 20 -28 -1 -29 -2 -13 -14 9
-7 17 -16 17 -20 0 -12 -37 13 -44 29 -3 9 -2 14 3 11 5 -3 11 1 15 9 7 20 12
19 62 -12z m110 12 c-10 -8 -23 -12 -29 -8 -11 7 12 23 33 23 12 -1 11 -4 -4
-15z m-3680 -11 c-3 -9 -6 -22 -6 -30 0 -9 -4 -12 -10 -9 -5 3 -10 1 -10 -5 0
-6 -4 -9 -9 -5 -6 3 -3 18 7 35 18 31 39 42 28 14z m3404 12 c0 -11 -19 -15
-25 -6 -3 5 1 10 9 10 9 0 16 -2 16 -4z m-1330 -25 c0 -5 -7 -12 -16 -15 -14
-5 -15 -4 -4 9 14 17 20 19 20 6z m401 -24 c-1 -12 -15 -9 -19 4 -3 6 1 10 8
8 6 -3 11 -8 11 -12z m-2141 -16 c0 -5 -9 -11 -20 -14 -20 -5 -29 -37 -10 -37
6 0 10 -12 10 -26 0 -23 1 -24 16 -10 20 20 41 21 24 1 -6 -8 -8 -20 -4 -26 4
-8 3 -9 -4 -5 -7 4 -12 1 -12 -9 0 -11 -6 -14 -24 -9 -16 4 -25 1 -29 -10 -4
-9 -15 -16 -24 -16 -17 0 -29 -11 -51 -46 -9 -16 -64 -22 -69 -8 -3 8 36 76
72 122 24 33 58 61 66 56 5 -3 9 1 9 8 0 8 5 19 12 26 14 14 38 16 38 3z
m3368 2 c-10 -2 -26 -2 -35 0 -10 3 -2 5 17 5 19 0 27 -2 18 -5z m-3191 -29
c-3 -3 -12 -4 -19 -1 -8 3 -5 6 6 6 11 1 17 -2 13 -5z m1623 2 c0 -3 -4 -8
-10 -11 -5 -3 -10 -1 -10 4 0 6 5 11 10 11 6 0 10 -2 10 -4z m310 -31 c-7 -9
-15 -13 -19 -10 -3 3 1 10 9 15 21 14 24 12 10 -5z m805 5 c-3 -5 -12 -10 -18
-10 -7 0 -6 4 3 10 19 12 23 12 15 0z m-1570 -10 c3 -5 2 -10 -4 -10 -5 0 -13
5 -16 10 -3 6 -2 10 4 10 5 0 13 -4 16 -10z m190 -1 c75 -21 145 -59 145 -80
0 -22 0 -22 34 -9 30 11 42 -2 19 -21 -9 -8 -18 -13 -20 -11 -1 1 -10 2 -19 2
-14 0 -15 -7 -10 -39 4 -29 2 -44 -10 -56 -10 -10 -13 -22 -8 -33 4 -9 6 -20
6 -24 -1 -4 -3 -35 -3 -68 -2 -57 -11 -76 -23 -47 -3 6 -3 0 0 -14 4 -20 -2
-35 -25 -62 -17 -19 -31 -39 -31 -44 0 -25 -172 -65 -193 -44 -8 8 -5 11 11
11 16 0 20 4 15 18 -5 14 -3 15 8 5 7 -7 22 -13 34 -13 15 0 17 2 6 9 -7 5
-10 14 -6 21 4 6 -1 17 -11 25 -16 11 -12 12 30 4 54 -10 80 1 58 23 -7 7 -12
23 -12 36 0 13 -15 42 -34 65 -40 51 -99 151 -117 200 -7 20 -16 34 -20 31 -5
-2 -6 -10 -3 -17 2 -7 -6 -13 -22 -13 l-26 -2 21 22 c13 14 18 29 15 43 -4 14
3 28 23 47 31 29 52 33 72 14 10 -11 16 -9 28 10 18 26 16 25 68 11z m247 -11
c-9 -9 -15 -9 -24 0 -9 9 -7 12 12 12 19 0 21 -3 12 -12z m1058 -8 c0 -5 -2
-10 -4 -10 -3 0 -8 5 -11 10 -3 6 -1 10 4 10 6 0 11 -4 11 -10z m-3037 -26
c-3 -9 -9 -12 -12 -7 -3 4 -10 11 -15 16 -5 4 0 7 12 7 15 0 20 -4 15 -16z
m1976 -36 c-8 -14 -14 -18 -17 -10 -4 13 17 46 25 38 3 -2 -1 -15 -8 -28z
m906 12 c-3 -5 -10 -10 -16 -10 -5 0 -9 5 -9 10 0 6 7 10 16 10 8 0 12 -4 9
-10z m122 -116 c-3 -3 -12 -4 -19 -1 -8 3 -5 6 6 6 11 1 17 -2 13 -5z m-1458
-25 c11 -12 29 -41 40 -63 10 -23 26 -48 35 -55 9 -8 16 -18 16 -23 0 -5 -22
8 -50 29 -38 29 -49 44 -50 66 0 23 -7 31 -42 47 l-43 20 37 0 c25 0 44 -7 57
-21z m-434 -49 c-4 -6 -10 -8 -15 -5 -5 3 -11 1 -15 -5 -3 -5 -11 -10 -16 -10
-5 0 -4 7 3 15 15 16 53 21 43 5z m-107 -35 c-11 -25 -19 -30 -31 -19 -3 4 4
15 16 25 28 24 29 24 15 -6z m-311 -17 c-3 -8 -6 -5 -6 6 -1 11 2 17 5 13 3
-3 4 -12 1 -19z m473 6 c0 -3 -7 -12 -15 -20 -13 -14 -15 -13 -15 5 0 12 6 21
15 21 8 0 15 -3 15 -6z m-378 -83 c18 -16 25 -28 19 -34 -7 -7 -16 -6 -26 3
-11 9 -15 9 -15 1 0 -7 -5 -9 -10 -6 -6 4 -8 10 -5 15 2 4 -4 19 -15 33 -11
14 -20 28 -20 31 0 9 39 -15 72 -43z m1088 -41 c0 -5 -4 -10 -10 -10 -5 0 -10
5 -10 10 0 6 5 10 10 10 6 0 10 -4 10 -10z m63 -60 c-2 -3 -11 4 -19 15 -9 12
-18 16 -22 10 -4 -6 -16 -12 -26 -13 -17 -3 -18 -2 -7 12 7 9 17 13 22 10 5
-3 9 3 9 13 0 14 5 12 24 -12 13 -16 22 -32 19 -35z m4578 23 c-12 -20 -14
-14 -5 12 4 9 9 14 11 11 3 -2 0 -13 -6 -23z m-5736 -24 c4 -11 4 -23 0 -27
-7 -7 -25 17 -25 36 0 20 18 14 25 -9z m5722 -21 c-3 -8 -6 -5 -6 6 -1 11 2
17 5 13 3 -3 4 -12 1 -19z m-4576 -35 c-9 -15 -10 -13 -7 12 6 40 8 43 13 23
2 -10 0 -25 -6 -35z m4579 -4 c0 -6 -4 -7 -10 -4 -5 3 -10 -1 -10 -10 0 -10 5
-14 13 -10 6 4 5 1 -4 -7 -9 -7 -16 -17 -17 -21 0 -4 -10 -22 -22 -40 -19 -28
-20 -29 -14 -7 4 14 11 28 16 31 5 3 8 10 6 15 -5 15 24 74 33 68 5 -3 9 -10
9 -15z m-4854 -44 c-35 -18 -33 -18 -40 0 -4 12 3 15 32 15 l37 0 -29 -15z
m4864 -10 c0 -8 -4 -15 -10 -15 -5 0 -7 7 -4 15 4 8 8 15 10 15 2 0 4 -7 4
-15z m60 -46 c0 -5 -4 -9 -10 -9 -5 0 -10 7 -10 16 0 8 5 12 10 9 6 -3 10 -10
10 -16z m-149 -57 c-13 -25 -14 -45 -2 -38 7 5 8 -10 2 -48 0 -5 -8 -3 -16 4
-22 18 -18 -4 6 -31 18 -21 19 -22 15 -4 -7 27 8 49 28 42 21 -8 21 -37 0 -37
-11 0 -14 -5 -10 -16 10 -27 -4 -35 -35 -18 -24 12 -29 20 -24 37 3 12 -3 7
-14 -13 -11 -19 -20 -31 -21 -27 0 13 73 177 77 173 3 -2 0 -13 -6 -24z m113
-138 c18 -7 22 -24 5 -24 -6 0 -17 7 -25 15 -16 16 -7 19 20 9z m-4659 -34
c-3 -5 -14 -10 -23 -10 -15 0 -15 2 -2 10 20 13 33 13 25 0z m359 -56 c5 -14
4 -15 -9 -4 -17 14 -19 20 -6 20 5 0 12 -7 15 -16z m4077 -17 c-10 -9 -11 -8
-5 6 3 10 9 15 12 12 3 -3 0 -11 -7 -18z m-4041 -7 c0 -5 -2 -10 -4 -10 -3 0
-8 5 -11 10 -3 6 -1 10 4 10 6 0 11 -4 11 -10z m4002 -78 c-7 -2 -12 -13 -12
-23 0 -13 4 -18 12 -13 6 4 8 3 5 -4 -4 -5 -16 -8 -26 -5 -19 5 -19 6 2 39 12
18 24 28 26 22 2 -7 -1 -14 -7 -16z m-5089 -25 c5 -36 -25 -128 -49 -148 -14
-11 -18 -10 -30 6 -17 23 -18 12 -3 -18 l11 -22 -22 22 -23 22 33 37 c40 46
61 94 53 123 -4 16 -2 20 10 15 8 -3 17 -20 20 -37z m5547 33 c0 -5 -4 -10
-10 -10 -5 0 -10 5 -10 10 0 6 5 10 10 10 6 0 10 -4 10 -10z m-4570 -10 c0 -5
-2 -10 -4 -10 -3 0 -8 5 -11 10 -3 6 -1 10 4 10 6 0 11 -4 11 -10z m-3370 -34
c0 -2 -7 -7 -16 -10 -8 -3 -12 -2 -9 4 6 10 25 14 25 6z m7650 -22 c0 -8 -4
-12 -10 -9 -5 3 -10 10 -10 16 0 5 5 9 10 9 6 0 10 -7 10 -16z m-4720 -14 c0
-5 -10 -10 -22 -10 -19 0 -20 2 -8 10 19 13 30 13 30 0z m-681 -29 c8 -14 7
-22 -4 -31 -13 -11 -14 -10 -9 4 3 9 1 16 -5 16 -6 0 -11 -3 -11 -7 0 -13 -52
-33 -83 -33 -15 0 -36 -4 -46 -9 -22 -12 -43 1 -35 22 7 18 111 55 156 56 17
1 31 -6 37 -18z m5386 9 c3 -5 1 -10 -4 -10 -6 0 -11 5 -11 10 0 6 2 10 4 10
3 0 8 -4 11 -10z m-5651 -74 c-6 -17 -50 -34 -81 -33 -27 2 -26 2 28 30 47 24
61 25 53 3z m3166 20 c0 -3 -4 -8 -10 -11 -5 -3 -10 -1 -10 4 0 6 5 11 10 11
6 0 10 -2 10 -4z m-2125 -46 c3 -5 -3 -10 -14 -10 -11 0 -23 5 -26 10 -3 6 3
10 14 10 11 0 23 -4 26 -10z m-1631 -47 c36 -19 24 -32 -39 -44 -41 -8 -51 -6
-75 14 -16 12 -30 29 -33 38 -4 15 3 16 57 12 33 -3 74 -12 90 -20z m619 19
c51 -1 86 -6 82 -11 -3 -5 21 -12 52 -16 68 -8 83 -12 83 -22 0 -4 -36 -7 -81
-5 -95 4 -129 -2 -129 -24 0 -12 -7 -15 -30 -12 -16 3 -30 1 -30 -4 0 -4 -4
-8 -10 -8 -5 0 -7 7 -4 15 4 8 17 15 31 15 15 0 22 4 18 11 -4 6 -22 8 -44 4
-29 -5 -43 -1 -66 17 -16 12 -26 17 -21 10 9 -15 -6 -16 -22 0 -9 9 -12 9 -12
-2 -1 -11 -3 -11 -11 3 -8 13 -25 17 -77 19 -57 2 -53 3 33 7 55 3 111 6 125
5 14 0 65 -2 113 -2z m-956 -18 c-3 -3 -12 -4 -19 -1 -8 3 -5 6 6 6 11 1 17
-2 13 -5z m498 -14 c14 -7 8 -8 -20 -3 -22 3 -42 7 -44 9 -9 8 45 2 64 -6z
m1396 -18 c-7 -2 -18 1 -23 6 -8 8 -4 9 13 5 13 -4 18 -8 10 -11z m119 8 c-8
-5 -24 -9 -35 -9 l-20 0 20 9 c11 5 27 9 35 9 13 1 13 0 0 -9z m2291 -3 c-1
-12 -15 -9 -19 4 -3 6 1 10 8 8 6 -3 11 -8 11 -12z m-2047 -13 c3 -8 10 -12
16 -9 6 3 10 -4 10 -18 0 -15 -6 -24 -15 -24 -10 0 -14 6 -10 15 3 8 -2 23
-11 33 -10 11 -12 19 -7 19 6 0 14 -7 17 -16z m2019 -7 c3 -8 2 -20 -3 -27 -6
-10 -9 -9 -13 1 -4 10 -6 9 -6 -3 -1 -24 -21 -23 -21 0 0 18 18 42 31 42 4 0
9 -6 12 -13z m-2230 -43 c-2 -7 10 -16 26 -22 21 -7 29 -16 25 -26 -6 -15 -35
-31 -33 -18 4 21 -6 30 -51 46 -56 20 -63 30 -23 33 14 0 31 9 36 19 10 17 11
17 17 -1 4 -11 5 -25 3 -31z m189 14 c-7 -7 -12 -8 -12 -2 0 14 12 26 19 19 2
-3 -1 -11 -7 -17z m3867 -27 c-18 -23 -37 -41 -43 -41 -6 0 -2 7 8 15 11 8 17
15 14 15 -4 0 5 13 20 28 39 40 39 30 1 -17z m-3992 33 c-3 -3 -12 -4 -19 -1
-8 3 -5 6 6 6 11 1 17 -2 13 -5z m33 2 c0 -3 -4 -8 -10 -11 -5 -3 -10 -1 -10
4 0 6 5 11 10 11 6 0 10 -2 10 -4z m140 -43 c0 -5 -11 -13 -25 -20 -27 -12
-28 -12 -19 11 6 16 44 23 44 9z m81 -8 c11 6 11 5 2 -5 -12 -14 -33 -6 -33
13 0 8 3 7 9 -2 5 -8 14 -10 22 -6z m-973 -16 c13 -5 22 -17 22 -29 0 -23 -15
-27 -27 -7 -11 18 -41 28 -48 16 -4 -5 -10 -7 -15 -4 -5 3 -19 1 -30 -5 -14
-8 -20 -8 -20 0 0 6 -5 8 -11 4 -7 -4 -10 1 -7 12 6 32 69 38 136 13z m917 1
c-3 -5 -12 -10 -18 -10 -7 0 -6 4 3 10 19 12 23 12 15 0z m-314 -34 c38 -1 71
-5 75 -8 3 -4 12 -4 20 -1 8 3 14 -1 14 -8 0 -11 2 -11 10 1 15 25 57 22 74
-5 10 -15 12 -26 6 -30 -6 -3 -10 0 -10 8 0 8 -7 18 -16 21 -12 4 -15 2 -10
-9 7 -19 -22 -20 -59 -3 -18 8 -29 8 -33 2 -4 -6 -15 -13 -24 -17 -12 -4 -18
-17 -18 -35 0 -15 -5 -33 -12 -40 -13 -13 -6 -16 50 -26 17 -3 47 -9 65 -12
37 -6 136 -43 155 -58 10 -7 10 -11 1 -17 -7 -4 -34 4 -63 19 -40 21 -65 26
-129 28 -44 1 -82 6 -86 12 -3 5 -16 12 -27 16 -16 5 -23 18 -28 46 -3 22 -11
40 -16 40 -14 0 -12 28 2 32 6 2 -3 10 -20 17 -37 15 -46 47 -10 36 11 -4 52
-8 89 -9z m297 -21 c0 -31 18 -55 43 -55 10 0 21 -5 24 -10 4 -7 -7 -8 -32 -4
-21 3 -53 8 -71 11 -36 6 -36 7 -46 45 -6 26 -5 27 18 18 17 -6 29 -5 42 5 11
8 20 15 20 15 1 0 2 -11 2 -25z m-999 -59 c8 -10 15 -26 16 -36 1 -15 -2 -17
-17 -9 -10 5 -22 7 -27 4 -5 -3 -16 -2 -25 1 -13 5 -14 9 -4 21 9 11 9 16 -1
23 -11 6 -10 9 2 16 9 5 16 12 16 17 1 4 1 13 2 20 0 6 6 0 12 -14 7 -14 18
-34 26 -43z m2761 -19 c0 -41 -26 -95 -61 -128 -17 -16 -24 -26 -14 -23 12 5
10 0 -7 -18 -29 -32 -60 -48 -90 -48 -21 1 -21 2 -5 11 9 6 15 14 12 19 -3 5
10 12 30 16 19 3 33 10 30 14 -2 4 -17 5 -32 2 l-26 -5 22 32 c22 30 24 31 41
16 26 -23 42 -11 30 21 -8 20 -6 32 10 54 11 15 20 30 20 33 0 3 5 18 11 34 8
22 12 24 19 13 6 -8 10 -28 10 -43z m-1960 38 c0 -3 -13 -11 -28 -19 -25 -13
-28 -13 -28 2 0 11 10 18 28 19 15 1 28 0 28 -2z m-672 -36 c-9 -17 -20 -23
-35 -21 -13 2 -23 7 -23 11 0 7 62 41 68 36 1 -1 -3 -13 -10 -26z m482 -99
c-18 -12 -53 -13 -46 -2 2 4 17 8 33 10 21 1 24 -1 13 -8z m1798 -187 c-10 -2
-28 -2 -40 0 -13 2 -5 4 17 4 22 1 32 -1 23 -4z m72 -3 c-20 -13 -40 -13 -40
0 0 6 12 10 28 10 21 0 24 -2 12 -10z m-5210 -399 c0 -5 -7 -11 -14 -14 -10
-4 -13 -1 -9 9 6 15 23 19 23 5z m-110 -156 c0 -8 -4 -15 -10 -15 -5 0 -7 7
-4 15 4 8 8 15 10 15 2 0 4 -7 4 -15z m8215 -25 c3 -5 2 -10 -4 -10 -5 0 -13
5 -16 10 -3 6 -2 10 4 10 5 0 13 -4 16 -10z m-8255 -114 c0 -3 -4 -8 -10 -11
-5 -3 -10 -1 -10 4 0 6 5 11 10 11 6 0 10 -2 10 -4z m-40 -16 c0 -5 -4 -10
-10 -10 -5 0 -10 5 -10 10 0 6 5 10 10 10 6 0 10 -4 10 -10z m8125 -30 c3 -5
1 -10 -4 -10 -6 0 -11 5 -11 10 0 6 2 10 4 10 3 0 8 -4 11 -10z m-6930 -50 c3
-5 1 -10 -4 -10 -6 0 -11 5 -11 10 0 6 2 10 4 10 3 0 8 -4 11 -10z m-572 -20
c3 -11 4 -20 3 -20 -2 0 -11 9 -21 20 -15 17 -16 20 -3 20 9 0 18 -9 21 -20z
m7392 0 c3 -5 1 -10 -4 -10 -6 0 -11 5 -11 10 0 6 2 10 4 10 3 0 8 -4 11 -10z
m-7250 -20 c-3 -5 -10 -10 -16 -10 -5 0 -9 5 -9 10 0 6 7 10 16 10 8 0 12 -4
9 -10z m775 -5 c0 -13 -4 -14 -22 -4 -34 17 -34 19 -5 19 18 0 27 -5 27 -15z
m-883 -11 c-3 -3 -12 -4 -19 -1 -8 3 -5 6 6 6 11 1 17 -2 13 -5z m139 -11 c20
-27 16 -38 -6 -18 -20 18 -26 35 -14 35 4 0 13 -8 20 -17z m409 7 c3 -5 -3
-10 -15 -10 -12 0 -18 5 -15 10 3 6 10 10 15 10 5 0 12 -4 15 -10z m-740 -20
c3 -5 1 -10 -4 -10 -6 0 -11 5 -11 10 0 6 2 10 4 10 3 0 8 -4 11 -10z m-119
-15 c17 -13 17 -14 2 -15 -9 0 -20 5 -23 11 -4 6 -13 8 -21 5 -8 -3 -14 -1
-14 4 0 15 34 12 56 -5z m234 5 c0 -5 -2 -10 -4 -10 -3 0 -8 5 -11 10 -3 6 -1
10 4 10 6 0 11 -4 11 -10z m550 -10 c14 -26 38 -26 42 1 3 21 3 21 29 -3 28
-26 47 -68 31 -68 -5 0 -17 9 -27 20 -10 11 -22 20 -27 20 -15 0 -8 -19 14
-40 44 -40 -1 -33 -54 10 -13 11 -15 16 -5 23 8 6 6 7 -6 3 -23 -7 -49 17 -41
38 8 22 31 20 44 -4z m-1070 0 c0 -5 -4 -10 -10 -10 -5 0 -10 5 -10 10 0 6 5
10 10 10 6 0 10 -4 10 -10z m8220 0 c0 -5 -4 -10 -10 -10 -5 0 -10 5 -10 10 0
6 5 10 10 10 6 0 10 -4 10 -10z m-6950 -10 c12 -8 11 -10 -7 -10 -13 0 -23 5
-23 10 0 13 11 13 30 0z m605 -30 c3 -5 2 -10 -4 -10 -5 0 -13 5 -16 10 -3 6
-2 10 4 10 5 0 13 -4 16 -10z m-340 -30 c3 -5 -1 -10 -9 -10 -8 0 -19 -7 -24
-16 -6 -11 -11 -13 -16 -5 -8 12 13 40 31 41 6 0 15 -4 18 -10z m745 -16 c0
-7 -4 -15 -9 -18 -10 -6 -53 28 -46 36 10 10 55 -5 55 -18z m-1352 -1 c6 -19
-25 -16 -32 3 -4 11 -1 14 11 12 9 -2 18 -9 21 -15z m412 -3 c0 -5 -4 -10 -10
-10 -5 0 -10 5 -10 10 0 6 5 10 10 10 6 0 10 -4 10 -10z m425 0 c3 -6 -1 -13
-10 -16 -19 -8 -30 0 -20 15 8 14 22 14 30 1z m690 -20 c3 -5 2 -10 -4 -10 -5
0 -13 5 -16 10 -3 6 -2 10 4 10 5 0 13 -4 16 -10z m42 -10 c-1 -11 -4 -20 -8
-20 -4 0 -9 9 -12 20 -3 13 0 20 8 20 8 0 13 -9 12 -20z m351 -16 c24 -16 29
-34 10 -34 -14 0 -48 30 -48 42 0 12 13 10 38 -8z m-1410 -33 c-15 -24 -31
-23 -37 4 -2 14 2 17 18 12 12 -3 21 0 21 6 0 6 3 8 6 5 3 -3 -1 -16 -8 -27z
m1351 10 c9 -6 10 -10 2 -16 -16 -9 -44 2 -36 15 8 12 16 12 34 1z m-631 -40
c-5 -2 -15 2 -21 8 -9 9 -8 14 3 21 11 7 17 4 21 -8 4 -9 2 -19 -3 -21z m541
22 c11 -10 27 -24 35 -31 17 -14 21 -32 8 -32 -5 0 -22 13 -38 30 -16 16 -37
30 -46 30 -10 0 -18 5 -18 10 0 16 38 11 59 -7z m-134 -3 c-3 -5 -15 -10 -26
-10 -10 0 -19 5 -19 10 0 6 12 10 26 10 14 0 23 -4 19 -10z m376 -31 c10 -20
9 -21 -14 -15 -14 3 -29 2 -32 -4 -4 -7 -13 -7 -26 0 -36 20 -24 30 48 39 7 0
17 -9 24 -20z m154 -40 c11 -17 0 -20 -21 -4 -17 13 -17 14 -2 15 9 0 20 -5
23 -11z"/>
<path d="M4770 3349 c0 -5 5 -7 10 -4 6 3 10 8 10 11 0 2 -4 4 -10 4 -5 0 -10
-5 -10 -11z"/>
<path d="M4755 3270 c3 -5 11 -10 16 -10 6 0 7 5 4 10 -3 6 -11 10 -16 10 -6
0 -7 -4 -4 -10z"/>
<path d="M3915 3140 c-3 -5 -1 -10 4 -10 6 0 11 5 11 10 0 6 -2 10 -4 10 -3 0
-8 -4 -11 -10z"/>
<path d="M3925 2906 c17 -7 32 -11 35 -9 8 7 -24 23 -45 22 -15 0 -13 -3 10
-13z"/>
<path d="M3846 2901 c-3 -5 1 -11 9 -15 9 -3 15 0 15 9 0 16 -16 20 -24 6z"/>
<path d="M3700 2750 c0 -5 4 -10 9 -10 6 0 13 5 16 10 3 6 -1 10 -9 10 -9 0
-16 -4 -16 -10z"/>
<path d="M2567 2397 c-21 -12 -33 -23 -27 -25 7 -3 15 0 19 6 3 5 17 12 30 13
14 2 26 10 29 17 5 16 -6 14 -51 -11z"/>
<path d="M2475 2350 c-3 -6 1 -7 9 -4 18 7 21 14 7 14 -6 0 -13 -4 -16 -10z"/>
<path d="M2399 2310 l-24 -20 33 16 c32 15 40 24 23 24 -5 0 -19 -9 -32 -20z"/>
<path d="M2251 2271 c-8 -5 -10 -14 -6 -21 5 -8 4 -11 -2 -7 -6 4 -28 0 -49
-9 -22 -9 -34 -19 -27 -21 19 -7 94 17 99 32 9 22 1 35 -15 26z"/>
<path d="M2607 2165 c-4 -8 -2 -17 4 -21 11 -6 39 13 39 27 0 15 -37 10 -43
-6z"/>
<path d="M2242 2103 c-23 -15 -41 -32 -39 -37 3 -10 164 -45 207 -45 34 0 89
44 73 60 -13 13 -138 48 -173 49 -15 0 -45 -12 -68 -27z"/>
<path d="M2560 2047 c0 -8 9 -17 21 -20 12 -3 18 -10 14 -16 -4 -7 7 -11 29
-11 35 0 36 1 24 23 -7 12 -13 23 -13 24 0 0 -17 4 -37 8 -30 6 -38 4 -38 -8z"/>
<path d="M4120 1462 c0 -7 -3 -11 -7 -9 -5 1 -9 -2 -11 -8 -2 -5 1 -11 6 -13
11 -3 26 28 17 36 -3 3 -5 0 -5 -6z"/>
<path d="M9123 4243 c9 -2 25 -2 35 0 9 3 1 5 -18 5 -19 0 -27 -2 -17 -5z"/>
<path d="M5353 3841 c-12 -10 -19 -21 -16 -25 11 -10 53 -7 53 5 0 7 -9 9 -21
6 -20 -5 -20 -5 -3 14 22 24 16 24 -13 0z"/>
<path d="M4820 3835 c0 -17 22 -45 35 -45 8 0 15 3 15 8 -1 9 -50 46 -50 37z"/>
<path d="M4657 3784 c-15 -15 12 -46 59 -70 30 -15 56 -25 58 -23 2 2 -8 18
-23 34 -29 31 -86 67 -94 59z"/>
<path d="M4622 3751 c2 -7 7 -12 11 -12 12 1 9 15 -3 20 -7 2 -11 -2 -8 -8z"/>
<path d="M4735 3440 c-3 -5 -2 -10 4 -10 5 0 13 5 16 10 3 6 2 10 -4 10 -5 0
-13 -4 -16 -10z"/>
<path d="M4703 3433 c-15 -5 -17 -23 -4 -23 5 0 11 7 15 15 3 8 4 15 3 14 -1
0 -8 -3 -14 -6z"/>
<path d="M8880 3160 c-13 -8 -12 -10 3 -10 9 0 17 5 17 10 0 12 -1 12 -20 0z"/>
<path d="M8808 3153 c6 -2 18 -2 25 0 6 3 1 5 -13 5 -14 0 -19 -2 -12 -5z"/>
<path d="M9199 2918 c-32 -35 -59 -66 -59 -70 0 -18 17 -4 48 37 18 25 49 53
69 63 29 15 32 20 18 26 -13 4 -32 -10 -76 -56z"/>
<path d="M9207 2863 c-54 -58 -107 -131 -107 -148 0 -45 81 27 102 90 6 18 6
19 7 1 1 -10 -12 -48 -29 -83 -16 -34 -30 -65 -30 -68 0 -17 -87 -185 -111
-214 -16 -20 -29 -41 -29 -48 0 -6 -5 -15 -12 -19 -8 -5 -9 -2 -5 9 4 11 1 17
-8 17 -21 0 -27 33 -19 120 7 88 19 111 113 225 27 33 50 69 50 80 1 13 -2 16
-7 8 -23 -36 -151 -184 -169 -196 -7 -4 -13 -17 -13 -27 0 -13 -5 -18 -15 -14
-8 4 -15 2 -15 -4 0 -5 -21 -32 -47 -59 -32 -32 -67 -88 -105 -164 -60 -120
-144 -245 -177 -264 -29 -15 -103 -115 -98 -130 13 -33 178 11 271 74 75 49
112 62 139 48 l25 -13 -17 -44 c-10 -25 -22 -54 -28 -65 -28 -52 -93 -198 -89
-202 2 -2 19 21 37 52 19 31 44 71 56 88 29 42 153 295 153 312 0 4 16 43 36
88 32 72 41 98 58 167 5 19 85 260 93 280 9 20 32 134 28 138 -1 2 -18 -14
-38 -35z m-221 -539 c-4 -9 -9 -15 -11 -12 -3 3 -3 13 1 22 4 9 9 15 11 12 3
-3 3 -13 -1 -22z"/>
<path d="M8670 2414 c-14 -7 -29 -15 -34 -17 -4 -1 -10 -15 -11 -30 -4 -30
-47 -89 -100 -136 -57 -50 -60 -36 -5 20 59 60 75 85 60 94 -5 3 -10 2 -10 -4
0 -6 -8 -8 -17 -5 -14 5 -15 4 -4 -4 12 -9 12 -12 0 -25 -8 -8 -30 -22 -48
-32 -19 -10 -29 -20 -23 -24 14 -8 -91 -76 -196 -126 -68 -33 -85 -37 -92 -25
-5 8 -7 17 -4 21 7 13 66 39 86 39 10 0 18 4 18 10 0 5 6 7 13 4 8 -3 20 2 27
10 11 14 7 15 -29 12 -23 -2 -47 -8 -54 -13 -7 -5 -50 -22 -97 -38 -47 -15
-89 -32 -94 -36 -20 -18 5 -21 50 -5 60 20 70 20 49 -1 -16 -16 -15 -17 23
-29 56 -16 172 -82 172 -98 0 -15 -56 -67 -63 -60 -3 3 -8 -8 -12 -25 -3 -16
-13 -35 -21 -42 -8 -6 -14 -17 -14 -24 0 -8 -3 -15 -7 -17 -11 -5 -53 -66 -53
-77 0 -5 -3 -11 -7 -13 -5 -1 -28 -28 -53 -58 -24 -30 -69 -81 -100 -113 -30
-32 -56 -63 -58 -68 -2 -5 -10 -9 -17 -9 -7 0 -15 -4 -17 -8 -3 -9 -110 -100
-169 -145 -20 -15 -36 -34 -36 -42 0 -22 56 -19 76 3 9 10 32 29 51 42 76 53
256 204 290 243 19 23 42 47 50 54 9 6 29 31 45 55 16 24 38 53 49 66 11 12
16 22 11 22 -4 0 0 9 9 19 10 11 16 28 14 38 -3 10 10 36 29 60 28 36 31 42
16 45 -14 3 -9 10 20 27 24 15 36 29 33 38 -3 8 3 33 14 56 11 22 20 49 20 59
0 9 17 32 37 50 63 56 126 127 180 204 52 73 52 86 3 58z"/>
<path d="M680 2410 c19 -13 30 -13 30 0 0 6 -10 10 -22 10 -19 0 -20 -2 -8
-10z"/>
<path d="M9082 2305 c-17 -37 -14 -45 4 -12 9 16 14 31 11 33 -2 2 -9 -7 -15
-21z"/>
<path d="M9056 2243 c-6 -14 -5 -15 5 -6 7 7 10 15 7 18 -3 3 -9 -2 -12 -12z"/>
<path d="M877 2189 c7 -7 15 -10 18 -7 3 3 -2 9 -12 12 -14 6 -15 5 -6 -5z"/>
<path d="M910 2160 c8 -5 20 -10 25 -10 6 0 3 5 -5 10 -8 5 -19 10 -25 10 -5
0 -3 -5 5 -10z"/>
<path d="M7608 2107 c-31 -12 -36 -28 -14 -46 11 -9 20 -7 40 12 44 41 32 57
-26 34z"/>
<path d="M1020 2086 c0 -2 7 -7 16 -10 8 -3 12 -2 9 4 -6 10 -25 14 -25 6z"/>
<path d="M1148 2083 c7 -3 16 -2 19 1 4 3 -2 6 -13 5 -11 0 -14 -3 -6 -6z"/>
<path d="M1233 2030 c1 -23 22 -27 30 -6 3 8 -1 17 -9 20 -22 9 -23 8 -21 -14z"/>
<path d="M1280 2024 c0 -13 27 -31 53 -36 22 -4 27 -2 25 11 -3 11 -13 15 -31
14 -15 -1 -27 2 -27 8 0 5 -4 9 -10 9 -5 0 -10 -3 -10 -6z m67 -20 c-3 -3 -12
-4 -19 -1 -8 3 -5 6 6 6 11 1 17 -2 13 -5z"/>
<path d="M8803 1957 c-71 -75 -99 -136 -71 -153 7 -4 8 -2 4 4 -7 12 15 52 47
87 11 11 26 30 34 42 8 13 19 21 23 18 5 -3 6 5 3 17 -4 19 -3 20 6 8 7 -9 11
-10 11 -3 0 27 -19 20 -57 -20z"/>
<path d="M8162 1981 c-6 -3 -18 -23 -27 -44 -8 -20 -19 -36 -23 -36 -19 3 -30
-3 -37 -18 -5 -14 -4 -15 6 -6 10 10 16 10 27 1 11 -10 16 -8 24 6 6 10 18 26
28 36 33 33 35 82 2 61z"/>
<path d="M7800 1960 c-6 -11 -8 -20 -5 -20 2 0 -2 -8 -10 -17 -8 -10 -14 -20
-13 -23 2 -3 -9 -19 -25 -35 -15 -17 -23 -31 -17 -33 6 -2 -1 -12 -14 -23 -21
-17 -43 -70 -38 -91 1 -5 -5 -8 -13 -8 -9 0 -15 -9 -15 -23 0 -14 -20 -43 -55
-77 -30 -30 -55 -59 -55 -65 0 -6 -10 -20 -22 -32 -13 -11 -36 -35 -53 -54
-40 -45 -178 -169 -216 -192 -52 -34 -29 -50 34 -24 18 8 39 12 47 10 12 -4
13 -3 1 5 -11 8 -8 14 15 28 41 27 46 31 192 172 72 71 132 134 132 140 0 6 9
16 20 22 11 6 26 24 35 39 8 16 21 36 29 44 23 23 53 80 61 118 4 19 11 39 15
44 5 6 8 21 8 35 0 14 4 37 7 53 6 23 4 27 -13 27 -12 0 -26 -9 -32 -20z"/>
<path d="M7527 1853 c-4 -3 -7 -12 -7 -20 0 -11 4 -11 19 -1 11 7 17 16 15 20
-6 10 -18 10 -27 1z"/>
<path d="M8021 1813 c-183 -226 -293 -345 -363 -389 -20 -13 -39 -28 -43 -34
-3 -5 -19 -10 -36 -10 -16 0 -29 -5 -29 -11 0 -6 7 -8 16 -5 9 3 12 2 9 -4 -4
-6 -12 -10 -18 -8 -20 3 -55 -12 -61 -27 -3 -8 -16 -15 -28 -15 -13 -1 -39
-15 -58 -32 l-35 -30 68 5 c52 4 72 9 86 26 10 11 23 21 29 21 6 0 12 3 14 8
2 4 39 34 83 67 82 61 229 203 300 291 22 27 54 63 71 81 34 34 65 88 56 97
-13 14 -33 3 -61 -31z"/>
<path d="M8758 1798 c-21 -39 -47 -98 -43 -98 3 0 18 27 35 60 29 57 35 85 8
38z"/>
<path d="M8435 1770 c-3 -5 1 -10 9 -10 9 0 16 5 16 10 0 6 -4 10 -9 10 -6 0
-13 -4 -16 -10z"/>
<path d="M8405 1750 c-8 -13 20 -24 36 -15 8 6 7 10 -2 16 -18 11 -26 11 -34
-1z"/>
<path d="M8529 1696 c-41 -25 -269 -196 -269 -201 0 -2 54 27 120 64 113 65
234 115 260 109 7 -2 15 3 17 9 3 9 -4 11 -26 7 -23 -5 -32 -2 -37 9 -9 25
-28 26 -65 3z"/>
<path d="M8345 1500 c-3 -5 -1 -10 4 -10 6 0 11 5 11 10 0 6 -2 10 -4 10 -3 0
-8 -4 -11 -10z"/>
<path d="M8356 1465 c-10 -8 -24 -16 -30 -18 -6 -2 -9 -7 -6 -10 3 -4 24 5 45
18 22 13 33 24 25 24 -8 0 -24 -6 -34 -14z"/>
<path d="M1601 1454 c0 -11 3 -14 6 -6 3 7 2 16 -1 19 -3 4 -6 -2 -5 -13z"/>
<path d="M1228 1053 c6 -2 18 -2 25 0 6 3 1 5 -13 5 -14 0 -19 -2 -12 -5z"/>
<path d="M1085 200 c-3 -5 -1 -10 4 -10 6 0 11 5 11 10 0 6 -2 10 -4 10 -3 0
-8 -4 -11 -10z"/>
<path d="M1720 190 c0 -5 5 -10 11 -10 5 0 7 5 4 10 -3 6 -8 10 -11 10 -2 0
-4 -4 -4 -10z"/>
<path d="M1360 163 c8 -3 18 -10 21 -15 3 -5 12 -2 19 7 11 13 8 15 -21 14
-19 0 -27 -3 -19 -6z"/>
<path d="M1000 152 c0 -8 37 -42 46 -42 3 0 -3 11 -13 25 -18 24 -33 32 -33
17z"/>
<path d="M1285 130 c3 -5 8 -10 11 -10 2 0 4 5 4 10 0 6 -5 10 -11 10 -5 0 -7
-4 -4 -10z"/>
<path d="M2155 130 c3 -5 10 -10 16 -10 5 0 9 5 9 10 0 6 -7 10 -16 10 -8 0
-12 -4 -9 -10z"/>
<path d="M1390 126 c0 -2 7 -9 15 -16 9 -7 15 -8 15 -2 0 5 -7 12 -15 16 -8 3
-15 4 -15 2z"/>
<path d="M2196 97 c3 -10 9 -15 12 -12 3 3 0 11 -7 18 -10 9 -11 8 -5 -6z"/>
<path d="M2618 3 c7 -3 16 -2 19 1 4 3 -2 6 -13 5 -11 0 -14 -3 -6 -6z"/>
</g>
</svg>
